<svg id="heart" xmlns="http://www.w3.org/2000/svg" viewBox="0 0 194.84232 189.15603"><defs><style>.cls-1{fill:#c30d23;}.cls-2{fill:#e83828;}.cls-3{fill:#036eb8;}</style></defs><title>heart</title><g id="Layer_2" data-name="Layer 2"><path class="cls-1" d="M282.67937,255.15635c-18.18412-3.382-33.98589-13.5188-48.43584-24.63226-13.47761-10.36562-26.26712-22.55413-34.17029-37.80991-4.02115-7.76217-7.55277-17.32989-6.67241-26.20642,1.10315-11.12287,10.80507-17.82057,20.92344-11.713,7.85943,4.74405,14.26841,12.98548,20.20385,19.84945a261.66612,261.66612,0,0,1,18.215,23.7634c1.29322,1.89617,4.81349,1.39507,4.65868-1.2618-1.06608-18.29638-.71173-37.35875,2.94026-55.37928,1.28294-6.33055,3.88146-15.12834,11.16523-16.74893,9.33518-2.077,17.48234,7.585,20.79247,15.04192,7.67481,17.28947,1.17611,38.00242-2.05723,55.62857l-10.60528,57.81326c-.577,3.1457,4.24072,4.49464,4.82139,1.3292l10.066-54.8736c3.00844-16.40009,8.06949-33.97283,5.562-50.7358-1.8445-12.33068-9.58072-26.15073-22.7107-28.9886-12.71636-2.74847-19.42792,8.90443-21.71884,19.56513-3.9954,18.59243-4.357,38.4399-3.25532,57.34813l4.65867-1.2618c-9.86432-14.4635-21.01766-28.93225-34.07026-40.68184-5.16123-4.646-11.57946-8.85111-18.84452-7.90107-5.89269.77057-10.76018,5.03741-13.3673,10.23778-6.87169,13.70679.93733,31.8742,8.44069,43.72412,8.11544,12.81655,19.33176,23.37556,31.25095,32.61295,15.13871,11.73253,31.7579,22.5453,50.88012,26.1018,3.14528.585,4.49355-4.23287,1.3292-4.8214Z" transform="translate(-188.12794 -119.82463)"/><path class="cls-1" d="M211.32406,182.08534c9.65179,0,9.66777-15,0-15-9.65178,0-9.66777,15,0,15Z" transform="translate(-188.12794 -119.82463)"/><path class="cls-1" d="M212.94262,155.31577c-8.18276-8.57509-20.25753-.3934-20.55244,9.85434-.26832,9.32347,3.95785,19.58755,8.14464,27.72478a80.8313,80.8313,0,0,0,39.776,37.13469c6.421,2.71507,14.44761-3.16443,10.26142-10.26142l-28.28157-47.94673-11.77933,9.0887a306.56021,306.56021,0,0,0,43.09419,35.82314c7.05276,4.85941,15.20123-5.96994,9.08869-11.77934a452.6225,452.6225,0,0,1-44.93775-49.52059l-9.0887,11.77933A127.80216,127.80216,0,0,1,241.312,201.90958l8.46983-11.01748a136.02755,136.02755,0,0,1-39.37909-14.72867c-5.41357-3.05617-10.59443.97928-11.28539,6.476-2.2482,17.88474,10.62622,33.04718,23.75441,43.405a236.28865,236.28865,0,0,0,49.82677,29.87762c7.57224,3.39166,15.1123-5.16008,9.0887-11.77933L249.47408,208.6343l-10.6066,10.6066,20.794,18.696c5.9886,5.3844,16.8914-1.7246,11.77933-9.0887l-17.67625-25.4632-10.26142,10.26142a48.40223,48.40223,0,0,1,17.24334,21.10783c3.53778,8.011,15.62924,2.1692,13.70812-5.77919a211.40349,211.40349,0,0,1-4.43889-75.45861c.40083-3.2271,1.02327-11.9936,4.77076-13.52924,5.48907-2.2493,4.55,10.16248,4.22983,12.17211-1.33158,8.35871-3.3876,16.66046-5.08963,24.95205l-10.809,52.657c-1.93414,9.4223,12.52137,13.45213,14.46418,3.98759l10.60887-51.68182c1.713-8.34479,3.56468-16.67452,5.12331-25.04933,1.379-7.4095,2.00349-15.19123-1.71422-22.05607-6.911-12.76126-23.56111-13.19593-31.15318-1.00772-3.32295,5.33462-4.41036,11.547-5.19461,17.66732a218.01141,218.01141,0,0,0-1.76177,24.66072,228.14127,228.14127,0,0,0,6.5002,56.67364l13.70813-5.77919a62.328,62.328,0,0,0-22.62462-26.4891c-6.10148-4.10415-14.5143,4.135-10.26142,10.26143l17.67625,25.4632,11.77933-9.08869-20.794-18.69605c-7.18285-6.45817-17.12707,3.44135-10.6066,10.6066l32.31313,35.50842,9.0887-11.77933a241.75709,241.75709,0,0,1-44.27159-25.65834c-11.12575-8.1649-23.78183-19.54593-21.88038-34.67219l-11.2854,6.476a149.45917,149.45917,0,0,0,42.96228,16.24079c6.03291,1.25784,12.214-5.17077,8.46983-11.01748a147.2409,147.2409,0,0,0-38.02551-40.07819c-3.02308-2.18581-7.58693-.7744-9.67506,1.93169-2.4606,3.18879-1.753,6.85207.58637,9.84764a452.62343,452.62343,0,0,0,44.93775,49.5206l9.08869-11.77933a285.31132,285.31132,0,0,1-40.05837-33.47769c-5.99126-6.00166-16.14437,1.6885-11.77933,9.0887l28.28157,47.94672,10.26142-10.26142a66.98907,66.98907,0,0,1-36.37253-35.906,63.72287,63.72287,0,0,1-2.77714-8.26513c-.43077-1.6068-.58564-3.406-1.13232-4.96559a9.6695,9.6695,0,0,1-.24234-1.96556q-2.40577.09505-1.42971.9125l-3.7854-1.024.19388.05863c6.67758,6.99773,17.27375-3.6198,10.6066-10.60661Z" transform="translate(-188.12794 -119.82463)"/><path class="cls-1" d="M265.7532,146.60536c.40412,18.124.72763,36.26173-1.16867,54.32-.91283,8.69281,12.32554,9.74677,14.7321,1.9938a238.68609,238.68609,0,0,0,9.10056-43.44029c.78947-6.83059,1.85819-14.2,1.37068-21.08177-.56321-7.95017-8.28643-10.61067-14.3733-13.86569-8.51034-4.551-16.09571,8.39326-7.57078,12.95206.45279.24213,7.95574,4.41947,8.0401,4.29953l-1.06694-2.05383-.05729,1.88541a31.43238,31.43238,0,0,0-.21528,4.71066c-.33093,5.91886-.8703,11.83728-1.712,17.70624a226.09188,226.09188,0,0,1-7.9799,34.90009l14.73209,1.99379c1.89628-18.058,1.57279-36.19615,1.16867-54.32-.21489-9.63772-15.21566-9.67227-15,0Z" transform="translate(-188.12794 -119.82463)"/><path class="cls-1" d="M201.70394,192.58c9.65179,0,9.66777-15,0-15-9.65178,0-9.66777,15,0,15Z" transform="translate(-188.12794 -119.82463)"/><path class="cls-1" d="M281.67652,241.92769a82.62116,82.62116,0,0,1,3.20482-23.00253H270.41715a34.76,34.76,0,0,1,.13859,12.07725l14.7321,1.9938c-.35588-13.89658,2.79631-28.02792,4.71594-41.74946l5.98074-42.75049-14.73209-1.9938a159.95767,159.95767,0,0,1-8.81482,73.03786c-3.32523,9.07817,11.16574,12.99263,14.46418,3.9876a170.112,170.112,0,0,0,9.35064-77.02546c-.41009-3.70693-2.53735-6.89419-6.5031-7.366-3.30046-.3927-7.70626,1.63574-8.229,5.37224l-6.2526,44.6937c-2.01084,14.37353-5.35262,29.23986-4.9799,43.79385.20669,8.071,13.2769,10.66,14.73209,1.9938a55.96848,55.96848,0,0,0-.13859-20.05244c-1.40373-7.55881-12.55375-6.71277-14.46419,0a98.08158,98.08158,0,0,0-3.74063,26.99012c.01134,9.65128,15.01136,9.66825,15,0Z" transform="translate(-188.12794 -119.82463)"/><path class="cls-1" d="M276.03434,247.26842c9.65178,0,9.66777-15,0-15-9.65179,0-9.66777,15,0,15Z" transform="translate(-188.12794 -119.82463)"/><path class="cls-1" d="M267.79556,242.106a11.5488,11.5488,0,0,0-.40611,3.9167,14.1964,14.1964,0,0,0,1.53281,5.39642,7.5019,7.5019,0,0,0,13.70812-1.79159,8.30241,8.30241,0,0,0-.75606-5.77919,4.62355,4.62355,0,0,1-.204-.4401l.75607,1.7916a5.919,5.919,0,0,1-.30488-1.17093l.2679,1.99379a5.96055,5.96055,0,0,1-.00553-1.21013l-.26791,1.99379a6.87638,6.87638,0,0,1,.14374-.71276,7.82182,7.82182,0,0,0-.75606-5.77919,7.50191,7.50191,0,0,0-13.70813,1.79159Z" transform="translate(-188.12794 -119.82463)"/><path class="cls-1" d="M269.26251,246.9464q-.17341,1.06215-.29034,2.13267a6.04861,6.04861,0,0,0,.13938,1.13753,8.54125,8.54125,0,0,0,.98144,3.05318,7.22448,7.22448,0,0,0,7.47293,3.58065,5.582,5.582,0,0,0,2.7885-.89,7.5701,7.5701,0,0,0,3.4467-4.48223l.26791-1.9938a7.46548,7.46548,0,0,0-1.024-3.78539l-.0589-.12776.75606,1.7916-.03253-.13692.26791,1.99379-.00543-.14063-.26791,1.9938.02243-.13888a5.68113,5.68113,0,0,0,.13395-2.99069,5.58185,5.58185,0,0,0-.89-2.7885,8.391,8.391,0,0,0-4.48223-3.4467,7.59156,7.59156,0,0,0-5.7792.75606l-1.5179,1.17273a7.49306,7.49306,0,0,0-1.92879,3.30951Z" transform="translate(-188.12794 -119.82463)"/><path class="cls-1" d="M283.41773,257.74553l.29443-2.04479-2.89778.77646.19583,2.15656c.05229.5758,2.74554-.08639,2.8774-.64549a55.5109,55.5109,0,0,0,1.17273-6.55215c.29732-2.64889-.05867-5.53307.64725-8.09807.15832-.57526-2.65641-.21437-2.857.51454-.553,2.00954-.34319,4.12575-.48968,6.1931a53.19594,53.19594,0,0,1-1.3303,8.45711l2.8774-.6455-.19583-2.15656c-.05309-.58454-2.79711.07727-2.89778.77646L280.52,258.522c-.04633.32178,2.77147.10074,2.89778-.77646Z" transform="translate(-188.12794 -119.82463)"/><path class="cls-1" d="M284.30941,257.76633c.088-1.1417.159-2.28422.20165-3.42858.03192-.85655-.28182-2.85081.23124-3.576.60264-.85178-2.20634-.47244-2.643.14475-.63708.90046-.42811,1.99629-.452,3.06327-.03422,1.5267-.11829,3.05055-.23563,4.573-.03959.51367,2.82559.16013,2.89778-.77645Z" transform="translate(-188.12794 -119.82463)"/><path class="cls-1" d="M284.12837,257.70584a21.72213,21.72213,0,0,0,.57657-6.17062c-.00427-.45822-2.90541-.042-2.89778.77646a20.80817,20.80817,0,0,1-.53582,5.90863c-.16066.57041,2.65135.21578,2.857-.51447Z" transform="translate(-188.12794 -119.82463)"/><path class="cls-1" d="M284.1697,257.64477q.26609-1.59673.39788-3.20907c.1034-1.26447-2.82083-.74475-2.90819.32354q-.13192,1.61337-.39789,3.20907c-.20279,1.21688,2.729.75162,2.9082-.32354Z" transform="translate(-188.12794 -119.82463)"/><path class="cls-1" d="M284.287,257.94513a13.96377,13.96377,0,0,0,.18463-2.99817c-.00918-.2488-.40361-.43242-.5847-.48464a2.14677,2.14677,0,0,0-1.09093.02667c-.60547.16223-1.24743.54918-1.22215,1.23443a11.88642,11.88642,0,0,1-.20167,2.52053c-.22648,1.2688,2.71346.82923,2.91482-.29882Z" transform="translate(-188.12794 -119.82463)"/><path class="cls-1" d="M283.09415,258.11011v-2.34346c0-.65875-.73839-.758-1.27192-.699-.44545.04921-1.63471.395-1.63471,1.02841v2.34346c0,.65875.73839.758,1.27192.699.44545-.04921,1.63471-.395,1.63471-1.02841Z" transform="translate(-188.12794 -119.82463)"/><path class="cls-1" d="M209.61174,156.38219c.96219,0,3.11725-1.44454,1.18051-1.44454-.96219,0-3.11725,1.44454-1.18051,1.44454Z" transform="translate(-188.12794 -119.82463)"/><path class="cls-1" d="M209.87853,154.04141l.52217,1.29379,2.81777-.868a14.82082,14.82082,0,0,0-4.66091-2.9311c-.41119-.16636-2.98074.16208-2.81777.868.7002,3.03315.84872,2.7376-1.40544,4.12568-2.26851,1.39691-3.42782,3.6331-4.268,6.10142-2.18812,6.42848-5.8932,13.51505-5.01971,20.43839.06162.48837,2.89325-.08312,2.89778-.77646.02171-3.32382.20026-6.61787.538-9.925.03092-.30272-2.77852-.02014-2.89778.77646a82.12278,82.12278,0,0,0-.911,12.46257c.001.38142,2.89984-.0044,2.89778-.77646a82.12278,82.12278,0,0,1,.911-12.46257l-2.89778.77646c-.33773,3.30669-.51633,6.60073-.538,9.925l2.89778-.77646c-.51729-4.1.625-7.67755,2.04256-11.48115,1.24462-3.33964,2.07376-6.94247,3.47661-10.20076a8.38791,8.38791,0,0,1,3.43433-4.13157,7.86824,7.86824,0,0,0,1.695-.83731c1.03567-1.36875.47857-2.135.04464-4.0147l-2.81777.868a14.821,14.821,0,0,1,4.66092,2.93111c.38157.34723,3.02305-.35939,2.81777-.868l-.52217-1.29379c-.25337-.62778-3.088.30519-2.89778.77646Z" transform="translate(-188.12794 -119.82463)"/><path class="cls-2" d="M282.15227,261.055c10.4716-1.447,15.16433-14.10759,20.2574-21.88744a265.73482,265.73482,0,0,1,25.85635-33.541c8.84077-9.69128,20.22968-19.29845,34.14217-19.0173,1.28592.026,4.37363-.13091,5.45388.95633,2.10034,2.11392-1.0337,4.98662-2.17781,6.38683-2.0304,2.48489-4.21039,4.862-6.41262,7.19488a174.41674,174.41674,0,0,1-14.68325,13.7884c-1.52063,1.27749.634,5.23828,2.53669,4.23062,5.56516-2.94724,11.42618-6.13476,17.85308-6.45829,7.14427-.35963,15.09738,3.65441,14.0091,11.96667-1.64722,12.58146-18.06717,18.78272-28.69483,21.36038-21.73347,5.27129-44.56066,2.1701-66.14993,8.47583-2.17964.63663-.13547,5.181,2.1538,4.51234,27.3688-7.99381,59.68732.10047,84.6017-16.14187,9.38635-6.11921,16.92123-18.79808,8.25792-28.88554-9.22855-10.74563-23.927-4.77416-34.18463.65815l2.53669,4.23062a173.00951,173.00951,0,0,0,17.65048-17.012c3.16861-3.53807,8.79064-8.40937,7.33317-13.81807-3.32982-12.357-24.69722-4.21566-31.26278-.17142-12.78786,7.877-22.55928,20.87148-31.45928,32.71q-6.77016,9.00542-12.81,18.52981c-3.95191,6.21589-7.8,16.03988-16.04141,17.1787-2.53065.3497-.98583,5.06016,1.23414,4.7534Z" transform="translate(-188.12794 -119.82463)"/><path class="cls-3" d="M257.17414,275.00915c-7.55471-.45063-15.23128-1.34195-22.799-1.33455-2.95813.0029-7.11354.6748-8.58758,3.707-1.92046,3.9505,2.1106,6.75183,5.48156,7.49825,2.50695.5551,6.28948-.19023,8.03218,1.71651,1.76691,1.9332.63647,2.38434-.46628,4.68687q-1.19184,2.48853-2.1381,5.0762c-1.10372,3.017-4.42364,10.077-.18765,12.17837,2.61276,1.29614,6.18826-.51213,8.23686-2.09047,9.03889-6.964,11.62232-19.51531,13.15566-30.13374.14445-1.00032-2.75649-.47757-2.88479.41089-1.13388,7.85221-2.674,16.04482-6.94583,22.87555a20.97351,20.97351,0,0,1-4.48214,5.5126q-2.23434,2.65383-6.02027.59431a7.40052,7.40052,0,0,1,.13943-3.612c.69526-4.46512,2.89529-8.84273,4.83138-12.86619,3.722-7.73479-5.28457-4.4605-9.9659-5.97985-4.17745-1.35581-7.56592-6.17912.63292-8.08512,2.13073-.49534,5.314.29158,7.50224.4221l15.2968.91244c1.00624.06,3.10816-1.37348,1.16854-1.48918Z" transform="translate(-188.12794 -119.82463)"/><path class="cls-3" d="M238.06585,278.11091c-2.7861.45845-4.53024-1.62271-7.01839-2.142a2.61359,2.61359,0,0,0-2.82327,1.1489,3.33912,3.33912,0,0,0,.568,4.26142c1.59244,1.72021,3.70157,1.49934,5.80352,1.98921l.6646-4.9107-3.42864.04779c-2.317.0323-3.61665,3.568-1.2618,4.65868,5.19526,2.40633,12.45577,1.66205,18.05626,2.01615,3.21318.20316,3.201-4.79761,0-5l-7.9716-.504c-2.33564-.14768-5.41139.16619-7.56107-.82949l-1.26179,4.65867,3.42864-.04779c2.75275-.03838,3.479-4.25479.6646-4.9107-1.9977-.46557-2.13364-.70777-3.38335,1.09437l-2.82327,1.1489c1.6929.3533,3.21758,1.62205,4.9279,2.07064a11.01729,11.01729,0,0,0,4.74888.07134c3.16735-.52119,1.82361-5.3402-1.3292-4.8214Z" transform="translate(-188.12794 -119.82463)"/><path class="cls-3" d="M231.92733,279.69209a193.07342,193.07342,0,0,1,22.09932,1.05167c3.19648.33622,3.17285-4.66626,0-5a193.07374,193.07374,0,0,0-22.09932-1.05167c-3.21561.03117-3.22363,5.03125,0,5Z" transform="translate(-188.12794 -119.82463)"/><path class="cls-3" d="M249.52993,280.859l-.91255,4.26978c-.66942,3.13219,3.89743,4.43388,4.82139,1.32919a34.14914,34.14914,0,0,1,2.644-6.43753c1.51916-2.83585-2.79569-5.36413-4.31735-2.5236a40.82363,40.82363,0,0,0-3.148,7.63194l4.82139,1.32919.91255-4.26977c.67069-3.13811-4.14817-4.47922-4.82139-1.3292Z" transform="translate(-188.12794 -119.82463)"/><path class="cls-3" d="M243.47316,283.91726c-1.53872,6.70827-4.16576,13.2901-6.3057,19.82822h4.82139a17.30677,17.30677,0,0,1,1.27849-9.46833c1.26774-2.922-3.03859-5.471-4.31735-2.5236a23.61436,23.61436,0,0,0-1.78253,13.32112c.37679,2.62966,4.13157,2.1076,4.82139,0,2.14029-6.53919,4.76712-13.12054,6.3057-19.82821.71843-3.13211-4.10115-4.46923-4.82139-1.3292Z" transform="translate(-188.12794 -119.82463)"/><path class="cls-3" d="M242.16941,306.65675a50.59665,50.59665,0,0,0,11.0868-20.38527c.8512-3.10771-3.97105-4.43378-4.82139-1.3292a44.89587,44.89587,0,0,1-9.80094,18.17894c-2.12835,2.40011,1.39537,5.949,3.53553,3.53553Z" transform="translate(-188.12794 -119.82463)"/><path class="cls-3" d="M244.65278,305.045c5.26707-5.2192,7.854-12.06148,10.24-18.93392,1.05754-3.046-3.77086-4.355-4.82139-1.3292-2.10293,6.05707-4.308,12.12373-8.95413,16.72759-2.289,2.26819,1.24644,5.80381,3.53553,3.53553Z" transform="translate(-188.12794 -119.82463)"/></g></svg>