<?xml version="1.0" encoding="utf-8"?>
<!-- Generator: Adobe Illustrator 23.0.1, SVG Export Plug-In . SVG Version: 6.00 Build 0)  -->
<svg version="1.1" id="Layer_1" xmlns="http://www.w3.org/2000/svg" xmlns:xlink="http://www.w3.org/1999/xlink" x="0px" y="0px"
	 viewBox="0 0 1000 1000" style="enable-background:new 0 0 1000 1000;" xml:space="preserve">
<g>
	<g>
		<path d="M312.02,451.35c-10.46,50.91-20.92,101.81-31.39,152.72c-5.08,24.72-11.36,49.52-14.81,74.53
			c-1.58,11.43-2.03,23.03,0.69,34.33c2.47,10.28,7.72,19.47,14.32,27.63c13.3,16.46,32.49,28.2,50.77,38.33
			c20.55,11.38,43.4,22.46,66.61,26.91c24.97,4.79,48.79-3.14,72.77-9.37c24.57-6.38,49.13-12.77,73.7-19.15
			c47.76-12.41,95.4-24.11,140.5-44.58c10.91-4.95,21.67-10.28,32.18-16.05c9.87-5.42,17.48-12.22,21.48-22.96
			c3.65-9.77,3.93-20.68,4.07-30.99c0.18-13.04-0.58-26.09-1.94-39.06c-2.62-25.08-7.34-49.86-12.03-74.62
			c-4.63-24.43-9.3-48.86-14.9-73.1c-2.83-12.26-5.9-24.47-9.32-36.58c-2.82-9.98-4.94-22.41-13.24-29.49
			c-7.31-6.24-17.2-7.43-26.47-7.12c-12.44,0.41-24.91,1.75-37.3,2.88c-49.89,4.55-99.58,11.51-148.8,20.86
			c-24.88,4.73-49.57,10.21-74.22,16.01c-12.06,2.84-24.23,5.64-36.6,6.72c-5.95,0.52-11.93,0.68-17.89,0.3
			c-5.61-0.36-10.9-1.73-16.42-2.58c-9.18-1.42-17.85,0.11-21.68,9.49c-1.54,3.78,1.68,8.21,5.24,9.23c4.28,1.22,7.7-1.5,9.23-5.24
			c-0.8,1.96-1.19,1.13,0.97,0.94c1.56-0.14,3.11,0.18,4.63,0.47c5.69,1.11,11.3,2.2,17.1,2.62c11.7,0.86,23.45-0.41,34.99-2.36
			c22.87-3.86,45.34-10.21,68.03-15c46.44-9.81,93.33-17.49,140.48-22.88c23.29-2.66,46.7-5.1,70.11-6.37
			c7.44-0.4,17.27-0.88,21.35,6.71c2.17,4.03,3.15,8.85,4.42,13.21c1.72,5.89,3.35,11.8,4.91,17.73
			c12,45.64,20.85,92.5,28.43,139.06c3.77,23.17,6.37,46.62,5.88,70.13c-0.2,9.28-0.24,19.7-4.98,28
			c-4.93,8.62-16.05,12.73-24.49,17.05c-20,10.23-40.68,19.05-61.91,26.39c-22.01,7.61-44.58,13.4-67.1,19.25
			c-23.29,6.05-46.58,12.1-69.87,18.15c-22.84,5.94-45.73,13.06-68.91,17.51c-22.95,4.4-44.48-2.97-65.32-12.13
			c-19.31-8.49-38.34-18.74-55.27-31.37c-15.54-11.59-28.98-27.01-30.36-47.15c-0.74-10.83,0.99-21.57,3.08-32.15
			c2.29-11.58,4.74-23.13,7.12-34.7c9.79-47.64,19.58-95.29,29.37-142.93c2.41-11.75,4.83-23.5,7.24-35.24
			C328.42,445.92,313.96,441.89,312.02,451.35L312.02,451.35z"/>
	</g>
</g>
<g>
	<g>
		<path d="M398.25,443.51c-4.68-18.65-7.82-37.62-9.15-56.81c-1.26-18.19-1.6-36.98,1.43-55.02c4.86-28.95,21.63-62,53.63-67.3
			c14.18-2.35,30.91,2.06,39.98,13.79c2.49,3.23,6.42,4.88,10.26,2.69c3.17-1.81,5.16-7.06,2.69-10.26
			c-10.49-13.57-25.97-21-43.07-21.72c-17.41-0.74-33.87,6.43-46.77,17.83c-29.92,26.43-34.9,68.93-33.82,106.54
			c0.72,25.02,4.26,49.97,10.34,74.25C386.13,456.85,400.6,452.89,398.25,443.51L398.25,443.51z"/>
	</g>
</g>
<g>
	<g>
		<path d="M422.28,438.82c3.47-26.38,12.99-51.7,23.74-75.87c9.42-21.17,18.51-44.23,32.77-62.71c6.17-8,13.91-15.16,23.28-19.2
			c10.27-4.42,21.8-4.38,32.47-1.54c23.64,6.29,40.71,24.84,54.07,44.37c16.51,24.15,34.16,50.16,35.12,80.31
			c0.31,9.63,15.31,9.67,15,0c-0.5-15.68-4.31-30.65-11.15-44.75c-6.08-12.53-13.81-24.43-21.36-36.12
			c-14.8-22.9-32.61-44.72-58.56-55.19c-24.14-9.74-50.49-6.3-70.01,11.28c-18.78,16.92-28.9,41.85-39.29,64.31
			c-14.09,30.49-26.69,61.59-31.09,95.11c-0.53,4.02,3.83,7.5,7.5,7.5C419.27,446.32,421.75,442.85,422.28,438.82L422.28,438.82z"/>
	</g>
</g>
<g>
	<g>
		<path d="M448.09,311.57c-4.56-0.01-8.31-2.34-13.11-1.46c-3.72,0.69-7.17,2.52-10.01,5c-6.5,5.69-9.24,14.57-11.42,22.65
			c-4.08,15.09-5.31,32.72,4.6,45.9c4.04,5.38,14.39,4.42,13.98-3.79c-0.84-16.52,2.76-32.55,10.85-47.01
			c-4.66-1.26-9.32-2.52-13.98-3.79c0.49,5.39,0.51,10.82-0.33,16.18c-0.63,4.03,1.03,8.02,5.24,9.23c3.66,1.05,8.46-1.27,9.23-5.24
			c1.53-7.98,3.81-15.79,7.14-23.21c-4.32,0-8.63,0-12.95,0c1.41,2.21,1.46,3.81,0.04,6.07c-5.15,8.2,7.82,15.73,12.95,7.57
			c4.11-6.54,4.12-14.69-0.04-21.21c-2.74-4.3-10.51-5.44-12.95,0c-3.88,8.64-6.87,17.48-8.66,26.8c4.82,1.33,9.64,2.66,14.46,3.99
			c1.06-6.75,1.48-13.36,0.87-20.17c-0.63-6.98-10.08-10.75-13.98-3.79c-9.32,16.65-13.87,35.5-12.9,54.58
			c4.66-1.26,9.32-2.52,13.98-3.79c-6.93-9.21-6.4-20.56-3.86-31.3c1.28-5.42,2.64-11.82,5.9-16.43c4.15-5.88,9.06-1.8,14.95-1.79
			C457.74,326.59,457.75,311.59,448.09,311.57L448.09,311.57z"/>
	</g>
</g>
<g>
	<g>
		<path d="M455.95,430.68c5.41-30.71,19.84-60.12,42.35-81.93c10.18-9.86,24.32-19.54,39.26-16.92
			c13.5,2.37,23.45,13.39,30.32,24.53c9.81,15.9,15.69,34.28,19.25,52.52c1.85,9.46,16.31,5.46,14.46-3.99
			c-3.62-18.51-9.76-37.12-19.22-53.51c-8.11-14.04-19.65-27.04-35.31-32.52c-35.74-12.51-67.56,23.5-83.99,50.54
			c-10.66,17.54-18.03,37.1-21.59,57.31C439.82,436.13,454.27,440.18,455.95,430.68L455.95,430.68z"/>
	</g>
</g>
<g>
	<g>
		<path d="M482.71,362.69c17.22,13.67,23.32,35.34,28.88,55.68c4.82-1.33,9.64-2.66,14.46-3.99c-0.41-1.12-0.81-2.24-1.22-3.37
			c-3.25-9.01-17.75-5.12-14.46,3.99c0.41,1.12,0.81,2.24,1.22,3.37c3.23,8.95,17.05,5.46,14.46-3.99
			c-6.19-22.64-13.6-47.1-32.74-62.3c-3.2-2.54-7.48-3.06-10.61,0C480.07,354.67,479.54,360.18,482.71,362.69L482.71,362.69z"/>
	</g>
</g>
<g>
	<g>
		<path d="M522.16,335.06c17.22,22.4,25.97,49.77,24.64,78.01c-0.46,9.65,14.54,9.63,15,0c1.44-30.56-8.03-61.31-26.68-85.59
			c-2.49-3.24-6.42-4.87-10.26-2.69C521.67,326.61,519.7,331.86,522.16,335.06L522.16,335.06z"/>
	</g>
</g>
<g>
	<g>
		<path d="M403.54,458.86c-4.39,19.13-3.3,38.68-2.01,58.1c1.32,19.86,3.17,39.68,5.55,59.44c4.76,39.55,11.51,78.86,20.36,117.7
			c4.99,21.91,10.66,43.66,16.95,65.24c2.69,9.25,17.17,5.31,14.46-3.99c-21.72-74.58-35.81-151.32-41.63-228.79
			c-1.58-21.02-3.97-42.95,0.79-63.72C420.15,453.45,405.7,449.44,403.54,458.86L403.54,458.86z"/>
	</g>
</g>
<g>
	<g>
		<path d="M347.98,514.24c-0.94,4.62-2.36,7.69-5.24,11.51c-2.44,3.24-0.52,8.39,2.69,10.26c3.84,2.25,7.81,0.55,10.26-2.69
			c3.34-4.42,5.65-9.67,6.76-15.09c0.81-3.97-1.15-8.1-5.24-9.23C353.5,507.99,348.79,510.26,347.98,514.24L347.98,514.24z"/>
	</g>
</g>
<g>
	<g>
		<path d="M366.39,520.66c-0.38,2.99-0.75,5.98-1.13,8.96c-0.49,3.91,3.8,7.67,7.5,7.5c4.48-0.2,6.97-3.31,7.5-7.5
			c0.38-2.99,0.75-5.98,1.13-8.96c0.49-3.91-3.8-7.67-7.5-7.5C369.41,513.36,366.92,516.47,366.39,520.66L366.39,520.66z"/>
	</g>
</g>
<g>
	<g>
		<path d="M463.85,497.81c-1.83,3.75-3.67,7.5-5.5,11.26c-1.72,3.52-1.07,8.27,2.69,10.26c3.37,1.78,8.42,1.07,10.26-2.69
			c1.83-3.75,3.67-7.5,5.5-11.26c1.72-3.52,1.07-8.27-2.69-10.26C470.74,493.34,465.69,494.05,463.85,497.81L463.85,497.81z"/>
	</g>
</g>
<g>
	<g>
		<path d="M482.99,508.64c-4.14,3.52-7.61,7.91-10.14,12.72c-1.82,3.47-1,8.31,2.69,10.26c3.46,1.83,8.31,1.02,10.26-2.69
			c0.53-1.01,1.09-2,1.71-2.97c0.27-0.43,0.56-0.85,0.85-1.26c0.11-0.16,1.1-1.42,0.43-0.6c1.45-1.77,3.07-3.37,4.81-4.86
			c3-2.55,2.82-8.02,0-10.61C490.41,505.71,486.19,505.92,482.99,508.64L482.99,508.64z"/>
	</g>
</g>
<g>
	<g>
		<path d="M640.88,658.69c-3.73,4.12-7.45,8.24-11.18,12.36c-2.72,3-2.97,7.64,0,10.61c2.76,2.76,7.88,3.02,10.61,0
			c3.73-4.12,7.45-8.24,11.18-12.36c2.72-3,2.97-7.64,0-10.61C648.73,655.93,643.61,655.68,640.88,658.69L640.88,658.69z"/>
	</g>
</g>
<g>
	<g>
		<path d="M655.97,682.29c-3.7,2.52-7.56,4.57-11.66,5.97c-3.83,1.31-6.36,5.15-5.24,9.23c1.03,3.73,5.38,6.55,9.23,5.24
			c5.39-1.84,10.53-4.27,15.24-7.48c3.34-2.28,4.84-6.59,2.69-10.26C664.3,681.67,659.34,680,655.97,682.29L655.97,682.29z"/>
	</g>
</g>
<g>
	<g>
		<path d="M356.83,636.83c0.58,0.32,1.15,0.66,1.7,1.04c0.21,0.14,1.05,0.79,0.14,0.06c-1.01-0.8,0.15,0.14,0.27,0.25
			c0.44,0.39,0.87,0.8,1.28,1.22c0.41,0.42,1.91,2.35,0.53,0.51c1.21,1.62,2.45,2.89,4.48,3.45c1.8,0.49,4.19,0.27,5.78-0.76
			c3.1-2,5.2-6.9,2.69-10.26c-2.57-3.44-5.5-6.35-9.3-8.47c-3.43-1.91-8.34-0.94-10.26,2.69
			C352.27,630.1,353.17,634.79,356.83,636.83L356.83,636.83z"/>
	</g>
</g>
<g>
	<g>
		<path d="M335.19,693.07c3.84,9.75,10.77,17.93,20.5,22.2c3.71,1.63,8.05,1.09,10.26-2.69c1.86-3.18,1.04-8.62-2.69-10.26
			c-5.98-2.62-11.16-7.03-13.61-13.23c-1.49-3.77-5.02-6.39-9.23-5.24C336.84,684.83,333.7,689.28,335.19,693.07L335.19,693.07z"/>
	</g>
</g>
</svg>
