<?xml version="1.0" encoding="utf-8"?>
<!-- Generator: Adobe Illustrator 23.0.1, SVG Export Plug-In . SVG Version: 6.00 Build 0)  -->
<svg version="1.1" id="Layer_1" xmlns="http://www.w3.org/2000/svg" xmlns:xlink="http://www.w3.org/1999/xlink" x="0px" y="0px"
	 viewBox="0 0 1000 1000" style="enable-background:new 0 0 1000 1000;" xml:space="preserve">
<style type="text/css">
	.st0{fill:#EA5514;}
</style>
<g>
	<g>
		<path d="M72.54,601.72c1.53-40.59,3.05-81.18,4.58-121.76c0.76-20.13,1.51-40.26,2.27-60.39c0.71-18.8-0.12-38.77,6.36-56.72
			c10.02-27.73,39.1-42.6,64.8-52.78c16.76-6.64,33.88-12.4,50.84-18.47c19.26-6.9,38.47-13.96,57.8-20.67
			c17.44-6.06,37.3-11.86,55.26-4.37c18,7.51,21.39,26.17,23.96,43.51c0.59,4,5.67,6.24,9.23,5.24c4.29-1.2,5.84-5.19,5.24-9.23
			c-2.55-17.23-6.43-35.12-20.9-46.42c-14.21-11.1-32.7-13.1-50.04-10.42c-20.63,3.19-40.52,12.13-60.07,19.12
			c-20.12,7.2-40.26,14.36-60.36,21.61c-29.35,10.59-60.73,23.23-79.86,49.2c-11.16,15.15-14.86,33.38-16.06,51.82
			c-1.39,21.35-1.73,42.81-2.54,64.19c-1.84,48.84-3.67,97.67-5.51,146.51C57.18,611.38,72.18,611.36,72.54,601.72L72.54,601.72z"/>
	</g>
</g>
<g>
	<g>
		<path d="M121.71,313.21c-0.36,21.46-2.25,42.84-5.81,64.01c-1.59,9.44,12.86,13.5,14.46,3.99c3.79-22.49,5.96-45.19,6.35-68
			C136.87,303.55,121.87,303.55,121.71,313.21L121.71,313.21z"/>
	</g>
</g>
<g>
	<g>
		<path d="M169.1,301.95c-0.1,15.6-1.77,31-5.1,46.23c-2.06,9.41,12.4,13.43,14.46,3.99c3.61-16.51,5.53-33.32,5.64-50.22
			C184.16,292.29,169.16,292.28,169.1,301.95L169.1,301.95z"/>
	</g>
</g>
<g>
	<g>
		<path d="M212.75,284.26c-1.14,15.05-3.32,29.93-6.51,44.68c-2.04,9.41,12.42,13.43,14.46,3.99c3.47-16.04,5.81-32.3,7.05-48.67
			C228.47,274.63,213.47,274.67,212.75,284.26L212.75,284.26z"/>
	</g>
</g>
<g>
	<g>
		<path d="M263.94,269.74c-1.31,13.93-2.63,27.87-3.94,41.8c-0.91,9.61,14.1,9.54,15,0c1.31-13.93,2.63-27.87,3.94-41.8
			C279.85,260.13,264.85,260.2,263.94,269.74L263.94,269.74z"/>
	</g>
</g>
<g>
	<g>
		<path d="M82.44,514.37c72.53,21.47,145.05,42.95,217.58,64.42c72.53,21.47,145.05,42.95,217.58,64.42
			c40.9,12.11,81.79,24.22,122.69,36.33c9.28,2.75,13.24-11.73,3.99-14.46c-72.53-21.47-145.05-42.95-217.58-64.42
			c-72.53-21.47-145.05-42.95-217.58-64.42c-40.9-12.11-81.79-24.22-122.69-36.33C77.16,497.16,73.19,511.63,82.44,514.37
			L82.44,514.37z"/>
	</g>
</g>
<g>
	<g>
		<path class="st0" d="M108.11,401.87c0.53,4.6,0.61,9.21,0,13.81c-0.37,2.75-2.25,6.61-0.57,9.16c0.79,1.2,2.14,1.5,3.42,0.9
			c0.1-0.05,0.21-0.1,0.31-0.15c0.8-0.38,1.2-1.33,1.24-2.16c0.01-0.13,0.01-0.27,0.02-0.4c0.06-1.45-1.2-2.36-2.5-2.5
			c-0.08-0.01-0.16-0.02-0.23-0.02c-3.2-0.34-3.17,4.66,0,5c0.08,0.01,0.16,0.02,0.23,0.02c-0.83-0.83-1.67-1.67-2.5-2.5
			c-0.01,0.13-0.01,0.27-0.02,0.4c0.41-0.72,0.83-1.44,1.24-2.16c-0.1,0.05-0.21,0.1-0.31,0.15c1.14,0.3,2.28,0.6,3.42,0.9
			c-0.31-0.47,1.03-4.85,1.14-5.63c0.18-1.26,0.32-2.53,0.41-3.8c0.27-3.68,0.12-7.35-0.3-11.01
			C112.75,398.72,107.74,398.68,108.11,401.87L108.11,401.87z"/>
	</g>
</g>
<g>
	<g>
		<path class="st0" d="M111.27,404.5c45.09-8.37,103.96-13.71,134.2,29.21c1.84,2.61,6.18,0.11,4.32-2.52
			c-13.36-18.97-34.5-30.43-56.93-35.1c-27.45-5.72-55.73-1.46-82.92,3.59C106.78,400.27,108.12,405.09,111.27,404.5L111.27,404.5z"
			/>
	</g>
</g>
<g>
	<g>
		<path class="st0" d="M107.44,427.74c22.07,7.85,45.57,11.49,68.99,10.39c11.7-0.55,23.16-2.72,34.77-4.12
			c12.78-1.53,25.62-1.47,38.4,0.07c3.19,0.38,3.16-4.62,0-5c-12.15-1.47-24.38-1.62-36.56-0.28c-11.62,1.27-23.09,3.56-34.78,4.23
			c-23.62,1.36-47.21-2.2-69.48-10.12C105.73,421.84,104.42,426.67,107.44,427.74L107.44,427.74z"/>
	</g>
</g>
<g>
	<g>
		<path class="st0" d="M115.69,399.59c32.39-22.08,66.73-41.24,102.61-57.05c17.95-7.91,36.5-15.97,55.56-20.77
			c19.41-4.88,38.62-3.18,57.27,3.85c20.16,7.6,38.23,19.91,55.8,32.17c-0.17-1.31-0.34-2.62-0.51-3.93
			c-36.71,42.5-99.8,44.3-140.7,81.35c-2.39,2.16,1.15,5.69,3.54,3.54c40.92-37.06,103.85-38.68,140.7-81.35
			c1.11-1.29,0.88-2.96-0.51-3.93c-30.49-21.26-65.38-44.11-104.38-38.95c-20.34,2.69-39.95,11.26-58.74,19.15
			c-18.27,7.67-36.18,16.18-53.66,25.51c-20.48,10.93-40.33,23.01-59.52,36.09C110.52,397.07,113.02,401.41,115.69,399.59
			L115.69,399.59z"/>
	</g>
</g>
<g>
	<g>
		<path class="st0" d="M105.28,411.73c-11.13,16.85-20.45,34.72-27.98,53.45c-1.2,2.98,3.63,4.28,4.82,1.33
			c7.37-18.32,16.6-35.79,27.48-52.26C111.37,411.56,107.04,409.06,105.28,411.73L105.28,411.73z"/>
	</g>
</g>
<g>
	<g>
		<path class="st0" d="M249.88,431.48c-19.22,28.5-31.71,61.1-36.43,95.16c-0.44,3.15,4.38,4.51,4.82,1.33
			c4.66-33.68,16.92-65.77,35.93-93.96C256,431.33,251.67,428.83,249.88,431.48L249.88,431.48z"/>
	</g>
</g>
<g>
	<g>
		<path class="st0" d="M76.68,465.99c0.84,7.67,1.68,15.34,2.52,23.01c0.13,1.19,0.7,2,1.84,2.41
			c43.72,15.64,88.4,28.49,133.75,38.46c3.14,0.69,4.48-4.13,1.33-4.82c-45.35-9.97-90.03-22.82-133.75-38.46
			c0.61,0.8,1.22,1.61,1.84,2.41c-0.84-7.67-1.68-15.34-2.52-23.01C81.33,462.83,76.33,462.79,76.68,465.99L76.68,465.99z"/>
	</g>
</g>
<g>
	<g>
		<path class="st0" d="M358.98,335.35c3.22,0,3.22-5,0-5C355.77,330.35,355.76,335.35,358.98,335.35L358.98,335.35z"/>
	</g>
</g>
<g>
	<g>
		<path class="st0" d="M359.63,335.26c13.63-4.12,27.51-5.9,41.63-3.44c12.78,2.23,24.95,7.06,36.97,11.79c0-1.61,0-3.21,0-4.82
			c-16.69,4.74-33.37,9.48-50.06,14.22c-3.09,0.88-1.78,5.7,1.33,4.82c16.69-4.74,33.37-9.48,50.06-14.22
			c2.55-0.72,2.19-3.96,0-4.82c-13.17-5.18-26.5-10.37-40.6-12.36c-13.79-1.94-27.41,0-40.66,4.01
			C355.23,331.36,356.54,336.19,359.63,335.26L359.63,335.26z"/>
	</g>
</g>
<g>
	<g>
		<path class="st0" d="M442.34,344.38c22.62-0.1,44.61,6.05,63.91,17.86c0-1.44,0-2.88,0-4.32c-41,18.4-82.63,35.83-123.01,55.56
			c-31.28,15.29-62.98,35.37-77.99,68.18c-9.5,20.76-11.92,43.73-13.61,66.25c0.83-0.83,1.67-1.67,2.5-2.5
			c-26.21-1.48-51.74-8.41-75.1-20.4c-2.86-1.47-5.39,2.85-2.52,4.32c24.16,12.4,50.51,19.56,77.62,21.08
			c1.42,0.08,2.4-1.21,2.5-2.5c1.49-19.85,3.48-40.1,10.83-58.78c6.63-16.86,17.93-31.09,31.76-42.65
			c28.78-24.04,65.59-37.58,99.41-52.76c23.38-10.49,46.75-20.98,70.13-31.48c1.79-0.8,1.46-3.42,0-4.32
			c-20.02-12.25-42.97-18.64-66.43-18.54C439.13,339.4,439.12,344.4,442.34,344.38L442.34,344.38z"/>
	</g>
</g>
<g>
	<g>
		<path class="st0" d="M291.69,549.13c45.6,14.7,91.21,29.41,137.36,42.29c23.06,6.44,46.26,12.41,69.61,17.7
			c11.19,2.53,22.43,4.91,33.39,8.33c11.56,3.61,22.31,8.96,33.33,13.87c23.77,10.59,49.16,15.72,74.59,20.58
			c3.14,0.6,4.49-4.22,1.33-4.82c-22.66-4.33-45.55-8.68-67.03-17.36c-11.13-4.49-21.71-10.23-32.97-14.41
			c-10.47-3.88-21.35-6.51-32.23-8.98c-46.62-10.58-92.61-23.24-138.29-37.33c-25.99-8.01-51.87-16.36-77.76-24.71
			C289.95,543.32,288.64,548.15,291.69,549.13L291.69,549.13z"/>
	</g>
</g>
<g>
	<g>
		<path class="st0" d="M669.98,652.93c9.23-2.51,18.47-5.01,27.7-7.52c7.55-2.05,15.75-3.52,22.13-8.31
			c2.54-1.91,0.05-6.25-2.52-4.32c-6.5,4.87-15.1,6.22-22.79,8.31c-8.62,2.34-17.24,4.68-25.86,7.02
			C665.55,648.95,666.86,653.77,669.98,652.93L669.98,652.93z"/>
	</g>
</g>
<g>
	<g>
		<path class="st0" d="M732.29,626.15c15.35-3.65,30.46-8.15,45.3-13.51c3-1.08,1.71-5.92-1.33-4.82
			c-14.84,5.35-29.95,9.86-45.3,13.51C727.83,622.08,729.15,626.9,732.29,626.15L732.29,626.15z"/>
	</g>
</g>
<g>
	<g>
		<path class="st0" d="M794.38,602.76c15.24-5.39,30.73-10.01,46.44-13.83c3.12-0.76,1.8-5.58-1.33-4.82
			c-15.71,3.83-31.2,8.44-46.44,13.83C790.04,599,791.33,603.84,794.38,602.76L794.38,602.76z"/>
	</g>
</g>
<g>
	<g>
		<path class="st0" d="M850.15,583.19c14.4-5.04,28.8-10.07,43.2-15.11c3.02-1.06,1.72-5.89-1.33-4.82
			c-14.4,5.04-28.8,10.07-43.2,15.11C845.81,579.43,847.1,584.26,850.15,583.19L850.15,583.19z"/>
	</g>
</g>
<g>
	<g>
		<path class="st0" d="M909.9,557.04c7.5-6.56,14.43-13.68,20.8-21.35c2.04-2.46-1.48-6.01-3.54-3.54
			c-6.37,7.67-13.3,14.78-20.8,21.35C903.94,555.63,907.49,559.15,909.9,557.04L909.9,557.04z"/>
	</g>
</g>
<g>
	<g>
		<path class="st0" d="M884.06,433.08c3.23-0.27,6.34,0.18,9.28,1.57c2.89,1.37,5.43-2.94,2.52-4.32c-3.72-1.77-7.68-2.6-11.8-2.26
			C880.88,428.35,880.85,433.35,884.06,433.08L884.06,433.08z"/>
	</g>
</g>
<g>
	<g>
		<path class="st0" d="M908.49,442.47c8.77,6.86,16.91,14.39,24.42,22.6c2.18,2.38,5.71-1.16,3.54-3.54
			c-7.52-8.21-15.66-15.75-24.42-22.6C909.52,436.98,905.95,440.49,908.49,442.47L908.49,442.47z"/>
	</g>
</g>
<g>
	<g>
		<path class="st0" d="M509.3,365.59c11.05,0.88,22.06-0.91,33.13,0.32c11.51,1.28,22.72,4.42,33.91,7.3
			c21.55,5.53,43.29,10.33,65.16,14.37c43.34,8,86.98,12.49,130.94,15.14c23.59,1.42,47.6,3.52,69.42,13.32
			c2.91,1.31,5.46-3,2.52-4.32c-18.53-8.33-38.5-11.48-58.62-13.09c-22.02-1.77-44.07-2.65-66.06-4.88
			c-45.97-4.67-91.6-12.69-136.42-23.93c-12.38-3.1-24.69-6.72-37.37-8.47c-12.27-1.7-24.38,0.23-36.63-0.75
			C506.09,360.34,506.11,365.34,509.3,365.59L509.3,365.59z"/>
	</g>
</g>
<g>
	<g>
		<path class="st0" d="M398.11,430.65c-17.42,7.38-34.32,15.49-47.06,29.9c-5.54,6.27-10.24,13.29-13.82,20.85
			c-1.67,3.52-3.12,7.15-4.32,10.86c-1.61,4.97-2.53,10.3-5.89,14.48c-2,2.49,1.52,6.05,3.54,3.54c4.94-6.16,5.96-13.96,8.75-21.15
			c3.35-8.65,8.23-16.79,14.24-23.85c12.59-14.78,29.54-22.88,47.08-30.31C403.59,433.71,401.04,429.41,398.11,430.65L398.11,430.65
			z"/>
	</g>
</g>
<g>
	<g>
		<path class="st0" d="M357.27,487.57c-3.69,4.43-8.1,9.93-9.7,15.57c-1.27,4.46,4.74,7.1,5.9,2.33c0.26-1.08-0.17-2.26-1.15-2.82
			c-0.1-0.06-0.21-0.12-0.31-0.18c-2.79-1.61-5.31,2.71-2.52,4.32c0.1,0.06,0.21,0.12,0.31,0.18c-0.38-0.94-0.77-1.88-1.15-2.82
			c0.06-0.11,0.12-0.22,0.18-0.33c0.59-0.24,1.18-0.49,1.77-0.73c-0.15-0.02-0.3-0.03-0.45-0.05c0.72,0.41,1.44,0.83,2.16,1.24
			c-0.29-0.52,3.15-5.68,3.64-6.47c1.46-2.35,3.09-4.57,4.86-6.7C362.85,488.65,359.33,485.09,357.27,487.57L357.27,487.57z"/>
	</g>
</g>
<g>
	<g>
		<path d="M665.21,742.71c-6.61-51.7-15.86-104.07-14.31-156.35c0.65-22.09,2.72-45.55,12.37-65.78c9.54-20,26.2-32.51,45.61-42.21
			c21.21-10.59,43.44-19.6,65.51-28.21c22.98-8.97,46.44-16.9,70.51-22.36c23.76-5.38,48.1-8.19,72.47-6.97
			c8.09,0.4,18.96,1.03,21.85,10.13c1.55,4.88,1.28,10.38,1.14,15.43c-0.18,6.6-0.9,13.18-1.88,19.71
			c-4.3,28.54-9.03,56.85-11.76,85.61c-2.78,29.19-4.51,58.46-6.24,87.72c-0.57,9.64,14.43,9.61,15,0
			c1.63-27.64,3.27-55.28,5.79-82.86c2.48-27.15,6.35-53.97,10.78-80.85c3.39-20.58,10.88-55.2-13.5-65.87
			c-10.47-4.58-22.82-4.36-34.03-4.3c-12.87,0.07-25.68,1.23-38.41,3.08c-51.34,7.44-99.77,27.82-146.94,48.55
			c-20.74,9.11-42.27,19.31-56.95,37.2c-14.98,18.27-21.35,41.16-24.27,64.21c-3.8,30.03-2.28,60.56,0.72,90.58
			c3.12,31.25,7.55,62.39,11.53,93.54c0.51,4.02,3.08,7.5,7.5,7.5C661.37,750.21,665.73,746.75,665.21,742.71L665.21,742.71z"/>
	</g>
</g>
<g>
	<g>
		<path d="M658.12,681.18c16.42-8.49,34.09-14.54,51.29-21.23c17.68-6.87,35.35-13.74,53.03-20.62
			c35.66-13.86,71.32-27.73,106.99-41.59c20.47-7.96,40.93-15.91,61.4-23.87c3.76-1.46,6.41-5.04,5.24-9.23
			c-1.01-3.6-5.42-6.72-9.23-5.24c-72.56,28.21-145.13,56.42-217.69,84.63c-19.63,7.63-39.85,14.5-58.6,24.18
			C641.97,672.66,649.54,685.61,658.12,681.18L658.12,681.18z"/>
	</g>
</g>
<g>
	<g>
		<path d="M720.76,468.98c-1.65,28.32-3.31,56.64-4.96,84.96c-1.61,27.55-2.94,55.18,2.45,82.43c1.87,9.46,16.33,5.46,14.46-3.99
			c-5.24-26.48-3.37-53.65-1.8-80.4c1.62-27.67,3.23-55.34,4.85-83C736.33,459.34,721.32,459.37,720.76,468.98L720.76,468.98z"/>
	</g>
</g>
<g>
	<g>
		<path d="M781,442.17c-4.21,57.68-6.31,115.5-6.3,173.34c0,9.65,15,9.67,15,0c-0.01-57.84,2.1-115.66,6.3-173.34
			C796.71,432.54,781.7,432.58,781,442.17L781,442.17z"/>
	</g>
</g>
<g>
	<g>
		<path d="M838.07,426.76c-0.18,28.04-0.37,56.08-0.55,84.12c-0.09,13.85-0.18,27.71-0.27,41.56c-0.05,6.93-0.09,13.85-0.14,20.78
			c-0.02,3.3-0.04,6.6-0.06,9.9c-0.02,2.86,0.63,7.54-0.22,9.79c1.15-1.49,2.3-2.99,3.45-4.48c-0.23,0.17-0.47,0.34-0.7,0.51
			c1.93-0.25,3.85-0.5,5.78-0.76c-0.18-0.06-0.36-0.12-0.53-0.18c1.75,1.75,3.49,3.49,5.24,5.24c-0.07-0.2-0.14-0.39-0.21-0.59
			c0,1.33,0,2.66,0,3.99c0.04-0.18,0.08-0.35,0.11-0.53c-2.41,1.84-4.82,3.67-7.23,5.51c0.15-0.01,0.29-0.01,0.44-0.02
			c9.62-0.38,9.67-15.38,0-15c-0.15,0.01-0.29,0.01-0.44,0.02c-3.15,0.12-6.53,2.23-7.23,5.51c-1.54,7.19,5.62,13.86,12.35,9.26
			c6.43-4.4,4.19-15.53,4.23-22.22c0.11-16.82,0.22-33.65,0.33-50.47c0.22-33.98,0.44-67.95,0.67-101.93
			C853.13,417.11,838.13,417.1,838.07,426.76L838.07,426.76z"/>
	</g>
</g>
<g>
	<g>
		<path d="M895.71,416.21c-6.7,52.74-9.55,105.9-8.53,159.06c0.18,9.64,15.19,9.67,15,0c-1.02-53.15,1.83-106.32,8.53-159.06
			c0.51-4.03-3.81-7.5-7.5-7.5C898.74,408.71,896.23,412.17,895.71,416.21L895.71,416.21z"/>
	</g>
</g>
</svg>
