<?xml version="1.0" encoding="utf-8"?>
<!-- Generator: Adobe Illustrator 23.0.1, SVG Export Plug-In . SVG Version: 6.00 Build 0)  -->
<svg version="1.1" id="Layer_1" xmlns="http://www.w3.org/2000/svg" xmlns:xlink="http://www.w3.org/1999/xlink" x="0px" y="0px"
	 viewBox="0 0 500 300" style="enable-background:new 0 0 500 300;" xml:space="preserve">
<style type="text/css">
	.st0{fill:#C48B49;}
</style>
<g>
	<g>
		<path class="st0" d="M34.56,116.53c1.58,11.97,3.15,23.94,4.73,35.91c0.41,3.14,5.42,3.19,5,0c-1.58-11.97-3.15-23.94-4.73-35.91
			C39.15,113.39,34.14,113.35,34.56,116.53L34.56,116.53z"/>
	</g>
</g>
<g>
	<g>
		<path class="st0" d="M37.62,119.21c8.48-8.94,20.55,0.19,21.22,10.38c0.33,5.02-1.35,9.85-4.19,13.96
			c-0.75,1.09-11.15,11.52-11.62,10.57c-1.42-2.89-5.73-0.36-4.32,2.52c3.32,6.75,12.53-1.97,15.45-4.83
			c5.95-5.83,10.16-13.71,9.67-22.21c-0.41-7.2-4.05-14.24-10.84-17.26c-6.41-2.85-14.03-1.8-18.92,3.34
			C31.87,118.01,35.4,121.55,37.62,119.21L37.62,119.21z"/>
	</g>
</g>
<g>
	<g>
		<path class="st0" d="M96.76,125.49c-13.94-1.26-12.77,26.35,2.23,25.38c6.48-0.42,11.83-6.62,11.39-13.05
			c-0.5-7.16-6.91-12.06-13.63-12.76c-3.2-0.34-3.17,4.67,0,5c3.79,0.4,7.43,3.05,8.42,6.84c1.01,3.9-1.83,8.15-5.79,8.9
			c-9.18,1.75-9.78-15.95-2.62-15.3C99.97,130.78,99.95,125.78,96.76,125.49L96.76,125.49z"/>
	</g>
</g>
<g>
	<g>
		<path class="st0" d="M129.74,127.23c-9.03,2.5-12.34,13.36-6.53,20.64c6.41,8.04,17.55,6.78,24.64,0.49
			c2.41-2.14-1.13-5.66-3.54-3.54c-4.4,3.9-11.05,5.44-15.85,1.29c-4.89-4.22-3.99-12.23,2.61-14.07
			C134.17,131.19,132.85,126.37,129.74,127.23L129.74,127.23z"/>
	</g>
</g>
<g>
	<g>
		<path class="st0" d="M154.65,128.74c0.61,6.53,3.21,21.1,11.7,22.01c9.01,0.98,8.15-18.35,7.8-23.67c-0.21-3.25-4.68-3.18-5,0
			c-0.75,7.48,2.3,22.71,12.52,21.25c3.17-0.45,1.82-5.27-1.33-4.82c-2.94,0.42-5.1-5.98-5.66-8.04c-0.76-2.76-0.81-5.55-0.53-8.39
			c-1.67,0-3.33,0-5,0c0.19,2.81,0.23,5.61-0.02,8.43c-0.11,1.24-0.46,8.46-1.79,9.27c-1.18,0.72-3.16-1.77-3.71-2.53
			c-0.89-1.21-1.44-2.95-1.97-4.35c-1.11-2.95-1.73-6.03-2.02-9.16C159.36,125.57,154.35,125.54,154.65,128.74L154.65,128.74z"/>
	</g>
</g>
<g>
	<g>
		<path class="st0" d="M190.04,126.32c1.66,6.39,3.33,12.77,4.99,19.16c0.7,2.7,4.99,2.18,4.91-0.66
			c-0.11-3.94-0.93-13.58,2.79-15.67c2.13-1.19,1.6-0.48,2.22,1.53c0.35,1.16,0.66,2.34,0.99,3.5c0.74,2.63,1.48,5.26,2.22,7.88
			c0.75,2.68,4.97,2.2,4.91-0.66c-0.07-3.18,0.09-6.29,0.65-9.42c0.1-0.58,0.46-4.2,1.08-4.48c1.29-0.56,2.71,1.28,3.36,2.03
			c3.93,4.53,6.19,10.09,6.75,16.04c0.3,3.18,5.3,3.21,5,0c-0.73-7.84-4.59-19.83-12.68-23.2c-9.34-3.9-9.28,14.01-9.17,19.03
			c1.64-0.22,3.27-0.44,4.91-0.66c-1.43-5.07-2.61-19.86-10.9-18.04c-8.02,1.77-7.32,16.07-7.14,22.11
			c1.64-0.22,3.27-0.44,4.91-0.66c-1.66-6.39-3.33-12.77-4.99-19.16C194.06,121.88,189.23,123.2,190.04,126.32L190.04,126.32z"/>
	</g>
</g>
<g>
	<g>
		<path class="st0" d="M237.98,136.48c4.94-1.52,10.27-2.64,15-4.72c3.2-1.4,5.47-4.12,4.27-7.74c-2.41-7.28-12.11-8.99-15.21-1.5
			c-2.74,6.63-0.57,15.37,5.14,19.75c5.81,4.46,14.92,3.04,15.75-5.13c0.33-3.2-4.68-3.18-5,0c-0.65,6.35-8.57,0.95-10.11-1.46
			c-1.7-2.67-2.26-6.1-1.71-9.19c0.1-0.88,0.34-1.73,0.73-2.54c3.2-1.51,4.71-1.03,4.54,1.44c0.72,1.45,0.21,2.19-1.51,2.2
			c-0.83,0.25-1.65,0.51-2.48,0.76c-3.58,1.1-7.16,2.2-10.75,3.3C233.58,132.6,234.89,137.43,237.98,136.48L237.98,136.48z"/>
	</g>
</g>
<g>
	<g>
		<path class="st0" d="M269.62,120.98c1.07,7.21,1.99,14.43,2.79,21.68c0.34,3.12,5.13,3.28,5,0c-0.11-2.84,0.03-20.47,6.76-15.52
			c1.88,1.38,3.27,5.04,4.21,7.11c1.42,3.12,2.38,6.37,3.11,9.72c0.68,3.14,5.5,1.81,4.82-1.33c-1.43-6.56-5.7-22.45-14.78-21.68
			c-9.18,0.78-9.37,15.25-9.13,21.7c1.67,0,3.33,0,5,0c-0.85-7.69-1.84-15.36-2.97-23.01C273.97,116.48,269.15,117.82,269.62,120.98
			L269.62,120.98z"/>
	</g>
</g>
<g>
	<g>
		<path class="st0" d="M300.08,122.64c5.92-0.12,11.54-1.5,16.88-4.06c2.9-1.39,0.37-5.7-2.52-4.32c-4.53,2.17-9.34,3.27-14.36,3.38
			C296.86,117.71,296.85,122.71,300.08,122.64L300.08,122.64z"/>
	</g>
</g>
<g>
	<g>
		<path class="st0" d="M305.98,110.41c-0.35,8.66,0.16,19.55,4.31,27.4c2.37,4.49,9.7,6.21,11.04-0.03
			c0.67-3.14-4.14-4.48-4.82-1.33c-1.56-0.06-2.38-0.92-2.46-2.58c-0.39-1.19-0.74-2.4-1.06-3.61c-0.48-1.82-0.88-3.66-1.2-5.51
			c-0.82-4.74-0.99-9.53-0.8-14.33C311.11,107.2,306.11,107.2,305.98,110.41L305.98,110.41z"/>
	</g>
</g>
<g>
	<g>
		<path class="st0" d="M341.36,120.92c-10.86-4.57-15.18,14.36-10.17,20.95c2.4,3.15,7.21,4.15,10.1,1.08
			c3.89-4.13,4.53-11.74,3.98-17.01c-1.55,0.42-3.11,0.84-4.66,1.26c2.67,5.78,5.78,11.27,9.37,16.53c1.8,2.64,6.14,0.14,4.32-2.52
			c-3.59-5.25-6.7-10.75-9.37-16.53c-1.02-2.2-4.91-1.17-4.66,1.26c0.25,2.46-0.31,16.04-4.52,13.23
			c-3.63-2.43-1.32-15.78,4.28-13.43C342.99,126.99,344.28,122.15,341.36,120.92L341.36,120.92z"/>
	</g>
</g>
<g>
	<g>
		<path class="st0" d="M356.57,122.13c5.94-0.96,11.78-2.29,17.55-4c3.08-0.91,1.77-5.74-1.33-4.82c-5.77,1.71-11.61,3.04-17.55,4
			C352.07,117.82,353.41,122.64,356.57,122.13L356.57,122.13z"/>
	</g>
</g>
<g>
	<g>
		<path class="st0" d="M360.44,110.37c-0.11,5.75,0.17,11.48,0.92,17.19c0.57,4.28,0.77,10.61,3.31,14.29
			c5.11,7.42,12.81-4.7,14.77-8.78c1.39-2.89-2.92-5.43-4.32-2.52c-0.79,1.64-3.18,7.08-5.03,7.29c-2.88,0.33-2.94-5.33-3.31-7.57
			c-1.1-6.59-1.47-13.23-1.35-19.9C365.5,107.15,360.5,107.15,360.44,110.37L360.44,110.37z"/>
	</g>
</g>
<g>
	<g>
		<path class="st0" d="M386.24,121.79c1.03,5.52,1.86,11.06,2.49,16.64c0.35,3.14,5.3,3.23,5,0c-0.06-0.68-0.13-1.36-0.19-2.04
			c-0.3-3.18-5.3-3.21-5,0c0.06,0.68,0.13,1.36,0.19,2.04c1.67,0,3.33,0,5,0c-0.68-6.02-1.56-12.01-2.67-17.97
			C390.48,117.31,385.66,118.64,386.24,121.79L386.24,121.79z"/>
	</g>
</g>
<g>
	<g>
		<path class="st0" d="M386.46,112.91c3.22,0,3.22-5,0-5C383.24,107.91,383.24,112.91,386.46,112.91L386.46,112.91z"/>
	</g>
</g>
<g>
	<g>
		<path class="st0" d="M398.5,121.79c0.9,5.84-2.04,14.03,4.89,17.36c5.69,2.74,11.31-3.03,12.89-8.08
			c1.59-5.06-0.02-11.02-4.92-13.57c-4.64-2.42-10.24-1.28-13.31,2.95c-1.89,2.61,2.45,5.11,4.32,2.52
			c1.58-2.18,5.01-2.16,7.12-0.79c2.83,1.84,2.88,5.83,1.56,8.61c-1.57,3.33-5.96,5.96-7.37,1.09c-1.04-3.58,0.22-7.7-0.35-11.42
			C402.83,117.29,398.02,118.64,398.5,121.79L398.5,121.79z"/>
	</g>
</g>
<g>
	<g>
		<path class="st0" d="M422.28,118.72c1.15,5.82,2.3,11.63,3.44,17.45c0.49,2.5,4.19,2.26,4.82,0c1.69-6-1.6-14.89,7.31-16.07
			c9.06-1.19,12.99,9.13,13.31,16.35c0.14,3.21,5.14,3.22,5,0c-0.42-9.67-5.49-20.9-16.58-21.44c-4.14-0.2-8.28,1.56-10.89,4.81
			c-3.7,4.61-1.51,9.82-2.97,15.01c1.61,0,3.21,0,4.82,0c-1.15-5.82-2.3-11.63-3.44-17.45
			C426.48,114.23,421.66,115.57,422.28,118.72L422.28,118.72z"/>
	</g>
</g>
</svg>
