<?xml version="1.0" encoding="utf-8"?>
<!-- Generator: Adobe Illustrator 23.0.1, SVG Export Plug-In . SVG Version: 6.00 Build 0)  -->
<svg version="1.1" id="Layer_1" xmlns="http://www.w3.org/2000/svg" xmlns:xlink="http://www.w3.org/1999/xlink" x="0px" y="0px"
	 viewBox="0 0 1000 1000" style="enable-background:new 0 0 1000 1000;" xml:space="preserve">
<style type="text/css">
	.st0{fill:#E99413;}
	.st1{fill:#040000;}
	.st2{fill:#A28A78;}
	.st3{fill:#FFFFFF;stroke:#F4F3F2;stroke-miterlimit:10;}
</style>
<g>
	<g>
		<g>
			<path class="st0" d="M226.83,413.94c7.31-16.53,15.25-32.76,23.81-48.68c-1.11,0.45-2.23,0.91-3.34,1.36
				c6.27,1.98,12.74,3.09,19.33,3.01c3.06-0.04,6.11-0.33,9.13-0.82c2.55-0.41,7.94-2.97,10.14-1.07c0.76,0.65,1.2,3.45,1.54,4.41
				c0.77,2.2,1.54,4.41,2.3,6.62c1.15,3.3,2.3,6.62,3.45,9.92c2.69,7.72,5.37,15.44,8.05,23.17c1.24,3.58,6.96,2.04,5.71-1.58
				c-2.94-8.46-5.87-16.91-8.82-25.37c-1.41-4.04-2.81-8.09-4.22-12.13c-1.08-3.11-1.75-7.2-3.86-9.82
				c-3.62-4.48-9.25-1.13-13.8-0.24c-9.2,1.79-18.45,0.99-27.36-1.82c-1.21-0.38-2.75,0.25-3.34,1.36
				c-8.56,15.92-16.5,32.16-23.81,48.68C220.19,414.4,225.29,417.42,226.83,413.94L226.83,413.94z"/>
		</g>
	</g>
	<g>
		<g>
			<path class="st0" d="M220.62,414.45c1.35,6.4,12.66,6.28,17.71,7.07c8.98,1.42,18.05,2.23,27.15,2.32
				c15.22,0.17,31.57-0.59,43.92-10.54c2.97-2.39-1.24-6.56-4.19-4.19c-10.37,8.36-24.78,8.81-37.52,8.81
				c-6.62,0-13.24-0.36-19.81-1.07c-2.36-0.26-21.05-1.69-21.53-3.99C225.53,409.14,219.83,410.72,220.62,414.45L220.62,414.45z"/>
		</g>
	</g>
	<g>
		<g>
			<path class="st0" d="M238.17,402.28c-0.62-0.51-0.38,3.23-0.11,3.81c0.66,1.39,2.06,2.52,3.49,3.03
				c4.57,1.61,8.18-1.99,10.06-5.79c3.07-6.22,1.73-17.85-7.95-15.22c-8.35,2.27-14.67,16.47-9.44,23.85
				c6.48,9.14,15.15-4.24,17.49-9.9c1.99-4.81,8.34-22.7-2.3-22.62c-3.97,0.04-5.91,3.62-7.13,6.92
				c-1.97,5.31-4.74,14.95-3.34,20.63c0.78,3.17,3.86,5.01,6.89,3.25c3.75-2.18,6.11-8.5,7.27-12.44
				c1.27-4.29,3.21-25.81-7.06-21.07c-4.1,1.89-5.23,9.64-5.65,13.45c-0.57,5.27-0.45,13.57,3.99,17.4
				c11,9.47,14.48-16.23,13.9-21.92c-0.26-2.57-4.17-4.46-5.52-1.49c-1.65,3.64-2.56,7.07-2.85,11.05c-0.3,3.8,5.64,3.78,5.92,0
				c0.23-3.01,0.79-5.31,2.05-8.07c-1.84-0.5-3.68-0.99-5.52-1.49c0.31,3.08,0.37,6.11-0.25,9.17c-0.45,2.23-1.85,9.45-5.12,5.83
				c-1.71-1.89-0.97-7.69-0.69-10.07c0.19-1.68,1.87-7.64,1.91-7.62c0.79,0.78,0.26,6.85,0.12,8.27c-0.28,2.81-0.97,5.47-2.1,8.05
				c-0.53,1.21-1.53,2.48-1.94,3.7c-0.65,0.49-0.66,0.92-0.04,1.33c0.52,0.9,0.71,0.71,0.57-0.57c0.79-1.31,0.53-4.36,0.81-5.92
				c0.32-1.86,0.71-3.7,1.16-5.53c0.34-1.39,0.59-3.06,1.2-4.36c0.94-2,1.35-2.78,1.48-0.32c0.13,2.35-1.04,5.44-1.68,7.69
				c-0.6,2.12-5.87,16.45-9.3,11.89c-1.4-1.86,1.04-7.17,2.01-8.82c1.33-2.29,2.71-4.95,5.37-3.03c1.87,1.36,1.72,1.69,1.05,3.77
				c-0.38,1.21-0.85,2.83-2.23,3.19c-2.25,0.57-0.3,0.41-0.86-0.9c-0.63-1.44-0.02-2.07-1.5-3.3
				C239.45,395.67,235.23,399.84,238.17,402.28L238.17,402.28z"/>
		</g>
	</g>
	<g>
		<g>
			<path class="st0" d="M233.73,399.32c-2.27,2.53-3.81,5.13-5,8.33c1.91,0.52,3.8,1.05,5.71,1.58c0.62-2.2,0.62-3.96,0.28-6.19
				c-0.36-2.39-3.46-2.59-4.95-1.3c-2.42,2.1-4.57,5.28-3.15,8.59c1.1,2.55,4.33,4.19,7.02,3.1c6.31-2.55,1.08-11.07-4.68-8.67
				c-5.59,2.33-4.77,14.88,2.26,13.55c6.56-1.24,5.8-12.86-1.29-12.31c-7.67,0.6-6.19,11.16,0.64,12.08
				c4.99,0.68,12.81-7.05,6.66-10.71c-6.44-3.84-9.43,6.67-4.75,10.56c5.46,4.55,13.5-1.02,11.3-7.76
				c-2.55-7.77-12.38-1.61-8.01,4.77c4.67,6.83,13.83-0.89,9.37-7.3c-1.29-1.85-3.85-1.97-5.12,0c-4.11,6.37,3.7,13.16,9.75,8.81
				c5.74-4.12,1.67-15.69-4.64-10.88c-6.37,4.86,2.48,13.38,8.55,11.14c6.56-2.42,5-12.87-2.4-11.76
				c-7.35,1.11-6.29,11.61,0.71,12.39c7.31,0.82,9.29-9.75,1.78-10.9c-7.66-1.17-8.49,9.84-2.1,12.27
				c6.49,2.46,15.46-6.43,9.59-12.14c-5.51-5.35-11.52,2.82-7.79,8.24c4.18,6.08,14.53,2.88,13.7-4.76
				c-0.83-7.67-12.06-6.49-11.74,1.05c0.33,7.82,12.66,9.72,13.94,1.53c1.17-7.5-10.15-9.45-11.25-1.85
				c-1.08,7.39,9.04,11.81,13.88,6.35c4.15-4.69,1.17-15.59-6.34-12.76c-7.59,2.87-2.81,13.24,4.32,12.15
				c7.05-1.07,10.64-13.89,1.73-12.9c-8.88,0.99-4.67,15.43,3.7,12.22c8.93-3.43,2.49-15.53-6.03-12.44
				c-5.57,2.01-13.1,16.76-2.68,15.15c2.44-0.38,2.53-3.43,1.3-4.95c-2.59-3.2-5.85-4.04-9.79-3.51c-3.27,0.44-2.3,4.77,0,5.71
				c6.35,2.58,17.41,2.95,22.03-3.36c3.61-4.94-1.76-9.71-6.96-8.23c-5.09,1.44-6.93,8.27-2.24,11.41
				c6.13,4.11,10.53-4.07,10.79-9.13c0.09-1.79-1.99-3.54-3.74-2.85c-5.12,1.99-7.9,8.2-2.97,12.26c4.38,3.61,10.47,0.38,12.7-4.15
				c2.38-4.86-0.83-10.14-6.4-9.34c-5.14,0.73-8.93,6.22-6.98,11.19c1.89,4.82,8.03,6.36,11.64,2.43
				c3.91-4.25,0.44-10.01-4.54-11.06c-5.28-1.13-11.76,2.61-10.85,8.57c0.83,5.35,6.47,6.36,10.22,3.38c1.85-1.47,0.6-4.33-1.3-4.95
				c-2.97-0.95-6.53-1.56-8.94,0.99c-1.63,1.73-2.07,4.41-0.83,6.43c3.92,6.31,13.13,0.12,16.04-3.92c1.2-1.67-0.13-3.77-1.76-4.35
				c-2.98-1.07-5.79,0.08-7.17,2.93c-0.75,1.54-0.26,4.01,1.76,4.35c4.9,0.81,10.93-2.98,11.55-8.34c0.46-4.03-3.56-7-7.13-4.69
				c-3.7,2.39-2.56,7.75,1.41,9.18c5.79,2.08,8.95-4.18,9.64-8.76c0.34-2.29-1.27-4.12-3.65-3.65c-3.6,0.72-7.78,2.69-7.5,7.12
				c0.26,4.03,4.2,5.6,7.6,4.37c3.11-1.13,6.63-4.61,5.25-8.23c-1.31-3.41-5.55-3.56-7.72-0.94c-4.97,6,5.29,13.95,9.45,6.58
				c4.42-7.83-8.66-12.46-11.18-4.44c-2.58,8.21,10,12.06,11.37,3.29c1.5-9.63-13.53-6.32-14.19,1.82
				c-0.73,9.07,13.32,6.85,16.07,0.9c3.62-7.83-8.42-13.4-10.62-5.64c-2.42,8.49,13.7,7.98,9.37-1.86
				c-1.47-3.32-5.55-3.86-7.37-0.51c-2.19,4.06,0.65,8.95,4.44,10.64c1.1,0.49,2.72,0.62,3.59-0.46c2.11-2.64,2.88-5.15,1.58-8.41
				c-0.98-2.46-3.84-2.84-5.41-0.71c-0.76,1.03-0.92,1.42-1.16,2.69c-0.53,2.85,2.69,5,4.95,2.88c5.09-4.78,1.16-14.92-6.16-10.92
				c-6.1,3.34-1.36,13.05,4.2,8.62c5.42-4.31-1.39-14.19-7.21-9.68c-5.65,4.37,2.76,12.36,6.83,5.92c4.2-6.63-4.87-12.98-9.3-6.68
				c-3.62,5.15,3.8,15.83,8.53,9.84c3.94-5-1.75-14.99-7.96-10.59c-5.71,4.06-0.66,12.61,5.68,9.9c7.09-3.02,3.02-13.29-4.12-12.12
				c-5.46,0.89-10.47,12.06-2.77,13.08c7.47,0.99,7.02-10.49,0.89-12.32c-6.31-1.87-16,8.35-8.48,12.41
				c6.61,3.58,11.97-6.58,6.6-11.1c-5.51-4.62-14.86,1.02-12.07,8.08c2.88,7.28,14.08,4.92,12.7-3.08
				c-1.17-6.8-12.06-5.99-11.97,0.95c0.09,7.89,12.36,3.87,7.95-3.61c-4.64-7.86-16.44,0.58-12.27,7.98
				c4.31,7.65,13.9-2.51,7.02-8.49c-7.08-6.16-14.51,3.94-9.17,10.42c1.47,1.79,4.38,0.68,4.95-1.3c1.26-4.35-1.36-9.63-6.42-9.63
				c-5.05,0-7.66,5.31-6.41,9.64c0.63,2.16,3.34,2.87,4.95,1.3c3.16-3.07,6.11-11.26,0.39-13.61c-4.93-2.03-9.89,4.99-7.77,9.29
				c5.53,11.23,17.86-13.49,5.4-13.89c-4.38-0.14-8.72,6.1-7.24,10.14c1.69,4.61,7.6,3.17,9.18-0.6c1.85-4.42-1.76-8.79-6.41-8.23
				c-6.3,0.76-7.33,7.67-4.39,12.26c1.09,1.69,3.16,1.86,4.65,0.6c5.21-4.44,5.31-11.97,0.64-16.83c-1.03-1.08-3.19-1.22-4.19,0
				c-3.23,3.91-4.8,8.11-4.44,13.22c0.26,3.78,6.16,3.83,5.92,0c-0.27-4.55-0.6-13.68-6.4-14.88c-6.24-1.29-8.15,5.65-8.01,10.29
				c0.11,3.33,4.84,4.03,5.82,0.78c1.22-4.06,1.1-12.67-4.93-12.93c-5.73-0.25-7.69,8.42-7.95,12.55c-0.18,2.81,4.35,4.2,5.52,1.49
				c1.87-4.33,1.86-8.21-0.46-12.4c-1.11-2.01-3.96-1.82-5.12,0c-2.48,3.9-3.04,7.86-1.98,12.33c0.6,2.51,4.15,2.84,5.41,0.71
				c3.1-5.25,4.45-10.75,4-16.85c-0.26-3.49-4.54-3.83-5.82-0.78c-1.68,4-1.27,7.88,0.88,11.61c1.1,1.92,4,1.92,5.12,0
				c2.69-4.68,4.01-9.47,4.16-14.86c-1.98,0-3.94,0-5.92,0c0.06,0.88,0.12,1.75,0.17,2.63c0.17,2.46,3.17,4.03,5.06,2.1
				c3.68-3.78,4.88-8.29,3.59-13.41c-0.58-2.29-4.36-3.1-5.41-0.71c-1.55,3.53-1.56,6.56,0.24,10c0.86,1.65,3.4,1.97,4.65,0.6
				c2.82-3.07,3.67-6.32,2.71-10.36c-0.49-2.04-3.53-3.03-4.95-1.3c-3.42,4.17-4.03,8.88-1.44,13.69c0.86,1.61,3.41,2.01,4.65,0.6
				c3.51-3.99,4.65-8.24,3.92-13.47c-0.37-2.62-4.25-2.74-5.41-0.71c-2.06,3.58-3.2,12.1,2.64,13.13c5.86,1.04,7.71-8.09,7.45-12.08
				c-0.17-2.62-4.23-4.42-5.52-1.49c-2,4.55-2.38,8.81-0.64,13.54c0.68,1.84,3.45,3.23,4.95,1.3c2.58-3.32,3.84-6.74,3.28-10.98
				c-0.39-2.98-3.67-3.94-5.52-1.49c-3.38,4.46-4.26,9.46-3.15,14.89c0.54,2.65,4.11,2.68,5.41,0.71c2.82-4.25,2.9-8.7,0.88-13.3
				c-0.98-2.24-3.97-1.59-5.12,0c-2.74,3.78-4.38,12.06,2.76,12.45c6.3,0.33,7.47-9.29,7.3-13.61c-0.12-2.9-3.97-4.07-5.52-1.49
				c-3.11,5.2-4.01,10.47-3.21,16.43c0.32,2.4,3.48,2.58,4.95,1.3c3.94-3.43,5.82-8.12,5.15-13.34c-0.36-2.83-3.8-4.15-5.52-1.49
				c-3.11,4.81-3.99,9.83-3.16,15.46c0.4,2.74,4.16,2.59,5.41,0.71c2.9-4.35,4.36-8.89,4.76-14.08c0.23-2.91-4.23-4.06-5.52-1.49
				c-2.91,5.79-4.11,11.7-3.35,18.16c0.32,2.7,3.96,4.31,5.52,1.49c2.65-4.78,3.85-9.7,3.59-15.16c-0.17-3.27-4.88-4.1-5.82-0.78
				c-1.48,5.27-2.11,10.47-1.88,15.94c0.14,3.41,4.71,3.93,5.82,0.78c1.49-4.25,2.03-8.27,1.66-12.77
				c-1.94,0.26-3.87,0.52-5.82,0.78c0.06,0.43,0.13,0.85,0.19,1.27c0.57,3.75,6.28,2.16,5.71-1.58c-0.06-0.43-0.13-0.85-0.19-1.27
				c-0.5-3.28-6.09-2.53-5.82,0.78c0.32,3.94-0.13,7.47-1.44,11.19c1.94,0.26,3.87,0.52,5.82,0.78c-0.2-4.94,0.33-9.59,1.68-14.37
				c-1.94-0.26-3.87-0.52-5.82-0.78c0.23,4.5-0.59,8.24-2.77,12.18c1.84,0.5,3.68,0.99,5.52,1.49c-0.64-5.41,0.07-10.27,2.53-15.16
				c-1.84-0.5-3.68-0.99-5.52-1.49c-0.33,4.15-1.67,7.66-3.96,11.09c1.8,0.24,3.61,0.47,5.41,0.71c-0.6-4.05,0.38-7.52,2.57-10.88
				c-1.84-0.5-3.68-0.99-5.52-1.49c0.47,3.79-0.56,6.66-3.42,9.14c1.65,0.44,3.3,0.88,4.95,1.3c-0.58-4.35,0.39-8.17,2.62-11.87
				c-1.84-0.5-3.68-0.99-5.52-1.49c0.08,2.14-0.6,4.04-0.86,6.08c-0.77,1.63-0.73,1.8,0.09,0.5c0.58-0.81,1.16-1.61,1.74-2.4
				c-1.71,0-3.41,0-5.12,0c1.16,2.63,0.63,5.06-0.88,7.32c1.8,0.24,3.61,0.47,5.41,0.71c-0.81-3.94,0.2-7.22,2.56-10.33
				c-1.84-0.5-3.68-0.99-5.52-1.49c0.34,2.56,0.17,4.6-1.54,6.79c1.65,0.44,3.3,0.88,4.95,1.3c-1.15-3.13-1.39-5.71,0.05-8.97
				c-1.84-0.5-3.68-0.99-5.52-1.49c0.08,1.36,0.06,5.95-1.92,6.32c0.96,0.25,1.92,0.51,2.88,0.76c-1.48-1.42-1.49-3.13-0.02-5.14
				c-1.8-0.24-3.61-0.47-5.41-0.71c0.43,3.03-0.44,5.47-2.4,7.71c1.55,0.2,3.1,0.4,4.65,0.6c-1.37-2.24-1.2-4.41,0.52-6.51
				c-1.65-0.44-3.3-0.88-4.95-1.3c-0.39,1.54-0.79,3.07-1.18,4.61c1.55,0.2,3.1,0.4,4.65,0.6c-0.08-1.34-0.17-2.68-0.24-4.01
				c-1.8-0.24-3.61-0.47-5.41-0.71c0.75,2.95,0.06,5.47-2.06,7.65c1.68,0.7,3.38,1.4,5.06,2.1c-0.06-0.88-0.12-1.75-0.17-2.63
				c-0.25-3.78-5.83-3.85-5.92,0c-0.11,4.39-1.17,8.09-3.34,11.87c1.71,0,3.41,0,5.12,0c-1.36-2.38-1.31-4.57-0.28-7.05
				c-1.94-0.26-3.87-0.52-5.82-0.78c0.38,5.09-0.58,9.44-3.19,13.86c1.8,0.24,3.61,0.47,5.41,0.71c-0.69-2.85-0.17-5.33,1.39-7.77
				c-1.71,0-3.41,0-5.12,0c1.34,1.98,1.49,4.11,0.46,6.42c1.84,0.5,3.68,0.99,5.52,1.49c0.19-3,3.75-9.53,1.26-1.2
				c1.94,0.26,3.87,0.52,5.82,0.78c-0.34-1.08-0.19-2.05,0.47-2.9c0.54-1.59,0.9-1.31,1.08,0.81c0.98,1.87,0.89,4.63,1.01,6.67
				c1.98,0,3.94,0,5.92,0c-0.25-3.47,0.44-6.3,2.7-9.04c-1.4,0-2.8,0-4.19,0c2.57,2.68,2.11,6.11-0.64,8.46
				c1.55,0.2,3.1,0.4,4.65,0.6c-0.01-1.18-0.02-2.37-0.04-3.55c0.85,0.49,1.71,0.98,2.56,1.47c0.47-1.72,0.41-1.56-0.17,0.49
				c0.07,1.17-0.41,1.91-1.44,2.2c0.99,0,1.99,0,2.98,0c-0.79,0.95-1.58,1.91-2.37,2.85c1.65,0.44,3.3,0.88,4.95,1.3
				c0.47,0,0.94,0,1.41-0.01c1.65-0.44,3.3-0.88,4.95-1.3c4.94-2.36,9.97-3.04,15.1-2.06c3.17-0.38,5.71,0.76,7.59,3.42
				c1.65,0.96,3.3,1.92,4.95,2.88c0.19-0.43,0.38-0.85,0.56-1.27c-1.8-0.24-3.61-0.47-5.41-0.71c-0.01,0.88-0.04,1.76-0.05,2.64
				c1.2-0.15,2.39-0.31,3.59-0.46c-0.6-1.1-1.2-2.19-1.8-3.29c-0.85,0.49-1.71,0.98-2.56,1.47c-1.44,4.69-3.14,4.55-5.08-0.41
				c1.03,0.34,2.05,0.33,3.06-0.05c-1.22-1.22-2.43-2.43-3.65-3.65c-0.11,0.99-0.3,1.98-0.56,2.95c-2.16,2.42-4.69,4.25-7.62,5.53
				c0.59,1.44,1.18,2.9,1.76,4.35c0.15-0.07,0.32-0.14,0.47-0.21c-0.59-1.44-1.18-2.9-1.76-4.35c-1.28,1.79-6.21,4.09-2.72,5.19
				c-0.44-1.65-0.88-3.3-1.3-4.95c0.57-1.58,1.61-2.27,3.14-2.11c2.19,0.05,2.12-0.38-0.21-1.27c-1.24-0.95-2.5-1.91-3.74-2.85
				c-0.37,7.01-11.62,5.45-16.12,3.61c0,1.91,0,3.8,0,5.71c1.35,0.66,2.69,1.31,4.04,1.98c0.44-1.65,0.88-3.3,1.3-4.95
				c-0.33,0.05-0.65,0.11-0.98,0.15c0.96,0.25,1.92,0.51,2.88,0.76c0.76-0.6,1.31-1.37,1.67-2.29c9.79-7.73,1.93-8.02-23.58-0.84
				c-1.71,0-3.41,0-5.12,0c-7.33-0.95-9.36-2.52-6.09-4.74c-1.65-0.44-3.3-0.88-4.95-1.3c-0.09,1.02-0.19,2.04-0.28,3.04
				c-1.03,3.73,4.41,5.09,5.71,1.58c0.85-2.32,1.82-3.88,3.47-5.72C240.46,400.67,236.29,396.48,233.73,399.32L233.73,399.32z"/>
		</g>
	</g>
	<g>
		<g>
			<path class="st0" d="M273.47,373.3c-3.98,5.22-5.71,11.3-5.13,17.84c0.31,3.46,4.54,3.86,5.82,0.78
				c1.95-4.69,2.57-12.13-1.39-16.15c-2.84-2.89-6.31-2.06-8.21,1.42c-2.23,4.07-3.26,11.48-1.42,15.89
				c1.56,3.73,5.84,4.9,8.95,2.17c5.44-4.78,5.23-24.02-5.34-22.05c-8.69,1.61-7.17,20.3-1.27,24.21c3.21,2.13,7.25,1.15,8.85-2.37
				c2.14-4.75,0.31-11.62-1.75-16.05c-1.44-3.11-4.74-9.36-9.26-7.14c-4.09,2.01-3.29,9.36-2.69,12.91c0.76,4.48,3,11.2,7.66,13.13
				c4,1.66,7.14-0.97,8.15-4.84c1.36-5.22,0.13-11.29-2.46-15.91c-1.84-3.26-6.05-9.17-10.45-7.09c-4.73,2.24-2.37,11.39-1.21,15.15
				c1.31,4.29,4.44,11.94,9.14,13.6c4.33,1.54,6.17-2.75,5.83-6.31c-0.76-7.67-4.88-14.97-9.66-20.81c-1.58-1.93-5.28-0.39-5.06,2.1
				c0.5,5.47,1.78,10.72,4.23,15.67c1.82,3.68,4.63,9.33,9.01,10.23c1.8,0.38,3.84-0.83,3.74-2.85c-0.37-8.8-3-16.83-8.08-24.05
				c-1.88-2.68-6.23-1.13-5.41,2.29c1.97,8.16,5.45,15.56,10.51,22.27c1.82,2.4,6.72,1.16,5.41-2.29
				c-2.98-7.85-6.24-15.59-9.76-23.23c-1.71,0.99-3.41,1.99-5.12,2.98c3.35,7.21,6.72,14.4,10.33,21.48c1.73,3.4,6.82,0.4,5.12-2.98
				c-3.54-7.06-6.95-14.18-10.24-21.35c-1.11,1.44-2.23,2.9-3.34,4.35c2.17,0.37,4.81,6.11,5.77,7.7c1.58,2.58,3.03,5.22,4.45,7.9
				c1.55-1.2,3.1-2.39,4.65-3.59c-3.96-5.12-7.17-10.65-9.79-16.55c-1.71,0.99-3.41,1.99-5.12,2.98c5.07,7.99,9.36,16.36,12.8,25.17
				c1.65-0.96,3.3-1.92,4.95-2.88c-3.25-3.23-4.77-7.73-6.6-11.84c-2.1-4.71-4.1-9.45-5.9-14.27c-1.65,0.96-3.3,1.92-4.95,2.88
				c5.96,6.32,11.24,13.12,15.91,20.45c1.35-1.35,2.7-2.7,4.05-4.05c-5.66-3.7-9.77-12.53-13.56-18.04c-1.55,1.2-3.1,2.39-4.65,3.59
				c4.82,5.12,9.05,10.61,12.78,16.56c1.55-1.2,3.1-2.39,4.65-3.59c-4.19-5.29-7.5-11.11-9.92-17.41c-1.65,0.96-3.3,1.92-4.95,2.88
				c5.33,4.26,9.78,9.12,13.47,14.86c0.36-1.35,0.71-2.7,1.07-4.05c1.59,0.06,1.5-0.49-0.24-1.65c-1.09-1.33-2.08-2.71-2.98-4.17
				c-1.61-2.57-2.84-5.29-3.87-8.15c-1.8,0.76-3.61,1.52-5.41,2.29c4.71,6.89,8.74,14.13,12.12,21.77c1.71-0.99,3.41-1.99,5.12-2.98
				c-4.3-6.28-6.41-13.34-8.4-20.6c-1.91,0.52-3.8,1.05-5.71,1.58c2.64,6.74,5.28,13.48,7.91,20.23c1.8-0.76,3.61-1.52,5.41-2.29
				c-3.46-6.8-6.16-13.82-8.22-21.18c-1.8,0.76-3.61,1.52-5.41,2.29c3.56,7.69,7.01,15.38,9.47,23.5c1.91-0.52,3.8-1.05,5.71-1.58
				c-2.32-6.82-4.04-13.77-5-20.93c-1.94,0.26-3.87,0.52-5.82,0.78c1.46,8.2,3.38,16.24,5.79,24.21c1.91-0.52,3.8-1.05,5.71-1.58
				c-2.4-7.62-4.8-15.24-7.2-22.86c-1.16-3.7-6.32-2.13-5.71,1.58c0.91,5.55,2.21,10.97,3.93,16.33c1.15,3.61,6.8,2.11,5.71-1.58
				c-1.89-6.41-3.79-12.81-5.68-19.21c-1.8,0.76-3.61,1.52-5.41,2.29c3.58,5.61,6.7,11.43,9.42,17.5c1.71-0.99,3.41-1.99,5.12-2.98
				c-3.71-5.92-6.76-12.09-9.16-18.67c-1.91,0.52-3.8,1.05-5.71,1.58c3.27,7.91,6.05,15.98,8.36,24.23c1.91-0.52,3.8-1.05,5.71-1.58
				c-2.2-7.54-4.42-15.1-6.62-22.64c-1.91,0.52-3.8,1.05-5.71,1.58c2.82,8.53,5.8,16.98,8.98,25.38c1.35,3.56,6.41,2.2,5.71-1.58
				c-1.26-6.75-2.88-13.4-4.89-19.97c-1.11-3.64-6.64-2.13-5.71,1.58c1.66,6.54,3.61,12.97,5.89,19.32c1.91-0.52,3.8-1.05,5.71-1.58
				c-2.81-7.07-2.19-22.08-10.62-25.26c-4.17-1.58-9.4-1.49-13.81-2.06c-3.96-0.51-7.69-1.49-10.8,1.46
				c-2.77,2.63,1.42,6.81,4.19,4.19c1.33-1.26,6.04,0.2,7.67,0.41c4.61,0.59,10.62,0.41,13,5.33c2.57,5.32,2.45,11.96,4.65,17.52
				c1.37,3.47,7.01,2.06,5.71-1.58c-2.27-6.35-4.23-12.78-5.89-19.32c-1.91,0.52-3.8,1.05-5.71,1.58
				c2.01,6.57,3.64,13.21,4.89,19.97c1.91-0.52,3.8-1.05,5.71-1.58c-3.17-8.4-6.16-16.87-8.98-25.38c-1.18-3.59-6.79-2.11-5.71,1.58
				c2.2,7.54,4.42,15.1,6.62,22.64c1.07,3.65,6.74,2.11,5.71-1.58c-2.31-8.25-5.08-16.31-8.36-24.23c-1.42-3.43-7.04-2.07-5.71,1.58
				c2.57,7.05,5.77,13.71,9.76,20.07c2.06,3.3,6.63,0.43,5.12-2.98c-2.71-6.08-5.84-11.89-9.42-17.5c-1.75-2.75-6.4-1.04-5.41,2.29
				c1.89,6.41,3.79,12.81,5.68,19.21c1.91-0.52,3.8-1.05,5.71-1.58c-1.72-5.37-3.02-10.78-3.93-16.33c-1.91,0.52-3.8,1.05-5.71,1.58
				c2.4,7.62,4.8,15.24,7.2,22.86c1.14,3.62,6.82,2.1,5.71-1.58c-2.42-7.96-4.35-16.01-5.79-24.21c-0.58-3.25-6.27-2.53-5.82,0.78
				c1.03,7.7,2.7,15.14,5.21,22.5c1.22,3.58,6.83,2.11,5.71-1.58c-2.62-8.61-6.3-16.77-10.08-24.92c-1.43-3.09-6.3-0.89-5.41,2.29
				c2.19,7.84,5.13,15.34,8.81,22.59c1.49,2.94,6.64,0.88,5.41-2.29c-2.64-6.74-5.28-13.48-7.91-20.23
				c-1.36-3.47-6.74-2.19-5.71,1.58c2.12,7.73,4.41,15.34,8.99,22.01c2.19,3.19,6.64,0.46,5.12-2.98
				c-3.38-7.64-7.4-14.88-12.12-21.77c-1.76-2.59-6.62-1.08-5.41,2.29c1.92,5.29,8.01,21.14,15.8,17.49
				c1.41-0.66,1.86-2.8,1.07-4.05c-3.94-6.16-8.68-11.5-14.39-16.07c-2.01-1.61-6.13-0.2-4.95,2.88
				c2.82,7.31,6.58,13.88,11.45,20.03c2.1,2.65,6.42-0.77,4.65-3.59c-3.99-6.37-8.55-12.28-13.71-17.77
				c-2.26-2.4-6.58,0.78-4.65,3.59c4.52,6.57,8.87,15.72,15.69,20.17c2.48,1.61,5.61-1.59,4.05-4.05
				c-4.93-7.76-10.53-14.96-16.83-21.65c-1.94-2.06-6,0.06-4.95,2.88c1.99,5.31,4.19,10.52,6.5,15.69
				c2.07,4.65,3.87,9.39,7.52,13.04c1.95,1.95,6.06-0.01,4.95-2.88c-3.62-9.31-8.04-18.16-13.4-26.59
				c-2.08-3.28-6.64-0.44-5.12,2.98c2.85,6.4,6.43,12.21,10.72,17.74c2.13,2.75,6.16-0.75,4.65-3.59c-2.2-4.16-4.56-8.23-7.14-12.16
				c-1.79-2.71-3.21-5.57-6.62-6.16c-2.65-0.45-4.45,1.92-3.34,4.35c3.28,7.18,6.69,14.3,10.24,21.35c1.71-0.99,3.41-1.99,5.12-2.98
				c-3.61-7.08-6.98-14.27-10.33-21.48c-1.6-3.46-6.7-0.45-5.12,2.98c3.32,7.17,6.36,14.43,9.17,21.8c1.8-0.76,3.61-1.52,5.41-2.29
				c-4.77-6.31-8.05-13.15-9.91-20.84c-1.8,0.76-3.61,1.52-5.41,2.29c4.48,6.35,6.95,13.28,7.27,21.06c1.24-0.95,2.5-1.91,3.74-2.85
				c-2.64-0.54-5.08-6.61-6.06-8.86c-1.58-3.64-2.46-7.39-2.83-11.35c-1.68,0.7-3.38,1.4-5.06,2.1c2.29,2.8,4.17,5.76,5.58,9.08
				c0.49,1.13,3.52,8.12,2.27,9.11c0.96-0.25,1.92-0.51,2.88-0.76c-2.69-0.51-5.08-6.66-5.85-8.84c-1.11-3.21-2.1-7.44-1.15-10.78
				c-0.69,0.69-1.37,1.37-2.07,2.07c3.35-0.98,7.77,13.42,5.64,15.72c-1.62,1.74-3.71-5.14-4.01-6.41c-0.44-1.8-1.41-7.11,0.19-8.57
				c-0.96,0.25-1.92,0.51-2.88,0.76c2.58,0.45,6.75,11.23,5.13,13.43c0.25,1.34-0.2,1.37-1.36,0.11c-0.54-1.53-0.86-3.1-0.95-4.74
				c-0.06-1.26-0.2-6.87,2.2-5.42c1.53,0.92,0.68,6.75,0.02,8.25c-1.59,3.68-0.81-1.65-0.71-2.82c0.06-0.71,1.84-5.41,0.26-6.05
				c2.8,1.11,0.54,8.65-0.17,10.34c1.94,0.26,3.87,0.52,5.82,0.78c-0.5-5.61,0.91-10.37,4.32-14.84
				C280.89,373.27,275.75,370.31,273.47,373.3L273.47,373.3z"/>
		</g>
	</g>
	<g>
		<g>
			<path class="st1" d="M242.19,360.39c-5.32,14.71-13.62,27.95-21.02,41.65c-1.92,3.54-7.65,10.75-6.21,15.1
				c1.53,4.61,10.51,4.75,14.31,5.35c15.65,2.51,32.36,4.32,48.19,3.13c12.23-0.92,27.83-3.97,36.55-13.39
				c2.58-2.8-1.6-6.99-4.19-4.19c-8.34,9.02-24.2,11.38-35.81,11.86c-13.92,0.57-28.33-0.88-42.09-2.95
				c-2.88-0.44-5.73-0.96-8.56-1.62c-1.07-0.24-2.12-0.51-3.17-0.81c0.45-0.11,0.9-0.2,1.35-0.31c0.33-1.23,1.26-2.56,1.85-3.7
				c2.82-5.53,5.89-10.93,8.93-16.34c5.85-10.43,11.51-20.94,15.59-32.21C249.2,358.37,243.48,356.83,242.19,360.39L242.19,360.39z"
				/>
		</g>
	</g>
	<g>
		<g>
			<path class="st1" d="M244.86,362.75c7.3,1.98,14.77,3.17,22.34,3.32c4.37,0.08,8.74-0.19,13.08-0.76
				c1.35-0.18,2.69-0.38,4.03-0.62c3.45-0.6,3.14-0.73,4.29,2.57c5.1,14.69,9.34,31.44,18.93,43.93c2.29,2.98,7.44,0.04,5.12-2.98
				c-5.59-7.28-8.59-15.57-11.68-24.14c-1.56-4.32-3.13-8.65-4.7-12.97c-1.18-3.27-2.07-8.01-4.18-10.82
				c-3.48-4.64-12.74-0.64-17.23-0.32c-9.62,0.69-19.12-0.38-28.41-2.9C242.75,356.05,241.18,361.75,244.86,362.75L244.86,362.75z"
				/>
		</g>
	</g>
	<g>
		<g>
			<path class="st1" d="M259.16,427.28c1.17,27.23,2.33,54.44,3.51,81.67c0.56,12.87,1.24,25.76,1.62,38.65
				c0.39,13.57-0.76,27.05-2.05,40.54c-0.2,2.13,2.71,3.85,4.45,2.56c0.85-0.68,1.75-1.3,2.7-1.86c2.52,1.27,2.25,1.82-0.82,1.69
				c-3.75,0.4-3.79,6.32,0,5.92c5-0.53,12.96-3.77,9.58-10.43c-3.09-6.1-10.29-3.49-14.44-0.43c1.48,0.85,2.97,1.71,4.45,2.56
				c1.24-13.15,2.4-26.29,2.07-39.51c-0.33-13.23-1.08-26.46-1.65-39.69c-1.17-27.23-2.33-54.44-3.51-81.67
				C264.91,423.48,258.99,423.47,259.16,427.28L259.16,427.28z"/>
		</g>
	</g>
	<g>
		<g>
			<path class="st1" d="M265.62,571.27c-12.96,2.38-37.48,4.32-36.99,22.8c0.44,16.36,20.36,24.5,34.2,24.01
				c13.81-0.5,35.45-7.25,37.33-23.54c2.05-17.64-22.36-23.33-35.52-23.39c-3.81-0.01-3.81,5.91,0,5.92
				c9.57,0.05,33.03,4.15,29.35,18.38c-3.2,12.35-22.49,16.91-33.34,16.75c-10.21-0.15-30.67-8.37-25.33-22.09
				c4.28-10.98,22.17-11.32,31.87-13.11C270.94,576.29,269.36,570.58,265.62,571.27L265.62,571.27z"/>
		</g>
	</g>
	<g>
		<g>
			<path class="st2" d="M351.32,420.52c59.85-6.28,120.44-4.61,179.78,5.44c-2.07-3.65-4.13-7.28-6.21-10.93
				c-4.42,10.66-6.67,22.21-6.42,33.75c0.25,11.9,3.17,23.53,4.06,35.38c0.3,3.9,1.62,11.7-0.64,15.18
				c-1.62,2.5-5.98,2.29-8.57,2.26c-11.75-0.09-23.69-2.29-35.35-3.6c-12.42-1.41-24.88-2.7-37.39-3.17
				c-11.83-0.45-23.64,0.24-35.47,0.31c-11.29,0.06-23.91,0.02-34.54-4.36c-0.69-0.28-3.01-2.14-2.48-0.27
				c0.4,1.42,0.64-0.58,1.22-1.29c0.65-0.79,1.27-1.66,1.85-2.51c3.02-4.41,4.68-9.34,3.66-14.72c-2-10.52-12.33-15.94-16.25-25.49
				c-3.94-9.62-3.01-20.43,2.35-29.25c-4.65,0.6-9.3,1.2-13.95,1.8c3.78,4.11,4.48,10.17,5.47,15.46
				c1.17,6.23,2.46,12.55,5.68,18.11c3.16,5.45,9.37,8.52,12.38,13.76c3.21,5.59-3.36,13.05-6.7,17.09
				c-5.91,7.12-0.24,16.19,8.65,14.85c6.37-0.96,12.76-2.82,17.28-7.69c5.6-6.03,5.73-14.73,3.15-22.12
				c-2.7-7.73-6.63-15.12-9.87-22.66c-3.52-8.16-6.83-16.4-10.04-24.69c-2.07,3.65-4.13,7.28-6.21,10.93
				c3.84-1.2,5.63,5.63,6.51,8.28c2.18,6.48,4.25,12.99,6.38,19.48c2.52,7.72,9.31,22.64-0.88,27.54c-5.67,2.72-5.95,12.7,0,15.34
				c8.73,3.87,19.28,6.75,27.1-0.75c7.53-7.22,4.45-18.27,2.72-27.24c-3.97-20.69-11.32-40.62-21.22-59.21
				c-1.07,4.05-2.12,8.1-3.19,12.15c9.33-7.12,15.43,30.76,16.21,35.86c1.28,8.39,1.22,16.7,1.82,25.12
				c0.49,6.81,3.42,14.41,10.66,16.4c7.67,2.12,14.46-3.46,15.93-10.8c1.55-7.72-1.16-16.72-2.55-24.31
				c-3.35-18.42-8.12-36.51-14.15-54.23c-2.85,3.74-5.71,7.5-8.56,11.24c16.47-1.76,15.62,24.35,16.46,34.88
				c1.09,13.56-1.5,38.27,15.68,42.7c7.71,1.99,14.98-2.78,17.79-9.89c3.07-7.76-0.04-15.87-2.17-23.46
				c-4.97-17.71-9.94-35.41-14.91-53.12c-2.07,3.65-4.13,7.28-6.21,10.93c1.94-0.49,10.29,42.53,11.19,46.73
				c1.68,7.91,2.81,16.88,8.43,23.14c5.09,5.67,13.09,8.61,20.45,5.93c3.35-1.22,6.98-4.55,6.53-8.56
				c-3.04-26.68-9.17-52.7-18.83-77.78c-2.85,3.74-5.71,7.5-8.56,11.24c6.85-0.11,8.17,9.18,9.01,14.34
				c1.39,8.52,2.37,17.13,3.54,25.68c1.81,13.25,1.33,39.49,21,38.33c19.58-1.16,11.75-27.13,9.32-38.47
				c-3.87-18.01-8.62-35.81-14.15-53.39c-2.07,3.65-4.13,7.28-6.21,10.93c7.77-1.84,10.2,39.37,10.66,44.79
				c0.73,8.67-0.09,17.66,1.34,26.23c1.1,6.56,5.03,12.79,11.91,14.31c7.89,1.74,15.49-3.81,17.82-11.24
				c2.49-7.89-0.08-17.22-1.09-25.18c-2.42-18.99-5.16-37.92-9.64-56.54c-2.07,3.65-4.13,7.28-6.21,10.93
				c12.21-3.72,8.62,22.14,8.15,27.54c-1.36,15.62-2.74,31.26-4.1,46.88c-0.51,5.79,6.08,10.06,11.24,8.56
				c15.34-4.43,15.04-21.76,15.46-34.75c0.57-17.81,1.14-35.63,1.71-53.44c0.37-11.44-17.4-11.42-17.77,0
				c-0.45,13.94-0.89,27.88-1.34,41.82c-0.21,6.58-0.39,13.17-0.63,19.75c-0.11,2.78-0.56,9.02-2.14,9.49
				c3.74,2.85,7.5,5.71,11.24,8.56c0.96-10.94,1.92-21.87,2.87-32.82c0.84-9.56,2.4-19.39,2.16-28.99
				c-0.23-8.57-2.43-17.15-8.6-23.4c-5.98-6.06-14.75-8.82-22.96-6.32c-4.7,1.43-7.35,6.15-6.21,10.93
				c3.84,15.95,6.47,32.14,8.57,48.4c0.54,4.17,1.05,8.34,1.58,12.52c0.23,1.82,0.47,3.65,0.66,5.47c0.09,0.95-0.28,3.87,0.26,4.64
				c0.46,0.66,4.38,1.73,4.8,1.03c0.12-0.21-0.44-2.31-0.49-2.7c-0.38-3.72-0.04-7.59-0.18-11.33c-0.6-15.95-2.89-31.95-5.52-47.69
				c-2.37-14.21-11.97-28.39-28.28-24.55c-4.55,1.08-7.6,6.47-6.21,10.93c4.61,14.64,8.68,29.44,12.15,44.4
				c1.73,7.47,3.34,14.98,4.75,22.53c-0.14-0.78,0.86,4.75,0.56,4.52c-0.04,0.2-0.07,0.39-0.11,0.59c1.53-0.79,3.04-1.59,4.57-2.38
				c0.6-0.98-1.42-8.12-1.6-9.42c-2.03-14.82-3.3-29.98-6.25-44.64c-2.57-12.79-11.49-24.82-25.65-24.59
				c-5.28,0.08-10.71,5.68-8.56,11.24c9.06,23.49,15.35,48.03,18.19,73.05c2.18-2.85,4.35-5.71,6.53-8.56
				c-4.84,1.75-6.4-13.68-7.04-16.68c-1.94-9.08-3.87-18.18-5.82-27.26c-1.71-7.98-2.53-17.2-7.24-24.1
				c-4.51-6.63-12.23-9.7-19.99-7.77c-4.64,1.16-7.47,6.38-6.21,10.93c4.15,14.76,8.28,29.51,12.42,44.26
				c1.03,3.68,2.07,7.38,3.1,11.06c0.66,2.37,0.96,7.4,2.29,9.34c-0.5,1.35,0.02,1.52,1.56,0.5c1.43,0.2,1.97-0.05,1.62-0.73
				c0.17-0.44-0.59-2.26-0.68-2.81c-0.66-4-0.68-8.21-0.99-12.25c-1.11-13.83-0.58-29.42-5.77-42.48
				c-4.69-11.81-15.83-21.96-29.29-20.51c-5.34,0.57-10.6,5.26-8.56,11.24c5.42,15.94,9.84,32.19,13.1,48.71
				c0.79,4.04,1.53,8.09,2.19,12.14c0.36,2.19,0.81,4.44,1.02,6.66c0.06,0.62-0.09,2.63,0.12,2.89c2.9-0.49,5.79-0.97,8.69-1.46
				c0.04-0.2,0.01-0.38-0.07-0.56c0.25-0.73-0.12-2.81-0.14-3.67c-0.12-4.38-0.32-8.75-0.71-13.12
				c-1.42-15.49-4.11-31.93-10.37-46.26c-5.37-12.28-20.81-23.2-33.6-13.44c-3.93,3.01-5.67,7.47-3.19,12.15
				c6.51,12.23,11.73,25,15.49,38.35c1.84,6.5,3.35,13.1,4.51,19.76c0.28,1.65,0.62,3.3,0.79,4.96c0.09,0.53,0.15,1.08,0.15,1.62
				c-0.13,1.33,0.2,1.22,0.97-0.32c-1.8-0.57-4.2-0.59-6.23-1.48c0,5.12,0,10.22,0,15.34c19.89-9.56,13.68-33.45,8.33-49.79
				c-4.97-15.18-11.25-45.11-34.04-37.99c-4.23,1.33-7.99,6.31-6.21,10.93c4.6,11.88,9.46,23.65,14.6,35.31
				c1.89,4.3,6.49,10.82,6.29,15.67c-0.15,3.9-5.82,3.84-9.01,4.32c2.88,4.95,5.76,9.9,8.65,14.85
				c6.09-7.34,12.45-15.85,12.77-25.82c0.31-9.61-5.22-15.86-11.73-22.02c-5.59-5.29-6.57-11.9-7.97-19.21
				c-1.61-8.4-3.97-16.07-9.89-22.49c-3.96-4.29-11.1-2.91-13.95,1.8c-6.03,9.95-8.22,21.53-6.57,33.02
				c1.71,11.88,7.51,20.54,15.25,29.35c0.86,0.98,3.14,3.2,3.16,4.54c0.02,1.14-2.31,3.47-3,4.45c-3.43,4.92-5.06,10.49-2.9,16.3
				c4.44,12,20.89,14.41,31.85,15.82c13.44,1.74,26.96,1.03,40.46,0.76c14.33-0.28,28.58,0.59,42.84,2.05
				c13.96,1.43,27.88,3.45,41.88,4.57c10.56,0.85,22.88-0.68,28.71-10.8c7.07-12.28,2.49-30.56,0.56-43.64
				c-2.31-15.68-1.91-30.13,4.23-44.92c1.72-4.13-1.89-10.2-6.21-10.93c-60.97-10.33-122.99-12.53-184.51-6.08
				c-4.77,0.5-8.88,3.72-8.88,8.88C342.44,416.06,346.53,421.03,351.32,420.52L351.32,420.52z"/>
		</g>
	</g>
	<g>
		<g>
			<path class="st2" d="M556.5,455.58c0.64-4.87,0.11-9.59-0.06-14.47c-0.11-3.09-0.45-7.79,2.08-10.14
				c2.82-2.61,9.23-2.32,12.73-2.71c5.84-0.65,11.69-1.29,17.54-1.89c22.62-2.33,45.28-4.28,67.96-5.84
				c10.29-0.71,21.58-2.72,31.86-1.55c8.42,0.96,11.03,9.5,13.42,16.46c3.64,10.55,6.69,21.31,9.18,32.19
				c0.5,2.18,0.97,4.36,1.42,6.55c0.24,1.13,1.63,5.63,1.28,6.48c-0.26,0.63-2.71,2.42-3.46,3.33c-1.65,2.03-2.62,4.01-3.61,6.41
				c-0.54,1.3-1.02,3.22-1.94,4.35c1.02-1.24,0.5-0.57-1.47-0.46c-6.06,0.3-12.14,0.28-18.22,0.64c-11,0.64-21.98,1.69-32.92,2.89
				c-21.91,2.39-43.77,5.39-65.78,6.89c-10.98,0.75-22.04,0.14-32.98,0.88c-2.1,0.14-0.83,0.47-1.43-0.85
				c-0.84-1.86-1.33-3.97-1.86-5.93c-1.37-5.07-2.43-10.26-2.96-15.49c-0.92-9.02-1.8-20.32,1.4-29.02
				c2.85-7.76,11.89-9,19.09-10.19c24.11-3.99,48.75-3.53,72.74-8.44c10.97-2.25,22.12-6.08,33.46-5.14
				c6.19,0.52,18.5,4.45,19.39,12.19c0.4-1.49,0.81-2.98,1.21-4.49c0.88-2.07,4.7-1.49-0.53-1.58c-1.94-0.04-3.88-0.06-5.84-0.08
				c-3.88-0.05-7.78-0.07-11.67-0.08c-8.17-0.01-16.34,0.06-24.5,0.23c-16.33,0.34-32.65,1.07-48.95,2.25
				c-14.78,1.08-29.56,3.51-44.34,4.16c-5.25,0.24-8.62-0.66-13.31-2.44c-0.62-1.3-1.04-1.49-1.28-0.54
				c-0.33,0.57-0.34,0.68-0.04,0.32c0.65-0.66,1.76-0.86,2.61-1.16c3.73-1.33,7.41-2.11,11.07-3.73c9.36-4.15,2.63-18.81-6.85-16.24
				c-5.08,1.37-10.16,2.76-15.25,4.13c3.65,3.65,7.28,7.28,10.93,10.93c1.15-4.42,6.05-5.46,10.1-5.92
				c5.98-0.69,12.16-0.53,18.18-0.58c12.58-0.11,25.16,0.32,37.69,1.44c24.53,2.2,48.71,7.54,71.59,16.69
				c0.78-5.82,1.58-11.63,2.36-17.45c-26.64,1.62-53.3,3.36-79.66,7.63c-12.71,2.06-25.33,4.75-37.69,8.37
				c-11.35,3.33-24.4,6.04-29.25,18.04c-1.35,3.34,0.85,8.49,4.09,10.03c12.98,6.17,26.01,3.36,39.62,1.29
				c14.83-2.25,29.8-3.48,44.77-4.24c15.03-0.76,30.08-0.97,45.14-0.97c7.72,0,15.44,0.05,23.15,0.11c1.16,0.01,6.21-0.54,6.81,0.09
				c1.86,1.93-0.7,7.9-1.23,9.68c3.65-2.07,7.28-4.13,10.93-6.21c-27.68-9.49-56.72-12.25-85.76-9.26
				c-14.35,1.48-28.68,3.68-43.15,3.46c-15.11-0.24-30.07-2.94-45.19-1.41c-9.97,1.01-12.07,13.92-2.36,17.45
				c15.62,5.68,32.08,4.16,48.2,1.91c16.57-2.31,33.03-4.07,49.77-4.57c17.14-0.51,34.28-0.15,51.4,0.34
				c3.58,0.11,7.24,0.01,10.8,0.34c-0.12-0.01,3.74,0.44,3.52,0.63c0.04-0.04-0.11-1.33-0.49-1.24c-1.37,0.31-2.76,1.22-4.64,1.31
				c-3.99,0.2-8.2-0.66-12.14-1.08c-34.33-3.67-68.93-3.71-103.42-3.1c-8.03,0.14-16.12,0.02-24.14,0.5
				c-8.09,0.49-16.25,2.74-20.36,10.45c-3.22,6.04-1.93,13.4,2.69,18.31c5.96,6.32,14.56,6.31,22.56,5.85
				c38.98-2.29,77.94-4.68,116.92-7.01c11.36-0.69,11.44-18.45,0-17.77c-34.3,2.06-68.59,4.11-102.88,6.17
				c-4.68,0.28-9.36,0.57-14.03,0.84c-1.43,0.08-2.88,0.2-4.32,0.25c-0.53,0.01-4.47-0.47-4.84-0.26c-3.4,1.91,4.09,0.95,4.28,0.94
				c4.51-0.38,9.13-0.21,13.67-0.3c17.07-0.34,34.14-0.6,51.22-0.43c17.05,0.18,34.11,0.81,51.1,2.23
				c13.43,1.13,31.82,6.62,41.85-5.6c4.35-5.29,5.86-12.8,2.42-19c-3.28-5.89-9.59-8.37-15.97-9.14
				c-15.98-1.91-32.77-1.26-48.85-1.23c-19.48,0.04-38.92,1.02-58.22,3.66c-17.1,2.33-34.64,5.98-51.37-0.11
				c-0.78,5.82-1.58,11.63-2.36,17.45c14.38-1.44,28.58,0.91,42.93,1.36c14.46,0.45,28.8-1.62,43.13-3.16
				c28.47-3.07,56.13-0.94,83.31,8.39c4.62,1.59,9.61-1.84,10.93-6.21c2.23-7.35,3.71-15.56-0.19-22.66
				c-3.83-6.96-10.33-9.31-17.9-9.57c-17.32-0.59-34.78-0.28-52.1,0.09c-16.95,0.37-33.9,1.23-50.76,3.06
				c-8.39,0.91-16.75,2.07-25.07,3.42c-6.54,1.07-14.15,2.59-20.41-0.38c1.36,3.34,2.72,6.69,4.09,10.03
				c0.59-1.46,9.83-3.47,11.56-4.01c5.61-1.78,11.29-3.35,17-4.76c10.73-2.63,21.6-4.64,32.53-6.23c22.64-3.28,45.55-4.6,68.37-5.99
				c10.4-0.64,11.56-13.77,2.36-17.45c-27.06-10.81-55.9-16.11-84.92-17.99c-14.32-0.92-28.72-1.08-43.06-0.45
				c-13.31,0.58-27.68,4.75-31.44,19.22c-1.71,6.55,4.32,12.72,10.93,10.93c5.08-1.37,10.16-2.76,15.25-4.13
				c-2.29-5.41-4.56-10.82-6.85-16.24c-7.08,3.14-14.47,3.17-19.33,10.2c-4.82,6.96-3.33,15.65,2.33,21.76
				c9.68,10.43,24.74,9.16,37.57,7.69c36.71-4.19,73.69-5.78,110.63-5.6c7.3,0.04,16.12,1.65,23.05-0.95
				c8.97-3.36,9.16-12.41,5.54-19.94c-6.28-13.05-20.81-19.64-34.64-20.62c-16.63-1.17-32.98,5.38-49.28,7.7
				c-17.82,2.55-35.87,2.98-53.72,5.35c-14.01,1.86-29.94,4.52-37.2,18.29c-7.38,14-5.5,34-2.96,48.98
				c1.16,6.87,2.62,14.83,6.1,20.97c4.18,7.37,10.93,9.19,18.88,9.33c18.22,0.33,36.43-1.14,54.53-3.04
				c17.4-1.84,34.75-4.13,52.16-5.84c9.07-0.89,18.16-1.63,27.26-2.06c7.64-0.36,17.63,1.23,24.49-2.72
				c5.84-3.36,6.19-8.69,9.44-13.75c1.72-2.68,4.75-4.26,6.32-7.25c2.32-4.43,1.67-9.06,0.83-13.76c-3-16.72-7.41-33.64-13.57-49.48
				c-2.84-7.32-6.48-14.43-13.02-19.1c-7.09-5.08-15.62-5.48-24.03-5.06c-21.13,1.07-42.26,2.74-63.34,4.61
				c-10.15,0.9-20.3,1.88-30.44,2.94c-9.51,0.99-19.75,1.23-29.06,3.51c-8.4,2.05-14.78,7.75-17.33,16.04
				c-2.76,8.94-0.13,18.12-1.31,27.2c-0.62,4.76,4.52,8.88,8.88,8.88C552.94,464.46,555.89,460.36,556.5,455.58L556.5,455.58z"/>
		</g>
	</g>
	<g>
		<g>
			<path class="st2" d="M399.24,531.45c13.73,0,27.44,0,41.17,0c3.81,0,3.81-5.92,0-5.92c-13.73,0-27.44,0-41.17,0
				C395.44,525.53,395.43,531.45,399.24,531.45L399.24,531.45z"/>
		</g>
	</g>
	<g>
		<g>
			<path class="st2" d="M348.35,504.88c0.23,7.77,0.4,15.55,0.69,23.32c0.25,6.74,1.63,13.51,8.91,15.89
				c5.65,1.86,12.49,1.29,18.36,1.02c7.63-0.36,15.23-1.01,22.86-1.34c30.08-1.35,60.21-0.6,90.27,0.95
				c60.24,3.11,120.34,9.58,180.71,9.42c13.69-0.04,32.23,2.59,42.98-7.84c8.73-8.48,10.35-21.53,10.88-33.07
				c0.39-8.48-9.63-10.66-15.16-6.28c-9.02,7.15-17.33,15.04-24.93,23.69c4.65,3.59,9.3,7.18,13.95,10.77
				c5.27-8.3,7.98-17.35,8.7-27.12c0.45-6.02-6.02-9.77-11.24-8.56c-12.67,2.91-22.08,15.34-20.79,28.41
				c0.76,7.76,9.11,11.59,15.16,6.28c6.05-5.31,9.29-13.08,8.86-21.11c-0.26-4.81-3.86-8.87-8.88-8.88
				c-14.99-0.05-26.23,11.3-27.78,25.81c-0.31,2.9,1.88,6.36,4.39,7.67c15.29,7.92,28.71-12.27,15.66-23.53
				c-6.18-5.34-15.56-4.63-21.53,0.71c-5.85,5.23-7.64,13.11-5.54,20.56c1.81,6.42,10.1,8.68,14.85,3.92
				c6.41-6.42,9.81-18.45-0.23-23.75c-9.31-4.92-18.64,4.61-24.04,11.2c-5.16,6.31-1.55,14.2,6.28,15.16
				c14.03,1.73,22.12-16.64,13.36-26.83c-9.04-10.51-27.35-3.47-26.83,10.48c0.14,3.73,2.64,7.73,6.53,8.56
				c9.18,1.98,19.54,2.78,26.23-5.12c5.91-6.99,5.8-18.36-2.55-23.43c-8.42-5.12-19.15-0.95-26.43,4.35
				c-6.94,5.05-16.07,14.2-10.73,23.45c5.32,9.21,18.13,8.31,25.3,2.2c6.64-5.66,11.67-17,7.19-25.39
				c-8.52-15.95-43.32-6.48-45.93,10.07c-1.97,12.47,12.71,15.85,22.09,13.8c9.92-2.17,17.27-9.34,20.77-18.67
				c1.69-4.5-1.91-9.74-6.21-10.93c-13.5-3.73-28.73,0.13-38.18,10.71c-4.71,5.27-7.35,13.05-1.6,18.77
				c5.12,5.09,14.96,6.36,21.61,4.52c13.93-3.83,18.44-23.08,4.69-30.3c-12.72-6.68-28,2.59-36.12,12.25
				c-3.49,4.16-3.64,11.09,1.8,13.95c7.28,3.84,15.81,4.55,23.32,0.79c7.95-3.97,12.87-12.99,6.99-20.96
				c-10.43-14.09-35.25-5.65-46.37,2.91c-6.31,4.86-5.33,13.24,2.12,16.24c7.21,2.9,16.88,2.57,23.02-2.66
				c5.7-4.86,6.34-13.21,0.86-18.59c-11.18-10.98-32.53-2.7-43.94,3.66c-7.24,4.04-4.61,13.62,2.12,16.24
				c10.98,4.26,23.23,1.16,31.61-6.83c3.22-3.07,3.66-9.57,0-12.57c-14.6-11.91-34.42-14.21-51.03-4.88
				c-4.65,2.62-6.19,10.27-1.8,13.95c8.4,7.04,18.49,6.94,27,0.21c4.39-3.47,2.89-11.56-1.8-13.95
				c-14.01-7.13-30.97-6.64-43.96,2.59c-5.1,3.64-6.36,11.97,0,15.34c8.21,4.33,18.96,4.78,26.39-1.55
				c7.02-5.99,5.53-15.98-2.55-20.12c-7.34-3.78-17.99-2.78-25.93-1.92c-9.98,1.09-19.23,3.77-28.45,7.7
				c-6.9,2.95-5.05,14.92,2.12,16.24c5.66,1.03,10.98,0.99,16.44-1.01c7.97-2.93,8.88-14.57,0-17.13
				c-12.47-3.6-25.21-2.65-37.98-1.91c-14.08,0.83-28.19,1.4-42.29,1.69c-13.71,0.3-27.44,0.36-41.16,0.15
				c-12.1-0.18-26.67,1.5-38.09-3.11c-0.78,5.82-1.58,11.63-2.36,17.45c21.56-1.62,43.1-3.39,64.67-4.84
				c10.8-0.73,21.65-1.18,32.46-0.38c10.37,0.78,20.58,2.78,30.79,4.69c42.54,7.91,85.72,12.12,129,11.82
				c10.84-0.07,20.83-1.01,30.09-7.11c8.84-5.82,17.05-10.74,28.12-8.98c0-5.71,0-11.42,0-17.13c-40.42,5.77-81.53,2.74-121.98-1.09
				c-40.56-3.84-80.99-8.2-121.79-7.46c-23.57,0.43-47.09,2.01-70.59,3.83c-6.92,0.53-10.8,7.08-7.67,13.37
				c5.19,10.42,5.76,21.98,2.33,33.02c5.41-0.71,10.82-1.41,16.24-2.12c-1.71-2.88-3.42-5.74-5.13-8.62
				c-3.78-6.36-14.46-5.47-16.24,2.12c-2.95,12.57-6.19,32.2,9.26,37.84c6.09,2.23,13.24,1.6,19.62,1.74
				c7.88,0.17,15.76,0.33,23.64,0.5c32.71,0.69,65.41,1.37,98.12,2.06c32.31,0.68,64.63,1.36,96.94,2.04
				c31.55,0.66,63.37,2.5,94.9,0.5c7.34-0.46,15.34-0.54,20.61-6.47c5.26-5.91,5.07-14.96,5.93-22.35
				c2.12-18.18,4.23-36.37,6.35-54.55c1.04-8.95-12.58-11.82-16.56-4.49c-5.35,9.88-9.47,20.39-12.64,31.17
				c-1.58,5.39-2.94,10.84-4.18,16.31c-0.63,2.74-1.21,5.48-1.79,8.23c-0.51,2.45-2.18,6.56-1.87,9.02
				c-0.06,0.26-0.12,0.52-0.18,0.78c3.21-2.21,3.66-3.21,1.35-2.97c-0.7-0.36-2.7-0.07-3.49-0.09c-3.1-0.08-6.21-0.18-9.32-0.27
				c-6.6-0.2-13.19-0.43-19.8-0.64c-12.8-0.41-25.62-0.79-38.43-0.99c-50.19-0.76-100.58,6.34-150.65,1.34
				c-28.15-2.81-55.65-4.67-83.96-3.02c2.85,3.74,5.71,7.5,8.56,11.24c3.08-8.41,4.39-17.32,3.97-26.27
				c-0.28-6.08-7.57-11.91-13.37-7.67c-7.13,5.22-12.07,11.74-14.43,20.35c-3.08,11.28,13.05,15.14,17.13,4.73
				c0.52-1.33,1.04-2.66,1.56-3.99c1.62-4.16-1.82-10.19-6.21-10.93c-10.58-1.78-20.9,3.66-23.53,14.53
				c-0.83,3.45,0.46,8.47,4.09,10.03c5.79,2.51,11.67,3.45,17.17-0.28c4.46-3.03,6.76-8.95,5.4-14.2
				c-2.95-11.43-21.51-12.1-23.27,0.4c-0.68,4.77,1.1,9.5,6.21,10.93c14.95,4.17,31.76-0.68,41.52-12.94
				c3.65-4.6,3.41-13.66-3.92-14.85c-10.02-1.62-17.71,2.81-21.54,12.15c-1.5,3.67,1.04,8.1,4.09,10.03
				c10.6,6.72,24.22,4.95,33.16-3.66c3.32-3.2,3.53-9.4,0-12.57c-4.62-4.13-9.26-5.13-15.27-4.32c-4.45,0.6-7.76,6.89-6.21,10.93
				c2.5,6.48,8.39,11.22,15.69,9.58c6.83-1.54,11.2-8.66,9.79-15.46c-3.6-17.37-32.47-7-23.9,8.55c3.7,6.69,11.49,6.23,18.06,5.44
				c7.11-0.86,15.55-2.06,20.74-7.5c4.9-5.14,5.1-14.12-1.49-18.04c-6.68-3.97-15.68,1.67-18.51,7.86
				c-2.12,4.63-1.1,9.19,3.19,12.15c7.85,5.42,18.27,6.3,27.09,2.78c4.19-1.67,8.23-4.2,11.05-7.79c4.04-5.15,2.85-12.03-2.62-15.74
				c-8.18-5.54-20.49-0.01-21.14,10.01c-0.73,11.42,11.19,18.99,21.63,16.68c11.12-2.46,16.5-16.07,7.95-24.5
				c-8.82-8.69-22.08-0.73-21.41,10.66c1.48,25.65,51,12.93,38.95-8.02c-7.17-12.45-26.15-2.63-22.36,10.46
				c1.66,5.73,7.24,9.63,13.08,10c6.74,0.41,12.21-3.32,16.52-8.17c3.27-3.68,3.43-8.87,0-12.57c-11-11.82-30.69,0.27-26.06,15.49
				c5.15,16.95,27.49,14.72,34.54,0.76c1.69-3.36,1.66-8.07-1.39-10.77c-4.65-4.12-10.45-7.15-16.85-5.85
				c-5.41,1.1-10.47,5.09-12.01,10.56c-3.45,12.28,8.68,19.09,19.1,19.58c11.26,0.52,22.86-7.7,17.14-19.97
				c-6.1-13.06-20.6-10.33-30.52-3.71c-3.39,2.26-5.05,6.02-4.09,10.03c3.85,15.95,30.6,18.71,40.23,6.95
				c5.78-7.06,4.26-18.52-5.02-21.74c-7.04-2.44-15.27,1.36-18.07,8.22c-3.34,8.14,2.05,16.96,9.91,19.77
				c8.55,3.06,17.33-1.24,22.28-8.41c5.15-7.45,5.39-18.62-4.48-22.21c-9.11-3.3-16.38,2.74-20.49,10.45
				c-2,3.77-1.26,7.62,1.39,10.77c3.51,4.17,7.78,6.7,12.83,8.62c9.53,3.64,15.42-11.35,6.85-16.24
				c-17.41-9.92-39.76-9.31-56.17,2.45c-5.14,3.68-6.31,11.9,0,15.34c12.67,6.89,27.51,6.85,40.08-0.31
				c7.11-4.04,4.74-13.69-2.12-16.24c-10.73-3.98-22.04-4.38-33.14-1.8c-10.23,2.38-7.2,16.75,2.36,17.45
				c13.61,0.99,27.24-0.49,40.35-4.25c7.95-2.27,8.97-15.44,0-17.13c-10.81-2.03-21.5-0.38-30.7,5.87
				c-5.61,3.81-6.06,14.92,2.12,16.24c12.14,1.95,24.15,1.15,35.61-3.48c5.92-2.39,9.14-9.76,3.92-14.85
				c-6.81-6.63-18.85-7.04-25,0.84c-4.18,5.35-2.89,12.49,3.92,14.85c11.59,4,24.74,2.19,34.7-5.01c5.07-3.67,6.38-11.95,0-15.34
				c-11.51-6.1-25.29-5.93-36.24,1.4c-6.23,4.18-5.52,14.06,2.12,16.24c15.34,4.36,30.94,4.95,46.62,2.32
				c7.9-1.33,8.15-12.58,2.12-16.24c-11.35-6.89-26.16-6.72-37.01,1.15c-6.96,5.05-4.82,16.23,4.49,16.56
				c15.69,0.56,31.36-1.39,46.46-5.68c10.17-2.9,7.22-16.45-2.36-17.45c-4.23-0.44-8.24-0.05-12.41,0.79
				c-9.81,1.98-7.6,17.85,2.36,17.45c13.89-0.56,27.69-2.07,41.4-4.39c10.13-1.72,7.33-17.27-2.36-17.45
				c-13.53-0.25-26.94,1.79-39.76,6.12c-7.47,2.53-9.37,15.66,0,17.13c15.83,2.48,31.69,3.36,47.69,2.23
				c9.3-0.66,12.87-15.67,2.36-17.45c-8.03-1.36-16.08-2.26-24.22-2.53c-4.8-0.17-8.88,4.2-8.88,8.88c0,5.27,4.1,8.31,8.88,8.88
				c18.72,2.2,37.53,2.88,56.36,2.04c9.42-0.43,12.77-16.02,2.36-17.45c-10.79-1.48-21.02-1.39-31.78,0.49
				c-8.34,1.44-8.62,15.97,0,17.13c15.75,2.13,31.11,2,46.82-0.52c10.21-1.63,7.26-17.15-2.36-17.45
				c-16.5-0.51-32.95,1.21-49.02,4.95c-10.34,2.4-7.09,16.6,2.36,17.45c20.22,1.8,40.48,1.82,60.7,0.06
				c4.39-0.38,8.17-3.08,8.73-7.7c0.49-4.04-1.95-8.95-6.36-9.75c-8.86-1.6-17.27-1.61-26.13-0.04c-3.79,0.68-6.53,4.94-6.53,8.56
				c0,4.22,2.85,7.07,6.53,8.56c7.11,2.9,14.95,2.97,22.16,0.41c6.73-2.38,9.36-12.47,2.12-16.24c-2.82-1.47-5.64-2.94-8.46-4.41
				c-0.71,5.41-1.41,10.83-2.12,16.24c5.54-1.2,10.98-1.59,16.65-1.41c-2.1-5.06-4.19-10.11-6.28-15.16
				c-6.55,5.73-3.65,16.26,4.12,19.19c3.98,1.49,8.39,1.08,12.57,1.07c5.1-0.02,10.21-0.06,15.31-0.08
				c11.43-0.06,11.45-17.82,0-17.77c-3.93,0.02-7.85,0.05-11.78,0.07c-1.58,0.01-3.14,0.01-4.71,0.02
				c-1.17,0.01-2.36,0.01-3.53,0.02c-2.51-0.28-1.93,0.81,1.75,3.27c0,1.58,0,3.15,0,4.73c-0.39,0.69-0.78,1.37-1.17,2.06
				c6.08-5.32,0.96-14.93-6.28-15.16c-7.21-0.24-14.32,0.52-21.38,2.04c-7.35,1.59-8.78,12.77-2.12,16.24
				c2.82,1.47,5.64,2.94,8.46,4.41c0.71-5.41,1.41-10.83,2.12-16.24c-4.69,1.66-8.14,1.46-12.72-0.41c0,5.71,0,11.42,0,17.13
				c5.52-0.97,11.17-0.96,16.69,0.04c0.78-5.82,1.58-11.63,2.36-17.45c-20.22,1.76-40.48,1.74-60.7-0.06
				c0.78,5.82,1.58,11.63,2.36,17.45c14.59-3.4,29.32-4.77,44.31-4.32c-0.78-5.82-1.58-11.63-2.36-17.45
				c-12.28,1.97-25.04,2.18-37.38,0.52c0,5.71,0,11.42,0,17.13c7.32-1.27,14.96-1.49,22.32-0.49c0.78-5.82,1.58-11.63,2.36-17.45
				c-18.83,0.84-37.64,0.17-56.36-2.04c0,5.92,0,11.84,0,17.77c6.55,0.23,13.03,0.81,19.49,1.91c0.78-5.82,1.58-11.63,2.36-17.45
				c-14.34,1.02-28.76,0.63-42.97-1.6c0,5.71,0,11.42,0,17.13c11.44-3.87,22.96-5.71,35.03-5.48c-0.78-5.82-1.58-11.63-2.36-17.45
				c-12.15,2.06-24.37,3.27-36.68,3.77c0.78,5.82,1.58,11.63,2.36,17.45c2.61-0.52,5.06-0.44,7.69-0.17
				c-0.78-5.82-1.58-11.63-2.36-17.45c-13.69,3.9-27.51,5.55-41.74,5.06c1.49,5.52,2.98,11.04,4.49,16.56
				c5.95-4.31,12.7-5.02,19.07-1.15c0.71-5.41,1.41-10.83,2.12-16.24c-12.47,2.1-25.05,1.14-37.18-2.32
				c0.71,5.41,1.41,10.83,2.12,16.24c5.65-3.78,12.18-4.65,18.31-1.4c0-5.12,0-10.22,0-15.34c-6.51,4.7-13.41,5.85-21.01,3.22
				c1.3,4.95,2.62,9.9,3.92,14.85c1.15-1.47,0.09-0.64-0.12-0.84c1.3-4.95,2.62-9.9,3.92-14.85c-8.39,3.39-17.17,4.94-26.17,3.48
				c0.71,5.41,1.41,10.83,2.12,16.24c5.14-3.49,10.78-5.25,17.01-4.07c0-5.71,0-11.42,0-17.13c-11.71,3.35-23.49,4.5-35.63,3.61
				c0.78,5.82,1.58,11.63,2.36,17.45c8.15-1.89,15.89-1.1,23.7,1.8c-0.71-5.41-1.41-10.83-2.12-16.24c-7,3.99-15.04,4.17-22.15,0.31
				c0,5.12,0,10.22,0,15.34c11.38-8.15,25.95-9.46,38.24-2.45c2.29-5.41,4.56-10.82,6.85-16.24c-2.17-0.83-3.53-2.32-4.99-4.05
				c0.46,3.59,0.92,7.18,1.39,10.77c0.5-1.01,1.05-1.98,1.66-2.93c-1.8,0.65-3.43,0.18-4.9-1.43c-0.4-1.49-0.81-2.98-1.21-4.49
				c0.18,1.78-1.62,2.11-2.35,3.33c0.14,0,0.26,0.06,0.34,0.17c1.36,1.27,0.95,3.03-1.27,5.32c-2.59,2.18-5.89-6.48-5.33-6.38
				c-1.94-0.32-4.54,0.68-6.64,0.43c-0.91-0.11-1.91-0.58-2.8-0.62c-0.89-0.04,0.07,0.37-0.05-0.11c-1.36,3.34-2.72,6.69-4.09,10.03
				c1.59-1.05,5.57-2.32,6.67-3.54c-0.81-0.05-1.24-0.4-1.3-1.07c3.36-3.54,3.77-5.14,1.18-4.8c-0.19-0.07-4.56-0.63-4.82-0.53
				c-1.95-0.94-2.12,0.83-0.5,5.29c-1.17,0.27-1.04,0.68,0.38,1.23c-0.46-3.59-0.92-7.18-1.39-10.77c-0.81,1.6-4.11,7-5.71,5.28
				c0-4.19,0-8.37,0-12.57c-0.82,0.98-1.69,1.91-2.64,2.77c0.23,1.58,1.18,2.8,2.89,3.68c-0.4,1.49-0.81,2.98-1.21,4.49
				c-0.51,0.31-1.02,0.62-1.53,0.92c-1.58,0-3.15,0-4.73,0c-0.83-0.68-1.66-1.36-2.49-2.04c-0.4-1.49-0.81-2.98-1.21-4.49
				c-0.04-0.63,0.95-1.24,0.21-1.42c-0.9-0.23-2.88,0.79-3.9,0.85c0.07,0-2.44-0.01-2.32-0.09c-1.22-0.52-1.21,0.01,0.05,1.61
				c1.47,1.94,0.89,3.64-1.74,5.06c-1.58,0-3.15,0-4.73,0c-0.64-0.38-1.28-0.76-1.91-1.14c0-1.58,0-3.15,0-4.73
				c0.09-0.56,2.23-0.69,0.54-0.69c-0.02-0.06-0.06-0.11-0.08-0.17c-1.1,7.51-3.79,8.4-8.09,2.64c0.76-2.88,1.53-5.76,2.29-8.65
				c-4.45,5.26-10.93,6.16-16.6,2.24c1.07,4.05,2.12,8.1,3.19,12.15c-0.44-0.09-0.88-0.19-1.3-0.27c-2.1-0.86-4.19-1.73-6.28-2.61
				c0.24,0.3,0.47,0.6,0.71,0.9c-0.86-2.1-1.73-4.19-2.61-6.28c0.39-0.9,0.77-1.8,1.16-2.7c-0.43,0.12-0.86,0.23-1.29,0.34
				c-1.33-0.32-4.15,1.07-5.48,1.31c-1.44,0.27-2.88,0.46-4.35,0.58c-0.75,0.07-1.5,0.12-2.25,0.13c-2.55-0.11-1.66,0.66,2.65,2.33
				c0.4,1.49,0.81,2.98,1.21,4.49c0.05-0.41,0.11-0.84,0.15-1.26c-0.4,1.49-0.81,2.98-1.21,4.49c-3.21,1.52-3.47,2.24-0.76,2.17
				c-2.56-1.47-5.12-2.94-7.67-4.39c2.9-1.11,5.82-2.23,8.72-3.34c-2.07,3.65-4.13,7.28-6.21,10.93c-0.68-0.08-1.35-0.17-2.01-0.25
				c0-4.19,0-8.37,0-12.57c-3.36,3.25-7.78,3.33-11.64,0.88c1.36,3.34,2.72,6.69,4.09,10.03c-0.14,0.33,0.41,0.38-0.31,0.26
				c-1.3-4.95-2.62-9.9-3.92-14.85c-5.97,7.51-14.84,10.99-24.24,8.37c2.07,3.65,4.13,7.28,6.21,10.93
				c-1.02,1.09-2.04,2.19-3.06,3.28c-1.58,0-3.15,0-4.73,0c0.11-3.09,0.2-6.17,0.31-9.26c1.36,3.34,2.72,6.69,4.09,10.03
				c0.24-0.96,1.07-2.23,1.68-2.12c-2.07-3.65-4.13-7.28-6.21-10.93c-0.52,1.33-1.04,2.66-1.56,3.99
				c5.71,1.58,11.42,3.15,17.13,4.73c1.05-3.86,2.96-7.31,6.25-9.74c-4.45-2.56-8.91-5.12-13.37-7.67
				c0.36,7.56-0.73,14.44-3.34,21.54c-1.93,5.26,3.11,11.56,8.56,11.24c26.32-1.54,52.06-0.34,78.24,2.43
				c26.09,2.75,51.91,2.65,78.08,1.29c26.11-1.36,52.14-2.43,78.29-2.04c13.21,0.2,26.4,0.6,39.59,1.03
				c6.21,0.2,12.42,0.4,18.63,0.6c6.13,0.19,13.45,1.49,19.46-0.17c6.28-1.74,8.7-7.35,9.92-13.16c1.36-6.53,2.69-13.06,4.26-19.55
				c3.21-13.22,7.33-26.11,13.82-38.1c-5.52-1.49-11.04-2.98-16.56-4.49c-1.62,13.93-3.23,27.86-4.86,41.78
				c-0.81,6.92-1.18,14.05-2.43,20.89c-0.14,0.78-0.28,2.04-0.62,2.64c0.83-1.5,0.84-0.19-0.69-0.21c-3.28-0.07-6.66,0.52-9.94,0.69
				c-27.68,1.47-55.52,0.07-83.21-0.52c-56.74-1.2-113.5-2.39-170.24-3.59c-15.76-0.33-31.53-0.66-47.29-0.99
				c-4.33-0.09-8.67-0.18-13-0.27c-1.76-0.04-8.03,0.76-9.5-0.4c-2.52-1.98,0.63-13.79,1.29-16.63c-5.41,0.71-10.82,1.41-16.24,2.12
				c1.71,2.88,3.42,5.74,5.13,8.62c3.99,6.7,13.99,5.13,16.24-2.12c4.87-15.69,3.17-32.08-4.12-46.71
				c-2.56,4.45-5.12,8.91-7.67,13.37c41.57-3.21,83.09-5.25,124.76-2.46c41.26,2.76,82.3,8.66,123.66,10.04
				c23.66,0.79,47.21-0.15,70.66-3.49c8.54-1.22,8.42-15.79,0-17.13c-9.64-1.54-19.07-0.97-28.16,2.78
				c-8.27,3.42-14.9,10.9-23.91,12.21c-10.21,1.49-21.26,0.51-31.54,0.25c-10.72-0.27-21.42-0.81-32.12-1.6
				c-22.12-1.65-44.14-4.43-65.98-8.39c-21.16-3.83-41.8-7.46-63.41-6.54c-24.93,1.07-49.86,3.54-74.74,5.42
				c-10.36,0.78-11.59,13.7-2.36,17.45c11.28,4.57,24.99,3.42,36.94,3.65c14.11,0.27,28.22,0.28,42.33,0.04
				c13.71-0.24,27.43-0.72,41.13-1.46c12.96-0.7,26.46-2.71,39.13,0.94c0-5.71,0-11.42,0-17.13c-2.39,0.88-4.44,1.47-7,1.01
				c0.71,5.41,1.41,10.82,2.12,16.24c6.15-2.62,12.86-4.43,19.48-5.27c3.09-0.39,6.22-0.53,9.32-0.53c1.73,0,3.46,0.04,5.19,0.15
				c0.69,0.05,1.39,0.11,2.07,0.15c1.52,0.41,1.5,0.12-0.04-0.9c-0.4-1.49-0.81-2.98-1.21-4.49c0,0.41,0,0.82,0,1.23
				c0.4-1.49,0.81-2.98,1.21-4.49c-0.63,1.1-4.55-0.14-5.51-0.65c0,5.12,0,10.22,0,15.34c7.72-5.5,17.39-6.99,26.02-2.59
				c-0.6-4.65-1.2-9.3-1.8-13.95c-0.36,0.27-1.58,0.06-1.88-0.21c-0.6,4.65-1.2,9.3-1.8,13.95c9.14-5.13,21.22-4.65,29.5,2.11
				c0-4.19,0-8.37,0-12.57c-4.13,3.94-9.17,4.26-14.33,2.26c0.71,5.41,1.41,10.83,2.12,16.24c4.52-2.52,9.14-4.32,14.2-5.42
				c2.29-0.5,4.52-0.71,6.86-0.9c2.51-0.2,1.81,1.31,1.18-0.05c-0.4-1.49-0.81-2.98-1.21-4.49c0.46-1.04,0.92-2.07,1.39-3.11
				c-0.71,0.24-1.44,0.34-2.19,0.3c-1.52-0.43-2.87-0.59-4.41-1.21c0.71,5.41,1.41,10.82,2.12,16.24c4.11-3.16,8.42-5.58,13.48-6.8
				c2.37-0.57,4.84-0.95,7.3-0.83c0.9-0.19,1.73-0.09,2.51,0.28c1.1,0.66,0.89,0.37-0.62-0.88c0-1.58,0-3.15,0-4.73
				c0.14-0.77-1.52,0.36-2.7,0.44c-1.42,0.09-2.64-0.26-3.88-0.91c0.6,4.65,1.2,9.3,1.8,13.95c2.19-2.59,4.47-4.92,7.38-6.7
				c2.25-1.37,4.22-1.58,6.48-2.48c0.12-0.05,1.82,0.09,1.74,0.21c-0.91,1.49-1.15-2.62-1.21-2.65c-0.06-0.04-3.06,0.02-2.43,0.07
				c-2.32-0.19-3.39-2.23-1.43,0.71c0.4,1.49,0.81,2.98,1.21,4.49c-0.65,1.53-0.37,1.47,0.83-0.18c0.65-0.69,1.36-1.31,2.13-1.87
				c1.67-1.24,3.56-2.16,5.53-2.83c4.04-1.37,8.02-1.31,12.08-0.19c-2.07-3.65-4.13-7.28-6.21-10.93c-0.88,2.32-2.87,4.16-5.05,5.22
				c-1.11,0.54-2.43,0.96-3.66,1.05c-3.21,0.24-2.57-1.3-0.57,1.61c0.4,1.49,0.81,2.98,1.21,4.49c-0.01-0.53-0.04-1.07-0.05-1.6
				c-0.4,1.49-0.81,2.98-1.21,4.49c2.13-4.36,9.13-6.06,13.58-5.78c0.36,0.02,2.49,0.49,2.61,0.39c-1.58-3.23-2.56-4.03-2.94-2.38
				c-0.09,0.32-0.2,0.64-0.34,0.95c-0.41,0.4-1.67,2.16-1.88,2.84c-0.26,0.2-0.53,0.4-0.79,0.59c0.85,0.84,1.73,1.67,2.61,2.49
				c0,1.58,0,3.15,0,4.73c1.13-4.6,7.82-6.25,11.1-8.4c1.71-1.13,2.68,1.11,0.58-1.99c-1.05-1.56-1.02-1.53-1.41-1.72
				c-0.46-0.21-2.38,0.24-2.96,0.21c-1.65-0.07-3.29-0.51-4.9-0.85c2.18,2.85,4.35,5.71,6.53,8.56c0.15,4.01-4.55,0.24-4.89,0.02
				c-0.09-0.06,0.32-1.48,0.59-1.44c2.1,5.06,4.19,10.11,6.28,15.16c1.81-2.2,5.18-6.9,8.14-7.76c-1.58,0-3.15,0-4.73,0
				c-0.72-6.1-2.14-7.7-4.26-4.83c4.95,1.3,9.9,2.62,14.85,3.92c-0.39-1.4,0.12-1.28,0.08-2.57c-0.01,0.01-0.02,0.02-0.04,0.04
				c-3.65-0.68-2.58-2.62,3.21-5.82c1.47,2.56,2.94,5.12,4.39,7.67c0.53-4.92,5.47-8.07,10.02-8.04c-2.96-2.96-5.92-5.92-8.88-8.88
				c0.2,3.79-0.79,6.04-3.65,8.54c5.06,2.1,10.11,4.19,15.16,6.28c-0.54-5.59,2.13-9.98,7.75-11.29c-3.74-2.85-7.5-5.71-11.24-8.56
				c-0.49,6.63-2.74,12.57-6.28,18.16c-5.33,8.41,7.24,18.42,13.95,10.77c7.6-8.66,15.91-16.55,24.93-23.69
				c-5.06-2.1-10.11-4.19-15.16-6.28c-0.3,6.41-0.41,17.41-6.72,21.25c-4.18,2.55-10.84,1.63-15.48,1.73
				c-6.56,0.13-13.13,0.18-19.7,0.15c-26.67-0.11-53.33-1.46-79.94-3.17c-53.21-3.42-106.41-8.34-159.79-7.85
				c-14.64,0.13-29.22,0.82-43.82,1.75c-3.73,0.24-7.47,0.46-11.22,0.44c-0.17,0-4.05-0.43-4.48-0.14c-1.78-0.33-1.68,0.19,0.3,1.56
				c1.54,2.36,2.01,2.12,1.41-0.73c0.82-3.23-0.25-8.34-0.34-11.65c-0.12-3.88-0.23-7.77-0.34-11.65
				C365.79,493.48,348.01,493.43,348.35,504.88L348.35,504.88z"/>
		</g>
	</g>
	<g>
		<g>
			<path class="st2" d="M364.94,568.98c0-0.23,0-0.45,0-0.68c0-2.27-0.99-4.67-2.61-6.28c-0.81-0.86-1.75-1.48-2.85-1.84
				c-1.05-0.56-2.2-0.81-3.42-0.77c-2.3,0.11-4.68,0.85-6.28,2.61c-1.6,1.74-2.61,3.87-2.61,6.28c0,0.23,0,0.45,0,0.68
				c0,2.27,0.99,4.67,2.61,6.28c0.81,0.86,1.75,1.48,2.85,1.84c1.05,0.56,2.2,0.81,3.42,0.77c2.3-0.11,4.68-0.85,6.28-2.61
				C363.94,573.52,364.94,571.38,364.94,568.98L364.94,568.98z"/>
		</g>
	</g>
	<g>
		<g>
			<path class="st2" d="M346.86,569.22c0.06,11.51,1.58,24.08,11.63,31.33c9.85,7.09,24.72,8.3,36.42,9.56
				c27.84,3.01,56.53,0.7,84.43-0.6c28.46-1.33,56.84-4.05,85.3-5.46c29.72-1.47,59.49-1.91,89.24-1.31
				c7.83,0.15,15.66,0.39,23.49,0.69c6.63,0.26,13.37,0.89,19.91-0.64c6.04-1.41,11.41-5.09,14.26-10.68
				c2.82-5.51,1.03-12.79,4.5-17.72c-5.52-1.49-11.04-2.98-16.56-4.49c-0.27,5.44-0.86,10.77-1.99,16.1
				c-0.57,2.7-1.13,5.57-2.06,8.16c-0.09,0.27-0.25,1.1-0.51,1.36c1.28-1.28-0.72-0.14-1.62-0.07c-11.76,0.98-23.34,2.43-35.18,2.71
				c-24.3,0.58-48.59-1.08-72.84-2.45c-23.78-1.35-47.42-1.79-71.23-1.33c-23.52,0.45-47-0.31-70.29-3.85
				c-26.4-4-52.5-11.28-79.42-10.42c0.78,5.82,1.58,11.63,2.36,17.45c32.66-5.8,66.74-0.41,99.65,0.2
				c34.04,0.64,68.08-0.43,102.09-1.49c0-5.92,0-11.84,0-17.77c-25.23,3.19-50.7,6.35-76.17,4.68c-6.03-0.39-12.02-1.07-17.95-2.17
				c-3.19-0.59-6.35-1.28-9.49-2.07c-2.03-0.52-6.36-2.76-8.33-2.4c-0.37-0.12-0.72-0.25-1.09-0.37c0.17,1.82,0.39,2.05,0.68,0.68
				c0.62-0.58,1.14-2.83,1.49-3.62c1.4-3.22,2.81-6.43,4.2-9.64c2.81-6.43,5.61-12.86,8.41-19.29c-5.52-1.49-11.04-2.98-16.56-4.49
				c-0.94,8.66-0.46,17.09,0.91,25.68c4.95-2.88,9.9-5.76,14.85-8.65c-6.49-6.56-14.66-11.93-24.22-8.61
				c-9.5,3.3-12.12,13.93-9.01,22.66c6.23,17.5,27.3,22.03,43.6,23.14c21.72,1.49,43.47-3.02,65.08-4.51
				c22.53-1.55,45.12-1.42,67.65,0.23c4.78,0.36,8.88-4.33,8.88-8.88c0-5.31-4.1-8.27-8.88-8.88c-18.39-2.37-36.82-4.57-55.37-2.74
				c-6.17,0.6-11.76,7.25-7.67,13.37c6.32,9.45,16.34,11.88,27.07,12.96c12.98,1.29,26.07,1.29,39.11,1.08
				c25.9-0.43,52.1-1.89,77.56,3.84c5.92,1.33,13.62-4.2,10.93-10.93c-1.58-3.93-3.15-7.86-4.74-11.8
				c-1.78-4.43-5.93-7.6-10.93-6.21c-4.22,1.18-8.01,6.43-6.21,10.93c1.58,3.93,3.15,7.86,4.74,11.8
				c3.65-3.65,7.28-7.28,10.93-10.93c-23.38-5.26-47.26-5.19-71.08-4.69c-11.94,0.25-23.89,0.54-35.84,0.09
				c-5.47-0.2-11.06-0.38-16.47-1.15c-3.17-0.46-7.79-1.04-9.74-3.96c-2.56,4.45-5.12,8.91-7.67,13.37
				c18.55-1.82,36.98,0.38,55.37,2.74c0-5.92,0-11.84,0-17.77c-33.1-2.42-65.74-0.77-98.68,2.83c-15.18,1.66-31.33,3.39-46.34-0.38
				c-4.63-1.16-10.24-3.04-13.25-7.04c-0.53-0.71-0.81-1.63-1.31-2.32c-0.2-0.5-0.32-1.03-0.38-1.58c-0.41,0.46-0.83,0.92-1.24,1.39
				c0.26,0.46,4.56,3.52,5.54,4.51c6.75,6.82,16.17-0.4,14.85-8.65c-1.11-6.94-1.03-13.98-0.28-20.95
				c0.92-8.55-13.09-12.42-16.56-4.49c-3.42,7.85-6.86,15.72-10.28,23.57c-2.83,6.48-7.41,13.77-6.41,21.11
				c2.06,15.09,24.85,17.22,36.73,19.03c31.17,4.74,62.49,1.16,93.53-2.77c4.76-0.6,8.88-3.65,8.88-8.88c0-4.7-4.06-9.04-8.88-8.88
				c-34.8,1.09-69.62,2.18-104.44,1.44c-33.97-0.71-68.29-5.51-102.03,0.49c-9.9,1.75-7.54,17.77,2.36,17.45
				c25.36-0.81,49.83,6,74.7,9.78c25.3,3.84,50.6,4.96,76.14,4.45c25.76-0.51,51.33,0.26,77.05,1.75c25.76,1.49,51.6,3.04,77.41,1.6
				c7.3-0.4,14.57-1.05,21.82-1.99c6.05-0.78,12.13-1.3,16.58-5.99c3.9-4.12,5.18-10.35,6.36-15.69c1.59-7.19,2.49-14.54,2.85-21.89
				c0.47-9.49-11.88-11.14-16.56-4.49c-2.96,4.22-3.54,8.89-4.12,13.88c-0.52,4.57-0.79,6.05-5.65,6.62
				c-5.2,0.6-10.69-0.15-15.91-0.34c-6.66-0.25-13.3-0.44-19.96-0.58c-26.22-0.56-52.47-0.31-78.68,0.76
				c-51.39,2.07-102.58,7.6-154.06,7.8c-13.81,0.06-27.69-0.52-41.22-3.49c-4.26-0.94-10.87-1.62-13.77-5.35
				c-3.13-4.01-2.68-10.74-2.7-15.48C364.57,557.79,346.8,557.76,346.86,569.22L346.86,569.22z"/>
		</g>
	</g>
	<g>
		<g>
			<path class="st2" d="M730.17,512.17c3.29-2.24,7.97-4.93,11.96-2.69c4.06,2.29,2.9,8.53,2.89,12.46
				c-0.05,12.58-0.91,25.14-2.16,37.66c-0.6,6.08-1.29,12.14-2.01,18.2c-0.37,3.03-0.73,6.06-1.1,9.1c-0.06,0.5-0.72,3.04-0.51,3.47
				c-0.38,1.1-0.19,1.09,0.57-0.05c1.04-0.78,1.04-1.04-0.02-0.81c-1.35-0.89-7,0.31-8.7,0.37c-3.02,0.13-6.04,0.25-9.07,0.38
				c-6.42,0.26-12.85,0.53-19.27,0.79c2.85,3.74,5.71,7.5,8.56,11.24c5.86-14.97,10.67-30.32,14.25-46
				c1.79-7.83,3.28-15.74,4.47-23.68c1.07-7.17,1.3-15.04,4.74-21.57c-5.41-0.71-10.82-1.41-16.24-2.12
				c5.31,26.81-6.85,53.62-11.89,79.54c-0.92,4.76,1.3,9.5,6.21,10.93c8.65,2.51,17.26-1.04,22.62-8.05
				c5.37-7.02,6.95-16.42,8.53-24.9c3.65-19.7,4.63-39.73,5.52-59.7c-5.92,0-11.84,0-17.77,0c-0.64,14.88-1.28,29.75-1.93,44.64
				c-0.59,13.73,0.15,28.28-4.62,41.36c5.82,0.78,11.63,1.58,17.45,2.36c0.96-14.41,1.92-28.83,2.87-43.24
				c0.41-6.17,1.35-13-3.51-17.78c-4.99-4.89-11.5-4.05-16.57-0.01c-3.78,3.02-3.09,9.4,0,12.57c3.66,3.74,8.84,2.97,12.57,0
				c0.32-0.26,0.64-0.51,0.97-0.77c-2.1,0.86-4.19,1.73-6.28,2.61c-3.13-5.1-4.63-6.22-4.51-3.35c-0.04,1.08-0.09,2.17-0.19,3.25
				c-0.14,2.33-0.31,4.68-0.46,7.01c-0.28,4.29-0.57,8.57-0.85,12.85c-0.59,8.95-1.18,17.92-1.79,26.87
				c-0.7,10.59,14.21,11.23,17.45,2.36c5.05-13.83,4.52-29.22,5.15-43.73c0.68-15.66,1.35-31.33,2.03-46.98
				c0.5-11.43-17.27-11.41-17.77,0c-0.36,8.2-2.82,78.82-14.18,75.51c2.07,3.65,4.13,7.28,6.21,10.93
				c5.76-29.61,17.95-58.36,11.89-88.99c-1.48-7.46-12.79-8.66-16.24-2.12c-3.83,7.25-4.97,14.72-6.09,22.74
				c-1.15,8.25-2.63,16.47-4.42,24.61c-3.62,16.42-8.6,32.49-14.73,48.14c-2.08,5.32,3.23,11.46,8.56,11.24
				c9.07-0.38,18.13-0.75,27.2-1.13c7.02-0.3,15.49,0.53,21.27-4.2c6.45-5.29,6.08-14.67,7-22.28c1.05-8.72,2.06-17.43,2.85-26.17
				c0.79-8.73,1.39-17.48,1.62-26.25c0.21-7.89,1.09-16.94-2.18-24.34c-6.94-15.72-26.65-16.23-39.3-7.63
				C711.81,503.23,720.69,518.62,730.17,512.17L730.17,512.17z"/>
		</g>
	</g>
	<g>
		<g>
			<path class="st2" d="M366.12,472.88c-9.57-4.5-19.46-8.76-30.25-7.12c-8.8,1.34-16.53,6.44-20.11,14.78
				c-3.83,8.94-2.26,18.9-0.91,28.2c1.55,10.77,4.03,21.32,7.31,31.68c2.85,9.01,18.8,8.03,17.45-2.36
				c-1.99-15.3-5.15-35.28,5.35-48.36c-5.06-2.1-10.11-4.19-15.16-6.28c2.24,19.89,4.49,39.76,6.73,59.64c0.5,4.39,3,8.16,7.7,8.73
				c4.06,0.49,8.92-1.95,9.75-6.36c3.48-18.37,4.09-37.57,0.15-55.95c-4.01-18.76-26.07-20.16-37.3-6.74
				c-11.59,13.87-7.38,34.1-5,50.39c2.68,18.33,6.25,37.08,1.35,55.36c5.82,0.78,11.63,1.58,17.45,2.36
				c-3.22-25.36-4.01-50.89-2.37-76.39c-5.82,0.78-11.63,1.58-17.45,2.36c3.91,25.08,6.66,50.31,8.31,75.64
				c0.28,4.26,2.63,7.09,6.53,8.56c13.88,5.26,34.58,5.98,35.02-13.45c0.37-16.15-4.56-32.33-13.15-45.93
				c-4.09-6.47-14.02-5.33-16.24,2.12c-5.12,17.26-3.15,35.33,5.05,51.28c3.77,7.32,13.82,4.56,16.24-2.12
				c4.1-11.32,4.75-23.75,1.82-35.45c-1.34-5.34-3.51-11.32-8.52-14.3c-5.65-3.35-12.65-1.44-16.23,3.92
				c-13.19,19.77-0.51,47.31,19.93,55.51c11.84,4.75,24.79,2.45,36.66-1.03c5.64-1.66,10.11-4.44,11.3-10.59
				c1.21-6.25-2.01-13.89-3.59-19.93c-1.53-5.87-3.17-11.71-4.92-17.53c-1.76-5.9-3.15-12.55-6.1-18
				c-6.64-12.26-19.81-9.34-28.15-0.7c-7.07,7.33-12.99,18.48-12.51,28.92c0.6,12.89,12.55,19.38,24.23,15.37
				c18.94-6.5,30.39-35.22,14.31-50.31c-8.28-7.76-21.31-5.59-26.79,4.3c-5.55,10.02-0.75,21.96,9,27.13
				c19.52,10.37,46.9-7.9,51.34-27.89c2.8-12.58-4.83-26.28-19.22-21.06c-11.06,4.01-19.59,17.72-19.21,29.31
				c0.41,12.9,11.43,21.4,23.3,23.72c13.71,2.69,27.73-0.01,39.9-6.67c10.03-5.48,1.08-20.83-8.97-15.34
				c-7.58,4.15-16.25,6.17-24.9,5.08c-5.84-0.73-13.43-3.38-11.03-10.58c0.53-1.61,1.46-3.14,2.44-4.52
				c0.82-1.16,3.08-2.69,3.55-3.84c0.33-0.2,0.68-0.39,1.02-0.56c-3.09-3.92-4.41-4.33-3.94-1.23c-0.49,1.28-0.44,2.82-1.01,4.15
				c-2.68,6.28-9.36,11.23-15.61,13.49c-2.88,1.04-6.66,1.99-9.45,0.21c-0.78-0.5-1.65-1.59-1.98-1.91
				c0.12,0.12,0.06-1.21,0.18-1.01c-1.22-0.33-1.53-0.31-0.92,0.06c0.32,0.2,0.57,0.46,0.76,0.81c0.3,1.01,0.99,1.87,1.21,2.95
				c0.65,3.21-0.52,7.01-2.04,9.78c-1.37,2.52-3.36,4.77-5.86,6.22c-1.1,0.64-2.07,1.08-3.32,1.27c-0.19,0.44,0.06,0.79,0.75,1.07
				c-0.08-0.88-0.04-1.74,0.13-2.59c0.59-4.09,5.93-16.97,11.07-16.31c-1.49-0.4-2.98-0.81-4.49-1.21c1.2,0.56,2.39,5.72,3.14,8.09
				c1.36,4.33,2.66,8.7,3.92,13.08c2.45,8.59,5.15,17.36,6.58,26.19c0-1.58,0-3.15,0-4.73c0.43-2.17,3.97-2.04,0.04-1.52
				c-1.78,0.24-3.67,0.99-5.44,1.42c-3.22,0.76-6.43,1.39-9.76,1.46c-5.2,0.11-10.29-1.21-14.47-4.42
				c-3.78-2.9-6.54-7.01-7.69-11.63c-0.64-2.56-0.86-5.19-0.59-7.82c0.14-1.39,0.66-2.69,0.88-4.05c0.13-0.53,0.31-1.05,0.52-1.56
				c0.63-1.29,0.11-1.05-1.54,0.71c-1.58,0-3.15,0-4.73,0c-1.93-0.76-1.28-1.43-1.2,0.41c0.06,1.22,0.78,2.68,1.05,3.9
				c0.65,2.85,0.94,5.7,0.96,8.63c0.06,5.71-1.09,11.04-3.03,16.39c5.41-0.71,10.82-1.41,16.24-2.12c-6.04-11.76-7-24.97-3.26-37.59
				c-5.41,0.71-10.82,1.41-16.24,2.12c5.22,8.27,8.82,17.26,10.17,26.98c0.32,2.3,0.47,4.61,0.53,6.93
				c0.04,1.36,0.04,2.71-0.01,4.07c2.42-1.55,3.02-2.25,1.82-2.11c0.21,0.76-13.3-2.2-14.34-2.59c2.18,2.85,4.35,5.71,6.53,8.56
				c-1.76-26.91-4.8-53.71-8.95-80.36c-1.62-10.4-16.84-7.05-17.45,2.36c-1.65,25.5-0.85,51.03,2.37,76.39
				c1.17,9.26,14.63,12.85,17.45,2.36c7.6-28.31-2.44-55.53-3.34-83.86c-0.18-5.44-0.05-11.9,4.15-15.95
				c1.02-0.98,3.58-3.03,5.1-2.1c0.86,0.53,1.15,4.82,1.33,5.9c2.4,14.33,2,29.25-0.7,43.5c5.82,0.78,11.63,1.58,17.45,2.36
				c-2.24-19.89-4.49-39.76-6.73-59.64c-0.75-6.63-9.78-12.98-15.16-6.28c-14.15,17.64-13.32,39.63-10.55,60.92
				c5.82-0.78,11.63-1.58,17.45-2.36c-4.23-13.36-8.21-28.02-8.18-42.14c0.02-15.81,17-9.59,26.06-5.34
				C367.43,493.05,376.47,477.74,366.12,472.88L366.12,472.88z"/>
		</g>
	</g>
	<g>
		<g>
			<path class="st1" d="M347.61,401.69c-11.41-4.44-11.86,17.93-11.99,23.95c-0.3,14.12,2.88,27.92,8.79,40.71
				c1.11-1.44,2.23-2.9,3.34-4.35c-14.38-4.44-28.4,5.48-34.19,18.35c-7.47,16.59-5.52,37.33-5.52,55.04
				c0,10.77,0.18,21.53,0.53,32.29c0.17,5,0.36,9.98,0.59,14.98c0.2,4.31-0.32,9.78,1.6,13.8c3.19,6.69,13.19,6.64,19.39,7.71
				c10.68,1.84,21.37,3.6,32.11,5.05c42.32,5.72,84.91,2.35,127.45,3.83c43.26,1.49,86.43,5.05,129.71,6.13
				c23.86,0.6,47.76,0.46,71.58-1.21c21.89-1.53,44.67-3.22,65.03-12.01c3.49-1.5,0.47-6.61-2.98-5.12
				c-17.29,7.46-36.57,9.14-55.13,10.68c-19.57,1.61-39.21,2.16-58.84,2.05c-38.63-0.21-77.2-2.94-115.76-4.95
				c-19.29-1.01-38.61-1.84-57.93-2.1c-19.52-0.26-39.04,0.63-58.57,0.33c-19.83-0.3-39.5-2.61-59.05-5.72
				c-9-1.43-18.8-2.17-27.54-4.75c-5.67-1.67-4.77-6.4-5.02-11.42c-0.25-4.99-0.46-9.98-0.63-14.98
				c-0.75-21.44-1.18-43.05-0.12-64.49c0.47-9.47,1.73-19.73,7.28-27.73c5.42-7.82,14.98-12.98,24.44-10.06
				c2.68,0.83,4.36-2.16,3.34-4.35c-4.13-8.95-6.83-18.55-7.67-28.39c-0.24-2.81-0.39-29.35,4.19-27.57
				C349.58,408.79,351.12,403.06,347.61,401.69L347.61,401.69z"/>
		</g>
	</g>
	<g>
		<g>
			<path class="st1" d="M334.97,605.54c-0.27-0.3-0.54-0.6-0.82-0.9c-1.66-2.78-6.6-0.97-5.41,2.29c1.65,4.52,2.78,12.29,6.93,15.3
				c4.3,3.11,12.51,1.39,17.43,1.39c5.18,0.01,11.78,1.17,16.6-1.23c4.99-2.49,4.93-8.43,9.06-11.51c3.02-2.25,0.07-7.39-2.98-5.12
				c-2.51,1.87-3.8,3.88-5.23,6.62c-0.81,1.54-1.55,3.55-3.08,4.55c-2.08,1.36-6.11,0.77-8.48,0.77c-4.92-0.01-10.42,0.63-15.3-0.02
				c-3.55-0.47-4.49-0.95-6.16-3.86c-1.41-2.46-2.11-5.79-3.08-8.47c-1.8,0.76-3.61,1.52-5.41,2.29c0.9,1.5,1.48,2.06,2.94,3.02
				C335.17,612.75,338.14,607.63,334.97,605.54L334.97,605.54z"/>
		</g>
	</g>
	<g>
		<g>
			<path class="st1" d="M700.44,615.95c0.64,4.93-1.58,11.04,2.63,14.98s12.36,1.22,17.32,0.64c5.19-0.6,12.91-0.01,17.02-3.81
				c4.3-3.99,6.62-11.11,8.55-16.49c1.28-3.6-4.43-5.14-5.71-1.58c-1.24,3.47-2.61,7.12-4.62,10.24c-2.04,3.16-3.46,4.32-7.27,4.78
				c-1.89,0.24-3.8,0.44-5.7,0.66c-3.51,0.4-7.9,1.69-11.39,1.31c-6.89-0.73-4.33-6.23-4.92-10.75
				C705.87,612.22,699.95,612.17,700.44,615.95L700.44,615.95z"/>
		</g>
	</g>
	<g>
		<g>
			<path class="st1" d="M347.14,407.25c18.12-6.87,38.4-5.9,57.49-6.38c20.16-0.52,40.36-0.69,60.5,0.66
				c20.1,1.35,39.49,5.01,59.1,9.43c19.04,4.29,37.13,4.39,56.48,2.12c19.85-2.33,39.69-4.5,59.62-6
				c17.35-1.31,36.92-4.55,54.05-0.17c18.96,4.84,24.54,21.59,26.68,39.17c1.2,9.74,2.16,19.51,3.23,29.25
				c0.65,5.95-0.11,15.17,5.68,18.88c7.47,4.8,17.72,1.34,25.38,5.87c5.82,3.43,5,9.45,4.38,15.25c-0.58,5.46-1.17,10.91-1.75,16.37
				c-2.5,23.38-5.01,46.75-7.51,70.13c-0.4,3.79,5.52,3.75,5.92,0c2.3-21.42,4.6-42.85,6.88-64.29c0.54-5.07,1.09-10.13,1.62-15.2
				c0.54-5.13,1.76-10.73,1.17-15.91c-0.72-6.22-4.89-10.58-10.59-12.85c-3.32-1.33-6.8-1.79-10.32-2.16
				c-2.64-0.27-5.51-0.23-8.05-0.97c-4.6-1.35-5.59-3.74-6.12-8.15c-1.27-10.47-2.3-20.97-3.46-31.46
				c-1.67-15.16-3.75-32.17-16.46-42.39c-12.02-9.68-28.74-9.78-43.39-9.07c-21.02,1.03-42.03,2.77-62.96,4.99
				c-20.88,2.21-42.26,6.53-63.28,3.79c-19.96-2.61-39.24-8.73-59.31-11.04c-23.06-2.65-46.32-2.84-69.5-2.38
				c-21.98,0.44-46.18-1.14-67.07,6.79C342.04,402.88,343.57,408.6,347.14,407.25L347.14,407.25z"/>
		</g>
	</g>
	<g>
		<g>
			<path class="st1" d="M344.14,466.61c11.71,5.58,9.12,19.81,5.4,29.68c-3.8,10.09-8.76,19.72-7.28,30.82
				c0.98-0.98,1.98-1.98,2.96-2.96c-8.67,1.08-18.22-4.07-26.59-0.58c-6.93,2.89-9.23,10.75-6.22,17.37
				c3.39,7.47,11.96,9.91,19.46,7.64c9.66-2.94,14.7-12.28,17.11-21.42c0.86-3.25-3.67-5.18-5.41-2.29c-0.84,1.4-1.69,2.81-2.53,4.2
				c-1.97,3.27,3.15,6.25,5.12,2.98c0.84-1.4,1.69-2.81,2.53-4.2c-1.8-0.76-3.61-1.52-5.41-2.29c-1.67,6.28-4.46,12.99-10.52,16.24
				c-5.93,3.17-15.53,1.61-15.79-6.55c-0.38-12,21.34-4.35,28.25-5.21c1.42-0.18,3.2-1.22,2.96-2.96
				c-1.98-14.84,8.46-26.99,10.3-41.26c1.24-9.56-2.23-20-11.36-24.35C343.7,459.87,340.69,464.97,344.14,466.61L344.14,466.61z"/>
		</g>
	</g>
	<g>
		<g>
			<path class="st1" d="M340.46,535.5c1.17,20.55,0.18,41.09-3.1,61.4c-0.6,3.73,5.1,5.33,5.71,1.58
				c3.36-20.86,4.51-41.88,3.32-62.97C346.17,531.71,340.25,531.69,340.46,535.5L340.46,535.5z"/>
		</g>
	</g>
	<g>
		<g>
			<path class="st1" d="M354.78,492.39c-3.26,18.06,23.77,13.7,33.66,13.31c20.79-0.83,41.56-1.66,62.34-2.49
				c20.48-0.82,41.03-1.24,61.48-2.48c6.59-0.4,13.5-1.41,18.68-5.86c5.44-4.68,7.12-11.87,7.54-18.74
				c1.31-21.42-2.82-44.09-8.44-64.68c-1.01-3.67-6.72-2.11-5.71,1.58c5.4,19.78,8.92,40.73,8.3,61.29
				c-0.33,11.03-4.77,18.58-16.3,20.12c-9.95,1.33-20.26,1.04-30.28,1.44c-21.18,0.84-42.34,1.69-63.52,2.53
				c-10.2,0.4-20.38,0.82-30.58,1.22c-5.25,0.21-33.28,4.35-31.48-5.67C361.17,490.23,355.46,488.63,354.78,492.39L354.78,492.39z"
				/>
		</g>
	</g>
	<g>
		<g>
			<path class="st1" d="M536.2,476.1c-2.5,13.76,10.02,22.25,22.3,23.44c8.93,0.86,18.11-0.33,27.06-0.56
				c9.18-0.24,18.36-0.25,27.54-0.05c18.32,0.41,36.5,1.97,54.73,3.83c18.3,1.87,36.32,2.68,54.2-2.44c3.66-1.04,2.1-6.76-1.58-5.71
				c-30.26,8.67-62.81,0.33-93.59-1.11c-15.28-0.72-30.59-0.82-45.88-0.3c-7.62,0.26-15.49,1.3-23.08,0.33
				c-7.91-1.02-17.71-6.37-15.98-15.85C542.6,473.95,536.89,472.35,536.2,476.1L536.2,476.1z"/>
		</g>
	</g>
	<g>
		<g>
			<path class="st1" d="M724.49,495.02c-7.25,18.82-9.39,38.74-6.67,58.7c0.28,2.11,3.66,2.96,4.95,1.3
				c3.85-4.92,8.84-9.55,15.23-10.61c6.99-1.16,16.57,3.83,14.95,12.06c-1.41,7.12-9.57,10.97-16.17,9.29
				c-6.68-1.71-11.29-7.31-14.03-13.32c-1.3-2.84-5.4-1.2-5.52,1.49c-0.73,17.86-1.48,35.72-2.21,53.58c-0.15,3.81,5.77,3.8,5.92,0
				c0.73-17.86,1.48-35.72,2.21-53.58c-1.84,0.5-3.68,0.99-5.52,1.49c3.94,8.62,11.71,16.05,21.57,16.69
				c9.15,0.6,18.52-6.35,19.7-15.62c1.11-8.88-6.19-16.05-14.44-17.78c-10.33-2.16-19.81,4.37-25.88,12.13
				c1.65,0.44,3.3,0.88,4.95,1.3c-2.57-18.87-0.17-37.8,6.67-55.55C731.57,493.04,725.85,491.5,724.49,495.02L724.49,495.02z"/>
		</g>
	</g>
	<g>
		<g>
			<path class="st1" d="M348.78,528.89c94.23,8.46,188.83,12.63,283.44,12.41c26.59-0.06,53.17-0.49,79.74-1.22
				c3.8-0.11,3.81-6.03,0-5.92c-94.57,2.64-189.25,0.98-283.66-5.06c-26.53-1.69-53.04-3.75-79.51-6.12
				C344.98,522.64,345,528.56,348.78,528.89L348.78,528.89z"/>
		</g>
	</g>
	<g>
		<g>
			<path class="st1" d="M348.51,576.1c3.81,0,3.81-5.92,0-5.92C344.69,570.18,344.69,576.1,348.51,576.1L348.51,576.1z"/>
		</g>
	</g>
	<g>
		<g>
			<path class="st1" d="M349.04,575.03c22.85-5.13,46.24-5.89,69.57-5.7c23.75,0.19,47.5,0.86,71.23,1.78
				c47.78,1.84,95.49,4.96,143.11,9.36c27.31,2.52,54.59,5.48,81.82,8.84c3.78,0.46,3.74-5.46,0-5.92
				c-96.38-11.88-193.42-18.65-290.52-19.91c-25.72-0.33-51.55,0.18-76.77,5.85C343.74,570.15,345.32,575.86,349.04,575.03
				L349.04,575.03z"/>
		</g>
	</g>
</g>
<g>
	<g>
		<path class="st3" d="M331.92,534.49c1.48,11.19,2.94,22.37,4.42,33.56c0.38,2.93,5.06,2.98,4.67,0
			c-1.48-11.19-2.94-22.37-4.42-33.56C336.21,531.56,331.53,531.52,331.92,534.49L331.92,534.49z"/>
	</g>
</g>
<g>
	<g>
		<path class="st3" d="M334.78,537c7.92-8.35,19.2,0.18,19.83,9.7c0.31,4.69-1.26,9.2-3.92,13.05c-0.7,1.02-10.42,10.77-10.86,9.88
			c-1.33-2.7-5.35-0.34-4.04,2.35c3.1,6.31,11.71-1.84,14.44-4.51c5.56-5.45,9.49-12.81,9.04-20.75
			c-0.38-6.73-3.78-13.31-10.13-16.13c-5.99-2.66-13.11-1.68-17.68,3.12C329.41,535.87,332.71,539.18,334.78,537L334.78,537z"/>
	</g>
</g>
<g>
	<g>
		<path class="st3" d="M390.04,542.86c-13.03-1.18-11.93,24.62,2.08,23.72c6.06-0.39,11.05-6.19,10.64-12.19
			c-0.47-6.69-6.46-11.27-12.74-11.92c-2.99-0.32-2.96,4.36,0,4.67c3.54,0.37,6.94,2.85,7.87,6.39c0.94,3.64-1.71,7.62-5.41,8.32
			c-8.58,1.64-9.14-14.9-2.45-14.3C393.04,547.81,393.03,543.14,390.04,542.86L390.04,542.86z"/>
	</g>
</g>
<g>
	<g>
		<path class="st3" d="M420.86,544.49c-8.44,2.34-11.53,12.48-6.1,19.29c5.99,7.51,16.4,6.34,23.03,0.46c2.25-2-1.06-5.29-3.31-3.31
			c-4.11,3.64-10.33,5.08-14.81,1.21c-4.57-3.94-3.73-11.43,2.44-13.15C425,548.19,423.77,543.69,420.86,544.49L420.86,544.49z"/>
	</g>
</g>
<g>
	<g>
		<path class="st3" d="M444.14,545.9c0.57,6.1,3,19.72,10.93,20.57c8.42,0.92,7.62-17.15,7.29-22.12c-0.2-3.04-4.37-2.97-4.67,0
			c-0.7,6.99,2.15,21.22,11.7,19.86c2.96-0.42,1.7-4.92-1.24-4.5c-2.75,0.39-4.77-5.59-5.29-7.51c-0.71-2.58-0.76-5.19-0.5-7.84
			c-1.56,0-3.11,0-4.67,0c0.18,2.63,0.21,5.24-0.02,7.88c-0.1,1.16-0.43,7.91-1.67,8.66c-1.1,0.67-2.95-1.65-3.47-2.36
			c-0.83-1.13-1.35-2.76-1.84-4.06c-1.04-2.76-1.62-5.63-1.89-8.56C448.54,542.94,443.86,542.91,444.14,545.9L444.14,545.9z"/>
	</g>
</g>
<g>
	<g>
		<path class="st3" d="M477.21,543.64c1.55,5.97,3.11,11.93,4.66,17.9c0.65,2.52,4.66,2.04,4.59-0.62
			c-0.1-3.68-0.87-12.69,2.61-14.64c1.99-1.11,1.5-0.45,2.07,1.43c0.33,1.08,0.62,2.19,0.93,3.27c0.69,2.46,1.38,4.92,2.07,7.36
			c0.7,2.5,4.64,2.06,4.59-0.62c-0.07-2.97,0.08-5.88,0.61-8.8c0.09-0.54,0.43-3.92,1.01-4.19c1.21-0.52,2.53,1.2,3.14,1.9
			c3.67,4.23,5.78,9.43,6.31,14.99c0.28,2.97,4.95,3,4.67,0c-0.68-7.33-4.29-18.53-11.85-21.68c-8.73-3.64-8.67,13.09-8.57,17.78
			c1.53-0.21,3.06-0.41,4.59-0.62c-1.34-4.74-2.44-18.56-10.19-16.86c-7.49,1.65-6.84,15.02-6.67,20.66
			c1.53-0.21,3.06-0.41,4.59-0.62c-1.55-5.97-3.11-11.93-4.66-17.9C480.97,539.49,476.45,540.72,477.21,543.64L477.21,543.64z"/>
	</g>
</g>
<g>
	<g>
		<path class="st3" d="M522.01,553.13c4.62-1.42,9.6-2.47,14.02-4.41c2.99-1.31,5.11-3.85,3.99-7.23c-2.25-6.8-11.32-8.4-14.21-1.4
			c-2.56,6.2-0.53,14.36,4.8,18.46c5.43,4.17,13.94,2.84,14.72-4.79c0.31-2.99-4.37-2.97-4.67,0c-0.61,5.93-8.01,0.89-9.45-1.36
			c-1.59-2.49-2.11-5.7-1.6-8.59c0.09-0.82,0.32-1.62,0.68-2.37c2.99-1.41,4.4-0.96,4.24,1.35c0.67,1.35,0.2,2.05-1.41,2.06
			c-0.78,0.23-1.54,0.48-2.32,0.71c-3.35,1.03-6.69,2.06-10.05,3.08C517.9,549.51,519.12,554.02,522.01,553.13L522.01,553.13z"/>
	</g>
</g>
<g>
	<g>
		<path class="st3" d="M551.58,538.65c1,6.74,1.86,13.48,2.61,20.26c0.32,2.92,4.79,3.07,4.67,0c-0.1-2.65,0.03-19.13,6.32-14.5
			c1.76,1.29,3.06,4.71,3.93,6.64c1.33,2.92,2.22,5.95,2.91,9.08c0.64,2.93,5.14,1.69,4.5-1.24c-1.34-6.13-5.33-20.98-13.81-20.26
			c-8.58,0.73-8.76,14.25-8.53,20.28c1.56,0,3.11,0,4.67,0c-0.79-7.19-1.72-14.35-2.78-21.5
			C555.64,534.44,551.14,535.7,551.58,538.65L551.58,538.65z"/>
	</g>
</g>
<g>
	<g>
		<path class="st3" d="M580.04,540.2c5.53-0.11,10.78-1.4,15.77-3.79c2.71-1.3,0.35-5.33-2.35-4.04c-4.23,2.03-8.73,3.06-13.42,3.16
			C577.03,535.59,577.02,540.27,580.04,540.2L580.04,540.2z"/>
	</g>
</g>
<g>
	<g>
		<path class="st3" d="M585.55,528.77c-0.33,8.09,0.15,18.27,4.03,25.6c2.21,4.2,9.06,5.8,10.32-0.03c0.63-2.93-3.87-4.19-4.5-1.24
			c-1.46-0.06-2.22-0.86-2.3-2.41c-0.36-1.11-0.69-2.24-0.99-3.37c-0.45-1.7-0.82-3.42-1.12-5.15c-0.77-4.43-0.93-8.91-0.75-13.39
			C590.35,525.77,585.67,525.77,585.55,528.77L585.55,528.77z"/>
	</g>
</g>
<g>
	<g>
		<path class="st3" d="M618.61,538.59c-10.15-4.27-14.19,13.42-9.5,19.58c2.24,2.94,6.74,3.88,9.44,1.01
			c3.64-3.86,4.23-10.97,3.72-15.9c-1.45,0.39-2.91,0.78-4.35,1.18c2.5,5.4,5.4,10.53,8.76,15.45c1.68,2.47,5.74,0.13,4.04-2.35
			c-3.35-4.91-6.26-10.05-8.76-15.45c-0.95-2.06-4.59-1.09-4.35,1.18c0.23,2.3-0.29,14.99-4.22,12.36c-3.39-2.27-1.23-14.75,4-12.55
			C620.14,544.27,621.34,539.74,618.61,538.59L618.61,538.59z"/>
	</g>
</g>
<g>
	<g>
		<path class="st3" d="M632.83,539.72c5.55-0.9,11.01-2.14,16.4-3.74c2.88-0.85,1.65-5.36-1.24-4.5c-5.39,1.6-10.85,2.84-16.4,3.74
			C628.62,535.7,629.87,540.2,632.83,539.72L632.83,539.72z"/>
	</g>
</g>
<g>
	<g>
		<path class="st3" d="M636.44,528.74c-0.1,5.37,0.16,10.73,0.86,16.06c0.53,4,0.72,9.91,3.09,13.35c4.78,6.93,11.97-4.39,13.8-8.2
			c1.3-2.7-2.73-5.07-4.04-2.35c-0.74,1.53-2.97,6.62-4.7,6.81c-2.69,0.31-2.75-4.98-3.09-7.07c-1.03-6.16-1.37-12.36-1.26-18.6
			C641.17,525.73,636.5,525.73,636.44,528.74L636.44,528.74z"/>
	</g>
</g>
<g>
	<g>
		<path class="st3" d="M660.55,539.41c0.96,5.16,1.74,10.34,2.33,15.55c0.33,2.93,4.95,3.02,4.67,0c-0.06-0.64-0.12-1.27-0.18-1.91
			c-0.28-2.97-4.95-3-4.67,0c0.06,0.64,0.12,1.27,0.18,1.91c1.56,0,3.11,0,4.67,0c-0.64-5.63-1.46-11.22-2.49-16.79
			C664.51,535.22,660.01,536.46,660.55,539.41L660.55,539.41z"/>
	</g>
</g>
<g>
	<g>
		<path class="st3" d="M660.76,531.11c3.01,0,3.01-4.67,0-4.67S657.75,531.11,660.76,531.11L660.76,531.11z"/>
	</g>
</g>
<g>
	<g>
		<path class="st3" d="M672.01,539.41c0.84,5.46-1.91,13.11,4.57,16.22c5.32,2.56,10.57-2.83,12.05-7.55
			c1.49-4.73-0.02-10.3-4.6-12.68c-4.34-2.26-9.57-1.2-12.44,2.76c-1.77,2.44,2.29,4.78,4.04,2.35c1.48-2.04,4.68-2.02,6.65-0.74
			c2.64,1.72,2.69,5.45,1.46,8.05c-1.47,3.11-5.57,5.57-6.89,1.02c-0.97-3.35,0.21-7.2-0.33-10.67
			C676.06,535.2,671.56,536.46,672.01,539.41L672.01,539.41z"/>
	</g>
</g>
<g>
	<g>
		<path class="st3" d="M694.23,536.54c1.07,5.44,2.15,10.87,3.21,16.31c0.46,2.34,3.92,2.11,4.5,0c1.58-5.61-1.5-13.91,6.83-15.02
			c8.47-1.11,12.14,8.53,12.44,15.28c0.13,3,4.8,3.01,4.67,0c-0.39-9.04-5.13-19.53-15.49-20.03c-3.87-0.19-7.74,1.46-10.18,4.49
			c-3.46,4.31-1.41,9.18-2.78,14.03c1.5,0,3,0,4.5,0c-1.07-5.44-2.15-10.87-3.21-16.31C698.16,532.34,693.65,533.59,694.23,536.54
			L694.23,536.54z"/>
	</g>
</g>
</svg>
