<?xml version="1.0" encoding="utf-8"?>
<!-- Generator: Adobe Illustrator 23.0.1, SVG Export Plug-In . SVG Version: 6.00 Build 0)  -->
<svg version="1.1" id="Layer_1" xmlns="http://www.w3.org/2000/svg" xmlns:xlink="http://www.w3.org/1999/xlink" x="0px" y="0px"
	 viewBox="0 0 1000 1000" style="enable-background:new 0 0 1000 1000;" xml:space="preserve">
<style type="text/css">
	.st0{fill:#040000;}
	.st1{fill:#B7DDED;}
</style>
<g>
	<g>
		<path class="st0" d="M381.07,162.83c-15.87,14.96-44.73,19.63-62.91,5.7c-1.23-0.94-2.9-2.25-3.51-3.75
			c-1.68-4.1,0.66-4.98,3.24-6.19c2.94-1.38,6.18-2.36,9.31-3.19c6.04-1.6,12.26-2.35,18.51-2.29c6.25,0.06,12.46,0.94,18.48,2.62
			c3.16,0.89,6.27,1.97,9.26,3.31c1.47,0.66,2.92,1.38,4.35,2.14c0.47,0.26,0.94,0.52,1.41,0.78c1.29,1.35,2.41,1.03,3.34-0.97
			c0.61,0.8,1.22,1.61,1.84,2.41c-0.02-0.18-0.04-0.37-0.07-0.55c-0.38-3.16-5.38-3.19-5,0c0.02,0.18,0.04,0.37,0.07,0.55
			c0.14,1.21,0.7,1.97,1.84,2.41c3.51,1.36,5.9-2.33,4.14-5.31c-1.27-2.15-4.37-3.31-6.48-4.38c-3.07-1.55-6.26-2.9-9.52-4.01
			c-13.16-4.5-27.6-5.19-41.15-2.11c-5.36,1.22-13.5,2.95-17.31,7.28c-3.58,4.07-1.68,9.41,1.64,12.98
			c8,8.58,22.7,11.57,33.93,11.39c14.15-0.23,27.82-5.56,38.13-15.27C386.95,164.15,383.41,160.62,381.07,162.83L381.07,162.83z"/>
	</g>
</g>
<g>
	<g>
		<path class="st0" d="M311.72,172.97c3.22,0,3.22-5,0-5S308.5,172.97,311.72,172.97L311.72,172.97z"/>
	</g>
</g>
<g>
	<g>
		<path class="st0" d="M311.14,170.41c-3.47,5.91-1.42,13.13,3.53,17.59c6.7,6.02,16.75,5.37,25.1,5.09
			c10.82-0.36,21.69-0.92,32.38-2.69c3.53-0.58,6.98-1.51,8.72-4.93c2.06-4.06,2.01-9.8,2.68-14.24c0.47-3.15-4.35-4.51-4.82-1.33
			c-0.49,3.31-0.92,6.65-1.48,9.95c-0.85,4.96-4.86,5.54-9.19,6.15c-7.51,1.05-15.09,1.55-22.66,1.88
			c-6.62,0.29-13.9,1.18-20.42-0.33c-6.21-1.43-13.61-7.64-9.52-14.61C317.09,170.15,312.77,167.63,311.14,170.41L311.14,170.41z"/>
	</g>
</g>
<g>
	<g>
		<path class="st0" d="M333.62,131.52c-9.72,2.03-19.11-0.76-28.31-3.8c-8.72-2.88-17.26-5.54-26.39-6.76
			c-14.88-1.99-35.01-4.86-47.95,4.78c-10.46,7.79-13.65,22.07-3.84,31.74c4.98,4.91,11.52,7.77,17.33,11.53
			c7.81,5.05,14.57,11.54,20.09,19.01c1.89,2.56,6.23,0.07,4.32-2.52c-8.64-11.68-19.25-18.96-31.4-26.48
			c-5.81-3.6-11.93-8.47-11.47-16.05c0.49-8.11,7.61-14.3,14.84-16.69c7.92-2.63,16.53-2.09,24.74-1.56
			c8.24,0.53,16.49,1.35,24.5,3.44c14.9,3.88,29.08,11.49,44.87,8.19C338.09,135.69,336.76,130.87,333.62,131.52L333.62,131.52z"/>
	</g>
</g>
<g>
	<g>
		<path class="st0" d="M237.24,143.8c11.88,8.45,24.46,15.58,37.7,21.67c2.66,1.22,6.34,2.56,7.7,5.39
			c1.84,3.82-1.68,7.37-4.39,9.59c-5.06,4.15-11.13,7.11-16.4,11.01c-19.03,14.1-35.62,37.65-26.1,62.2
			c1.15,2.97,5.99,1.68,4.82-1.33c-5.56-14.34-1.09-29.94,8.14-41.7c4.45-5.67,9.87-10.56,15.65-14.85
			c5.24-3.89,11.09-6.92,16.25-10.89c3.81-2.94,7.68-6.98,7.51-12.14c-0.17-5.03-4.02-8.28-8.18-10.43
			c-13.86-7.16-27.42-13.74-40.2-22.84C237.14,137.62,234.64,141.95,237.24,143.8L237.24,143.8z"/>
	</g>
</g>
<g>
	<g>
		<path class="st0" d="M236.61,253.29c-0.75,7.47,7.86,10,13.75,10.43c10.62,0.76,21.41-1.44,31.37-5.01
			c20.59-7.38,37.49-21.99,57.91-29.55c39.35-14.55,75.32,16.6,113.64,20.31c8.18,0.79,20.02,1.92,21.96-8.44
			c1.15-6.12,0.77-12.86,0.63-19.06c-0.17-7.19-0.76-14.35-1.69-21.49c-0.41-3.15-5.41-3.19-5,0c1.43,11.03,2.02,22.13,1.6,33.25
			c-0.08,2.25,0.16,5.14-0.64,7.3c-1.31,3.55-4.57,3.67-7.8,3.78c-4.55,0.16-9.15-0.22-13.64-0.93
			c-17.09-2.69-33.03-9.93-49.23-15.67c-15-5.32-30.89-9.6-46.92-7.44c-18.19,2.45-33.45,13.07-48.98,22.02
			c-9.95,5.73-20.37,10.79-31.53,13.69c-4.6,1.19-31.42,6.6-30.43-3.19C241.93,250.09,236.93,250.11,236.61,253.29L236.61,253.29z"
			/>
	</g>
</g>
<g>
	<g>
		<path class="st0" d="M335.27,137.78c35.44,6.02,64.33-16.4,95-29.79c5.04-2.2,9.19-2.06,12.53,2.62c2.36,3.3,3.65,7.4,4.62,11.29
			c2.2,8.73,1.5,17.76-3.57,25.39c-2.31,3.47-5.37,6.36-8.91,8.53c-3.16,1.94-6.71,3.23-9.54,5.68c-4.53,3.92-6.7,10.1-2.86,15.28
			c4.61,6.22,13.79,10.6,20.5,14.06c8.48,4.36,17.45,7.64,26.7,9.91c3.12,0.77,4.46-4.05,1.33-4.82c-8.56-2.1-16.85-5.04-24.73-9.02
			c-3.63-1.84-7.17-3.86-10.58-6.07c-4.33-2.8-11.62-6.24-9.63-12.49c1.2-3.76,6.89-5.71,10-7.46c3.08-1.73,5.91-3.83,8.34-6.41
			c4.65-4.95,7.8-11.25,8.82-17.98c1.59-10.48-1.6-30.47-13.49-34.55c-6.64-2.28-13.81,2.44-19.54,5.27
			c-7.98,3.95-15.8,8.25-23.76,12.24c-18.47,9.25-38.91,17.05-59.9,13.48C333.45,132.42,332.1,137.24,335.27,137.78L335.27,137.78z"
			/>
	</g>
</g>
<g>
	<g>
		<path class="st0" d="M237.9,230c8.65,10.51,22.81,12.74,35.62,10.5c16.38-2.86,29.67-13.84,43.66-22.01
			c15.96-9.32,33.92-13.63,52.37-11.45c9.55,1.13,18.64,4.11,27.23,8.38c7.77,3.87,15.36,8.4,23.78,10.76
			c7.66,2.15,16.3,2.55,23.68-0.83c4.1-1.87,10.56-8.81,4.17-12.23c-2.84-1.51-5.37,2.8-2.52,4.32c0.75,0.4-2.46,2.75-2.76,2.91
			c-1.86,1-3.94,1.65-6.01,2.03c-4,0.73-8.12,0.52-12.1-0.27c-8.05-1.61-15.3-5.68-22.52-9.4c-12.78-6.58-26.07-10.84-40.54-11.22
			c-14.31-0.37-28.59,2.86-41.33,9.38c-13.31,6.81-24.97,16.92-39.05,22.23c-13.29,5.01-30.4,5.18-40.13-6.65
			C239.39,223.98,235.88,227.53,237.9,230L237.9,230z"/>
	</g>
</g>
<g>
	<g>
		<path class="st0" d="M439.75,133.86c-7.33,4.38-14.66,8.76-21.99,13.14c-4.81,2.88-11.9,5.65-14.87,10.74
			c-2.37,4.07-0.91,8.51,2.72,11.2c4.71,3.5,11.69,2.28,15.82,6.44c2.27,2.29,5.81-1.25,3.54-3.54c-2.6-2.62-5.74-3.66-9.28-4.44
			c-2.47-0.54-5.72-0.92-7.59-2.82c-3.15-3.2,0.5-6.15,3.16-7.87c10.1-6.52,20.7-12.38,31.02-18.55
			C445.03,136.53,442.52,132.21,439.75,133.86L439.75,133.86z"/>
	</g>
</g>
<g>
	<g>
		<path class="st0" d="M317.05,239.87c0.39,7.65,0.78,15.31,1.17,22.96c0.28,5.56-0.41,12.45,1.96,17.66
			c1.99,4.39,6.09,6.27,10.68,6.86c7.03,0.9,14.43,0.34,21.51,0.39c5.17,0.04,11.38,0.88,15.3-3.26c3.13-3.3,3.6-8.2,3.9-12.51
			c1.08-15.62,1.76-31.28,2.65-46.91c0.18-3.21-4.82-3.2-5,0c-0.64,11.4-1.29,22.8-1.93,34.2c-0.3,5.35-0.2,10.95-1.08,16.24
			c-0.48,2.85-1.41,5.84-4.45,6.91c-2.68,0.95-6.62,0.34-9.39,0.32c-5.61-0.04-11.23-0.02-16.84-0.13
			c-6.52-0.13-11.13-1.53-11.73-8.82c-0.93-11.26-1.16-22.63-1.74-33.92C321.89,236.67,316.89,236.65,317.05,239.87L317.05,239.87z"
			/>
	</g>
</g>
<g>
	<g>
		<path class="st0" d="M313.98,262.79c-7.54,2.28-14.72,5.56-21.22,10.03c-4.93,3.39-11.38,8.12-10.88,14.89
			c0.4,5.45,5.19,8.75,9.83,10.62c7.77,3.13,16.52,4.6,24.77,5.8c17.35,2.52,34.99,2.36,52.38,0.29
			c12.32-1.47,29.94-3.29,33.13-18.11c1.26-5.86-1.27-11.47-6.31-14.62c-6.21-3.88-14.35-3.5-20.12-8.16
			c-2.48-2.01-6.04,1.51-3.54,3.54c4.43,3.58,9.62,4.81,14.97,6.43c6.93,2.1,13.07,6.68,9.08,14.72
			c-3.75,7.53-13.02,9.15-20.53,10.3c-8.63,1.32-17.37,2.11-26.1,2.39c-17.03,0.55-34.15-1.01-50.6-5.54
			c-3.29-0.91-7.18-1.81-9.79-4.19c-5.04-4.6,0.29-9.64,4.16-12.56c6.64-5,14.17-8.6,22.1-11
			C318.38,266.68,317.07,261.86,313.98,262.79L313.98,262.79z"/>
	</g>
</g>
<g>
	<g>
		<path class="st0" d="M285.83,296.82c-3.47,10.89,1.63,23.1,12.22,27.72c6.12,2.66,12.89,2.83,19.46,2.77
			c8.87-0.08,17.74-0.46,26.59-1.06s17.68-1.45,26.49-2.55c7.25-0.9,15.34-1.2,22.26-3.65c13.86-4.89,11.59-21.03,8.3-32.14
			c-0.91-3.08-5.74-1.77-4.82,1.33c1.79,6.03,3.89,12.7,1.76,18.91c-2.29,6.67-8.32,7.77-14.49,8.73
			c-13.09,2.03-26.27,3.47-39.49,4.37c-11.84,0.81-24.41,2.13-36.24,0.73c-12.09-1.44-21.17-11.39-17.21-23.82
			C291.63,295.08,286.81,293.76,285.83,296.82L285.83,296.82z"/>
	</g>
</g>
<g>
	<g>
		<path class="st0" d="M227.76,335.74c-2.58-18.33-21.45-30.88-39.36-29.27c-20.43,1.83-36.29,18.07-43.2,36.53
			c-8.3,22.16-6.07,48.04-0.4,70.56c2.93,11.63,7.06,23.18,12.67,33.79c4.37,8.26,10.38,16.34,19.26,20.04
			c10.02,4.17,21.86,1.93,30.56-4.27c9.72-6.92,15.33-17.96,18.02-29.34c0.74-3.13-4.08-4.46-4.82-1.33
			c-4.18,17.65-19.65,37.8-40.32,30.9c-8.68-2.9-14.3-10.78-18.39-18.54c-4.84-9.18-8.48-19.07-11.24-29.07
			c-9.17-33.23-11.43-87.38,28.43-102.07c18.16-6.69,41.08,2.93,43.96,23.38C223.38,340.24,228.2,338.89,227.76,335.74
			L227.76,335.74z"/>
	</g>
</g>
<g>
	<g>
		<path class="st0" d="M257.37,344.02c-17.42,0.67-34.85,1.33-52.27,2.02c-6.59,0.26-13.03,0.77-18.4,5.01
			c-4.49,3.54-7.53,8.69-9.19,14.12c-2.21,7.22-2,14.93-1.68,22.39c0.29,6.69,0.6,13.63,2.65,20.06
			c3.86,12.13,13.65,18.42,25.84,20.37c7.94,1.26,16.08,1.3,24.09,1.68c9.6,0.45,19.19,0.91,28.79,1.36c3.22,0.15,3.21-4.85,0-5
			c-8.96-0.42-17.91-0.85-26.87-1.27c-8.19-0.39-16.56-0.34-24.68-1.6c-7.57-1.17-15.16-3.9-19.49-10.63
			c-4.1-6.37-4.78-14.37-5.17-21.73c-0.45-8.26-1.09-17.04,1.56-25.01c3.13-9.42,10.06-14.01,19.72-14.63
			c18.32-1.18,36.75-1.43,55.1-2.13C260.57,348.89,260.59,343.89,257.37,344.02L257.37,344.02z"/>
	</g>
</g>
<g>
	<g>
		<path class="st0" d="M290.85,315.14c-25.34,0.89-33.22,28.06-37.07,48.51c-0.59,3.14,4.23,4.49,4.82,1.33
			c3.37-17.89,9.54-44.04,32.25-44.84C294.06,320.02,294.07,315.02,290.85,315.14L290.85,315.14z"/>
	</g>
</g>
<g>
	<g>
		<path class="st0" d="M248.52,414.95c23.67,21.13,49.72,43.99,81.97,49.82c31.2,5.64,65.35-6.61,88.77-27.4
			c11.97-10.63,21.13-24.21,25.08-39.81c0.79-3.12-4.03-4.45-4.82-1.33c-6.91,27.31-30.37,46.9-55.7,57.03
			c-15.66,6.26-32.78,9.6-49.61,7.09c-14.77-2.21-28.55-8.47-41.1-16.39c-14.81-9.34-28.03-20.92-41.06-32.55
			C249.67,409.28,246.12,412.8,248.52,414.95L248.52,414.95z"/>
	</g>
</g>
<g>
	<g>
		<path class="st0" d="M400.12,315.94c20.12,3.41,34.66,23.03,32.16,43.26c-0.39,3.19,4.61,3.16,5,0
			c2.75-22.24-13.76-44.34-35.83-48.08C398.3,310.58,396.95,315.4,400.12,315.94L400.12,315.94z"/>
	</g>
</g>
<g>
	<g>
		<path class="st0" d="M436.93,361.43c18.44-0.49,36.88-0.97,55.31-1.46c9.01-0.24,18.5-1.22,27.32,1.1
			c6.69,1.76,12.77,5.33,17.87,9.96c11.1,10.09,17.2,24.07,19.7,38.65c1.53,8.92,1.76,18.03,1.52,27.06
			c-0.23,8.63-0.21,17.85-2.16,26.28c-0.72,3.13,4.1,4.47,4.82,1.33c2.06-8.91,2.1-18.5,2.34-27.61c0.23-8.88-0.05-17.78-1.4-26.57
			c-2.39-15.57-8.72-30.67-20.23-41.7c-4.93-4.72-10.68-8.52-17.08-10.93c-8.28-3.12-17.07-2.98-25.79-2.75
			c-20.74,0.54-41.49,1.1-62.23,1.64C433.72,356.52,433.71,361.52,436.93,361.43L436.93,361.43z"/>
	</g>
</g>
<g>
	<g>
		<path class="st0" d="M423.36,432.55c15.36-1.22,31.01-3.44,46.42-3.45c7.53,0,15.13,1.72,19.11,8.73
			c3.81,6.7,3.34,14.74,2.87,22.14c-0.34,5.4-1.99,13.34,1.4,18.14c3.04,4.3,9.91,4.61,14.65,5.21c13.62,1.72,27.66-0.2,40.32-5.51
			c5.71-2.4,11.62-5.34,14.02-11.43c2.8-7.09-0.2-14.81,1.01-22.12c0.52-3.15-4.3-4.5-4.82-1.33c-1.19,7.21,2.48,17.12-1.77,23.52
			c-4.59,6.89-17.13,9.62-24.75,11.12c-9.04,1.78-18.5,1.86-27.55,0.17c-1.47-0.27-3.19-0.44-4.59-1.03
			c-3.53-1.49-3.29-3.86-3.35-7.16c-0.08-4.8,0.54-9.58,0.7-14.37c0.49-14.33-4.74-28.24-20.43-30.62
			c-7.98-1.21-16.25,0.05-24.22,0.68c-9.67,0.77-19.34,1.53-29.01,2.3C420.17,427.8,420.15,432.8,423.36,432.55L423.36,432.55z"/>
	</g>
</g>
<g>
	<g>
		<path class="st0" d="M486.23,463.1c-9.71,2.73-14.87,13.46-12.3,23.01c3.17,11.72,14.88,18.34,26.05,20.51
			c13.48,2.62,28.53,2.54,42.01-0.02c11.66-2.21,25.01-7.46,31.02-18.45c5.3-9.68,2.24-23.09-8.79-26.94
			c-3.04-1.06-4.35,3.77-1.33,4.82c5.55,1.93,8.28,8.04,7.73,13.66c-0.59,5.99-4.97,10.99-9.73,14.29
			c-10.65,7.38-24.4,9.14-37.03,9.29c-11.89,0.13-25.95,0.23-36.15-6.75c-4.99-3.42-9.27-8.86-9.45-15.14
			c-0.17-6.01,3.45-11.81,9.31-13.46C490.65,467.05,489.34,462.23,486.23,463.1L486.23,463.1z"/>
	</g>
</g>
<g>
	<g>
		<path class="st0" d="M599.75,619.34c-4.81-2.74-9.49-5.68-13.96-8.95c-3.62-2.65-13.41-8.24-10.05-13.75
			c2.57-4.22,8.61-4.46,12.9-4.17c5.08,0.35,9.87,0.97,14.85-0.45c3.09-0.88,1.78-5.71-1.33-4.82c-9.56,2.73-27.94-4.55-31.95,9.55
			c-1.61,5.67,2.73,9.82,6.71,13.06c6.36,5.2,13.17,9.78,20.31,13.84C600.02,625.25,602.55,620.93,599.75,619.34L599.75,619.34z"/>
	</g>
</g>
<g>
	<g>
		<path class="st0" d="M601.72,620.63c1.77-6.91,5.89-12.35,12.07-15.93c1.44-0.83,1.58-2.75,0.51-3.93
			c-3.93-4.28-4.61-11.24-0.46-15.67c3.88-4.14,9.44-4.2,14.27-2.02c4.23,1.9,6.79,0.67,10.59-1.61c2.4-1.44,4.93-2.9,7.78-3.06
			c4.11-0.23,5.35,1.74,6.88,5.03c4.24,9.11,11.73-0.67,18.66,1.62c6.23,2.06,6.47,7.02,6.95,12.64c0.18,2.07,0.6,4.03,1.5,5.92
			c0.48,0.99,5.76,10.26,1.64,9.44c-3.14-0.62-4.49,4.2-1.33,4.82c5.32,1.05,8.92-4.09,7.83-9.12c-0.88-4.05-4.13-6.83-4.64-11.06
			c-0.42-3.46,0.01-6.79-1.6-10.02c-2.33-4.66-7.41-7.81-12.59-8.12c-3.12-0.19-5.52,0.82-8.28,2.09c-4.2,1.94-3.62-2.52-6-4.97
			c-4.48-4.61-11.27-3.74-16.52-1.12c-4,1.99-5.78,4.19-10.27,2.29c-2.83-1.2-5.8-1.57-8.84-1.12
			c-13.42,1.99-17.96,17.93-9.11,27.58c0.17-1.31,0.34-2.62,0.51-3.93c-7.25,4.2-12.28,10.79-14.36,18.92
			C596.1,622.42,600.92,623.75,601.72,620.63L601.72,620.63z"/>
	</g>
</g>
<g>
	<g>
		<path class="st0" d="M679.09,587.89c12.95-4.93,26.95-6.54,40.67-4.42c14.04,2.16,25.61,8.23,37.24,16.05
			c12.16,8.17,24.85,7.52,38.72,4.89c15.93-3.01,31.84-6.22,47.75-9.32c3.15-0.62,1.82-5.44-1.33-4.82
			c-15.92,3.11-31.82,6.3-47.75,9.32c-7.81,1.48-16.11,2.9-23.97,0.91c-7.33-1.85-12.87-7.06-19.18-10.89
			c-21.89-13.31-49.6-15.64-73.48-6.54C674.79,584.2,676.08,589.03,679.09,587.89L679.09,587.89z"/>
	</g>
</g>
<g>
	<g>
		<path class="st0" d="M539.75,653.66c-5.03-0.24-8.29-4.82-8.74-9.55c-0.58-6.12,4.18-11.07,9.22-13.73
			c10.64-5.62,24.02-2.88,35.56-3.25c23.55-0.77,46.61-6.25,70.06-7.98c11.47-0.85,23.11-0.81,34.44,1.41
			c11.98,2.35,22.78,7.58,33.78,12.67c20.71,9.57,41.87,13.37,64.63,11.01c26.41-2.75,51.66-11.77,76.38-21
			c2.99-1.12,1.69-5.95-1.33-4.82c-24.81,9.26-50.29,18.54-76.84,21c-13.34,1.24-26.88,0.67-39.86-2.76
			c-12.67-3.35-24.07-9.81-36.08-14.86c-23.46-9.85-48.22-8.99-72.98-5.72c-13.2,1.74-26.34,4-39.6,5.24
			c-5.98,0.56-11.97,0.91-17.97,0.91c-6.97,0-13.97-0.64-20.91,0.27c-9.89,1.29-21.17,6.94-23.28,17.68
			c-1.72,8.75,4.41,18.06,13.53,18.5C542.97,658.81,542.96,653.81,539.75,653.66L539.75,653.66z"/>
	</g>
</g>
<g>
	<g>
		<path class="st0" d="M540.65,655c-2.92,0.82-3.9,2.83-4.92,5.51c-1.88,4.96-4.71,7.25-9.7,9.1c-9.15,3.39-18.67,5.57-27.76,9.23
			c-8.97,3.61-17.95,7.68-26.25,12.67c-6.37,3.83-11.98,10.43-7.84,18.01c0.38,0.69,1.33,1.34,2.16,1.24
			c17.27-2.2,34.28-5.72,50.97-10.65c3.08-0.91,1.77-5.74-1.33-4.82c-16.25,4.8-32.83,8.33-49.64,10.47
			c0.72,0.41,1.44,0.83,2.16,1.24c-4.65-8.5,13.11-15.14,18.59-17.8c8.13-3.94,16.52-7.32,25.11-10.14
			c6.4-2.1,13.39-3.32,19.41-6.45c2.33-1.21,4.51-2.75,6.13-4.84c1.21-1.56,2.5-7.46,4.22-7.95
			C545.07,658.95,543.75,654.12,540.65,655L540.65,655z"/>
	</g>
</g>
<g>
	<g>
		<path class="st0" d="M459.25,705.74c-7.96,7.7-21.54,9.06-27.12,19.34c-6.34,11.67,2.71,24.9,12.76,30.75
			c13.37,7.78,29.29,5.97,43.81,3.15c17.53-3.41,34.72-8.33,51.46-14.52c2.99-1.11,1.7-5.94-1.33-4.82
			c-13.76,5.09-27.8,9.31-42.11,12.55c-13.83,3.13-29.35,6.84-43.24,2.09c-10.91-3.73-25.86-18.41-14.67-29.83
			c6.66-6.8,17.05-8.48,23.97-15.18C465.11,707.04,461.57,703.5,459.25,705.74L459.25,705.74z"/>
	</g>
</g>
<g>
	<g>
		<path class="st0" d="M461.02,759.51c-15.85,8.02-53.81,33.45-28.71,52.91c11.18,8.67,26.79,6.06,39.8,4.39
			c15.08-1.94,30.01-4.95,44.65-9.08c16.69-4.72,32.93-10.9,48.6-18.31c2.91-1.37,0.37-5.69-2.52-4.32
			c-30.28,14.31-62.88,23.7-96.19,27.36c-8.14,0.9-16.97,2.08-24.91-0.57c-7.31-2.44-13.7-9.05-12.16-17.25
			c1.35-7.16,7.36-12.75,12.75-17.17c6.52-5.35,13.69-9.83,21.21-13.64C466.42,762.37,463.89,758.06,461.02,759.51L461.02,759.51z"
			/>
	</g>
</g>
<g>
	<g>
		<path class="st0" d="M483.25,812.77c-10.26,8.9-28.82,17.76-24.21,34.66c1.95,7.14,8.77,10.25,15.51,11.37
			c9.37,1.56,19.03,1.58,28.48,0.8c19.83-1.65,39.09-7.06,58.11-12.65c19.86-5.83,39.58-12.16,59.14-18.93
			c3.02-1.05,1.72-5.88-1.33-4.82c-16.51,5.71-33.12,11.11-49.84,16.16c-16.45,4.97-32.99,9.96-49.92,13.04
			c-8.43,1.54-16.97,2.54-25.55,2.66c-7.82,0.12-19.2,0.8-25.97-3.79c-7.63-5.18-3.56-15.68,1.48-21.05
			c5.13-5.45,11.99-9.04,17.62-13.93C489.22,814.19,485.67,810.67,483.25,812.77L483.25,812.77z"/>
	</g>
</g>
<g>
	<g>
		<path class="st0" d="M519.63,856.21c-6.4,10.74-11.61,24.49-0.2,33.98c11.76,9.77,27.61,5.54,41.01,2.32
			c32.83-7.89,65.32-17.2,97.34-27.91c18.43-6.16,36.7-12.8,54.8-19.86c2.97-1.16,1.68-5.99-1.33-4.82
			c-35.32,13.77-71.28,25.88-107.76,36.18c-18.05,5.09-36.28,10.26-54.67,13.96c-9.2,1.85-20.32,2.55-27.44-4.84
			c-7.7-8-2.18-18.51,2.57-26.48C525.6,855.96,521.28,853.44,519.63,856.21L519.63,856.21z"/>
	</g>
</g>
<g>
	<g>
		<path class="st0" d="M548.6,645.77c-7.44,7.68-10.67,17.3-10.22,27.89c0.17,4.03-0.26,7.13-3.83,9.53
			c-1.97,1.33-4.07,2.38-5.94,3.86c-3.71,2.92-6.59,6.77-8.5,11.07c-8.14,18.31,4.53,38.28,23.95,40.58
			c-0.42-1.55-0.84-3.11-1.26-4.66c-18.76,11.76-4.32,35.46,7.86,45.82c6.73,5.72,14.89,9.39,23.85,8.21
			c8.86-1.17,16.65-6.3,21.15-14.01c-1.31,0.17-2.62,0.34-3.93,0.51c12.02,11.32,30.8,14.37,45.46,6.33
			c14.27-7.83,21.69-24.49,19.37-40.34c-0.8,1.05-1.61,2.11-2.41,3.16c16.88,1.3,25.23-16.23,23.11-30.79
			c-0.64-4.39-2.2-8.39-3.52-12.59c-1.79-5.71-0.9-10.43,0.35-16.12c1.57-7.17,1.58-14-2.25-20.49
			c-3.47-5.88-9.33-10.55-16.08-11.96c-4.23-0.89-8.51-0.46-12.78-0.72c-5.59-0.34-10.26-2.61-14.95-5.5
			c-6.57-4.05-12.88-8.45-20.82-9.06c-2.93-0.22-5.98,0.1-8.7,1.26c-3.6,1.54-4.8,4.43-7.59,6.78c-4.42,3.73-13.18-1.94-17.54-3.54
			c-4.07-1.5-8.38-2.71-12.76-2.39c-6.87,0.5-13.38,4.24-15.26,11.14c-0.85,3.11,3.98,4.44,4.82,1.33
			c1.97-7.25,10.66-8.34,16.91-6.84c6.78,1.63,13.26,6.45,20.29,6.76c6.98,0.31,8.1-7.06,13.95-8.98c6.69-2.2,13.8,1.39,19.34,4.81
			c5.41,3.34,10.75,7.19,17.07,8.57c7.52,1.64,15.55-0.68,22.48,3.48c5.92,3.56,10.17,10.31,10.03,17.32
			c-0.15,7.16-3.62,13.78-2.44,21.04c1.42,8.75,6.06,16.2,4.59,25.42c-1.45,9.07-8.63,16.81-18.25,16.07
			c-1.79-0.14-2.63,1.7-2.41,3.16c2,13.64-4.92,28.03-17.07,34.69c-12.66,6.94-29.04,4.21-39.4-5.55c-1.17-1.1-3.09-0.92-3.93,0.51
			c-8.16,13.95-25.52,14.66-37.15,4.79c-9.38-7.95-24.5-28.16-8.87-37.97c2.25-1.41,1.11-4.38-1.26-4.66
			c-20.38-2.41-28.68-27.93-13.5-41.79c5.57-5.09,12.51-6.47,12.88-15.25c0.2-4.75-0.42-9.13,0.84-13.82
			c1.4-5.18,4.14-9.7,7.86-13.53C554.38,646.99,550.85,643.45,548.6,645.77L548.6,645.77z"/>
	</g>
</g>
<g>
	<g>
		<path class="st0" d="M778.21,720.11c-5.01-3.79-11.81-3.62-17.18-0.59c-2.6,1.47-4.91,3.67-6.31,6.32c-2,3.78-0.94,8.22-3.9,11.46
			c-5.32,5.83-8.94,11.88-7.27,20.19c1.53,7.63,7.54,13.39,14.84,15.61c-0.37-1.39-0.74-2.79-1.1-4.18
			c-7.72,6.13-8.44,18.94-0.79,25.48c7.59,6.48,19.58,3.77,24.77-4.28c-1.44,0-2.88,0-4.32,0c8.13,17.58,34.36,12.39,35.36-6.88
			c0.18-3.54-0.4-6.43,2.75-8.91c1.82-1.43,4.07-2.22,5.91-3.64c2.87-2.23,4.71-5.37,5.46-8.91c1.53-7.18-1.5-14.96-8.08-18.45
			c0,1.44,0,2.88,0,4.32c6.33-3.41,7.25-11.76,3.69-17.59c-4.75-7.8-15.22-8.02-23.17-6.51c0.81,1.39,1.62,2.79,2.43,4.18
			c6.77-5.81-0.35-14.98-7.12-16.46c-8.06-1.76-16.17,3.09-18.95,10.67c-1.11,3.03,3.72,4.33,4.82,1.33c1.5-4.1,5.34-6.76,9.63-7.24
			c3.53-0.4,13.2,3.77,8.08,8.17c-2.06,1.77,0.2,4.6,2.43,4.18c5.33-1.01,12.38-1.37,16.5,2.92c3.2,3.34,3.57,9.65-0.87,12.04
			c-1.62,0.87-1.64,3.45,0,4.32c5.51,2.93,7.63,10.27,4.78,15.86c-2.76,5.41-10.12,5.68-12.44,11.6c-1.25,3.19-0.49,6.58-1.06,9.88
			c-0.68,3.89-3.08,7.29-6.44,9.36c-7.25,4.48-16.03,0.56-19.4-6.74c-0.83-1.8-3.39-1.44-4.32,0c-3.7,5.74-12.76,7.54-17.83,2.44
			c-4.99-5.01-3.51-13.45,1.7-17.58c1.55-1.23,0.53-3.68-1.1-4.18c-6.45-1.95-11.37-7.49-11.57-14.4c-0.1-3.27,0.86-6.58,2.69-9.3
			c1.6-2.39,4.25-3.76,5.81-6.13c2.78-4.24,0.51-9.28,4.7-13.04c4.04-3.63,9.98-4.29,14.35-0.98
			C778.25,726.37,780.75,722.03,778.21,720.11L778.21,720.11z"/>
	</g>
</g>
<g>
	<g>
		<path class="st0" d="M742.82,750.06c-18.63-2.6-33.73,14.19-28.17,32.49c0.58-1.03,1.16-2.05,1.75-3.08
			c-10.94,3.43-19.13,14.01-18.33,25.72c0.75,11.14,9.3,20.53,20.05,22.99c-0.5-1.22-1-2.45-1.49-3.67
			c-4.19,6.39-8.61,13.91-6.37,21.85c1.6,5.65,6.19,9.57,11.39,11.89c10.38,4.63,27.61,5.87,34.91-4.56c-1.44,0-2.88,0-4.32,0
			c6.75,11.17,23.05,14.86,33.61,6.76c11.09-8.5,10.67-26.64,0.24-35.42c-0.81,1.39-1.62,2.79-2.43,4.18
			c9.64,3.03,20.86-1.36,25.15-10.72c4.22-9.22,0.4-20.15-7.74-25.71c-2.66-1.82-5.17,2.51-2.52,4.32
			c6.28,4.29,9.02,13.14,5.38,20.04c-3.57,6.77-11.88,9.47-18.93,7.25c-2.3-0.72-4.37,2.55-2.43,4.18
			c7.98,6.71,9.14,20.59,0.72,27.59c-8.13,6.76-21.41,3.78-26.72-4.99c-1.03-1.7-3.25-1.52-4.32,0c-5.5,7.85-20.08,5.98-27.77,2.87
			c-4.14-1.68-8.1-4.51-9.4-9c-1.87-6.45,2.5-12.86,5.86-17.99c0.86-1.32,0.03-3.32-1.49-3.67c-8.49-1.94-15.42-8.98-16.33-17.82
			c-0.98-9.55,5.66-18.43,14.61-21.24c1.26-0.4,2.15-1.74,1.75-3.08c-4.33-14.26,6.95-28.45,22.02-26.34
			C744.64,755.32,746,750.5,742.82,750.06L742.82,750.06z"/>
	</g>
</g>
<g>
	<g>
		<path class="st0" d="M829.93,761.33c9.52-3.61,19.04-7.23,28.56-10.84c2.98-1.13,1.69-5.97-1.33-4.82
			c-9.52,3.61-19.04,7.23-28.56,10.84C825.62,757.64,826.91,762.47,829.93,761.33L829.93,761.33z"/>
	</g>
</g>
<g>
	<g>
		<path class="st1" d="M489.09,512.97c2.64,53.3,1.87,106.72-2.32,159.92c-0.25,3.21,4.75,3.19,5,0
			c4.19-53.2,4.96-106.62,2.32-159.92C493.93,509.77,488.93,509.75,489.09,512.97L489.09,512.97z"/>
	</g>
</g>
<g>
	<g>
		<path class="st1" d="M546.95,508.41c2.12,35.24,1.42,70.57-2.1,105.7c-0.32,3.2,4.68,3.18,5,0c3.52-35.13,4.22-70.46,2.1-105.7
			C551.75,505.21,546.75,505.19,546.95,508.41L546.95,508.41z"/>
	</g>
</g>
<g>
	<g>
		<path class="st1" d="M505.37,523.55c0,30.68,0,61.36,0,92.04c0,3.22,5,3.22,5,0c0-30.68,0-61.36,0-92.04
			C510.37,520.33,505.37,520.33,505.37,523.55L505.37,523.55z"/>
	</g>
</g>
<g>
	<g>
		<path class="st1" d="M522.4,546.16c0.97,17.61,0.7,35.23-0.81,52.8c-0.27,3.21,4.73,3.19,5,0c1.51-17.57,1.78-35.19,0.81-52.8
			C527.23,542.96,522.23,542.94,522.4,546.16L522.4,546.16z"/>
	</g>
</g>
<g>
	<g>
		<path class="st1" d="M592.14,743.41c4.39,9.31,15.22,17.31,25.85,13.34c8.69-3.25,13.66-13.99,8.89-22.27
			c-1.31,1.01-2.62,2.02-3.93,3.03c3.29,3.62,8.61,3.96,12.76,1.49c4.57-2.73,6.23-8.18,6.64-13.19
			c0.72-8.98-2.77-22.13-13.79-22.15c-3.22-0.01-3.22,4.99,0,5c6.34,0.01,8.54,7.76,8.87,12.95c0.21,3.26-0.04,7.1-1.58,10.05
			c-1.77,3.37-6.34,5.63-9.36,2.31c-1.94-2.13-5.33,0.6-3.93,3.03c3.66,6.35-1.53,14.46-8.35,15.57
			c-7.94,1.29-14.62-5.05-17.75-11.69C595.09,737.98,590.78,740.52,592.14,743.41L592.14,743.41z"/>
	</g>
</g>
<g>
	<g>
		<path class="st1" d="M626.54,608.05c-0.4-3.3,3.37-6.68,6.59-4.99c2.85,1.49,5.38-2.82,2.52-4.32
			c-6.24-3.26-14.99,1.99-14.11,9.31C621.92,611.2,626.92,611.24,626.54,608.05L626.54,608.05z"/>
	</g>
</g>
<g>
	<g>
		<path class="st1" d="M775.11,747.36c-1.85-3.96-7.68-3.51-9.64,0.19c-1.1,2.06-0.71,4.54,0.14,6.59c0.77,1.83,2.13,3.16,3.08,4.86
			c1.2,2.16,1.26,3.89,1.1,6.26c-0.89,13.11,15.39,19.46,23.64,9.24c2-2.48-1.51-6.04-3.54-3.54c-5.58,6.91-15.58,3.18-15.11-5.71
			c0.12-2.29,0.4-4.12-0.45-6.3c-0.53-1.35-1.36-2.46-2.16-3.65c-0.28-0.39-0.56-0.77-0.84-1.16c-1.1-1.19-1.28-2.61-0.54-4.26
			C772.16,752.79,776.47,750.26,775.11,747.36L775.11,747.36z"/>
	</g>
</g>
<g>
	<g>
		<path class="st1" d="M755.43,810.1c1.11,1.18,2.44,2.39,2.97,3.95c0.38,1.13,1.01,7.41-2.71,4.94c-2.29-1.52-4.35,1.36-3.42,3.42
			c1.99,4.43-0.81,10.54-5.79,11.28c-5.49,0.81-9.35-4.71-8.75-9.68c0.39-3.19-4.62-3.16-5,0c-1.01,8.28,6.9,16.52,15.39,14.5
			c8.17-1.95,11.71-11.37,8.46-18.62c-1.14,1.14-2.28,2.28-3.42,3.42c3.63,2.41,8.28,0.6,10.18-3.19c2.5-4.99-1.05-10.01-4.38-13.55
			C756.76,804.22,753.23,807.76,755.43,810.1L755.43,810.1z"/>
	</g>
</g>
<g>
	<g>
		<path d="M248.09,129.03c27.59,4.06,55.33,9.42,83.12,11.84c13.17,1.15,26.16-0.1,38.83-3.91c11.98-3.61,23.38-8.93,34.84-13.9
			c12.19-5.28,43.97-16.93,43.79,7.15c-0.08,11.26-8.05,17.27-15.83,23.9c-7.38,6.28-13.21,14.75-10.3,24.88
			c2.78,9.68,13.06,14.93,22.19,16.97c7.37,1.65,20.34,1.11,22.61,10.25c1.47,5.94,0.85,12.98,1.1,19.07
			c0.13,3.31,0.27,6.62,0.39,9.94c0.08,2.01,0.87,6.14-0.54,7.86c-2.06,2.52-8.07,0.48-10.58-0.14c-6.28-1.54-12.47-3.41-18.62-5.41
			c-24.59-7.97-48.66-17.88-74.68-20.09c-12.2-1.04-24.83-0.29-36.61,3.23c-11.57,3.45-21.63,9.74-31.54,16.47
			c-9.81,6.66-20.15,14.46-32.19,16.22c-7.8,1.14-17.33,0.14-23.37-5.42c-9.06-8.33-3.34-21.79,2.82-30.01
			c7.87-10.51,18.35-18.61,25.05-30.08c1.87-3.2,1.03-8.62-2.69-10.26c-11.51-5.08-25.92-12.72-29.21-26.04
			c-1.9-7.72,3.63-22.3,13.63-20.45c9.44,1.75,13.48-12.7,3.99-14.46c-18.77-3.48-33.58,14.06-33.06,32.03
			c0.61,20.65,20,34.35,37.07,41.88c-0.9-3.42-1.79-6.84-2.69-10.26c-6.36,10.89-16.5,18.77-24.06,28.76
			c-7.63,10.09-12.97,23.29-9.51,36.02c5.73,21.13,30.89,26.69,49.69,22.02c11.83-2.94,22.16-10.23,32.1-16.98
			c10.86-7.37,21.65-13.99,34.69-16.63c27.09-5.47,54.65,4.17,79.94,12.89c12.97,4.47,26.17,9.61,39.71,12.03
			c12.56,2.25,24.17-2.56,25.6-16.43c0.66-6.44-0.2-13.22-0.45-19.67c-0.28-7.03,0.18-14.84-1.94-21.63
			c-3.67-11.72-14.99-16.09-26.07-18.01c-4.91-0.85-21.48-2.7-18.12-11.1c1.56-3.9,6.29-6.86,9.38-9.39
			c4.62-3.78,8.91-7.75,11.94-12.99c6.2-10.74,7.47-25.48,0.39-36.15c-6.04-9.1-16.68-12.84-27.26-12.59
			c-12.82,0.3-24.4,5.35-35.95,10.38c-13.94,6.07-28.14,12.67-43.33,14.85c-16.2,2.33-32.83-1.18-48.82-3.54
			c-17.15-2.52-34.3-5.04-51.45-7.57c-4.04-0.59-8.01,1.01-9.23,5.24C241.84,123.33,244.09,128.44,248.09,129.03L248.09,129.03z"/>
	</g>
</g>
<g>
	<g>
		<path d="M313.96,239.55c-0.33,6.46-0.43,12.92-0.24,19.39c0.18,5.89-0.07,12.67,1.51,18.39c3.44,12.46,19.78,10.67,29.86,10.84
			c5.45,0.09,11.95,0.85,17.19-0.95c5.34-1.83,7.68-6.63,8.41-11.88c1.83-13.17,2.3-26.49,1.72-39.76c-0.43-9.61-15.43-9.67-15,0
			c0.4,9.06,0.31,18.13-0.38,27.17c-0.2,2.58-0.43,5.16-0.73,7.73c-0.19,1.59-1.41,3.6,0.77,2.66c-1.27,0.55-3.93,0.04-5.36,0.05
			c-2.2,0.02-4.4,0.01-6.6-0.03c-4.4-0.07-8.8-0.24-13.19-0.55c-1.1-0.08-3.31-0.87-2.2,0.72c-0.92-1.3-0.51-5.09-0.61-6.65
			c-0.57-9.04-0.58-18.09-0.12-27.14C329.44,229.9,314.44,229.93,313.96,239.55L313.96,239.55z"/>
	</g>
</g>
<g>
	<g>
		<path d="M313.88,259.58c-12.79,3.16-33.4,12.27-30.43,28.7c2.99,16.54,22.91,21.08,36.73,23.76c16.36,3.18,34.01,5.62,50.18,0.17
			c13.35-4.5,25.19-13.63,30.44-26.99c8.49-21.59-19.31-28.44-35.12-26.29c-4.01,0.54-6.23,5.7-5.24,9.23
			c1.21,4.33,5.18,5.79,9.23,5.24c3.16-0.43,6.54-0.18,9.62,0.58c2.13,0.53,7.07,1.57,8.2,3.69c1.4,2.63-5.58,10.3-7.7,12.28
			c-8.98,8.35-21.56,10.74-33.43,10.43c-7.17-0.19-14.23-1.28-21.26-2.63c-6.63-1.27-13.75-2.34-19.84-5.39
			c-4.71-2.36-9.81-6.3-4.34-10.68c4.85-3.87,11-6.18,16.95-7.65C327.24,271.73,323.27,257.27,313.88,259.58L313.88,259.58z"/>
	</g>
</g>
<g>
	<g>
		<path d="M284.45,292.14c-3.96,12.46-0.11,26.98,9.58,35.83c11.61,10.61,27.38,9.66,41.99,8.65c8.42-0.58,16.83-1.16,25.25-1.74
			c7.97-0.55,17-0.05,24.42-3.37c15.1-6.74,16.78-24.45,16.27-38.89c-0.34-9.62-15.34-9.67-15,0c0.32,9.04,1.21,24.06-10.56,26.15
			c-6.17,1.09-12.77,0.95-19.01,1.38c-6.47,0.45-12.95,0.89-19.42,1.34c-10.06,0.69-23.41,3.24-32.19-3.2
			c-6.89-5.05-9.39-14.19-6.86-22.15C301.85,286.91,287.37,282.96,284.45,292.14L284.45,292.14z"/>
	</g>
</g>
<g>
	<g>
		<path d="M236.49,345.24c-2.38-21.8-18.66-40.95-40.89-44.15c-22.96-3.31-44.34,9.95-53.04,31.1c-8.9,21.64-9.21,47.76-5.07,70.5
			c3.98,21.84,14.04,46.67,31.18,61.58c4.89,4.25,10.56,7.43,17.12,7.9c6.83,0.5,12.94-2.82,18.14-6.89
			c9.99-7.82,20.23-17.63,20.4-31.19c0.12-9.66-14.88-9.66-15,0c-0.1,7.9-7.92,13.96-13.5,18.56c-2.88,2.38-6.23,5.09-10.18,4.44
			c-4.12-0.67-7.54-4.27-10.2-7.22c-11.98-13.26-19.28-30.71-22.88-48.04c-3.62-17.43-3.42-36,0.58-53.35
			c3.82-16.6,13.85-31.01,32.01-32.79c17.63-1.73,34.4,11.83,36.33,29.55c0.44,4.03,3.13,7.5,7.5,7.5
			C232.71,352.74,236.94,349.3,236.49,345.24L236.49,345.24z"/>
	</g>
</g>
<g>
	<g>
		<path d="M259.04,341.3c-16.1,0.89-32.19,1.77-48.29,2.66c-13.38,0.74-27.89,1.52-33.43,15.96c-9.97,26.02-1.43,60.47,26.5,70.6
			c7.39,2.68,15.47,3.28,23.26,3.71c8.9,0.49,17.8,0.88,26.7,1.32c9.65,0.48,9.62-14.53,0-15c-8.07-0.4-16.14-0.78-24.2-1.19
			c-7.06-0.36-14.27-0.65-21-3.02c-13.05-4.6-19.68-18.08-20.09-31.26c-0.2-6.37,0.04-15.72,3.48-21.34
			c2.99-4.89,10.92-4.34,15.87-4.61c17.06-0.94,34.12-1.88,51.18-2.82C268.64,355.77,268.7,340.77,259.04,341.3L259.04,341.3z"/>
	</g>
</g>
<g>
	<g>
		<path d="M288.35,312.53c-11.4,0.29-21.03,6.99-26.94,16.52c-6.49,10.47-7.35,23.27-8.06,35.24c-0.57,9.64,14.44,9.61,15,0
			c0.74-12.66,2.49-36.31,20-36.76C297.99,327.28,298.02,312.28,288.35,312.53L288.35,312.53z"/>
	</g>
</g>
<g>
	<g>
		<path d="M235.86,417.73c24.35,20.82,53.32,37.22,84.43,45.39c33.3,8.75,66.05-1.18,92.67-22.05c14.39-11.29,26.3-25.16,37.2-39.77
			c2.44-3.27,0.51-8.35-2.69-10.26c-3.8-2.28-7.85-0.54-10.26,2.69c-16.95,22.72-38.17,44.3-65.67,53.47
			c-14.28,4.76-29.04,5.71-43.74,2.33c-14.01-3.23-27.63-8.64-40.43-15.15c-14.66-7.45-28.4-16.57-40.9-27.26
			C239.16,400.89,228.51,411.45,235.86,417.73L235.86,417.73z"/>
	</g>
</g>
<g>
	<g>
		<path d="M400.1,318.18c15.17,5.44,33.56,15.25,33.13,33.86c-0.1,4.23,3.53,7.26,7.5,7.5c17.81,1.07,35.62,2.13,53.43,3.2
			c12.28,0.74,26.8,0.1,38,6.08c12.74,6.79,12.85,23.51,14.81,36.19c2.65,17.12,4.35,34.38,5.32,51.68c0.54,9.6,15.54,9.66,15,0
			c-1.08-19.28-3.13-38.49-6.15-57.57c-2.51-15.87-4.43-32.52-19.11-41.91c-12.27-7.84-27.87-8.26-41.93-9.1
			c-19.79-1.18-39.58-2.37-59.36-3.55c2.5,2.5,5,5,7.5,7.5c0.61-25.88-22.56-40.59-44.14-48.32
			C394.98,300.46,391.06,314.94,400.1,318.18L400.1,318.18z"/>
	</g>
</g>
<g>
	<g>
		<path d="M425.91,439.36c8.59-0.45,17.18-0.89,25.76-1.34c6.85-0.35,14.86-1.75,21.44,0.72c13.59,5.1,12.76,23.97,12.49,35.65
			c-0.07,3.16,2.37,6.51,5.51,7.23c15.64,3.58,32.9,7.4,48.56,1.84c12.56-4.45,23.56-13.92,26.51-27.35
			c2.07-9.41-12.39-13.43-14.46-3.99c-5.53,25.16-38.83,19.1-56.62,15.03c1.84,2.41,3.67,4.82,5.51,7.23
			c0.39-17.21-1.03-37.45-17.44-47.39c-7.71-4.67-16.84-4.72-25.55-4.29c-10.57,0.51-21.14,1.1-31.71,1.64
			C416.31,424.86,416.25,439.86,425.91,439.36L425.91,439.36z"/>
	</g>
</g>
<g>
	<g>
		<path d="M480.34,458.36c-5.75,6.43-9.89,14.11-11.21,22.7c-1.46,9.48,1.55,16.87,9.42,22.38c14.21,9.94,32.51,11.71,49.25,9.37
			c15.37-2.15,34.51-7.37,45.11-19.51c9.64-11.04,10.29-30.68-4.1-38.27c-8.53-4.5-16.12,8.44-7.57,12.95
			c8.35,4.4,1.89,15.02-3.4,18.81c-9.08,6.5-21.54,9.78-32.44,11.33c-10.82,1.54-22.66,0.95-32.66-3.79
			c-4.33-2.05-9.55-4.24-9.05-9.69c0.53-5.79,3.44-11.4,7.26-15.67C497.36,461.79,486.79,451.15,480.34,458.36L480.34,458.36z"/>
	</g>
</g>
<g>
	<g>
		<path d="M598.57,580.3c-5.98,1.58-12.37-1.06-18.51-0.03c-6.44,1.08-11.95,5.66-13.47,12.15c-3.59,15.39,10.66,23.81,22.89,28.08
			c9.13,3.19,13.06-11.29,3.99-14.46c-3.46-1.21-7.46-2.4-10.17-4.99c-1.13-1.08-3.33-4.07-1.83-5.65c1.54-1.63,7.15-0.18,9.09,0.01
			c4.09,0.4,8,0.42,12-0.64C611.88,592.3,607.93,577.83,598.57,580.3L598.57,580.3z"/>
	</g>
</g>
<g>
	<g>
		<path d="M688.09,590.59c12.72,0.45,25.55,0.83,38.08,3.19c12.89,2.43,23.95,7.89,35.95,12.86c25.62,10.62,52.98,1.29,78.7-4.4
			c9.42-2.08,5.43-16.55-3.99-14.46c-12.97,2.87-26,6.42-39.17,8.24c-13.21,1.83-24.3-0.47-36.28-6.02
			c-11.25-5.21-22.44-9.31-34.73-11.3c-12.76-2.07-25.66-2.66-38.56-3.11C678.44,575.25,678.45,590.25,688.09,590.59L688.09,590.59z
			"/>
	</g>
</g>
<g>
	<g>
		<path d="M533.41,642.68c1.01-0.04,2.02-0.08,3.03-0.12c0.63,0.69,0.72,0.71,0.28,0.05c-0.26,0.11-0.34-0.78-0.18-0.93
			c-1.3,1.19,2.17-0.8,2.14-0.79c4.11-1.85,9.42-1.75,13.81-2.21c12.22-1.28,24.45-2.46,36.69-3.52
			c23.74-2.07,47.84-4.77,71.69-4.29c11.21,0.23,22.12,1.66,32.87,4.9c10.71,3.23,21.05,7.58,31.87,10.47
			c19.74,5.28,40.6,6.93,60.92,4.84c23.63-2.43,46.44-9.45,67.21-21.03c8.43-4.7,0.88-17.66-7.57-12.95
			c-20.31,11.33-43.08,18.09-66.31,19.53c-23.63,1.47-45.93-2.77-68.14-10.61c-12.42-4.38-24.65-8.01-37.8-9.38
			c-13.05-1.36-26.22-0.79-39.28,0.05c-27.09,1.73-54.15,4.07-81.15,6.89c-10.7,1.12-27.21,1.36-31.23,14.01
			c-3.67,11.56,7.3,23.22,18.73,18.04c3.72-1.69,4.54-7,2.69-10.26C541.49,641.56,537.07,641.02,533.41,642.68L533.41,642.68z"/>
	</g>
</g>
<g>
	<g>
		<path d="M536.2,663.34c-16.37,5.28-32.73,10.56-49.1,15.84c-12.37,3.99-26.38,7.87-30.91,21.57c-3.04,9.19,11.44,13.12,14.46,3.99
			c1.25-3.77,5.45-5.78,8.87-7.21c6.11-2.56,12.68-4.24,18.97-6.27c13.9-4.48,27.79-8.96,41.69-13.45
			C549.33,674.85,545.42,660.36,536.2,663.34L536.2,663.34z"/>
	</g>
</g>
<g>
	<g>
		<path d="M516.42,692.27c-19.02,3.91-38.39,7.99-56.83,14.15c-14.91,4.98-35.51,17.42-26.5,36.1c7.75,16.07,28.96,19.53,44.89,18.1
			c19.29-1.74,38.36-7.51,57.18-11.87c9.4-2.18,5.42-16.64-3.99-14.46c-15.24,3.53-30.47,7.65-45.88,10.34
			c-11.48,2-29.99,3.66-37.89-7.26c-7.7-10.64,18.89-17.41,25.11-19.13c15.83-4.39,31.81-8.19,47.9-11.5
			C529.85,704.79,525.86,690.33,516.42,692.27L516.42,692.27z"/>
	</g>
</g>
<g>
	<g>
		<path d="M451.85,753.44c-15.61,3.6-28.26,15.71-33.25,30.85c-2.51,7.62-3.47,17.44,1.1,24.47c4.59,7.07,13.26,8.34,21.01,8.63
			c39.03,1.45,78.45-5.69,114.64-20.27c3.74-1.51,6.42-5.01,5.24-9.23c-1-3.56-5.43-6.77-9.23-5.24
			c-29.37,11.83-60.55,18.7-92.22,19.75c-7.26,0.24-14.9,0.67-22.13-0.22c-2.23-0.27-4.3-0.57-5.2-2.71
			c-0.98-2.32-0.11-6.11,0.47-8.48c2.85-11.55,12.02-20.43,23.55-23.09C465.24,765.73,461.26,751.27,451.85,753.44L451.85,753.44z"
			/>
	</g>
</g>
<g>
	<g>
		<path d="M472.94,804.61c-11.5,8.61-24.15,18.46-26.86,33.5c-2.61,14.48,4.29,28.78,19.16,32.62c14.54,3.75,31.2-1.32,45.47-4.21
			c17.09-3.46,34.05-7.55,50.84-12.24c19.24-5.37,38.23-11.56,56.96-18.49c8.98-3.32,5.1-17.82-3.99-14.46
			c-35.68,13.19-72.35,23.64-109.66,31.1c-8.36,1.67-16.92,3.73-25.43,4.36c-5.93,0.43-13.64,0.46-17.24-5.19
			c-8.54-13.39,9.34-27.3,18.33-34.04c3.27-2.45,4.86-6.46,2.69-10.26C481.37,804.09,476.17,802.19,472.94,804.61L472.94,804.61z"/>
	</g>
</g>
<g>
	<g>
		<path d="M515.17,858.35c-6.78,13.36-11.94,31.36,2.76,41.64c11.01,7.71,25.81,4.96,38.02,2.4c33.85-7.12,67.1-17.05,99.32-29.64
			c18.15-7.09,35.98-15,53.43-23.67c8.64-4.3,1.05-17.24-7.57-12.95c-34.01,16.91-69.48,30.68-106.01,41.11
			c-16.98,4.85-34.72,10.21-52.28,12.41c-5.05,0.63-12.44,1.29-16.74-2.19c-6.55-5.3-0.88-15.8,2.04-21.54
			C532.48,857.33,519.55,849.73,515.17,858.35L515.17,858.35z"/>
	</g>
</g>
<g>
	<g>
		<path d="M817.72,798.63c8.07-20.71,26.9-35.81,48.45-40.4c9.44-2.01,5.44-16.47-3.99-14.46c-26.97,5.74-48.99,25.37-58.93,50.88
			c-1.48,3.8,1.63,8.19,5.24,9.23C812.72,805.08,816.25,802.39,817.72,798.63L817.72,798.63z"/>
	</g>
</g>
<g>
	<g>
		<path class="st0" d="M-86.44,219.54c3.22,0,3.22-5,0-5C-89.65,214.54-89.66,219.54-86.44,219.54L-86.44,219.54z"/>
	</g>
</g>
</svg>
