<?xml version="1.0" encoding="utf-8"?>
<!-- Generator: Adobe Illustrator 23.0.1, SVG Export Plug-In . SVG Version: 6.00 Build 0)  -->
<svg version="1.1" id="Layer_1" xmlns="http://www.w3.org/2000/svg" xmlns:xlink="http://www.w3.org/1999/xlink" x="0px" y="0px"
	 viewBox="0 0 1000 1000" style="enable-background:new 0 0 1000 1000;" xml:space="preserve">
<style type="text/css">
	.st0{fill:#FFFFFF;}
	.st1{fill:#C9A063;}
</style>
<g>
	<g>
		<path d="M447.58,470.44c-47.08-7.3-87.75-40.61-106.29-84.28c-19.62-46.22-11.28-100.65,15.83-142.05
			c28.93-44.18,80.99-72.59,134.08-70.02c26.88,1.3,53.43,10.55,75.05,26.64c22.33,16.62,39.7,41.52,52.05,66.22
			c15.3,30.58,15.59,65.05,4.96,97.18c-9.99,30.21-29.01,56.62-50.39,79.81c-6.54,7.09,4.05,17.72,10.61,10.61
			c41.69-45.22,75.25-106.98,57.68-170.11c-4.33-15.58-11.94-30.12-20.57-43.71c-8.27-13.03-17.46-25.68-28.22-36.79
			c-20.76-21.45-48.08-36.04-77.32-41.88c-57.96-11.57-119.13,11.62-157.26,56.35c-35.84,42.04-51.6,101.56-36.65,155.32
			c13.86,49.84,54.1,91.78,103.66,106.92c6.16,1.88,12.43,3.28,18.8,4.26c4.03,0.62,8.02-1.03,9.23-5.24
			C453.83,476.12,451.58,471.06,447.58,470.44L447.58,470.44z"/>
	</g>
</g>
<g>
	<g>
		<path d="M572.47,451.58c-2.28,9.31,1.26,17.44,5.81,25.42c2.12,3.72,4.61,7.49,5.65,11.7c1.3,5.27-0.19,10.54-1.7,15.6
			c-2.77,9.24-5.56,17.96-3.8,27.7c1.57,8.71,6.74,15.54,15.11,18.58c-1.1-4.18-2.21-8.36-3.31-12.54
			c-10.59,10.16-21.49,22.03-21.16,37.73c0.16,7.68,3.14,14.9,8.87,20.08c5.53,5,11.75,8.67,16.38,14.68
			c4.2,5.45,7.19,11.76,8.82,18.44c0.8,3.25,1.39,6.57-0.14,9.68c-1.47,2.99-3.86,5.46-5.36,8.45c-5.48,10.94-4.64,23.51,0.51,34.39
			c5.91,12.49,17.56,21.03,31.31,22.35c-2.41-3.16-4.82-6.33-7.23-9.49c-2.76,9.99-4.28,20.88,0.54,30.51
			c3.98,7.94,11.88,13.36,20.82,13.44c-1.26-4.66-2.52-9.32-3.79-13.98c-20.02,14.05-15.66,47.27,7.36,55.62
			c9.09,3.3,13.01-11.19,3.99-14.46c-10.4-3.77-12.86-21.83-3.77-28.2c5.87-4.12,4.07-13.91-3.79-13.98
			c-12.1-0.11-8.82-17.95-6.89-24.96c1.4-5.06-2.47-9.04-7.23-9.49c-11.11-1.06-19.34-12.28-20.56-22.78
			c-0.71-6.11,1.22-11.04,4.56-16.01c5.03-7.47,6.34-14.65,4.49-23.54c-1.61-7.7-4.95-15.31-9.4-21.79
			c-5.11-7.44-11.4-12.54-18.37-18.1c-14.98-11.95,0.99-28.7,10.65-37.97c4.35-4.17,1.78-10.68-3.31-12.54
			c-4.86-1.77-5.07-9.49-4.65-13.67c0.86-8.43,5.08-16.25,6.18-24.7c1.14-8.71-1.19-16.33-5.32-23.93
			c-2.89-5.3-8.37-11.83-6.79-18.26C589.23,446.19,574.76,442.2,572.47,451.58L572.47,451.58z"/>
	</g>
</g>
<g>
	<g>
		<path d="M438.15,480.79c4.73,14.49,9.47,28.98,14.2,43.48c4.13,12.64,6.89,25.88,19.97,32.03c4.77,2.24,10.03,3.61,14.07,7.16
			c4.31,3.78,7.11,9.12,9.33,14.31c5.26,12.28,9.06,25.4,13.13,38.11c17.8,55.63,31.35,112.53,42.95,169.75
			c1.53,7.56,2.91,15.17,4.52,22.72c1.38,6.48,3.46,12.96,7.77,18.13c4.56,5.48,10.91,8.08,17.41,10.53
			c7.86,2.97,15.75,5.87,23.62,8.81c9.06,3.38,12.97-11.12,3.99-14.46c-6.66-2.48-13.33-4.97-19.99-7.45
			c-4.85-1.81-10.85-3.32-14.09-7.67c-3.06-4.11-3.85-9.86-4.83-14.76c-1.38-6.92-2.73-13.85-4.13-20.77
			c-5.62-27.68-11.7-55.27-18.5-82.69c-6.79-27.4-14.31-54.62-22.8-81.54c-4.11-13.03-8.28-26.1-13.09-38.9
			c-3.97-10.56-9.04-20.98-18.44-27.74c-5.27-3.79-12.03-4.8-17.23-8.58c-4.96-3.6-6.19-11.73-7.97-17.2
			c-5.15-15.75-10.29-31.5-15.44-47.26C449.63,467.67,435.14,471.58,438.15,480.79L438.15,480.79z"/>
	</g>
</g>
<g>
	<g>
		<path d="M618.54,836.53c8.16-19.85,19.21-38.69,32.53-55.52c2.53-3.2,3.06-7.47,0-10.61c-2.58-2.64-8.1-3.17-10.61,0
			c-15.06,19.03-27.16,39.7-36.38,62.14c-1.55,3.77,1.68,8.21,5.24,9.23C613.6,843,617,840.26,618.54,836.53L618.54,836.53z"/>
	</g>
</g>
<g>
	<g>
		<path d="M445.45,200.52c-12.82,7.8-20.54,22.11-20.87,37.05c-0.33,15.29,8.09,31.95,23.74,36.11
			c16.42,4.36,33.66-4.89,42.01-19.04c8.35-14.15,6.79-32.3-3.15-45.25c-11.06-14.4-33.81-20.5-46.21-4.34
			c-1.96,2.55,2.38,5.04,4.32,2.52c10.45-13.61,29.98-6.15,38.47,5.52c7.94,10.92,9.42,25.8,2.97,37.77
			c-6.75,12.52-21.07,21.12-35.47,18.36c-13.92-2.66-21.55-17.13-21.67-30.34c-0.12-13.62,6.69-26.93,18.4-34.05
			C450.72,203.17,448.21,198.84,445.45,200.52L445.45,200.52z"/>
	</g>
</g>
<g>
	<g>
		<path d="M452.88,466.46c13.22-13.65,29.77-23.65,48.02-28.99c8.95-2.62,18.19-4.11,27.52-4.34c9.88-0.25,20.42,0.28,28.85,5.97
			c2.68,1.8,5.18-2.53,2.52-4.32c-8.5-5.73-18.99-6.71-28.99-6.69c-10.01,0.03-20.05,1.45-29.7,4.12
			c-19.63,5.44-37.58,16.08-51.75,30.71C447.1,465.24,450.63,468.78,452.88,466.46L452.88,466.46z"/>
	</g>
</g>
<g>
	<g>
		<path d="M520.34,437.91c19.03,84.06,41.1,167.42,66.22,249.87c7.18,23.56,14.6,47.03,22.27,70.44c1,3.04,5.83,1.74,4.82-1.33
			c-26.81-81.91-50.67-164.78-71.44-248.43c-5.93-23.9-11.61-47.86-17.05-71.88C524.45,433.45,519.63,434.77,520.34,437.91
			L520.34,437.91z"/>
	</g>
</g>
<g>
	<g>
		<path d="M487.97,442.83c30.41,93.83,57.19,188.82,80.21,284.72c6.51,27.13,12.72,54.33,18.63,81.6c0.68,3.14,5.5,1.81,4.82-1.33
			c-20.92-96.39-45.55-191.96-73.9-286.43c-8.02-26.72-16.34-53.36-24.94-79.9C491.8,438.45,486.97,439.76,487.97,442.83
			L487.97,442.83z"/>
	</g>
</g>
<g>
	<g>
		<path class="st0" d="M423.26,279.98c10.29,10.06,24.82,14.05,38.81,10.71c3.13-0.75,1.8-5.57-1.33-4.82
			c-12.24,2.92-24.96-0.63-33.95-9.42C424.49,274.19,420.95,277.72,423.26,279.98L423.26,279.98z"/>
	</g>
</g>
<g>
	<g>
		<path class="st0" d="M530.84,540.23c13.08,36.63,23.68,74.09,31.74,112.14c0.67,3.15,5.49,1.81,4.82-1.33
			c-8.05-38.05-18.65-75.51-31.74-112.14C534.58,535.89,529.75,537.19,530.84,540.23L530.84,540.23z"/>
	</g>
</g>
<g>
	<g>
		<path class="st0" d="M578.49,721.36c6.71,23.92,15.01,47.32,24.79,70.16c1.26,2.95,5.57,0.4,4.32-2.52
			c-9.61-22.43-17.7-45.47-24.29-68.97C582.44,716.94,577.62,718.25,578.49,721.36L578.49,721.36z"/>
	</g>
</g>
<g>
	<g>
		<path class="st1" d="M376.28,290.44c-6.35,17.17-14.28,33.65-23.67,49.36c-1.66,2.77,2.67,5.29,4.32,2.52
			c9.62-16.08,17.68-32.98,24.18-50.56C382.22,288.74,377.39,287.44,376.28,290.44L376.28,290.44z"/>
	</g>
</g>
<g>
	<g>
		<path class="st1" d="M414.6,321.2c-7.57,17.14-16.58,33.54-26.99,49.12c-1.79,2.68,2.54,5.19,4.32,2.52
			c10.4-15.58,19.41-31.98,26.99-49.12C420.21,320.81,415.9,318.26,414.6,321.2L414.6,321.2z"/>
	</g>
</g>
<g>
	<g>
		<path class="st1" d="M498.2,298.34c-24.56,34.13-47.29,69.54-68.1,106.08c-1.6,2.8,2.72,5.32,4.32,2.52
			c20.81-36.54,43.54-71.95,68.1-106.08C504.4,298.25,500.07,295.75,498.2,298.34L498.2,298.34z"/>
	</g>
</g>
<g>
	<g>
		<path class="st1" d="M556.87,292.41c-9.89,13.73-19.77,27.46-29.66,41.19c-4.85,6.73-9.69,13.46-14.54,20.19
			c-2.33,3.23-4.65,6.46-6.98,9.69c-0.88,1.22-7.38,11.38-7.79,11.32c0.58,0.58,1.16,1.16,1.75,1.75c-0.05-0.15-0.1-0.3-0.15-0.46
			c-0.21,0.81-0.43,1.62-0.64,2.43c-0.06,0.06-0.13,0.11-0.19,0.17c-1.05-0.8-2.11-1.61-3.16-2.41c0,0.12,0,0.23,0,0.35
			c0.02,3.22,5.02,3.22,5,0c0-0.12,0-0.23,0-0.35c-0.01-1.7-1.58-2.75-3.16-2.41c-0.85,0.18-1.37,0.56-2.01,1.12
			c-0.63,0.55-0.91,1.65-0.64,2.43c0.05,0.15,0.1,0.3,0.15,0.46c0.26,0.77,0.88,1.61,1.75,1.75c2.48,0.4,3.7-0.42,5.29-2.31
			c2.97-3.51,5.46-7.58,8.14-11.31c5.62-7.81,11.24-15.62,16.87-23.42c11.44-15.89,22.88-31.77,34.31-47.66
			C563.07,292.32,558.73,289.82,556.87,292.41L556.87,292.41z"/>
	</g>
</g>
<g>
	<g>
		<path class="st1" d="M582.99,341.45c-8.04,10.7-14.93,22.12-20.64,34.22c-1.37,2.89,2.94,5.43,4.32,2.52
			c5.72-12.1,12.6-23.52,20.64-34.22C589.24,341.4,584.9,338.9,582.99,341.45L582.99,341.45z"/>
	</g>
</g>
<g>
	<g>
		<path class="st1" d="M527.02,191.97c-3.3,4.52-7.16,8.57-11.44,12.17c-2.46,2.07,1.09,5.6,3.54,3.54
			c4.62-3.89,8.66-8.31,12.22-13.18C533.23,191.9,528.9,189.4,527.02,191.97L527.02,191.97z"/>
	</g>
</g>
</svg>
