<?xml version="1.0" encoding="utf-8"?>
<!-- Generator: Adobe Illustrator 23.0.1, SVG Export Plug-In . SVG Version: 6.00 Build 0)  -->
<svg version="1.1" id="Layer_1" xmlns="http://www.w3.org/2000/svg" xmlns:xlink="http://www.w3.org/1999/xlink" x="0px" y="0px"
	 viewBox="0 0 1000 1000" style="enable-background:new 0 0 1000 1000;" xml:space="preserve">
<style type="text/css">
	.st0{fill:#EBE138;}
	.st1{fill:#070001;}
	.st2{fill:#FFFFFF;}
</style>
<g>
	<g>
		<path class="st0" d="M509.38,407.83c-16.2-5.41-16.88,25.12-16.83,34.34c0.04,5.81,0.11,12.47,3.04,17.66
			c3.62,6.4,11.26,9.05,17.95,5.79c5.53-2.69,9-8.11,11.92-13.3c3.78-6.68,6.77-13.94,8.78-21.35c3-11.04,5.29-25.81-3.6-34.91
			c-9.2-9.42-23.72-6.02-32.12,2.61c-8.92,9.15-11.74,23.76-8.22,35.87c1.81,6.2,5.3,12.27,12.11,13.66
			c6.61,1.35,13-2.56,17.24-7.32c8.6-9.65,13.97-23.57,13.52-36.54c-0.22-6.52-2.15-13.13-7.2-17.55
			c-4.97-4.35-12.76-6.01-18.73-2.71c-5.48,3.03-7.81,8.95-9.77,14.57c-2.65,7.58-4.09,15.65-4.47,23.66
			c-0.27,5.56-0.71,12.85,2.44,17.77c3.73,5.84,11.79,7.26,17.76,4.19c5.43-2.79,8.39-8.15,10.8-13.51
			c2.9-6.45,5.2-13.12,6.33-20.11c1.95-12.05,1.07-27.13-7.44-36.79c-4.32-4.9-10.91-6.29-16.52-2.63
			c-5.49,3.59-7.51,10.39-9.26,16.32c-4.2,14.17-6.29,29.11-6.17,43.89c0.05,5.84,0.57,12.91,6.51,15.92
			c6.61,3.36,12.64-1.14,15.16-7.17c6.12-14.62,8.55-31.84,7.78-47.61c-0.38-7.65-1.74-15.86-6.76-21.94
			c-4.84-5.87-12.77-7.21-18.7-2c-5.85,5.14-7.76,13.78-9.9,20.93c-2.44,8.12-4.41,16.37-5.92,24.71
			c-3.08,17.05-4.33,34.36-3.64,51.67c0.35,8.94,11.61,9.56,14.73,1.99c6.5-15.74,10.55-32.24,12.34-49.18
			c0.89-8.4,1.15-16.87,0.77-25.31c-0.32-7.15-0.48-15.12-2.89-21.92c-2.2-6.2-6.53-12.01-13.52-12.82
			c-7.63-0.89-13.48,4.48-16.5,11.02c-7.02,15.19-10.37,32.6-12.22,49.13c-1.04,9.33-1.55,18.9-0.92,28.28
			c0.55,8.18,3.1,15.35,11.27,18.44c3.97,1.5,7.99-1.7,9.23-5.24c7.59-21.7,11.13-44.9,10.07-67.88
			c-0.4-8.78-0.16-22.33-10.37-25.85c-10.48-3.62-18.22,6.24-21.67,14.73c-8.05,19.81-11.96,44.41-7.94,65.58
			c1.63,8.61,7.28,20.7,17.72,20.21c11.06-0.52,14.74-13.99,17.27-22.6c6.19-21.08,6.51-44.03,0.87-65.26
			c-2.5-9.39-9.1-20.27-20.62-16.94c-9.76,2.82-13.72,16.63-15.39,25.39c-3.7,19.41-6.01,42.59,0.82,61.53
			c1.59,4.42,3.5,9.8,7.06,13.05c4.52,4.13,11.06,3.43,15.4-0.56c7.36-6.77,9.19-17.65,10.81-27.01
			c2.22-12.85,3.87-26.08,3.83-39.14c-0.02-5.8-0.74-11.85-3.58-17.01c-2.88-5.22-8.94-8.76-14.71-5.62
			c-4.67,2.54-6.34,8.1-7.82,12.82c-1.92,6.12-3.03,12.51-3.57,18.9c-1.01,12.12,0.75,24.51,4.85,35.93
			c3.24,9.02,17.74,5.13,14.46-3.99c-3.12-8.67-4.75-17.55-4.58-26.77c0.08-4.52,0.57-8.99,1.53-13.41
			c0.49-2.25,1.08-4.47,1.77-6.67c0.34-1.1,0.71-2.19,1.11-3.27c0.64-1.23,0.33-1.24-0.94-0.02c-1.33,0-2.66,0-3.99,0
			c-2.13-0.67-1.35-1.26-0.59,0.79c0.41,1.1,0.68,2.29,0.85,3.46c0.37,2.65,0.23,5.41,0.15,8.08c-0.21,6.63-0.72,13.26-1.48,19.84
			c-0.71,6.18-1.69,12.34-2.93,18.44c-0.52,2.56-1.07,5.14-1.95,7.61c-0.39,1.11-0.82,2.16-1.39,3.19c-0.52,0.93-2.22,2.18-0.7,2.22
			c1.26,0.34,2.52,0.68,3.79,1.02c-2.72-1.39-4.11-9.4-4.75-12.15c-1.18-5.01-1.58-10.12-1.65-15.25
			c-0.13-10.08,0.69-20.48,2.38-30.42c0.8-4.66,1.86-9.44,4.07-13.66c0.43-0.83,1.03-2.17,1.65-2.79c-0.77,0.78-1.35-0.68-0.62,0.21
			c1.49,1.83,1.92,4.85,2.48,7.03c2.71,10.55,3.68,21.4,3.1,32.27c-0.56,10.55-2.79,20.97-6.4,30.89c-0.22,0.6-2.6,4.73-2.55,5.25
			c-0.08,0.08-0.16,0.15-0.24,0.23c2.83,0.4,3.54,0,2.12-1.21c-0.03-0.51-1.43-2.43-1.57-2.76c-1.99-4.54-2.17-9.78-2.3-14.65
			c-0.3-11.13,0.86-22.19,3.56-32.99c1.27-5.08,2.66-10.36,4.79-15.16c0.64-1.43,1.63-2.66,2.33-4.03c0.61-1.21,2.24-0.66,0.2-1.49
			c-2.01-0.82-0.58,0.24-0.56,1.39c0.1,5.96,1.05,11.94,1.07,17.94c0.02,6.43-0.32,12.86-1.01,19.25
			c-1.38,12.72-4.49,25.24-8.71,37.3c3.08-1.75,6.15-3.49,9.23-5.24c0.94,0.87,1.13,0.97,0.57,0.31c-0.28-0.81-0.51-1.63-0.67-2.47
			c-0.22-1.19-0.2-2.44-0.24-3.64c-0.17-4.26-0.16-8.53-0.01-12.79c0.28-7.85,1.05-15.68,2.44-23.42c1.4-7.79,3.3-15.49,5.7-23.04
			c1.11-3.49,2.11-7.46,3.96-10.65c0.24-0.42,0.93-1.46,1.17-1.87c-0.68,1.16-0.76-1.7-0.35,0.41c0.43,2.26,1.79,4.45,2.16,6.89
			c0.63,4.16,0.87,8.43,1.06,12.62c0.35,7.84,0.16,15.7-0.59,23.51c-1.54,16.16-5.8,32.01-11.98,46.99
			c4.91,0.66,9.82,1.33,14.73,1.99c-1.03-26.09,2.39-52.03,10.43-76.88c0.8-2.49,2.27-5.13,2.82-7.62c0.23-0.47,0.52-0.91,0.86-1.31
			c-0.84-0.04-1.68-0.08-2.52-0.12c-0.06,0.14,1.45,2.61,1.61,3c2.09,5.16,1.92,11.17,1.8,16.64c-0.13,6.03-0.73,12.03-1.91,17.94
			c-0.65,3.28-1.45,6.54-2.39,9.75c-0.43,1.46-0.88,2.91-1.36,4.36c-0.2,0.58-0.4,1.15-0.59,1.73c-1.28,2.48-0.61,2.46,2.02-0.04
			c1.26,0.34,2.52,0.68,3.79,1.02c1.52,0.91,1.05,1.84,0.95-1.12c-0.04-1.23-0.04-2.47-0.03-3.69c0.01-3.08,0.13-6.15,0.34-9.22
			c0.46-6.71,1.47-13.35,2.96-19.91c0.68-3,1.46-5.98,2.33-8.93c0.57-1.91,2.23-4.64,2.26-6.51c0.11-0.2,0.22-0.39,0.33-0.59
			c1.09-1.24,0.17-1.57-2.75-1c-0.12,0.36,1.37,2.15,1.64,2.66c1.25,2.38,2.07,4.91,2.61,7.54c2.13,10.3-0.9,21.66-5.26,30.98
			c-0.76,1.63-3.04,4.15-3.28,5.71c-0.22,1.45-0.69-0.29-0.39,0.59c1.91,5.52,1.4,0.59,1.38,0.6c0.58-0.39-0.17-7.94-0.11-9.22
			c0.18-3.65,0.65-7.23,1.43-10.8c0.66-3,1.49-5.97,2.51-8.88c0.27-0.78,1.45-5,2.26-5.29c3.87-1.39,4.01,7.95,3.95,9.4
			c-0.19,4.82-1.42,9.75-3.37,14.16c-1.78,4.04-5.1,11.08-9.67,12.57c0.99-0.32,1.14,0.93,0.52-0.46c-0.56-1.26-0.95-2.61-1.25-3.95
			c-0.54-2.37-0.69-4.82-0.47-7.25c0.41-4.5,2.07-9.21,5.22-12.53c2.02-2.13,6.13-5.04,9.29-3.8c3.86,1.51,3.63,7.51,3.42,10.82
			c-0.37,5.89-2.19,11.89-4.19,17.42c-1.18,3.27-2.64,6.42-4.29,9.48c-0.56,1.04-1.14,2.06-1.74,3.08
			c-0.85,1.44-3.05,3.56-3.57,5.06c-0.14,0.12-0.27,0.23-0.41,0.35c-0.74,0.42-0.51,0.64,0.67,0.65c-0.02-0.35-0.19-1.43-0.31-2.09
			c-0.6-3.2-0.5-6.67-0.46-9.92c0.05-3.64,0.3-7.3,0.87-10.9c0.19-1.22,0.42-2.43,0.67-3.64c0.25-1.21,0.52-2.41,0.82-3.61
			c1.02-2.4,0.49-2.47-1.57-0.22c-1.33,0-2.66,0-3.99,0c0.35,0.12,0.69,0.23,1.04,0.35C514.57,425.36,518.5,410.88,509.38,407.83
			L509.38,407.83z"/>
	</g>
</g>
<g>
	<g>
		<path class="st0" d="M444.08,434.09c-1.13,11.13-0.35,22.21,2.03,33.14c1.88,8.61,14.26,6.11,14.73-1.99
			c1.5-25.97,2.66-53.02-7.53-77.54c-2.61-6.28-12.48-7.91-14.46,0c-3.39,13.51-5.14,27.47-4.9,41.41
			c0.19,10.91-0.5,27.38,12.15,31.52c3.65,1.19,8.47-1.39,9.23-5.24c5.32-27,4.78-54.58-1.76-81.32c-1.2-4.91-6.86-6.64-11.02-4.48
			c-7.18,3.72-8.79,11.49-9.86,18.8c-1.3,8.9-2.28,17.85-2.8,26.83c-0.52,8.94-0.69,17.94-0.27,26.89
			c0.36,7.61,2.9,15.35,11.8,15.74c3.13,0.14,6.55-2.41,7.23-5.51c3.23-14.59,4.93-29.54,4.73-44.49c-0.1-7.3-0.66-14.58-1.61-21.82
			c-0.81-6.16-2.64-13.13-9.54-14.95c-15.21-4.03-16.21,22.93-17.26,31.98c-1.76,15.17-1.13,30.35,1.2,45.42
			c1.13,7.33,13.05,6.98,14.46,0c4.72-23.23,6.02-46.93,3.52-70.51c-0.41-3.86-3.11-7.73-7.5-7.5c-6.78,0.36-10.41,5.04-12.33,11.15
			c-2.15,6.87-3.46,14.17-4.77,21.23c-2.28,12.21-6.26,27.6,1.74,38.57c3.49,4.78,12.19,5.07,13.71-1.79
			c5.11-23.16,6.36-46.91,3.37-70.44c-0.83-6.52-7.55-9.8-12.8-5.3c-11.01,9.41-12.58,24.43-13.9,37.95
			c-0.8,8.15-8,43.94,10.46,38.04c2.36-0.75,4.75-2.66,5.24-5.24c3.53-18.7,5.43-37.63,5.54-56.66c0.06-9.65-14.94-9.66-15,0
			c-0.11,17.7-1.73,35.28-5.01,52.67c1.75-1.75,3.49-3.49,5.24-5.24c-0.28,0.09-0.56,0.18-0.84,0.27c1.33,0,2.66,0,3.99,0
			c1.1,0.99,2.19,1.98,3.29,2.97c0.04-0.64,0.08-1.28,0.11-1.92c0.39-1.36,0.21-3.34,0.31-4.79c0.2-2.88,0.41-5.75,0.64-8.62
			c0.45-5.59,0.93-11.18,1.57-16.75c0.92-8.09,2.51-16.55,8.97-22.07c-4.27-1.77-8.54-3.54-12.8-5.3
			c2.82,22.2,1.99,44.59-2.84,66.45c4.57-0.6,9.14-1.19,13.71-1.79c-4.94-6.77-2.08-16.63-0.74-24.22
			c0.88-4.97,1.88-9.92,3.01-14.84c0.57-2.46,1.14-4.92,1.79-7.36c0.24-1.02,0.52-2.02,0.84-3.01c0.37-0.68,0.42-0.66,0.17,0.08
			c-1.26,0.34-2.52,0.68-3.79,1.02c0.37-0.02,0.74-0.04,1.11-0.06c-2.5-2.5-5-5-7.5-7.5c2.36,22.23,1.47,44.6-2.98,66.52
			c4.82,0,9.64,0,14.46,0c-1.58-10.26-2.04-20.69-1.52-31.05c0.25-5,0.71-10.01,1.49-14.96c0.4-2.49,0.85-4.98,1.37-7.45
			c0.26-1.24,0.53-2.47,0.82-3.7c0.16-0.7,1.29-3.13,0.11-2.48c-1.26,0.34-2.52,0.68-3.79,1.02c-0.94-0.55-1.88-1.1-2.82-1.65
			c0.07,0.22,0.14,0.44,0.21,0.66c-0.24,0.74,0.51,3.11,0.61,3.98c0.34,2.83,0.61,5.68,0.81,8.53c0.4,5.7,0.54,11.41,0.41,17.12
			c-0.27,11.42-1.7,22.69-4.17,33.84c2.41-1.84,4.82-3.67,7.23-5.51c-0.33-0.01-0.66-0.03-0.99-0.04c1.26,0.34,2.52,0.68,3.79,1.02
			c1.43,0.64,0.29,1.11,0.5,0.33c0.25-0.91-0.13-2.9-0.17-3.97c-0.1-3.2-0.14-6.4-0.13-9.61c0.02-6.08,0.24-12.17,0.65-18.24
			c0.41-6.04,0.99-12.07,1.81-18.07c0.38-2.79,0.35-10.24,3.24-11.73c-3.67-1.49-7.34-2.99-11.02-4.48
			c5.88,24.03,6.54,49.06,1.76,73.34c3.08-1.75,6.15-3.49,9.23-5.24c0.81,0.8,0.97,0.79,0.46-0.02c-0.27-0.86-0.48-1.73-0.63-2.61
			c-0.4-2.24-0.49-4.58-0.65-6.85c-0.35-5.04-0.44-10.1-0.27-15.15c0.34-10.11,1.84-20.03,4.3-29.84c-4.82,0-9.64,0-14.46,0
			c9.72,23.4,8.43,48.78,6.99,73.55c4.91-0.66,9.82-1.33,14.73-1.99c-2.1-9.64-2.49-19.34-1.5-29.15c0.41-4.04-3.74-7.5-7.5-7.5
			C447.18,426.59,444.49,430.04,444.08,434.09L444.08,434.09z"/>
	</g>
</g>
<g>
	<g>
		<path class="st0" d="M471.78,560.56c-6.37-41.44-38.76-71.02-53.42-108.98c-8.77-22.71-7.3-45.53,0.45-68.37
			c6.88-20.3,17.3-42.69,35.54-55.18c38.21-26.16,90.86-0.18,114.56,33.76c13.08,18.73,19.45,40.97,17.43,63.8
			c-2.13,24.07-15.61,42.14-29.53,60.86c-7.49,10.08-14.41,20.52-18.64,32.43c-4.36,12.29-5.46,25.48-14.03,35.9
			c-7.26,8.83-17.48,14.88-28.68,17.09c-9.47,1.86-22.45,0.85-27.77-8.41c-4.8-8.37-17.77-0.82-12.95,7.57
			c12.51,21.8,43.87,19.13,62.83,8.48c10.34-5.81,19.35-14.73,24.82-25.3c6.03-11.66,6.92-25.05,12.54-36.83
			c10.9-22.87,30.73-39.94,40.07-63.76c9.63-24.54,8.75-53.05-1.2-77.34c-18.66-45.53-69-80.83-119.25-72.31
			c-25.29,4.29-44.3,22.18-56.49,43.93c-13,23.2-22.8,51.49-20.81,78.37c3.9,52.63,52.24,87.21,60.09,138.31
			c0.61,3.99,5.65,6.24,9.23,5.24C470.82,568.58,472.4,564.59,471.78,560.56L471.78,560.56z"/>
	</g>
</g>
<g>
	<g>
		<path class="st0" d="M485.04,450.46c-0.29,7.78-0.19,15.56,0.41,23.32c0.5,6.49,0.65,13.85,3.08,19.96
			c2.06,5.18,6.36,9.57,12.33,9.32c7.15-0.29,10.63-6.43,13.04-12.29c8.22-19.91,12-46.28-5.18-62.71
			c-3.24-3.1-9.63-2.98-11.78,1.52c-13.43,28.1-15.13,60.97-3.52,90.02c2.5,6.25,12.68,7.95,14.46,0
			c6.32-28.21-0.57-57.27-18.36-79.94c-3.74-4.77-10.94-1.45-12.54,3.31c-8.13,24.28-6.56,50.26,3.35,73.73
			c1.45,3.43,6.31,4.36,9.37,3.07c3.59-1.51,5.07-5.13,4.34-8.85c-4.14-21.31-14.14-40.91-28.54-57.11c-4.34-4.88-12.95-1-12.8,5.3
			c0.36,15.82,3.2,31.45,8.63,46.32c3.27,8.96,16.81,5.52,14.46-3.99c-6.21-25.14-19.76-48.1-38.79-65.67
			c-5.01-4.63-12.26-1.14-12.8,5.3c-2.05,24.43,6.29,48.53,22.23,67.02c2.15,2.49,6.37,2.76,9.09,1.17c3.1-1.81,3.94-5.14,3.45-8.47
			c-3.73-25.24-14.79-48.65-31.29-68.04c-4.72-5.55-12.09-0.43-12.8,5.3c-2.87,23.02,4.24,45.78,18.46,63.9
			c5.03,6.41,13.89-0.75,12.54-7.3c-4.85-23.47-15.84-45.07-31.55-63.12c-5.2-5.98-14.1,0.48-12.54,7.3
			c5.52,24.13,17.12,46.3,33.44,64.88c3.74,4.26,11.21,1.93,12.54-3.31c4.62-18.19,2.21-37.14-6.73-53.63
			c-3.41-6.29-14.61-3.73-13.98,3.79c2.46,29.25,12.35,57.4,29.31,81.41c4.54,6.43,13,3.59,13.98-3.79
			c1.98-14.86-1.47-29.98-9.29-42.73c-4.02-6.56-13.52-3.53-13.98,3.79c-1.25,19.91,4.15,39.89,15.25,56.46
			c4.39,6.55,13.1,3.5,13.98-3.79c1.75-14.48-1.79-29.21-9.64-41.48c-3.32-5.19-12.17-4.76-13.71,1.79
			c-5.1,21.67,0.12,43.71,13.76,61.16c3.24,4.14,9.31,1.95,11.78-1.52c10.04-14.09,10.02-34.26-0.07-48.32
			c-3.1-4.32-10.08-5.36-12.95,0c-6.16,11.48-8.42,24.38-6.25,37.25c1.04,6.2,2.99,13.17,8.34,17.03
			c4.88,3.52,11.07,3.55,15.96,0.05c14.34-10.28,15.39-47.14-5.43-50.9c-3.28-0.59-6.73,0.38-8.47,3.45
			c-5.89,10.36-8.6,23.08-5.88,34.85c2.47,10.69,14.63,19.89,24.16,10.49c3.84-3.79,5.96-9.81,7.68-14.79
			c1.9-5.51,2.97-11.29,3.45-17.1c1.02-12.28-1.55-24.37-6.66-35.5c-2.47-5.37-10.22-4.38-12.95,0c-8.8,14.1-12.23,30.89-9.86,47.32
			c1.1,7.63,3.11,16.32,9.07,21.68c6.29,5.64,15.39,4.35,20.55-2.04c5.2-6.45,6.38-15.67,7.42-23.62
			c1.23-9.37,1.19-18.71-0.07-28.07c-1.06-7.85-2.6-16.45-8.36-22.37c-5.28-5.42-13.52-6.66-19.95-2.5
			c-6.37,4.12-9.1,11.95-10.59,19c-1.95,9.2-2.59,18.72-1.63,28.08c0.78,7.6,1.87,16.29,7.29,22.17c5.19,5.62,13.56,6.71,20.06,2.74
			c6.65-4.06,10.24-11.63,12.62-18.74c2.53-7.54,4.27-15.75,3.4-23.73c-0.83-7.6-4.04-17.02-11.55-20.41
			c-8.68-3.91-15.75,3.58-20.02,10.26c-8.18,12.76-10.07,29.94-4.9,44.19c2.58,7.09,6.62,14.88,13.88,18.04
			c8.89,3.87,15.76-1.85,19.54-9.59c3.96-8.1,7.01-16.7,8.89-25.52c1.72-8.1,3.74-17.94,2.18-26.19
			c-1.65-8.71-10.17-12.79-18.19-9.47c-7.61,3.16-12.3,10.67-15.9,17.73c-6.3,12.37-11.43,29.58-3.13,42.33
			c3.99,6.13,11.04,9.91,18.4,9.24c7.5-0.68,13.55-5.5,17.89-11.38c8.06-10.93,12.22-30.57,1.51-41.27
			c-5.53-5.53-14.16-6.8-21.4-4.29c-7.52,2.61-13.08,8.71-16.69,15.63c-4.09,7.83-7.22,16.93-5.48,25.83
			c1.44,7.36,6.91,13.93,14.19,16.06c13.84,4.05,23.56-10.72,20.01-23.07c-4.35-15.12-23.25-16.03-33.04-5.6
			c-5.27,5.61-7.96,13.92-5.33,21.38c2.35,6.67,9.08,10.23,15.93,9.61c6.63-0.61,13.18-4.14,17.28-9.41c2.2-2.83,2.83-5.8,1.17-9.09
			c-6.61-13.15-27.65-7.82-27.96,6.66c-0.33,15.87,18.26,22.15,29.65,12.96c6.22-5.01,7.81-12.55,9.46-19.97
			c1.91-8.59,3.73-17.22,5-25.93c2.54-17.36,3.01-34.86-1.83-51.89c-2.07-7.27-12.27-6.99-14.46,0c-7.4,23.55-7.46,48.96-0.18,72.55
			c1.54,4.99,8.72,7.83,12.54,3.31c12.6-14.94,17.07-35.48,10.57-54.11c-1.64-4.71-8.78-8.14-12.54-3.31
			c-13.76,17.68-18.21,41.42-9.93,62.55c2.1,5.35,8.04,7.3,12.54,3.31c18.04-16.01,25.13-42.56,17.51-65.44
			c-1.75-5.26-8.39-7.47-12.54-3.31c-15.76,15.82-21.85,39.58-15.43,61.01c1.79,5.98,10.54,7.61,13.71,1.79
			c14.21-26.13,28.09-56.47,15.12-85.85c-2.47-5.59-10.12-4.13-12.95,0c-12.72,18.52-20.19,40.26-21.71,62.66
			c-0.69,10.13,0.54,22.52,13.13,23.78c11.12,1.11,17.56-7.78,22.32-16.46c10.35-18.88,20.84-40.39,17.74-62.54
			c-1.32-9.4-5.37-23.81-17.71-21.96c-10.48,1.57-16.65,14.64-21.11,23.01c-11.73,22.05-17.42,47.06-16.34,72.01
			c0.26,5.92,8.39,10.63,12.8,5.3c12.93-15.6,20.5-34.13,22.1-54.34c0.62-7.82-10.28-9.65-13.98-3.79
			c-11.49,18.21-17.51,39.33-17.51,60.86c0,7.6,10.08,9.99,13.98,3.79c10.61-16.89,16.59-36,17.87-55.88
			c0.55-8.58-12.49-9.99-14.73-1.99c-4.39,15.68-8.78,31.36-13.17,47.04c4.91,0.66,9.82,1.33,14.73,1.99
			c0.07-3.67,0.14-7.35,0.22-11.02c0.16-8.28-13.05-10.43-14.73-1.99c-1.21,6.04-2.41,12.08-3.62,18.11
			c-1.7,8.53,8.73,12.71,13.71,5.78c2.06-2.87,4.12-5.74,6.18-8.61c-4.57-1.93-9.14-3.85-13.71-5.78c-1.8,5.25-3.6,10.49-5.39,15.74
			c-1.21,3.53,1.1,7.48,4.34,8.85c3.69,1.56,7.09-0.03,9.37-3.07c5.05-6.73,10.1-13.46,15.15-20.19c5.1-6.79-6.17-15.44-11.78-9.09
			c-2.3,2.61-4.6,5.21-6.9,7.82c4.27,1.77,8.54,3.54,12.8,5.3c4.97-37.04,6.72-74.42,5.24-111.76c-0.32-8.02-13.18-10.7-14.73-1.99
			c-4.11,23.08-5.42,46.47-3.57,69.85c0.62,7.88,12.93,10.83,14.73,1.99c6.03-29.53,8.49-59.66,7.1-89.77
			c-0.4-8.69-11.82-9.88-14.73-1.99c-6.38,17.29-9.33,35.94-8.33,54.36c0.42,7.79,0.77,16.84,6.7,22.71
			c6.45,6.38,16.14,3.87,19.91-3.97c3.93-8.16,5.65-18.04,7.52-26.85c1.99-9.35,3.45-18.81,4.46-28.31
			c1.19-11.17,6.42-40.41-12.64-40.07c-2.41,0.04-5.45,1.34-6.48,3.71c-6.03,13.86-10.4,28.21-12.54,43.2
			c-1.84,12.89-4.19,28.35,1.28,40.66c5.31,11.95,19.65,15.65,28.21,4.54c4.14-5.37,6.57-12.29,8.88-18.6
			c2.5-6.86,4.42-13.93,5.74-21.1c3.06-16.69,3.04-33.45,0.18-50.16c-0.93-5.42-9.05-7.39-12.54-3.31
			c-10.11,11.84-17.28,25.99-20.13,41.35c-1.47,7.91-2.04,16-1.27,24.02c0.68,7.06,1.89,15.43,8.61,19.42
			c16.03,9.53,25.91-18.32,29.39-29c5.18-15.9,6.02-32.71,3.26-49.14c-0.91-5.38-9.09-7.44-12.54-3.31
			c-17.11,20.51-23.81,47.58-17.88,73.68c0.86,3.78,5.52,6.51,9.23,5.24c11.59-3.99,21.05-12.43,26.2-23.6
			c4.63-10.04,7.75-26.82-0.06-36.2c-11.86-14.23-25.56,8.46-29.73,18c-5.84,13.34-7.34,27.64-4.87,41.95
			c1.04,5.99,8.7,6.65,12.54,3.31c20.48-17.82,29.72-45.21,25.82-71.84c-0.78-5.35-9.21-7.49-12.54-3.31
			c-12.97,16.29-19.87,36.36-18.62,57.27c0.42,6.96,7.7,9.28,12.8,5.3c16.82-13.11,23.98-36.04,18.71-56.53
			c-1.32-5.13-8.87-7.71-12.54-3.31c-15.2,18.23-23.47,41.13-22.65,64.94c0.22,6.42,8.08,9.98,12.8,5.3
			c10.35-10.26,16.28-23.15,18.15-37.52c0.83-6.41-8.79-9.96-12.8-5.3c-12.75,14.79-20.3,32.41-22.44,51.8
			c-0.6,5.39,6.93,9.73,11.29,6.48c10.32-7.71,17.7-17.47,22.14-29.58c3.02-8.23-9.35-12.73-13.71-5.78
			c-5.24,8.36-9.32,17.33-12.32,26.73c-2.65,8.3,9.3,12.83,13.71,5.78c15.65-25.04,24.34-53.78,25.45-83.26
			c0.3-8.01-9.97-9.42-13.98-3.79c-8.9,12.52-11.83,27.58-9.61,42.63c0.93,6.31,11.04,7.32,13.71,1.79
			c8.03-16.62,10.66-34.29,8.13-52.54c-0.98-7.07-10.47-6.38-13.71-1.79c-10.03,14.21-13.14,32.01-9.34,48.89
			c1.55,6.88,10.19,6.6,13.71,1.79c14.35-19.64,14.68-47.93,1.05-68.01c-3.24-4.77-9.73-4.87-12.95,0
			c-8.35,12.64-10.97,27.6-8.37,42.42c0.94,5.36,9.07,7.46,12.54,3.31c12.46-14.9,14.94-35.43,6-52.76
			c-2.34-4.54-8.36-4.54-11.78-1.52c-9.12,8.04-14.04,20.35-12.68,32.47c0.62,5.55,8.31,11.03,12.8,5.3
			c12.04-15.36,14.1-36.47,3.88-53.41c-2.69-4.45-8.06-4.57-11.78-1.52c-11.99,9.83-16.62,27.35-11.07,41.83
			c1.91,4.97,8.37,7.78,12.54,3.31c10.77-11.56,13-28.17,5.97-42.25c-2.22-4.46-8.48-4.65-11.78-1.52
			c-12.91,12.26-15.85,31.42-8.43,47.34c2.17,4.66,8.48,4.42,11.78,1.52c12.93-11.37,15.62-31.93,6.12-46.26
			c-2.06-3.11-6.84-5.2-10.26-2.69c-18.22,13.34-26.82,37.22-19.73,58.98c1.8,5.51,8.25,7.16,12.54,3.31
			c20.17-18.14,24.62-50.19,10.46-73.25c-2.77-4.51-7.97-4.48-11.78-1.52c-18.6,14.47-23.63,41.39-13.46,62.2
			c2.01,4.11,8.8,5.06,11.78,1.52c14.43-17.15,16.37-43.23,2.75-61.54c-2.42-3.25-6.44-4.92-10.26-2.69
			c-18.65,10.88-22.39,37.09-8.78,53.36c2.73,3.26,7.77,2.46,10.61,0c8.31-7.19,17.45-16.33,17.33-28.19
			c-0.11-10.4-8.53-21.17-19.42-21.35c-10.95-0.19-18.51,11.78-22.57,20.56c-4.6,9.94-6.01,21.41,2.33,29.81
			c2.91,2.93,7.67,2.78,10.61,0c10.26-9.7,18.9-23.19,19.82-37.6c0.92-14.49-9.94-27.26-25.03-25.15
			c-14.25,2-21.84,17.26-16.04,30.16c2.98,6.63,9.83,11.92,17.35,11.59c7.81-0.33,14.37-6,17.22-13.04
			c4.56-11.23-1.09-24.84-11.25-30.94c-11.23-6.74-24.78-1.91-31.51,8.68s-5.2,27.48,7.36,33.09c11.92,5.32,24.79-6.07,25.27-18.05
			c0.61-15.47-17.46-22.85-30.3-18.31c-16.18,5.72-20.37,23.89-17.9,39.14c0.5,3.07,4.22,5.66,7.23,5.51
			c17.79-0.9,29.45-22.12,19.1-37.26c-10.47-15.31-33.33-14.78-44.02-0.22c-5.18,7.06-7.1,16.41-5.21,24.96
			c2.12,9.63,10.37,17.58,20.74,14.79c18.98-5.1,19.28-34.29,8.48-47.09c-6.76-8.01-17.3-7.51-24.63-0.53
			c-8.19,7.8-13.49,18.95-15.24,30.03c-0.47,2.97,0.23,7.09,3.45,8.47c10.21,4.37,20.98-0.35,25.48-10.49
			c4.41-9.93-0.2-20.86-9.95-25.35c-9.29-4.28-20.9-2.53-28.05,4.97c-7.94,8.33-9.66,20.79-6.42,31.54
			c1.26,4.19,5.13,5.91,9.23,5.24c15.61-2.56,25.48-19.38,21.66-34.33c-0.74-2.9-4.05-5.86-7.23-5.51
			c-15.08,1.66-27.71,14.77-26.11,30.51c0.45,4.4,4.49,9.08,9.49,7.23c13.21-4.88,20.79-18.26,17.68-32.12
			c-1.53-6.8-10.24-6.69-13.71-1.79c-8.73,12.36-9.23,28.66-2.28,41.92c1.92,3.66,6.84,4.56,10.26,2.69
			c5.3-2.9,9.22-8.02,10.05-14.07c0.43-3.17-0.24-6.86-3.45-8.47c-9.13-4.58-19.73-1.91-26.41,5.73
			c-7.38,8.44-7.72,19.98-7.35,30.62c0.22,6.39,8.1,10.03,12.8,5.3c9.93-9.97,13.78-23.32,11.74-37.09
			c-0.77-5.18-7.18-6.34-11.02-4.48c-7.66,3.7-9.55,13.45-6.21,20.73c3.84,8.38,13.75,11.03,22.12,8.39
			c9.92-3.13,15.2-12.09,18.98-21.12c3.39-8.11,8.66-17.19,8.18-26.25c-0.42-7.89-6.15-16.16-15.08-13.67
			c-4.22,1.18-8.77,6.37-10.86,10.03c-2.43,4.26-2.85,9.59-0.57,14c4.95,9.56,16.22,9.5,22.13,1.08c4.37-6.23,7.31-14.73,6.02-22.37
			c-1.66-9.77-12.37-15.4-21.31-10.59c-11.9,6.41-10.8,20.04-7.04,31.01c1.14,3.33,3.75,5.27,7.23,5.51
			c14.84,0.99,25.86-17.47,18.23-30.19c-4.45-7.42-14.58-7.23-21.22-2.95c-6.7,4.32-10.07,12.59-7.65,20.29
			c5.71,18.16,30.25,17.76,38.5,2.03c3.9-7.44,3.82-17.34-2.14-23.73c-5.48-5.87-15.66-6.7-21.52-0.88
			c-12.11,12.02,1.39,36.15,16.82,36.62c15.81,0.49,23.4-19.89,13.47-31.22c-10.67-12.18-31.47-3.38-33.43,11.63
			c-2.21,16.9,18.52,28.75,32.44,19.81c16.03-10.29,12.57-34.35-4.47-41.21c-18.45-7.43-36.61,10.19-31.63,28.93
			c1.23,4.63,6.89,6.98,11.02,4.48c6.28-3.79,10.68-9.97,11.88-17.25c1.26-7.65-0.24-15.8-8.62-18.01
			c-16.38-4.33-29.18,14.27-20.11,28.22c1.37,2.1,3.81,3.94,6.48,3.71c13.14-1.1,21.33-18.27,11.33-28.34
			c-5.98-6.03-14.53-1.97-18.9,3.89c-4.33,5.81-4.82,13.2-1.49,19.6c3.05,5.86,12.01,4.18,13.71-1.79
			c4.02-14.09,20.16-21.72,33.73-16.9c0.66-4.91,1.33-9.82,1.99-14.73c-6.72,0.3-13.44,0.61-20.17,0.91
			c-8.04,0.36-10.68,13.02-1.99,14.73c10.28,2.03,20.56,4.05,30.84,6.08c0.66-4.91,1.33-9.82,1.99-14.73
			c-8.29-0.82-16.58-1.65-24.86-2.47c0,5,0,10,0,15c9.03,0.24,18.05,0.47,27.08,0.71c7.07,0.18,10.72-10.83,3.79-13.98
			c-6.84-3.1-13.89-4.67-21.42-3.84c-7.28,0.8-10.35,9.65-3.79,13.98c10.69,7.05,22.96,10.77,35.74,11.2
			c8.07,0.27,9.34-9.92,3.79-13.98c-5.41-3.95-10.82-7.9-16.23-11.85c-1.93,4.57-3.85,9.14-5.78,13.71
			c11.53,4.24,23.07,8.49,34.6,12.73c7.9,2.91,13.49-10.11,5.78-13.71c-6.97-3.25-13.93-6.5-20.9-9.75
			c-8.63-4.03-15.92,7.8-7.57,12.95c12.87,7.94,25.74,15.87,38.61,23.81c5.39,3.32,13.12-2.23,11.02-8.47
			c-1.98-5.89-5.02-10.96-9.5-15.29c-5.91-5.72-16.73,1.82-11.78,9.09c6.35,9.34,13.52,18.05,21.56,25.98
			c5.73,5.65,13.68-0.27,12.54-7.3c-0.8-4.95-3.81-8.66-7.89-11.38c-5.79-3.86-12.32,2.49-11.02,8.47
			c1.9,8.76,4.51,17.27,7.85,25.58c4.57-1.93,9.14-3.85,13.71-5.78c-1.4-2.58-2.8-5.16-4.2-7.75c-3.62-6.67-13.9-3.46-13.98,3.79
			c-0.1,8.92-0.19,17.84-0.29,26.76c4.27-1.77,8.54-3.54,12.8-5.3c-14.4-11.63-35.75-13.59-51.04-2.25
			c-14.49,10.74-20.63,31.03-14.05,47.94c1.34,3.44,5.16,6.87,9.23,5.24c12.46-5.01,21.79-15.55,23.54-29.13
			c1.75-13.56-4.71-26.23-15.54-34.14c-2.89-2.11-6.64-0.76-9.09,1.17c-24.45,19.31-37.73,51.75-33.79,82.66
			c0.89,6.96,9.81,10.73,13.98,3.79c9-15,15.58-32.9,16.07-50.55c0.23-8.3-1.85-16.93-7.9-22.93c-5.16-5.13-14-8.67-21.08-5.57
			c-3.57,1.56-5.89,6.11-7.8,9.37c-1.87,3.18-3.43,6.5-4.83,9.91c-2.97,7.23-4.72,14.72-5.53,22.49
			c-1.63,15.48,1.57,31.14,8.81,44.88c3.23,6.12,11.66,3.9,13.71-1.79c9.61-26.71,10.64-55.95,3.24-83.33
			c-0.78-2.87-4.03-5.88-7.23-5.51c-17.64,2.07-25.6,20.25-29.38,35.64c-4.32,17.59-3.32,36.36,3.07,53.31
			c2.71,7.2,11.67,6.97,14.46,0c9.68-24.13,13.09-50.57,9.81-76.37c-0.47-3.68-3.07-7.98-7.5-7.5c-4.44,0.48-10.08-0.02-13.15,3.74
			c-2.61,3.2-4.15,7.8-5.71,11.58c-2.97,7.24-5.06,14.77-6.24,22.51c-2.48,16.29-1.27,32.9,3.95,48.56
			c1.59,4.78,8.79,8.07,12.54,3.31c19.94-25.34,22.89-61.41,5.99-89.19c-2.97-4.88-9.97-4.82-12.95,0
			c-11.62,18.83-10.88,44.26,2.45,62.06c2.33,3.11,6.56,5.11,10.26,2.69c30.92-20.24,42.52-62.01,27-95.41
			c-1.62-3.48-7.17-4.85-10.26-2.69c-11.83,8.24-20.51,19.94-24.73,33.77c-1.9,6.22-2.84,12.96-2.63,19.46
			c0.22,6.74,1.06,14.99,7.75,18.48c12.49,6.53,24.98-8.07,28.36-18.62c3.71-11.57,0.87-25.04-8.01-33.47
			c-3.02-2.87-7.57-2.82-10.61,0c-20.51,19.05-24.03,53.47-7.08,75.95c2.61,3.46,8.38,5.64,11.78,1.52
			c13.5-16.38,20.43-37.32,18.12-58.56c-0.89-8.21-11.95-10.43-14.73-1.99c-5.45,16.48-8.18,33.93-7.8,51.3
			c0.15,6.98-0.78,18.14,6.4,22.19c7.5,4.23,15.89-2.67,14.03-10.71c-2.17-9.4-16.64-5.42-14.46,3.99c0.07,0.29,0.13,0.58,0.2,0.87
			c0.25-1.93,0.5-3.85,0.76-5.78c0.75-0.61,1.5-1.22,2.25-1.83c1.33,0,2.66,0,3.99,0c0.81,0.57,1.62,1.14,2.43,1.71
			c-0.03-0.39-0.06-0.78-0.08-1.17c0.3-0.89-0.21-2.75-0.27-3.7c-0.15-2.47-0.24-4.95-0.26-7.42c-0.05-5.26,0.2-10.52,0.72-15.76
			c1.02-10.12,3.38-20.06,6.57-29.7c-4.91-0.66-9.82-1.33-14.73-1.99c1.86,17.16-2.66,34.53-13.73,47.96
			c3.93,0.51,7.85,1.01,11.78,1.52c-13.09-17.36-11.32-42.86,4.73-57.77c-3.54,0-7.07,0-10.61,0c4.52,4.3,6.07,10.53,4.78,16.59
			c-0.63,2.97-1.9,5.8-3.91,8.09c-0.95,1.07-2.5,1.73-3.37,2.75c-0.97,1.14-1.07-0.67-0.08,1.18c1.38,2.58,0.37-1.63,0.36-1.73
			c-2.46-16.66,6-34.65,19.66-44.16c-3.42-0.9-6.84-1.79-10.26-2.69c11.95,25.73,2.01,59.41-21.62,74.88
			c3.42,0.9,6.84,1.79,10.26,2.69c-10.29-13.75-11.52-32.21-2.45-46.92c-4.32,0-8.63,0-12.95,0c13.1,21.54,12.12,50.98-3.64,71.01
			c4.18,1.1,8.36,2.21,12.54,3.31c-7.76-23.26-5.81-48.72,5.9-70.33c-2.16,1.24-4.32,2.48-6.48,3.71c2.42-0.26,4.84-0.52,7.26-0.78
			c-2.5-2.5-5-5-7.5-7.5c3.14,24.69,0,49.28-9.27,72.38c4.82,0,9.64,0,14.46,0c-4.84-12.84-6.59-26.77-4.13-40.35
			c1.18-6.53,3.05-13.07,6-19.03c1.88-3.8,5.14-10.02,9.97-10.59c-2.41-1.84-4.82-3.67-7.23-5.51c6.75,24.97,5.51,51.03-3.24,75.35
			c4.57-0.6,9.14-1.19,13.71-1.79c-11.51-21.83-8.79-48.74,5.77-68.43c-1.49,1.15-2.99,2.3-4.48,3.45c4-0.86,7.12,3.2,8.23,6.54
			c1.78,5.35,0.79,11.59-0.23,16.99c-2.25,12.05-6.63,23.36-12.93,33.87c4.66,1.26,9.32,2.52,13.98,3.79
			c-3.51-27.56,7.59-54.83,29.4-72.06c-3.03,0.39-6.06,0.78-9.09,1.17c12.71,9.3,10.27,29.96-4.42,35.86
			c3.08,1.75,6.15,3.49,9.23,5.24c-4.17-10.72-1.82-23.66,7.38-31.14c9.05-7.36,23.57-7.28,32.64,0.04
			c4.88,3.94,12.73,1.66,12.8-5.3c0.1-8.92,0.19-17.84,0.29-26.76c-4.66,1.26-9.32,2.52-13.98,3.79c1.4,2.58,2.8,5.16,4.2,7.75
			c3.95,7.29,16.93,2.24,13.71-5.78c-3.34-8.32-5.95-16.82-7.85-25.58c-3.67,2.82-7.35,5.65-11.02,8.47
			c0.86,0.57,0.82,1.38,0.99,2.42c4.18-2.43,8.36-4.86,12.54-7.3c-7.14-7.05-13.57-14.65-19.21-22.95
			c-3.93,3.03-7.85,6.06-11.78,9.09c2.62,2.53,4.48,5.21,5.64,8.67c3.67-2.82,7.34-5.65,11.02-8.47
			c-12.87-7.94-25.74-15.87-38.61-23.81c-2.52,4.32-5.05,8.63-7.57,12.95c6.97,3.25,13.93,6.5,20.9,9.75
			c1.93-4.57,3.85-9.14,5.78-13.71c-11.53-4.24-23.07-8.49-34.6-12.73c-3.5-1.29-7.51,1.16-8.85,4.34
			c-1.54,3.66,0.01,7.13,3.07,9.37c5.41,3.95,10.82,7.9,16.23,11.85c1.26-4.66,2.52-9.32,3.79-13.98
			c-10.23-0.34-19.64-3.53-28.16-9.15c-1.26,4.66-2.52,9.32-3.79,13.98c4.77-0.52,9.43-0.21,13.85,1.79
			c1.26-4.66,2.52-9.32,3.79-13.98c-9.03-0.24-18.05-0.47-27.08-0.71c-9.81-0.26-9.42,14.06,0,15c8.29,0.82,16.58,1.65,24.86,2.47
			c8.37,0.83,10.27-13.1,1.99-14.73c-10.28-2.03-20.56-4.05-30.84-6.08c-0.66,4.91-1.33,9.82-1.99,14.73
			c6.72-0.3,13.44-0.61,20.17-0.91c8.63-0.39,9.96-11.9,1.99-14.73c-21.28-7.56-46.06,5.91-52.18,27.38
			c4.57-0.6,9.14-1.19,13.71-1.79c-1.16-2.22,1.05-4,2.98-4.37c-1.93-0.25-3.85-0.5-5.78-0.76c-1.98-1.53,0.77,2.38-1.09,2.54
			c2.16,1.24,4.32,2.48,6.48,3.71c-1.9-2.92-0.38-7.97,3.89-5.96c-1.15-1.49-2.3-2.99-3.45-4.48c1.56,4.68,0.21,9.48-4.13,12.1
			c3.67,1.49,7.34,2.99,11.02,4.48c-1.32-4.96,1.57-11.03,7.04-11.76c4.49-0.6,9.64,2.69,10.12,7.31c0.41,3.96-2.33,9.28-6.88,8.98
			c-4.34-0.29-8.33-5.21-4.74-8.74c7.71-7.57,8.45,9.04,1.72,4.31c-2.14-1.51-3.51-4.43-4-6.92c-0.12-0.64-0.57-2.55-0.34-3.13
			c-0.41,1.07-0.42-0.54-0.06,0.42c1.55,4.17-0.44,10.71-5.99,10.74c-2.26,0.01-5.94-2.43-5.21-5.12c0.26-0.97,3.86-2.94,3.88-2.37
			c-0.02-0.53-2-0.66-1.83-0.78c0.08-0.06,0.14,1.14,0.12,1.2c-0.31,0.78-0.29,1.76-0.69,2.57c-1.08,2.2-2.59,3.33-5.02,3.16
			c2.41,1.84,4.82,3.67,7.23,5.51c-1.44-4.21-3.13-8.38-1.62-12.71c0.88-2.54,1.61,0.4,0.61-1.65c0.33,0.67,0.28,1.7,0.19,2.63
			c-0.32,3.2-2.73,5.66-3.26,8.56c-0.3,1.64-2.06,0.28,1.38,1.28c2.87,0.84,1.7,0.44,1.97,0.31c0.43-0.2,1.28-1.66,1.65-2.05
			c1.08-1.1,2.35-2.06,3.56-3.02c-1.77,0.73-3.54,1.46-5.3,2.2c3.27-0.44-2.89-1.13-2.19-2.09c0.29-0.4,0.33,2.6,0.32,2.13
			c0.05,1.56-0.39,2.96-0.9,4.42c-2.2,6.26-4.78,12.75-7.73,18.69c-1.91,3.84-5.17,9.58-10.3,9.2c-0.79-0.06-1.31-0.17-1.97-0.62
			c1.06,0.72,0.31-0.12-0.03-0.6c-0.18-0.25,0.09-1.04,0.04-1.16c0.15,0.37-1.89,1.25,0.35,0.17c-3.67-1.49-7.35-2.99-11.02-4.48
			c1.23,8.31-2.06,16.65-7.88,22.5c4.27,1.77,8.54,3.54,12.8,5.3c-0.2-5.93-0.75-12.62,1.89-18.14c1.44-3.02,5.64-7.1,9.3-5.26
			c-1.15-2.82-2.3-5.65-3.45-8.47c-0.34,2.52-0.88,3.86-3.16,5.11c3.42,0.9,6.84,1.79,10.26,2.69c-4.6-8.78-3.34-18.82,2.28-26.78
			c-4.57-0.6-9.14-1.19-13.71-1.79c1.22,5.43-1.87,11.7-7.2,13.67c3.16,2.41,6.33,4.82,9.49,7.23c-0.7-6.88,3.58-14.68,11.11-15.51
			c-2.41-1.84-4.82-3.67-7.23-5.51c1.96,7.68-3.74,14.66-11.18,15.88c3.08,1.75,6.15,3.49,9.23,5.24
			c-2.34-7.77-0.27-20.93,10.48-19.84c2.78,0.28,6.66,1.94,6.3,5.32c-0.15,1.34-2.89,5.68-4.73,4.89c1.15,2.82,2.3,5.65,3.45,8.47
			c1.08-6.84,3.37-13.28,7.48-18.92c0.84-1.15,3.75-5.8,5.59-5.69c0.76,0.05,1.49,1.56,1.84,2.14c2.71,4.38,2.96,10.74,2.06,15.65
			c-0.29,1.57-1.49,6.16-4,5.99c-1.71-0.11-2.2-3.39-2.4-4.7c-1.5-9.85,7.05-20.12,17.28-16c3.93,1.58,6.96,5.01,6.44,9.42
			c-0.47,4.02-3.78,8.22-7.98,8.43c2.41,1.84,4.82,3.67,7.23,5.51c-1-6.17-0.26-13.96,4.44-18.58c3.04-2.98,8.8-4.31,12.5-1.65
			c2.6,1.87,2.1,6.71-1.42,7.59c-4.09,1.02-3.65-6.9-2.77-9.19c1.46-3.81,5.23-7.67,9.66-6.86c4.09,0.75,7.38,5.16,8.01,9.11
			c0.7,4.45-4.31,11.81-7.54,5.3c-2.37-4.78,1.19-9.83,6.37-9.35c7.58,0.7,6.59,10.4,5.05,15.59c-2.5,8.44-8.05,15.86-14.36,21.83
			c3.54,0,7.07,0,10.61,0c-3.33-3.36-1.41-8.52,0.33-12.29c1.25-2.7,5.69-12.34,9.31-12.48c4.03-0.15,4.7,6.87,3.91,9.31
			c-1.99,6.09-7.75,10.59-12.41,14.63c3.54,0,7.07,0,10.61,0c-7.5-8.96-4.03-24.1,5.74-29.8c-3.42-0.9-6.84-1.79-10.26-2.69
			c9.39,12.62,9.99,31.02-0.4,43.37c3.93,0.51,7.85,1.01,11.78,1.52c-7.45-15.23-1.95-33.86,11.11-44.02
			c-3.93-0.51-7.85-1.01-11.78-1.52c10.82,17.61,7.22,41.29-8.11,55.07c4.18,1.1,8.36,2.21,12.54,3.31
			c-4.87-14.93-0.08-32.58,12.83-42.04c-3.42-0.9-6.84-1.79-10.26-2.69c6.02,9.08,4.4,20.9-3.77,28.09
			c3.93,0.51,7.85,1.01,11.78,1.52c-4.61-9.88-1.65-21.82,6.08-29.17c-3.93-0.51-7.85-1.01-11.78-1.52
			c3.93,7.88,2.34,17.68-3.63,24.08c4.18,1.1,8.36,2.21,12.54,3.31c-3.84-10.01-1.08-20.44,7.21-27.23
			c-3.93-0.51-7.85-1.01-11.78-1.52c6.44,10.68,6.33,25.2-1.54,35.23c4.27,1.77,8.54,3.54,12.8,5.3c-0.96-8.58,1.8-16.14,8.29-21.86
			c-3.93-0.51-7.85-1.01-11.78-1.52c5.64,10.94,4.29,25.09-3.65,34.59c4.18,1.1,8.36,2.21,12.54,3.31
			c-1.92-10.89,0.82-21.72,6.86-30.86c-4.32,0-8.63,0-12.95,0c10.93,16.1,10.41,37.19-1.05,52.87c4.57,0.6,9.14,1.19,13.71,1.79
			c-2.97-13.15,0.1-26.39,7.82-37.33c-4.57-0.6-9.14-1.19-13.71-1.79c1.92,13.9-0.53,28.38-6.62,40.98
			c4.57,0.6,9.14,1.19,13.71,1.79c-1.64-11.09,1.69-22.06,8.09-31.07c-4.66-1.26-9.32-2.52-13.98-3.79
			c-1.02,26.9-9.15,52.88-23.41,75.69c4.57,1.93,9.14,3.85,13.71,5.78c2.62-8.22,6.23-15.84,10.81-23.14
			c-4.57-1.93-9.14-3.85-13.71-5.78c-2.97,8.12-8.31,15.43-15.25,20.62c3.76,2.16,7.52,4.32,11.29,6.48
			c1.67-15.15,8.12-29.67,18.05-41.19c-4.27-1.77-8.54-3.54-12.8-5.3c-1.34,10.28-6.45,19.68-13.75,26.91
			c4.27,1.77,8.54,3.54,12.8,5.3c-0.68-19.68,5.59-39.15,18.25-54.33c-4.18-1.1-8.36-2.21-12.54-3.31
			c4.06,15.77-2.15,32.03-14.85,41.93c4.27,1.77,8.54,3.54,12.8,5.3c-1-16.71,3.73-33.46,14.23-46.66
			c-4.18-1.1-8.36-2.21-12.54-3.31c3.14,21.4-5.83,43.21-21.96,57.25c4.18,1.1,8.36,2.21,12.54,3.31
			c-1.46-8.47-0.79-17.17,1.66-25.39c1.2-4.02,2.82-7.82,4.9-11.47c1.84-3.23,4.05-7.7,7.62-9.23c-1.26,0.34-2.52,0.68-3.79,1.02
			c-1.98,0.26-1.5-2.41-1.28,0.88c0.05,0.75,0.31,1.52,0.39,2.27c0.2,1.82,0.18,3.77,0.01,5.59c-0.35,3.72-1.46,7.46-3.16,10.78
			c-3.46,6.8-9.07,12.4-16.37,14.91c3.08,1.75,6.15,3.49,9.23,5.24c-4.67-20.52,0.51-42.88,14.02-59.08
			c-4.18-1.1-8.36-2.21-12.54-3.31c1.89,11.23,1.45,22.9-1.22,33.97c-1.41,5.83-3.32,11.56-5.92,16.97
			c-1.2,2.49-2.51,4.94-3.95,7.31c0.06-0.11-2.28,3.27-2.29,3.2c1.12,0.11,2.25,0.23,3.37,0.34c-0.36-0.44-0.61-0.92-0.75-1.46
			c0.01-1.96-0.92-4.37-1.09-6.39c-0.25-2.89-0.33-5.78-0.26-8.68c0.14-5.41,0.91-10.72,2.25-15.97
			c2.76-10.78,7.84-20.86,15.08-29.33c-4.18-1.1-8.36-2.21-12.54-3.31c2.43,14.17,2.35,28.92-0.34,43.05
			c-1.31,6.88-3.18,13.66-5.58,20.24c-1.39,3.81-3.65,12.85-7.67,14.58c0.55-0.24,1.06,0.71,0.23-0.23c-0.6-0.68-1.06-1.38-1.46-2.2
			c-0.96-1.97-1.49-4.28-1.7-6.45c-0.69-6.84,0.06-14.15,0.77-20.96c1.55-14.72,5.52-29.41,11.42-42.98
			c-2.16,1.24-4.32,2.48-6.48,3.71c-7.09,0.13-0.91-1.76-1.52-0.58c-0.16,0.31,0.51,1.9,0.56,2.31c0.33,2.59-0.11,5.55-0.24,8.15
			c-0.31,6.66-0.87,13.31-1.71,19.92c-1.64,12.86-4.4,25.61-8.02,38.05c-0.34,1.15-1.47,3.47-1.37,4.56
			c-0.09,0.31-0.18,0.61-0.27,0.92c3.51,1.23,4.77,1.24,3.76,0.03c-0.06-1.5-1.42-3.71-1.62-5.46c-0.74-6.38-0.86-12.88-0.57-19.29
			c0.58-12.87,3.39-25.43,7.85-37.5c-4.91-0.66-9.82-1.33-14.73-1.99c1.33,28.79-0.8,57.54-6.57,85.78
			c4.91,0.66,9.82,1.33,14.73,1.99c-1.74-22.01-0.83-44.12,3.04-65.86c-4.91-0.66-9.82-1.33-14.73-1.99
			c1.48,37.34-0.27,74.72-5.24,111.76c-0.87,6.46,8.77,9.87,12.8,5.3c2.3-2.61,4.6-5.21,6.9-7.82c-3.93-3.03-7.85-6.06-11.78-9.09
			c-5.05,6.73-10.1,13.46-15.15,20.19c4.57,1.93,9.14,3.85,13.71,5.78c1.8-5.25,3.6-10.49,5.39-15.74
			c2.94-8.57-9.07-12.24-13.71-5.78c-2.06,2.87-4.12,5.74-6.18,8.61c4.57,1.93,9.14,3.85,13.71,5.78
			c1.21-6.04,2.41-12.08,3.62-18.11c-4.91-0.66-9.82-1.33-14.73-1.99c-0.07,3.67-0.14,7.35-0.22,11.02
			c-0.17,8.51,12.46,10.11,14.73,1.99c4.39-15.68,8.78-31.36,13.17-47.04c-4.91-0.66-9.82-1.33-14.73-1.99
			c-1.12,17.26-6.64,33.69-15.83,48.31c4.66,1.26,9.32,2.52,13.98,3.79c-0.01-19,5.33-37.22,15.46-53.29
			c-4.66-1.26-9.32-2.52-13.98-3.79c-1.26,15.95-7.49,31.4-17.71,43.73c4.27,1.77,8.54,3.54,12.8,5.3
			c-0.69-15.91,1.48-31.59,6.61-46.68c2.63-7.74,6.06-15.16,10.18-22.22c1.83-3.14,3.68-6.5,5.99-9.32
			c0.21-0.25,1.77-1.81,1.77-1.83c-0.34-0.15-0.69-0.29-1.03-0.44c-1.07-0.71-1.31-0.66-0.72,0.14c-0.33,0.79,1.6,4.5,1.87,5.59
			c3.81,15.28-2.45,31.47-9.1,45.04c-1.8,3.67-3.71,7.29-5.67,10.88c-1.52,2.78-3.33,7.66-6.27,9.34c-0.73,0.42-1.42,0.7-2.28,0.6
			c1.08,0.13,0.35,0.84,0.42-0.81c0.16-4.16,0.14-8.27,0.59-12.43c1.97-18.28,8.92-35.69,19.29-50.78c-4.32,0-8.63,0-12.95,0
			c10.34,23.44-4.04,50.34-15.12,70.71c4.57,0.6,9.14,1.19,13.71,1.79c-4.91-16.4-0.53-34.27,11.58-46.42
			c-4.18-1.1-8.36-2.21-12.54-3.31c6.05,18.16,0.66,38.14-13.65,50.84c4.18,1.1,8.36,2.21,12.54,3.31
			c-6.18-15.77-4.5-34.36,6.08-47.96c-4.18-1.1-8.36-2.21-12.54-3.31c4.67,13.38,2.54,28.54-6.72,39.52
			c4.18,1.1,8.36,2.21,12.54,3.31c-6.54-21.19-6.47-43.41,0.18-64.57c-4.82,0-9.64,0-14.46,0c5.59,19.65,3.03,40.02-1,59.71
			c-1,4.88-2.05,9.75-3.18,14.6c-0.75,3.19-1.41,7.44-4.89,8.76c-2.66,1.01-2.68-0.1-3.78-2.03c-0.12-0.22-0.19,0.75-0.25,0.56
			c0.02,0.05-0.76-1.92,0.28,0.14c0.39-3.03,0.78-6.06,1.17-9.09c-1.91,2.45-4,4.07-6.98,4.95c-0.58,0.17-1.38,0.3-1.91,0.09
			c0.63,0.25,0.39,1.16,0.26,0.05c-0.11-0.99,0.06-1.89,0.37-2.82c1.01-3.03,7.33-8.14,9.44-4.11c0.7,1.35,0.38,3.32-0.16,4.51
			c-0.26,0.58-0.77,0.87-0.12,0.63c-1.04,0.38-2.25-0.5-3.08-1.41c-5.27-5.8,1.11-18.27,5.11-23.26c3.93-4.91,12.28-7.47,13.39,0.89
			c0.95,7.16-2.12,15.96-7.69,20.63c-5.26,4.41-9.52,0.49-10.37-5.35c-1.16-7.9,2.27-16.38,5.94-23.18
			c1.07-1.98,2.21-3.94,3.51-5.78c1.01-1.43,3.31-2.8,4.08-4.09c0.12-0.04,0.23-0.09,0.35-0.13c1.28-0.39,0.52-0.93-2.29-1.61
			c0.13-0.09-0.33,2.96,0.04,1.88c-0.87,2.49-0.27,6.26-0.57,8.96c-1.09,9.9-3.86,19.91-8.04,28.96c-0.5,1.08-1.02,2.17-1.57,3.23
			c-0.11,0.21-2.08,2.75-0.31,2.04c1.39-0.55,0.13-0.02-0.62-1.09c-0.49-0.69-1.09-1.31-1.57-2.03c-2.31-3.49-3.68-7.6-4.45-11.68
			c-1.46-7.71-0.34-16.24,3.31-23.21c0.89-1.7,1.87-3.42,3.04-4.94c0.06-0.08,1.68-1.85,1.66-1.91c-0.7-0.17-1.39-0.35-2.09-0.52
			c0.28,0.44,0.55,0.87,0.83,1.31c0.47,1.98,1.66,3.65,2.01,5.76c0.4,2.43,0.32,5.04,0.05,7.48c-0.47,4.34-1.75,8.64-3.17,12.76
			c-0.93,2.69-2.64,7.76-5.48,9.02c-4.17,1.86-5.08-14.87-5.18-17.56c-0.31-8.5-0.29-20.49,4.74-27.82c1.7-2.47,2.77-0.33,3.93,2.27
			c2.09,4.69,2.59,10.47,2.98,15.52c0.48,6.2,0.41,12.47-0.3,18.65c-0.57,4.97-1.2,11.06-3.49,15.59c-0.24,0.48-1.16,1.42-1.11,1.73
			c0.04,0.24,1.09-0.05,1.1-0.07c0.06-0.32-2.17-4.21-2.4-4.98c-1.53-5.04-2.29-10.17-2.31-15.43c-0.03-10.62,3.02-20.75,8.62-29.74
			c-4.32,0-8.63,0-12.95,0c6,13.07,6.35,28.35,1.43,41.81c-0.53,1.44-1.11,2.82-1.79,4.2c-0.46,0.94-3.04,3.93-0.5,3.1
			c1.84-0.6,0.93-0.15,0.18-1.84c-0.51-1.16-0.7-2.57-0.85-3.82c-0.89-7.46,0.99-14.93,4.66-21.4c-2.82,1.15-5.65,2.3-8.47,3.45
			c8.18,1.48,4.27,18.71,1.46,23.47c-2.08,3.51,0.42-1.11,0.67,0.8c-0.09-0.66-0.89-2.04-1.07-2.56c-1.22-3.43-1.71-7.19-1.8-10.81
			c-0.19-7.45,1.55-14.65,5.07-21.21c-4.32,0-8.63,0-12.95,0c7.28,10.14,7.32,23.01,0.07,33.18c3.93-0.51,7.85-1.01,11.78-1.52
			c-10.17-13.01-13.66-30.6-9.9-46.57c-4.57,0.6-9.14,1.19-13.71,1.79c6.59,10.3,9.06,21.79,7.59,33.9
			c4.66-1.26,9.32-2.52,13.98-3.79c-9.78-14.6-14.3-31.35-13.2-48.89c-4.66,1.26-9.32,2.52-13.98,3.79
			c6.6,10.74,8.9,22.69,7.24,35.16c4.66-1.26,9.32-2.52,13.98-3.79c-15.4-21.8-25.02-47.2-27.26-73.84
			c-4.66,1.26-9.32,2.52-13.98,3.79c7.02,12.93,8.84,27.82,5.22,42.07c4.18-1.1,8.36-2.21,12.54-3.31
			c-14.64-16.66-24.64-36.67-29.59-58.26c-4.18,2.43-8.36,4.86-12.54,7.3c14.04,16.14,23.37,35.59,27.69,56.51
			c4.18-2.43,8.36-4.86,12.54-7.3c-11.83-15.06-16.42-34.46-14.07-53.29c-4.27,1.77-8.54,3.54-12.8,5.3
			c14.86,17.46,24.09,38.79,27.43,61.42c4.18-2.43,8.36-4.86,12.54-7.3c-13.44-15.59-19.55-36.01-17.84-56.42
			c-4.27,1.77-8.54,3.54-12.8,5.3c17.26,15.93,29.29,36.25,34.93,59.05c4.82-1.33,9.64-2.66,14.46-3.99
			c-4.99-13.67-7.76-27.78-8.09-42.34c-4.27,1.77-8.54,3.54-12.8,5.3c12.74,14.32,21.03,31.71,24.68,50.49
			c4.57-1.93,9.14-3.85,13.71-5.78c-8.33-19.72-8.6-42-1.84-62.17c-4.18,1.1-8.36,2.21-12.54,3.31
			c14.28,18.21,19.53,42.86,14.5,65.35c4.82,0,9.64,0,14.46,0c-10.08-25.22-9.76-53.83,2.01-78.46c-3.93,0.51-7.85,1.01-11.78,1.52
			c10.57,10.1,8.57,26.02,4.69,38.77c-1.03,3.39-2.83,6.68-3.73,10.06c-1.64,2.08-0.36,2.66,3.84,1.72
			c-0.39-0.46-0.62-0.98-0.69-1.56c-0.16-2.02-0.77-4.13-1.02-6.16c-1.24-10.31-1.56-20.69-1.17-31.06
			C500.4,440.8,485.4,440.82,485.04,450.46L485.04,450.46z"/>
	</g>
</g>
<g>
	<g>
		<path class="st0" d="M486.91,385.48c9.65,0,9.67-15,0-15C477.26,370.48,477.25,385.48,486.91,385.48L486.91,385.48z"/>
	</g>
</g>
<g>
	<g>
		<path class="st1" d="M449.6,563.98c2.8,21.07,31.2,25.4,48.23,23.46c10.57-1.21,20.83-4.65,30.03-9.99
			c8.51-4.94,18.16-11.88,19.62-22.34c0.44-3.15-4.38-4.51-4.82-1.33c-1.32,9.45-10.31,15.39-18.02,19.76
			c-7.52,4.26-15.77,7.19-24.31,8.56c-8.74,1.4-17.79,1.05-26.32-1.34c-8.23-2.3-18.15-7.32-19.41-16.77
			C454.18,560.84,449.17,560.8,449.6,563.98L449.6,563.98z"/>
	</g>
</g>
<g>
	<g>
		<path class="st1" d="M429.83,321.41c-24.46,18.81-31.48,50.54-33.28,79.83c-1.15,18.62-1.01,37.96,4.83,55.87
			c5.63,17.24,16.45,31.94,26.49,46.81c11.82,17.51,23.13,36.82,22.04,58.69c-0.16,3.22,4.84,3.21,5,0
			c1.79-35.71-26.05-61.63-41.74-90.87c-9.15-17.05-12.2-35.53-12.14-54.73c0.05-16.13,1.28-32.51,5.33-48.17
			c4.29-16.59,12.18-32.48,26.01-43.12C434.87,323.79,432.39,319.44,429.83,321.41L429.83,321.41z"/>
	</g>
</g>
<g>
	<g>
		<path class="st1" d="M549.72,551.69c2.97-16.32,8.67-31.87,17.13-46.15c7.6-12.83,16.87-24.57,24.54-37.36
			c15.64-26.1,20.31-56.6,10.29-85.68c-1.04-3.02-5.87-1.72-4.82,1.33c5.12,14.86,6.64,30.76,4,46.29
			c-2.57,15.09-9.17,28.59-17.42,41.35c-7.77,12.03-16.57,23.43-23.46,36.02c-7.33,13.38-12.35,27.88-15.08,42.87
			C544.32,553.51,549.14,554.85,549.72,551.69L549.72,551.69z"/>
	</g>
</g>
<g>
	<g>
		<path class="st1" d="M420.43,337.97c18.23-24.47,49.71-35.39,79.49-33.02c31.76,2.53,59.72,21.42,78.31,46.67
			c10.7,14.53,18.49,30.97,23.39,48.32c0.87,3.09,5.7,1.78,4.82-1.33c-9.18-32.54-28.69-62.79-57.23-81.54
			c-26.95-17.7-61.17-22.47-91.71-11.67c-16.5,5.83-30.92,15.99-41.39,30.05C414.19,338.03,418.53,340.52,420.43,337.97
			L420.43,337.97z"/>
	</g>
</g>
<g>
	<g>
		<path class="st2" d="M432.44,351.66c-4.66,3.48-8.59,7.57-11.83,12.4c-1.61,2.39,1.95,5,3.93,3.03c4.19-4.18,7.99-8.7,11.41-13.52
			c1.74-2.45-1.9-4.76-3.93-3.03c-3.72,3.17-7.13,6.65-10.23,10.43c-2.02,2.47,1.49,6.03,3.54,3.54c3.1-3.78,6.51-7.25,10.23-10.43
			c-1.31-1.01-2.62-2.02-3.93-3.03c-3.18,4.48-6.74,8.64-10.63,12.51c1.31,1.01,2.62,2.02,3.93,3.03c2.74-4.08,6.1-7.67,10.04-10.61
			C437.51,354.08,435.02,349.73,432.44,351.66L432.44,351.66z"/>
	</g>
</g>
<g>
	<g>
		<path class="st2" d="M423.79,381.37c-1.55,4.43-3.1,8.86-4.65,13.28c-1.07,3.05,3.74,4.33,4.82,1.33
			c1.15-3.19,2.31-6.38,3.46-9.57c-1.61-0.44-3.21-0.89-4.82-1.33c-0.97,3.73-1.93,7.47-2.9,11.2c-0.81,3.12,4.01,4.45,4.82,1.33
			c0.97-3.73,1.93-7.47,2.9-11.2c0.82-3.16-3.74-4.32-4.82-1.33c-1.15,3.19-2.31,6.38-3.46,9.57c1.61,0.44,3.21,0.89,4.82,1.33
			c1.55-4.43,3.1-8.86,4.65-13.28C429.67,379.66,424.85,378.35,423.79,381.37L423.79,381.37z"/>
	</g>
</g>
<g>
	<g>
		<path class="st1" d="M468.34,662.22c-0.12,6.94-0.1,13.88,0.09,20.82c0.15,5.47,0.11,11.29,3.18,16.07
			c6.31,9.83,21.41,11.96,32.08,11.52c6.14-0.25,12.31-1.4,18.04-3.63c5.91-2.3,9.21-6.13,10.61-12.36
			c2.84-12.55,2-25.78-2.13-37.94c-3.08-9.09-17.58-5.19-14.46,3.99c2.83,8.35,4.04,17.08,2.88,25.86
			c-0.19,1.44-0.33,5.51-1.37,6.55c0.59-0.58-3.51,0.82-2.79,0.59c-4.1,1.27-8.22,1.95-12.52,1.98c-4.93,0.03-16.73-0.19-18.26-6.35
			c-0.89-3.59-0.33-8.25-0.39-11.96c-0.08-5.05-0.06-10.1,0.03-15.15C483.5,652.57,468.5,652.57,468.34,662.22L468.34,662.22z"/>
	</g>
</g>
<g>
	<g>
		<path d="M459.33,571.35c-1.15-24.85-8.25-49.12-22.21-69.84c-6.86-10.19-14.8-19.79-19.37-31.32
			c-4.68-11.81-7.26-24.56-9.75-36.99c-5.07-25.32-4.55-51.09,3.88-75.67c3.83-11.17,9.83-20.37,19.08-27.78
			c9.2-7.38,19.96-15.7,31.35-19.21c11.33-3.5,24.02-2.88,35.68-1.63c11.01,1.18,22.21,3.89,32.35,8.41
			c21.79,9.7,35.59,27.48,47.03,47.77c5.77,10.24,12.23,20.79,15.6,32.1c3.35,11.25,2.84,23.08,0.11,34.41
			c-5.81,24.12-20.21,44.56-31.95,66.02c-6.49,11.86-12.23,24.22-15.72,37.32c-2.54,9.54-4.06,22.51-12.43,29.02
			c-4.7,3.65-11.24,4.42-16.95,5.17c-7.51,1-15.05,1.84-22.59,2.62c-12.55,1.29-26.85,3.65-38.39-2.79
			c-8.44-4.71-16.01,8.24-7.57,12.95c11.35,6.33,24.15,6.78,36.82,5.72c14.21-1.19,29.06-2.14,43-5.24
			c12.13-2.7,21-10.31,25.92-21.63c4.72-10.86,6.3-22.74,10.48-33.79c9.29-24.55,25.93-45.5,36.31-69.55
			c5.39-12.49,9.36-25.57,10.19-39.22c0.84-13.87-2.55-26.92-8.52-39.34c-10.76-22.4-23.75-46.51-43.58-62.15
			c-19.84-15.65-44.92-22.53-69.89-23.5c-13.75-0.54-27.39,0.73-39.86,6.95c-5.82,2.9-11.15,6.68-16.45,10.42
			c-5.82,4.12-11.75,8.26-16.86,13.26c-18.85,18.43-24.71,48.72-25.41,74.07c-0.45,16.43,2.33,32.6,5.9,48.57
			c3.27,14.63,7.01,29.26,14.76,42.25c7.84,13.14,17.93,24.6,24.15,38.73c6.09,13.82,9.19,28.86,9.89,43.9
			C444.77,580.96,459.78,581.01,459.33,571.35L459.33,571.35z"/>
	</g>
</g>
<g>
	<g>
		<path d="M444.87,571.51c-9.36,16.26-10.37,37.66-8.63,55.99c0.82,8.7,3.97,16.65,10.81,22.34c6.25,5.19,14.08,7.97,21.94,9.61
			c29.52,6.18,94.74,14.86,96.21-30.51c0.34-10.4-2.57-21.08-5.29-31.02c-3.22-11.8-7.43-23.25-12.27-34.48
			c-1.62-3.75-7.05-4.52-10.26-2.69c-3.87,2.2-4.29,6.56-2.69,10.26c6.63,15.36,12.01,31.81,14.8,48.34
			c1.01,5.97,1.64,13.2-1.52,18.67c-3.51,6.08-11.15,8.18-17.55,9.57c-16.5,3.57-34.09,1.07-50.58-1.39
			c-11.12-1.67-26.07-4.22-28.39-17.4c-1.4-7.92-0.67-16.85-0.18-24.84c0.53-8.7,2.19-17.25,6.58-24.87
			C462.65,570.7,449.69,563.13,444.87,571.51L444.87,571.51z"/>
	</g>
</g>
<g>
	<g>
		<path d="M460.37,603.53c23.25,5.08,49.95,8.53,69.14-8.83c2.39-2.16-1.15-5.69-3.54-3.54c-17.7,16.02-42.97,12.2-64.27,7.55
			C458.57,598.02,457.23,602.84,460.37,603.53L460.37,603.53z"/>
	</g>
</g>
<g>
	<g>
		<path d="M483.55,624.08c16.84,1.53,35.81,1.94,47.1-12.86c1.95-2.56-2.39-5.05-4.32-2.52c-10,13.1-28.2,11.71-42.79,10.38
			C480.35,618.79,480.37,623.79,483.55,624.08L483.55,624.08z"/>
	</g>
</g>
<g>
	<g>
		<path d="M518.13,639.14c9.33,1.84,19.04-2.84,22.86-11.7c1.26-2.92-3.05-5.47-4.32-2.52c-2.89,6.71-9.92,10.84-17.21,9.4
			C516.31,633.7,514.97,638.52,518.13,639.14L518.13,639.14z"/>
	</g>
</g>
</svg>
