<?xml version="1.0" encoding="utf-8"?>
<!-- Generator: Adobe Illustrator 23.0.1, SVG Export Plug-In . SVG Version: 6.00 Build 0)  -->
<svg version="1.1" id="Layer_1" xmlns="http://www.w3.org/2000/svg" xmlns:xlink="http://www.w3.org/1999/xlink" x="0px" y="0px"
	 viewBox="0 0 1000 1000" style="enable-background:new 0 0 1000 1000;" xml:space="preserve">
<style type="text/css">
	.st0{fill:#1D2A75;}
	.st1{fill:#040000;}
</style>
<g>
	<g>
		<path class="st0" d="M525.18,136.79c-12.45,0.29-15.83,17.96-3.16,21.33c12.6,3.35,15.82-15.03,6.99-21.12
			c-9.81-6.75-22.63,4.03-19,14.97c3.5,10.55,17.82,12.14,24.33,3.69c6.62-8.57,2.27-19.77-6.63-24.52
			c-4.49-2.39-9.42-3.25-14.41-3.82c-5.6-0.63-11.93-1.36-17.41,0.32c-9.96,3.06-13.84,15.22-12.79,24.63
			c1.07,9.65,6.3,18.43,14.2,24.08c16.77,11.98,40.93,4.57,52.43-11.18c5.73-7.86,8.44-18.22,6.31-27.81
			c-2.37-10.65-11.6-17.75-21.86-20.14c-20.62-4.81-43.42,6.58-45.79,28.95c-1.02,9.63,3.01,20.35,11.74,25.26
			c9.97,5.61,21.07-0.19,26.6-9.09c4.8-7.72,6.18-19.98-0.93-26.86c-7.74-7.5-19.91-3.8-24.56,5.2c-4.97,9.61,0.98,21.26,9.45,26.61
			c10.38,6.56,18.96-1.93,20.59-12.17c1.62-10.15-3.68-22.63-16.06-19.91c-11.94,2.62-14.07,16.08-10.99,26.09
			c2.89,9.42,10.36,18.86,21.18,18.29c10.39-0.55,16.65-9.54,19.92-18.48c2.89-7.92,4.45-18.36-0.83-25.63
			c-6.41-8.82-19.14-6.96-24.96,1.51c-5.85,8.5-4.03,22.98,1.48,31.31c6.3,9.54,20.35,10.27,25.89-0.38
			c4.66-8.97,6.61-22.84-3.58-28.88c-10.33-6.12-19.49,3.35-22.46,12.65c-3.05,9.57-4.95,23.67,7.46,27.05
			c9.91,2.7,19.74-4,25-11.95c5.92-8.96,6.06-20.82,0.89-30.14c-5.33-9.61-15.71-14.52-26.12-16.55
			c-17.67-3.46-40.94,1.25-45.39,21.71c-4.52,20.77,12.54,38.86,32.82,39.6c19.12,0.69,45.58-15.08,40.59-37.3
			c-2.11-9.42-10.76-17.28-20.68-16.58c-9.58,0.67-9.65,15.68,0,15c3.15-0.22,5.35,1.82,6.08,4.91c0.99,4.22-2,8.37-4.86,11.14
			c-6.35,6.17-16.39,9.28-25.09,7.31c-14.99-3.39-21.14-25.53-3.99-30.76c8.04-2.45,17.57-1.32,25.26,1.91
			c8.24,3.47,13.02,12.7,8.3,20.96c-1.74,3.04-4.21,4.89-7.32,6.26c-0.32,0.14-1.13,0.07-1.49,0.01c-0.18-0.03,1.06,0.77,1.08,0.68
			c0.61-3.11,0.88-6.26,1.94-9.28c0.21-0.58,2.18-3.48,2.12-3.74c-0.56,0.02-1.13,0.04-1.69,0.06c-0.05-0.01-0.1-0.02-0.16-0.03
			c-0.08,0.15,0.19,1.72,0.16,2.09c-0.15,2.31-1.95,4.55-2.01,6.78c-0.15,0.25-0.3,0.5-0.45,0.74c0.34-0.22,0.67-0.45,1.01-0.67
			c-0.16-0.44-0.91-0.87-1.12-1.44c-1.26-3.56-3.32-9.08-1.83-12.86c0.32-0.8,0.81-1.12,1.16-1.77c0.91-1.67,0.74,1.16-0.03-0.5
			c0.31,0.66,0.4,1.48,0.45,2.25c0.28,4.34-2.3,18.02-8.3,18.1c-2.72,0.04-4.67-3.99-5.49-6.04c-0.77-1.94-1.42-4.25-1.34-6.33
			c0.02-0.63,0.43-1.7,0.37-2.21c0.17-0.12,0.34-0.25,0.5-0.37c-0.99,0.25-1.71-0.13-2.17-1.15c0.12-0.07,0.18,3.33,0.1,3.86
			c-0.04,0.23-0.78,2.53-0.68,2.71c-0.03,0.08-0.05,0.17-0.08,0.25c3.16,0.03,3.9-0.37,2.22-1.22c-0.49-1.47-2.76-2.49-3.33-4.23
			c-0.61-1.89-0.07-1.97,0.64-3.38c0.28-0.56,1.16,0.04,0.12-0.33c-0.34-0.12-0.27-0.42-0.11,0.11c0.35,1.15,0.43,2.28,0.27,3.49
			c-0.38,2.96-2.61,7.66-5.76,8.58c-3.28,0.96-5.32-2.78-6.14-5.46c-1.17-3.81-0.46-8.09,1.32-11.6
			c7.14-14.08,39.18-14.97,36.61,4.99c-2.33,18.13-29.65,29.58-40.77,12.45c-2.2-3.39-3.52-7.63-2.92-11.7
			c0.2-1.34,0.67-3.68,1.71-4.61c1.65-1.46,4.69-0.83,6.72-0.75c4.38,0.17,11.06,0.08,14.82,2.91c0.6,0.45,1.37,1.38,1.46,1.49
			c0.25,0.3,0.88-0.16,1.1,0.27c3.03,5.8-6.93,1.94-3.94-0.85c1.77-0.73,3.54-1.46,5.3-2.2c1.1,0.73,2.2,1.46,3.3,2.18
			c0,1.33,0,2.66,0,3.99c-1.1,0.73-2.19,1.47-3.29,2.2C534.82,151.57,534.85,136.57,525.18,136.79L525.18,136.79z"/>
	</g>
</g>
<g>
	<g>
		<path class="st0" d="M494.96,246.48c0.5,0,0.99,0,1.49,0c1.92,0,3.94-0.84,5.3-2.2c0.73-0.68,1.25-1.48,1.55-2.41
			c0.47-0.89,0.68-1.86,0.65-2.89c-0.09-1.94-0.72-3.95-2.2-5.3c-1.47-1.35-3.27-2.2-5.3-2.2c-0.5,0-0.99,0-1.49,0
			c-1.92,0-3.94,0.84-5.3,2.2c-0.73,0.68-1.25,1.48-1.55,2.41c-0.47,0.89-0.68,1.86-0.65,2.89c0.09,1.94,0.72,3.95,2.2,5.3
			C491.13,245.63,492.93,246.48,494.96,246.48L494.96,246.48z"/>
	</g>
</g>
<g>
	<g>
		<path class="st0" d="M441.23,309.09c-0.5,0-1,0-1.49,0c-1.92,0-3.94,0.84-5.3,2.2c-0.73,0.68-1.25,1.48-1.55,2.41
			c-0.47,0.89-0.68,1.86-0.65,2.89c0.09,1.94,0.72,3.95,2.2,5.3c1.47,1.35,3.27,2.2,5.3,2.2c0.5,0,1,0,1.49,0
			c1.92,0,3.94-0.84,5.3-2.2c0.73-0.68,1.25-1.48,1.55-2.41c0.47-0.89,0.68-1.86,0.65-2.89c-0.09-1.94-0.72-3.95-2.2-5.3
			C445.07,309.94,443.26,309.09,441.23,309.09L441.23,309.09z"/>
	</g>
</g>
<g>
	<g>
		<path class="st0" d="M412.87,415.14c9.65,0,9.67-15,0-15C403.22,400.14,403.2,415.14,412.87,415.14L412.87,415.14z"/>
	</g>
</g>
<g>
	<g>
		<path class="st0" d="M201.34,420.07c-10.53-3.36-20.74,7.54-18.12,17.89c2.35,9.29,13.89,14.12,22.47,10.52
			c3.96-1.66,6.12-4.8,5.24-9.23c-1.41-7.1-4.69-14.26-12.31-16.29c-8.6-2.29-15.91,4.23-16.12,12.79
			c-0.34,13.62,16.71,22.29,27.86,15.2c8.12-5.16,0.61-18.15-7.57-12.95c-0.95,0.61-1.23,0.91-2.88,0.31
			c0.25,0.09-1.56-0.88-1.19-0.58c-0.97-0.78-1.07-1.17-1.18-1.35c0.02,0.03-0.35-0.69,0-1.03c-1.2,1.18-0.9,1.35-2.62,2.14
			c-0.04,0.02-0.49-0.09-0.46-0.17c0.1-0.26,0.5,0.43,0.68,0.76c0.79,1.46,0.99,3.55,1.31,5.16c1.75-3.08,3.49-6.15,5.24-9.23
			c-0.78,0.33-1.54,0.61-2.38,0.75c1-0.17-1.14-0.43-0.18-0.1c-0.51-0.17-1.69-0.6-1.54-0.69c0.2-0.11,0.13,0.69,0.15,0.71
			c0.14,0.16,0.17-0.33,0.15-0.31c-0.37,0.41-0.79-0.03,0.4-0.25c-0.8,0.15-2.88-0.2-0.96,0.41
			C206.57,437.47,210.51,423,201.34,420.07L201.34,420.07z"/>
	</g>
</g>
<g>
	<g>
		<path class="st0" d="M215.66,459.29c-13.53-1.12-19.35,16.45-10.86,25.49c10.28,10.96,25.16,4.39,34.63-3.74
			c3.6-3.09,2.53-9.64-1.52-11.78c-6.9-3.65-13.81-7.3-20.71-10.96c-4.54-2.4-9.33-0.17-11.02,4.48c-2.39,6.58-3.96,14.08,0.02,20.4
			c2.83,4.49,8.1,7.33,13.39,7.02c8.78-0.52,10.17-8.14,9.34-15.46c-0.66-5.84-2.27-14.48-7.7-17.83
			c-14.07-8.68-18.62,17.85-14.26,26.18c5.6,10.71,20.82,10.51,25.49-0.62c1.58-3.76-1.7-8.21-5.24-9.23
			c-4.31-1.23-7.67,1.52-9.23,5.24c-2.84,6.77,1.76-2.4,1.81-2.49c0.32-0.71-0.15,1.42,0.23-0.51c0.29-1.46,0.16-2.99,0.5-4.5
			c0.14-0.54,0.28-1.07,0.42-1.61c0.89-2.23,0.52-2.16-1.11,0.22c-1.26,0.34-2.52,0.68-3.79,1.02c0.33-0.01,0.65-0.02,0.98-0.03
			c-1.26-0.34-2.52-0.68-3.79-1.02c-1.63-1.21-0.99-1.4-0.7,0.32c0.24,1.42,0.91,2.82,1.19,4.25c0.51,2.55,0.51,5.08,0.36,7.67
			c1.24-2.16,2.48-4.32,3.71-6.48c1.58-0.95,0.69,0.92,0.96-0.81c0.42-2.72,0.9-5.07,1.87-7.74c-3.67,1.49-7.35,2.99-11.02,4.48
			c6.9,3.65,13.81,7.3,20.71,10.96c-0.51-3.93-1.01-7.85-1.52-11.78c-2.82,2.42-7.37,6.34-11.44,4.95c-0.45-0.15-2.37-1-1.88-0.75
			c-0.14-0.07,0.2-0.61,0.16-0.64c0.44-0.4,0.29-0.41-0.44-0.04c-1.06,0.26-0.91,0.36,0.44,0.33
			C225.28,475.08,225.23,460.08,215.66,459.29L215.66,459.29z"/>
	</g>
</g>
<g>
	<g>
		<path class="st0" d="M250.19,488.2c8.85,0.34,17.67,0.16,26.5-0.54c-2.16-3.76-4.32-7.52-6.48-11.29
			c-1.86,4.04-3.84,9.26-7.63,11.93c-1.19,0.84-2.08,1.2-3.52,0.9c-1.33-0.27-1.85-1.48-2.05-0.22c0.64-4.03-1.04-8.02-5.24-9.23
			c-3.56-1.02-8.59,1.24-9.23,5.24c-1.75,11.01,7.07,19.54,18.03,19.33c11.53-0.22,18.3-11.1,22.59-20.38
			c2.16-4.68-0.28-11.77-6.48-11.29c-8.83,0.7-17.65,0.88-26.5,0.54C240.53,472.83,240.55,487.83,250.19,488.2L250.19,488.2z"/>
	</g>
</g>
<g>
	<g>
		<path class="st0" d="M291.09,489.81c11.07-3.9,22.13-7.79,33.2-11.69c-3.08-1.75-6.15-3.49-9.23-5.24
			c1.08,4.45-3.88,8.09-7.54,9.46c-5.95,2.24-12.82,0.97-18.24-2c-8.48-4.63-16.05,8.32-7.57,12.95
			c10.43,5.69,23.38,7.08,34.24,1.66c9.74-4.85,16.23-15.16,13.59-26.07c-0.91-3.74-5.48-6.56-9.23-5.24
			c-11.07,3.9-22.13,7.79-33.2,11.69C278.06,478.53,281.96,493.03,291.09,489.81L291.09,489.81z"/>
	</g>
</g>
<g>
	<g>
		<path class="st0" d="M259.14,498.72c2.49,0,4.98,0,7.46,0c3.92,0,7.68-3.45,7.5-7.5c-0.18-4.06-3.3-7.5-7.5-7.5
			c-2.49,0-4.98,0-7.46,0c-3.92,0-7.68,3.45-7.5,7.5C251.82,495.28,254.94,498.72,259.14,498.72L259.14,498.72z"/>
	</g>
</g>
<g>
	<g>
		<path class="st0" d="M341.71,473.16c9.75-4.77,19.5-9.55,29.25-14.32c-2.52-4.32-5.05-8.63-7.57-12.95
			c-10.27,5.4-34.56,15.8-21.7,31.22c11.37,13.64,30.82-0.3,25.79-15.87c-1.35-4.18-5.06-5.9-9.23-5.24
			c-6.17,0.98-12.33,1.95-18.5,2.93c-4.87,0.77-6.72,7.23-4.48,11.02c4.88,8.25,14.91,7.2,22.23,2.97
			c10.01-5.79,19.44-13,29.05-19.45c-3.03-3.93-6.06-7.85-9.09-11.78c-9.2,8.32-18.33,18.54-16.61,31.92
			c1.56,12.21,13.15,20.35,25.15,19.52c9.4-0.65,25.93-8.79,25.67-20.04c-0.15-6.38-5.85-8.43-9.83-12.12
			c-4.44-4.12-6.9-9.35-7.99-15.24c-0.6-3.2-4.14-5.51-7.23-5.51c-3.55,0-5.99,2.4-7.23,5.51c-2.27,5.67-4.15,11.47-5.5,17.43
			c-1.31,5.77-2.27,12.32,3.61,15.96c4.57,2.83,9.82,1.92,14.43-0.28c2.27-1.08,4.29-2.66,6.56-3.71c0.51-0.24,1.56-0.44,1.93-0.71
			c0.11,0.03,0.21,0.07,0.32,0.1c1.24,0.76,1.03-0.28-0.64-3.1c-0.63,4.03,1.03,8.02,5.24,9.23c3.55,1.02,8.6-1.24,9.23-5.24
			c1.28-8.15-3.81-14.54-11.98-15.74c-3.94-0.58-7.48,0.39-11,2.16c-1.81,0.91-3.44,2.09-5.22,3.04c-4.11,2.18-1.53-0.5,0.46,2.81
			c0.34,1.26,0.68,2.52,1.02,3.79c-0.41-3.24,1.2-7.35,2.11-10.5c1.1-3.82,2.43-7.54,3.9-11.23c-4.82,0-9.64,0-14.46,0
			c1.1,5.91,3.52,11.54,7.1,16.37c1.76,2.37,3.66,4.58,5.89,6.51c1.19,1.03,2.53,2.38,3.93,3.05c2.88,1.36-0.08,1.38,0.24-1.4
			c0.34-1.26,0.68-2.52,1.02-3.79c-3.24,6.33-14.85,11.08-20.34,4.83c-6.8-7.74,5.81-18.44,10.83-22.98
			c6.25-5.65-1.97-16.56-9.09-11.78c-6.6,4.43-13.2,8.86-19.8,13.29c-3.03,2.04-6.03,4.42-9.24,6.16c-0.5,0.27-1.79,0.63-2.15,0.99
			c-1.37,1.38-1.26-1.46,0.45,1.42c-1.49,3.67-2.99,7.34-4.48,11.02c6.17-0.98,12.33-1.95,18.5-2.93c-3.08-1.75-6.15-3.49-9.23-5.24
			c0.19,0.59,0.32,2.95,0.09,2.51c0.68,1.3-0.48,1.13,1.34,0.08c5.42-3.13,10.96-6.05,16.51-8.97c8.6-4.52,1.03-17.17-7.57-12.95
			c-9.75,4.77-19.5,9.55-29.25,14.32C325.47,464.45,333.06,477.39,341.71,473.16L341.71,473.16z"/>
	</g>
</g>
<g>
	<g>
		<path class="st0" d="M416.41,477.82c-7.46,10.44-1.59,27.01,10.62,30.77c14.72,4.53,26.09-8.86,31.41-20.82
			c2.17-4.87-0.27-11.51-6.48-11.29c-9.47,0.34-18.6-0.61-27.77-2.97c-6.86-1.77-13.19,7.43-7.3,12.54c3.4,2.94,6.8,5.89,10.21,8.83
			c7.27,6.29,17.92-4.28,10.61-10.61c-3.4-2.94-6.8-5.89-10.21-8.83c-2.43,4.18-4.86,8.36-7.3,12.54
			c10.38,2.68,21.05,3.89,31.76,3.51c-2.16-3.76-4.32-7.52-6.48-11.29c-2.06,4.62-6.46,14.67-12.87,14.24
			c-4.48-0.3-5.45-5.98-3.26-9.05C434.99,477.52,421.98,470.03,416.41,477.82L416.41,477.82z"/>
	</g>
</g>
<g>
	<g>
		<path class="st0" d="M462.26,494.28c7.15,0.6,14.29,1.31,21.42,2.17c2.19,0.27,5.96,0.25,7.91,1.51c1.73,1.12,0.61,1.75-0.79,3.94
			c-2.12,3.3-5.23,8.67-9.77,6.54c-5.08-2.39-6.6-9.34-8.07-14.2c-4.18,2.43-8.36,4.86-12.54,7.3c6.72,7.24,19.48,16.08,29.47,9.96
			c10.13-6.2,3.81-23.17-8.02-20.03c-9.32,2.47-5.37,16.95,3.99,14.46c0.31-0.08,0.61-0.16,0.92-0.24c-1.33,0-2.66,0-3.99,0
			c0.75-2.62,0.6-4.99-0.46-7.13c-0.21-0.45-0.67-0.6-1.38-0.44c-0.99-0.61-2.16-1-3.18-1.59c-2.6-1.51-4.7-3.39-6.75-5.59
			c-5.1-5.49-14.66,0.21-12.54,7.3c3.12,10.38,7.74,21.32,18.98,24.91c11.15,3.56,19.38-3.77,25.33-12.29
			c6.39-9.15,6.39-21.25-4.87-26.37c-5.07-2.3-10.75-2.61-16.22-3.25c-6.48-0.76-12.97-1.39-19.47-1.94
			C452.64,478.47,452.69,493.48,462.26,494.28L462.26,494.28z"/>
	</g>
</g>
<g>
	<g>
		<path class="st0" d="M506.48,507.14c7.17,2.27,14.33,4.53,21.5,6.8c-1.49-1.15-2.99-2.3-4.48-3.45c0.72,1.2,0.39,4.4-1.63,4.44
			c-2.07,0.04-2.62-2.91-2.16-4.33c-4.18,1.1-8.36,2.21-12.54,3.31c4.23,3.41,8.76,5.9,14.18,6.8c3.99,0.66,8.07-1.05,9.23-5.24
			c0.99-3.59-1.22-8.56-5.24-9.23c-2.75-0.46-5.34-1.16-7.56-2.95c-4.43-3.57-10.66-2.42-12.54,3.31
			c-5.39,16.48,16.09,31.05,28.51,17.99c5.01-5.27,6.86-13.76,3.42-20.35c-2.44-4.67-7.15-5.4-11.82-6.87
			c-4.96-1.57-9.92-3.14-14.88-4.71C501.24,489.76,497.29,504.24,506.48,507.14L506.48,507.14z"/>
	</g>
</g>
<g>
	<g>
		<path class="st0" d="M538.24,516.65c7.61-0.01,15.22-0.03,22.83-0.04c3.09-0.01,7.14,0.69,10.15,0c0.42-0.04,0.82,0.02,1.21,0.17
			c-1.51-3.6-2.43-4.41-2.78-2.41c-0.71,0.96-0.89,2.8-1.41,3.94c-1.56,3.42-6.12,11.56-10.52,11.86
			c-6.11,0.42-5.38-10.81-5.12-14.16c-4.27,1.77-8.54,3.54-12.8,5.3c4.69,5.61,11.1,10.97,18.97,9.24
			c7.53-1.66,12.74-8.74,10.63-16.4c-1.41-5.13-6.65-6.34-11.02-4.48c-6.44,2.74-11.15,8.83-12.4,15.69
			c-0.58,3.19,0.35,6.83,3.45,8.47c11.95,6.33,26.88-4.28,21.75-17.92c-3.37-8.95-17.87-5.07-14.46,3.99
			c0.44,1.17,0.91,1.31,0.28,0.98c1.15,2.82,2.3,5.65,3.45,8.47c0.65-3.57,2.17-5.3,5.51-6.72c-3.67-1.49-7.34-2.99-11.02-4.48
			c-0.18-0.66,0.62-1.46,0.47-2.14c-0.08-0.36-0.54-0.42-0.84-0.87c-1.02-1.53-2.95-2.97-4.16-4.42c-4.54-5.43-12.35-0.56-12.8,5.3
			c-0.87,11.34,2.49,24.3,14.55,28.24c11.59,3.78,21.61-5.87,27.22-15c5.02-8.18,9.99-23.23-2.95-26.94
			c-5.68-1.63-12.39-0.71-18.21-0.7c-6.66,0.01-13.31,0.02-19.97,0.03C528.59,501.66,528.58,516.66,538.24,516.65L538.24,516.65z"/>
	</g>
</g>
<g>
	<g>
		<path class="st0" d="M585.11,523.04c8.26-1.15,16.52-2.29,24.78-3.44c-2.82-1.15-5.65-2.3-8.47-3.45
			c0.75,1.72-0.47,4.55-2.13,5.34c-2.56,1.22-5.01-0.94-6.06-3.05c-4.29-8.65-17.23-1.06-12.95,7.57
			c4.58,9.22,16.69,13.51,25.95,8.73c9.72-5.02,12.29-16.69,8.14-26.16c-1.44-3.29-5.43-3.87-8.47-3.45
			c-8.26,1.15-16.52,2.29-24.78,3.44c-4,0.56-6.23,5.69-5.24,9.23C577.09,522.12,581.06,523.6,585.11,523.04L585.11,523.04z"/>
	</g>
</g>
<g>
	<g>
		<path class="st0" d="M624.49,517.74c6.03-6.52,12.51-12.52,19.46-18.04c-4.18-1.1-8.36-2.21-12.54-3.31
			c0.59,2.88,0.95,5.71,1.03,8.65c0.04,1.49,0.01,2.98-0.07,4.47c-0.02,0.51-0.05,1.01-0.1,1.51c-0.28,1.69,0.58,1.16,2.59-1.6
			c-0.34-0.86-7.23-1.69-8.35-1.97c-3.39-0.87-6.75-1.83-10.09-2.85c-9.26-2.81-13.21,11.66-3.99,14.46
			c5.17,1.57,10.38,2.99,15.65,4.2c4.95,1.13,10.32,2.25,14.63-1.25c7.67-6.23,4.86-21.28,3.17-29.62c-1.24-6.1-8.51-6.5-12.54-3.31
			c-6.95,5.52-13.43,11.53-19.46,18.04C607.34,514.21,617.92,524.84,624.49,517.74L624.49,517.74z"/>
	</g>
</g>
<g>
	<g>
		<path class="st0" d="M597.95,530.06c1,0,1.99,0,2.99,0c1.92,0,3.94-0.84,5.3-2.2c1.3-1.3,2.28-3.44,2.2-5.3
			c-0.09-1.94-0.72-3.95-2.2-5.3c-1.47-1.35-3.27-2.2-5.3-2.2c-1,0-1.99,0-2.99,0c-1.92,0-3.94,0.84-5.3,2.2
			c-1.3,1.3-2.28,3.44-2.2,5.3c0.09,1.94,0.72,3.95,2.2,5.3C594.11,529.21,595.91,530.06,597.95,530.06L597.95,530.06z"/>
	</g>
</g>
<g>
	<g>
		<path class="st0" d="M186.23,833.03c-0.62,8.4-1.24,16.81-1.86,25.21c-0.25,3.33,2.52,6.31,5.51,7.23
			c10.66,3.29,26.88,1.45,30.4-11.26c3.41-12.3-7.28-22.02-18.55-23.72c-3.99-0.6-8.07,0.95-9.23,5.24
			c-2.03,7.5,0.06,15.47,5.99,20.64c7.25,6.31,17.9-4.25,10.61-10.61c-2.04-1.78-2.84-3.41-2.13-6.04
			c-3.08,1.75-6.15,3.49-9.23,5.24c1.87,0.28,9.65,1.66,8.1,5.31c-1.39,3.29-9.86,1.39-11.98,0.74c1.84,2.41,3.67,4.82,5.51,7.23
			c0.62-8.4,1.24-16.81,1.86-25.21C201.94,823.4,186.94,823.45,186.23,833.03L186.23,833.03z"/>
	</g>
</g>
<g>
	<g>
		<path class="st0" d="M226.3,859.95c4.34-0.03,8.68-0.05,13.03-0.08c0.71,0,5.29,0.03,5.29,0c-0.91-1.86-1.51-2.38-1.78-1.56
			c-0.05,0.12-0.08,0.25-0.09,0.38c-0.13,0.1-0.89,2.31-1.1,2.68c-0.84,1.51-2.04,2.84-3.19,4.12c-1.33,1.48-2.73,2.91-4.24,4.2
			c-0.43,0.37-0.87,0.73-1.3,1.1c-1.79,0.81-1.43,1.32,1.08,1.52c-0.05,0.06-1.44-4.19-1.46-4.29c-0.3-1.45-0.01-3.06-0.35-4.45
			c0.77-4.1-1.95-3.81-8.14,0.85c0.25,0.54,0.54,1.07,0.87,1.57c0.83,1.59,2.27,3.04,3.75,4.02c6.77,4.46,13.73-0.42,17.1-6.46
			c4.7-8.44-8.25-16.01-12.95-7.57c-1.1,1.41-0.9,1.62,0.61,0.61c1.26,0.34,2.52,0.68,3.79,1.02c0.92,0.53-0.56-1.44-0.79-1.79
			c-0.93-1.41-1.95-2.5-3.34-3.45c-2.17-1.49-4.82-2.31-7.46-1.92c-7,1.02-8.44,7.85-8.44,13.93c0.01,11.99,8,28.54,22.2,20.14
			c8.7-5.15,18.98-16.42,18.38-27.24c-0.89-15.87-20.62-12.4-31.48-12.33C216.65,845.01,216.63,860.01,226.3,859.95L226.3,859.95z"
			/>
	</g>
</g>
<g>
	<g>
		<path class="st0" d="M259.28,858.79c-0.88,8.99,4.42,17.96,12.44,21.95c8.42,4.19,18.83,1.93,25.29-4.77
			c5.96-6.18,8.87-17.3,2.13-24.08c-4.06-4.09-9.3-3.24-14.44-2.56c-5.94,0.79-11.89,1.59-17.83,2.38c-3.7,0.49-6.89,2.47-7.37,6.5
			c-0.43,3.62,1.69,7.27,5.37,8.23c5.8,1.52,11.6,3.03,17.4,4.55c9.35,2.44,13.33-12.02,3.99-14.46c-5.8-1.52-11.6-3.03-17.4-4.55
			c-0.66,4.91-1.33,9.82-1.99,14.73c5.94-0.79,11.89-1.59,17.83-2.38c1.31-0.17,3.55-0.1,4.69-0.63c0.42-0.04,0.84-0.09,1.27-0.13
			c-0.84-0.45-1.69-0.9-2.53-1.35c-0.32,0.14-1.37,2.75-1.73,3.14c-5.49,6.02-12.8,0.35-12.13-6.57c0.39-4.04-3.73-7.5-7.5-7.5
			C262.4,851.29,259.68,854.74,259.28,858.79L259.28,858.79z"/>
	</g>
</g>
<g>
	<g>
		<path class="st0" d="M311.38,868.89c3.1-0.01,6.2-0.03,9.3-0.04c1.41-0.01,2.82-0.01,4.23-0.02c0.88,0,4.5,0.79,2.54-0.32
			c-0.9-0.9-1.79-1.79-2.69-2.69c-0.56-0.8-0.02-0.33,0.03,0.78c0.05,0.99,0.1,1.99,0.14,2.98c0.11,2.24,0.34,4.54,0.22,6.78
			c-0.14,2.54-0.23,4.33-3.15,4.1c-6.27-0.48-6.29-9.23-5.43-13.73c-3.67,1.49-7.35,2.99-11.02,4.48c4.16,2.58,6.98,6.24,8.4,10.92
			c2.07,6.79,12.75,7.48,14.46,0c1.31-5.73,1.29-11.29-0.24-16.98c-2.5-9.31-16.97-5.36-14.46,3.99c0.82,3.07,0.95,5.89,0.24,9.01
			c4.82,0,9.64,0,14.46,0c-2.56-8.42-7.81-15.25-15.29-19.88c-3.87-2.4-10.11-0.25-11.02,4.48c-1.79,9.4-1.08,20.26,6.36,27.22
			c6.67,6.24,17.87,7.59,25.17,1.7c8.08-6.51,7.29-19.37,5.86-28.68c-1.96-12.69-18.93-9.14-28.1-9.1
			C301.73,853.94,301.71,868.94,311.38,868.89L311.38,868.89z"/>
	</g>
</g>
<g>
	<g>
		<path class="st0" d="M349.25,874.88c6.93-1.59,13.72-3.61,20.39-6.09c-3.16-2.41-6.33-4.82-9.49-7.23
			c0.45,4.34,0.9,8.69,1.34,13.03c0.19,1.86,0.39,3.72,0.58,5.58c0.13,1.09,0.23,2.18,0.31,3.27c0.97-0.78,1.1-1.13,0.4-1.04
			c-3.9-0.49-8.82-3.81-8.08-8.45c-3.08,1.75-6.15,3.49-9.23,5.24c4.07,1.67,8.05,3.98,11.51,6.7c3.21,2.52,7.47,3.07,10.61,0
			c2.63-2.57,3.18-8.11,0-10.61c-5.67-4.45-11.46-7.83-18.13-10.56c-3.47-1.42-8.64,1.58-9.23,5.24
			c-2.13,13.4,7.46,26.84,21.57,27.41c7.37,0.3,14.55-3.67,15.43-11.51c0.86-7.75-1.28-16.55-2.08-24.3
			c-0.45-4.4-4.49-9.09-9.49-7.23c-6.67,2.48-13.45,4.5-20.39,6.09C335.86,862.56,339.84,877.03,349.25,874.88L349.25,874.88z"/>
	</g>
</g>
<g>
	<g>
		<path class="st0" d="M410.24,874.35c-1.81,8.61-2.46,17.26-1.67,26.03c0.38,4.21,3.14,7.26,7.5,7.5
			c7.38,0.41,14.04-3.53,18.31-9.39c4.68-6.43,5.65-14.34,6.54-22.03c0.47-4.09-3.82-7.43-7.5-7.5c-3.86-0.08-7.73-0.16-11.59-0.23
			c-9.66-0.19-9.66,14.81,0,15c3.86,0.08,7.73,0.16,11.59,0.23c-2.5-2.5-5-5-7.5-7.5c-0.67,5.83-1.81,16.86-9.85,16.42
			c2.5,2.5,5,5,7.5,7.5c-0.67-7.43-0.4-14.73,1.14-22.04C426.68,868.92,412.23,864.9,410.24,874.35L410.24,874.35z"/>
	</g>
</g>
<g>
	<g>
		<path class="st0" d="M421.83,892.75c0.5,0,1,0,1.49,0c1.92,0,3.94-0.84,5.3-2.2c0.73-0.68,1.25-1.48,1.55-2.41
			c0.47-0.89,0.68-1.86,0.65-2.89c-0.09-1.94-0.72-3.95-2.2-5.3c-1.47-1.35-3.27-2.2-5.3-2.2c-0.5,0-1,0-1.49,0
			c-1.92,0-3.94,0.84-5.3,2.2c-0.73,0.68-1.25,1.48-1.55,2.41c-0.47,0.89-0.68,1.86-0.65,2.89c0.09,1.94,0.72,3.95,2.2,5.3
			C417.99,891.9,419.79,892.75,421.83,892.75L421.83,892.75z"/>
	</g>
</g>
<g>
	<g>
		<path class="st0" d="M447.26,887.22c10.34-1.29,20.71-1.9,31.13-1.83c-2.5-2.5-5-5-7.5-7.5c-0.4,5.22-0.62,15.07-7.05,16.91
			c-4.85,1.39-5.38-6.77-5.71-9.87c-4.66,1.26-9.32,2.52-13.98,3.79c7.67,11.23,24.94,11.38,32.16-0.52
			c3.78-6.22-3.92-14.49-10.26-10.26c-2.6,1.73-5.19,3.46-7.79,5.2c-7.99,5.33-0.49,18.33,7.57,12.95c2.6-1.73,5.19-3.46,7.79-5.2
			c-3.42-3.42-6.84-6.84-10.26-10.26c-1.1,1.81-4.87,2.54-6.26,0.52c-3.76-5.51-14.82-4.27-13.98,3.79
			c1.27,12.13,6.46,26.57,21.45,24.91c16.2-1.79,20.27-18.38,21.31-31.96c0.31-4.06-3.69-7.48-7.5-7.5
			c-10.42-0.07-20.79,0.54-31.13,1.83c-4.02,0.5-7.5,3.09-7.5,7.5C439.76,883.39,443.21,887.73,447.26,887.22L447.26,887.22z"/>
	</g>
</g>
<g>
	<g>
		<path class="st0" d="M486.82,876.04c-1.69,10.08-2.56,21.25,5.73,28.82c6.95,6.33,17.54,6.2,23.87-0.93
			c4.98-5.6,7.49-14.74,6.86-22.15c-1.12-13.28-16.91-9.99-26.08-9.6c-3.1,0.13-6.59,2.22-7.23,5.51c-1.54,7.92-1,18.32,8.54,20.64
			c7.77,1.88,16.74-5.15,13.86-13.44c-3.15-9.06-17.64-5.17-14.46,3.99c0-0.11-0.01-0.23-0.01-0.34c0.34-1.26,0.68-2.52,1.02-3.79
			c0.58-1.31,4.29-0.48,2.22-1.31c1.1,0.64,2.21,1.29,3.31,1.93c-0.83-0.65-0.21-2.66-0.01-3.7c-2.41,1.84-4.82,3.67-7.23,5.51
			c2.62-0.11,5.24-0.22,7.85-0.33c1.22-0.05,3.21,0.28,4.36-0.19c0.58-0.02,1.16-0.05,1.75-0.07c-0.93-1.22-1.85-2.44-2.78-3.66
			c-0.01,0-1.62,8.61-2.17,9.58c-1.07,1.89-1.99,2.91-3.88,0.97c-3.16-3.24-1.7-9.55-1.05-13.45c0.67-3.99-1.05-8.08-5.24-9.23
			C492.45,869.82,487.49,872.03,486.82,876.04L486.82,876.04z"/>
	</g>
</g>
<g>
	<g>
		<path class="st0" d="M527.46,888.33c6.15,3.15,10.15,0.58,16.07-1.34c-3.09,1-0.04-1.44-0.59,0.35c-0.25,0.8-0.12,1.91-0.41,2.81
			c-0.42,1.3-1.14,2.5-1.81,3.69c-0.44,0.8-0.91,1.59-1.4,2.36c-0.92,0.93-0.38,0.82,1.64-0.35c1.1,0.64,2.21,1.29,3.31,1.93
			c-3.49-2.88-4.43-9.08-5.02-13.31c-3.08,3.08-6.15,6.15-9.23,9.23c2.05,0.66,4.1,1.32,6.15,1.98c9.21,2.96,13.16-11.51,3.99-14.46
			c-2.05-0.66-4.1-1.32-6.15-1.98c-6.05-1.95-9.95,3.99-9.23,9.23c1.04,7.51,4.23,18.96,12.19,21.85
			c8.81,3.21,14.73-4.57,18.12-11.6c3.61-7.49,4.37-16.53-2.07-22.8c-2.89-2.81-6.71-4.11-10.68-3.8c-2.25,0.18-4.1,0.88-6.15,1.76
			c-0.78,0.33-1.55,0.67-2.32,1.03c-0.99,0.19-0.61,0.35,1.15,0.48C526.45,870.99,518.85,883.93,527.46,888.33L527.46,888.33z"/>
	</g>
</g>
<g>
	<g>
		<path class="st0" d="M562.05,885.99c11.36-0.91,22.71-1.83,34.07-2.74c-2.41-1.84-4.82-3.67-7.23-5.51
			c1.15,6.48-0.5,15.16-5.81,19.58c-6.71,5.6-10.11-7.8-11.18-11.95c-3.67,2.82-7.34,5.65-11.02,8.47
			c6.24,4.62,14.55,8.69,22.16,4.56c6.87-3.73,10.16-12.09,6.09-19.07c-2.59-4.44-8.15-4.6-11.78-1.52
			c-5.7,4.85-7.68,12.49-5.74,19.61c1.28,4.71,6.83,6.88,11.02,4.48c6.46-3.69,10.54-10.73,9.76-18.25
			c-0.6-5.85-5.85-9.08-11.29-6.48c-6.86,3.29-9.3,10.36-8.22,17.49c0.61,4,5.65,6.24,9.23,5.24c4.28-1.2,5.85-5.19,5.24-9.23
			c0.04,0.26,0.54-0.18,1.32-0.55c-3.76-2.16-7.52-4.32-11.29-6.48c0.26,2.48-0.06,4-2.33,5.3c3.67,1.49,7.35,2.99,11.02,4.48
			c-0.62-2.29,0.11-3.51,1.88-5.02c-3.93-0.51-7.85-1.01-11.78-1.52c0.05-0.71,0.11-1.43,0.16-2.14c-0.39,0.39-0.48,0.52-0.28,0.41
			c0.07,0.06-3.07-0.81-1.55-0.41c-2.17-0.57-4.29-2.57-6.05-3.87c-5.53-4.09-12.52,2.64-11.02,8.47
			c1.83,7.08,4.22,14.27,9.91,19.23c5.85,5.11,13.87,6.62,20.93,3.14c13.52-6.66,17.5-24.38,15.08-37.98c-0.53-3-4.2-5.75-7.23-5.51
			c-11.36,0.91-22.71,1.83-34.07,2.74C552.49,871.76,552.41,886.77,562.05,885.99L562.05,885.99z"/>
	</g>
</g>
<g>
	<g>
		<path class="st1" d="M495.35,121.35c-6.53,2.46-10.66,7.84-12.65,14.43c-2.28,7.57-3.31,17.48-0.77,25.09
			c5.27,15.78,22.51,23.17,37.94,24.22c7.85,0.54,16.13-0.21,22.41-5.41c5.75-4.75,8.94-11.79,11.49-18.62
			c5.25-14.1,8.92-34.28-7.65-42.48c-7.7-3.81-16.86-3.69-25.24-3.72c-9.62-0.03-19.24,0.83-27.65,5.88
			c-2.76,1.66-0.24,5.98,2.52,4.32c7.92-4.76,16.95-5.25,25.97-5.19c7.44,0.05,15.78-0.22,22.53,3.35
			c16.59,8.79,7.54,34.75-0.19,46.83c-10.12,15.82-36.19,11.72-48.95,1.08c-6.54-5.45-9.78-12.61-9.43-21.08
			c0.35-8.61,1.67-20.36,11.01-23.87C499.66,125.05,498.37,120.22,495.35,121.35L495.35,121.35z"/>
	</g>
</g>
<g>
	<g>
		<path class="st1" d="M554.19,127.88c19.06,3.39,38.6,6.86,56.2,15.28c8.79,4.2,16.75,9.67,23.78,16.43
			c7.24,6.95,13.66,14.71,20.94,21.62c13.67,12.97,29.61,23.56,46.9,31.06c16.89,7.34,34.88,11.33,52.53,16.37
			c17.7,5.05,37,11.39,50.57,24.46c9.5,9.15,4.25,20.79-0.51,30.98c-4.19,8.96-8.85,17.7-13.97,26.17
			c-10.27,17-22.36,32.88-36.03,47.29c-6.76,7.13-13.92,15.19-22.48,20.17c-5,2.91-10.62,4.17-16.06,1.6
			c-4.69-2.21-8.55-6.15-12.42-9.51c-17.12-14.85-34.25-30.58-44.9-50.91c-5.45-10.41-9.04-21.84-9.49-33.63
			c-0.21-5.63-1-15.19-8.77-14.68c-3.19,0.21-3.22,5.21,0,5c4.39-0.29,3.69,8.66,3.85,11.38c0.31,5.29,1.2,10.57,2.6,15.68
			c2.6,9.54,6.91,18.61,12.23,26.92c11.49,17.95,27.6,32.27,43.61,46.08c6.26,5.4,12.92,11.02,21.75,10
			c9.68-1.13,17.34-8.52,24.06-14.95c14.66-14.02,27.77-29.66,39.08-46.48c5.84-8.68,11.19-17.68,16.02-26.96
			c4.54-8.73,10.06-18.35,11.62-28.18c3.02-19.03-18.92-29.99-33.55-36.31c-17.7-7.66-36.67-11.54-55.09-16.99
			c-19.9-5.89-38.58-14.53-55.16-27.13c-18.4-13.99-31.3-34.27-51.43-46c-19.64-11.45-42.44-15.62-64.53-19.55
			C552.38,122.5,551.03,127.32,554.19,127.88L554.19,127.88z"/>
	</g>
</g>
<g>
	<g>
		<path class="st1" d="M645.51,285.32c-15.98,1.9-18.33,19.1-17.1,32.16c1.75,18.56,4.53,37.01,6.69,55.52
			c4.35,37.37,6.8,75.57-3.04,112.31c-0.83,3.11,3.99,4.44,4.82,1.33c8.78-32.8,8.04-66.88,4.66-100.4
			c-1.72-17.04-4.07-34.01-6.13-51.02c-1.45-11.94-8.88-42.65,10.09-44.91C648.66,289.95,648.7,284.94,645.51,285.32L645.51,285.32z
			"/>
	</g>
</g>
<g>
	<g>
		<path class="st1" d="M497.83,179.5c6.89,7.94,4.34,19.55-1.16,27.5c-5.79,8.37-14.45,14.37-21.87,21.18
			c-13.45,12.33-25.21,26.46-35.24,41.7c-20.31,30.87-33.37,66.19-41.02,102.21c-4.36,20.51-6.98,41.36-8.2,62.29
			c-0.19,3.21,4.81,3.2,5,0c4.53-77.73,29.68-156.92,90.25-209.04c7.96-6.85,16.26-14.19,19.77-24.41c2.93-8.56,2.03-18.02-4-24.96
			C499.26,173.53,495.73,177.08,497.83,179.5L497.83,179.5z"/>
	</g>
</g>
<g>
	<g>
		<path class="st1" d="M489.59,115.82c-28.02-32.02-74.21-13.01-109.16-9.12c-24,2.68-46.77-4.14-70.16-8.25
			c-23.16-4.07-46.49-3.28-69.76-0.62c-5.12,0.58-10.23,1.24-15.34,1.93c-5.81,0.78-12.41,0.91-17.93,2.99
			c-8.28,3.1-10.39,13-11.4,20.82c-2.89,22.27,5.95,44.09,8.9,65.89c3.11,23,2.42,46.28,3.8,69.41c0.65,10.85,1.69,21.76,3.86,32.43
			c0.65,3.21,1.33,6.28,4.67,7.59c3.89,1.52,9.22,0.49,13.18-0.3c11.32-2.27,21.39-8.67,30.97-14.81
			c10.45-6.7,20.7-13.72,30.72-21.04c19.98-14.59,39.06-30.38,57.18-47.24c2.36-2.2-1.18-5.73-3.54-3.54
			c-29.46,27.41-61.75,53.3-96.63,73.52c-4.31,2.5-8.76,4.82-13.48,6.46c-4.18,1.46-10.77,3.77-15.19,2.48
			c-4.33-1.26-4.1-10-4.64-13.74c-0.82-5.68-1.37-11.39-1.79-17.12c-1.54-21.04-1.06-42.19-2.91-63.21
			c-0.84-9.57-2.26-19.05-4.27-28.45c-2.28-10.65-5.07-21.27-6.05-32.15c-0.43-4.78-0.52-9.63,0-14.41
			c0.57-5.28,1.65-13.17,6.12-16.62c3.82-2.95,10.26-2.84,14.88-3.48c5.97-0.82,11.94-1.62,17.92-2.31
			c21.79-2.53,43.92-3.75,65.69-0.3c20.06,3.18,39.76,9.33,60.2,9.77c23.41,0.5,45.64-7.93,68.8-9.68
			c18.59-1.41,38.99,1.92,51.84,16.61C488.18,121.78,491.7,118.23,489.59,115.82L489.59,115.82z"/>
	</g>
</g>
<g>
	<g>
		<path class="st1" d="M338.55,218.96c5.3,31.95-12.51,61.99-33.89,84.17c-21.59,22.4-47.76,39.89-68.63,63.03
			c-9.53,10.56-18.05,22.25-23.89,35.28c-5.19,11.59-10.66,26.68-4.4,38.86c2.99,5.83,8.04,10.31,13.06,14.37
			c5.55,4.49,11.18,8.98,17.2,12.82c13.06,8.34,26.93,11.21,42.22,8.42c18.79-3.44,37.27-11.19,55.18-17.68
			c18.92-6.86,37.67-14.18,56.25-21.91c2.93-1.22,1.64-6.06-1.33-4.82c-30.83,12.83-62.14,24.64-93.92,34.91
			c-16.47,5.32-33.21,8.75-49.36,0.53c-6.81-3.47-12.96-8.09-18.95-12.81c-5.38-4.24-11.23-8.54-14.92-14.42
			c-8-12.74,0.45-31.12,6.85-42.94c6.89-12.72,16.16-23.95,26.3-34.2c21.01-21.24,45.96-38.21,66.07-60.38
			c20.74-22.86,36.22-52.93,30.98-84.54C342.85,214.47,338.03,215.81,338.55,218.96L338.55,218.96z"/>
	</g>
</g>
<g>
	<g>
		<path class="st1" d="M390.02,439.6c1.8,14.95,13.88,24.42,27.23,29.38c8.88,3.31,18.3,5.24,27.47,7.54
			c9.64,2.42,19.28,4.85,28.92,7.27c19.92,5.01,39.84,10.02,59.76,15.03c17.26,4.34,34.8,9.66,52.73,10.05
			c19.77,0.42,36.12-7.33,50.16-20.89c2.32-2.24-1.22-5.77-3.54-3.54c-12.12,11.7-26,19.08-43.13,19.43
			c-16.7,0.34-33.07-4.38-49.11-8.42c-34.7-8.73-69.4-17.45-104.1-26.19c-16.14-4.06-38.99-9.77-41.39-29.68
			C394.64,436.44,389.63,436.4,390.02,439.6L390.02,439.6z"/>
	</g>
</g>
<g>
	<g>
		<path class="st1" d="M204.66,417.44c-12.75-3.9-23.64,8.72-22.23,20.89c1.6,13.74,16.43,21.88,28.56,14.63
			c-1.01-1.31-2.02-2.62-3.03-3.93c-11.34,8.78-11.86,28.09-0.37,37.03c11.5,8.94,30.08,3.67,35.8-9.48
			c-1.52-0.64-3.05-1.28-4.57-1.93c-5.33,13.71,5.94,29.9,20.33,31.04c16.15,1.28,28.72-15.1,27.25-30.31
			c-0.23-2.41-3.26-3.48-4.66-1.26c-3.81,6.05-1.93,13.68,3.01,18.55c6.5,6.4,16.66,6.28,25.08,5.21
			c7.96-1.01,15.19-3.77,18.93-11.33c3.59-7.27,3.27-15.94,2.63-23.79c-1.55,0.42-3.11,0.84-4.66,1.26
			c9.32,12.08,21.58,21.42,37.17,14.24c15.4-7.1,21.06-23.9,25.6-38.95c0.83-2.75-3.12-4.33-4.57-1.93
			c-6.67,11.06-14.3,21.98-20.09,33.53c-3.85,7.68-3.12,15.89,5.84,18.96c15.96,5.46,44.56,4.25,45.62-18.06
			c0.13-2.78-4.35-3.45-4.91-0.66c-2.56,12.67-4.47,31.56,9.9,38.08c17.15,7.77,30.91-9.26,39.13-21.74c1.77-2.7-2.55-5.2-4.32-2.52
			c-6.71,10.2-19.16,27.21-33.6,19.3c-10.78-5.91-8.28-21.9-6.29-31.78c-1.64-0.22-3.27-0.44-4.91-0.66
			c-0.88,18.43-26.93,17.79-39.29,13.24c-10.48-3.85,0.47-17.32,3.85-22.93c4.46-7.4,8.92-14.81,13.39-22.21
			c-1.52-0.64-3.05-1.28-4.57-1.93c-3.74,12.41-7.89,26.32-19.36,33.81c-5.14,3.36-11.67,5.22-17.72,3.46
			c-7.11-2.07-12.2-8.1-16.55-13.75c-1.33-1.72-4.89-1.52-4.66,1.26c0.94,11.38,1.07,26.13-12.59,29.41
			c-6.14,1.48-13.71,2.14-19.81,0.22c-6.37-2.01-12.05-9.2-7.93-15.74c-1.55-0.42-3.11-0.84-4.66-1.26
			c1.16,12.03-7.88,25.73-20.99,25.38c-11.95-0.32-21.08-13.68-16.77-24.79c1.02-2.62-3.44-4.52-4.57-1.93
			c-4.53,10.39-19.07,15.33-28.43,8.04c-9.36-7.3-8.12-22.6,0.85-29.54c2.27-1.76-0.64-5.35-3.03-3.93
			c-9.12,5.45-19.92-0.71-21.07-10.98c-0.98-8.75,6.56-18.26,15.93-15.39C206.41,423.2,207.73,418.38,204.66,417.44L204.66,417.44z"
			/>
	</g>
</g>
<g>
	<g>
		<path class="st1" d="M460.32,479.51c-1.01,10.58-2,22.07,2.86,31.93c3.56,7.24,10.66,13.26,18.83,14.18
			c18.25,2.07,22.77-20.19,31.24-31.41c1.72-2.28-2-5.05-3.93-3.03c-9.58,10.05-6.4,28.94,6.68,34.54
			c14.83,6.35,30.75-8.39,28.73-23.39c-0.32-2.41-4.45-2.37-4.82,0c-2.21,14.31-3.29,37.06,15.21,41.27
			c7.22,1.64,14.51-1.89,19.28-7.21c6.33-7.07,8.02-16.76,9.46-25.81c0.5-3.11-4.14-4.53-4.82-1.33c-2.85,13.37,9,28,23.16,25.66
			c13.34-2.2,20.62-17.83,15.31-29.75c-1.44,0.84-2.88,1.68-4.32,2.52c5.16,10.31,19.19,26.18,30.21,12.52
			c9.8-12.15,4.92-33.04-1.52-45.47c-0.93-1.8-4.22-1.54-4.57,0.6c-0.56,3.42-1.12,6.85-1.69,10.27c-0.52,3.15,4.3,4.5,4.82,1.33
			c0.56-3.42,1.12-6.85,1.69-10.27c-1.52,0.2-3.05,0.4-4.57,0.6c5.36,10.34,8.53,24.47,4.21,35.76c-2.29,5.99-7.87,9.35-13.76,5.69
			c-4.86-3.03-8-8.56-10.49-13.55c-1.46-2.92-5.6-0.36-4.32,2.52c3.84,8.63-1.82,20.11-11.11,22.18
			c-10.7,2.39-20.39-9.15-18.23-19.28c-1.61-0.44-3.21-0.89-4.82-1.33c-1.07,6.72-2.11,13.76-5.51,19.77
			c-3.32,5.87-9.92,11.24-17.08,9.76c-15.45-3.2-13.47-23.79-11.72-35.12c-1.61,0-3.21,0-4.82,0c1.57,11.68-12.67,23.07-23.42,16.73
			c-8.62-5.09-10.49-18.49-3.64-25.68c-1.31-1.01-2.62-2.02-3.93-3.03c-6.75,8.95-10.56,27.79-23.85,28.99
			c-8.53,0.77-15.85-6.6-18.53-14.09c-3.09-8.64-2.08-18.14-1.23-27.08C465.62,476.31,460.62,476.33,460.32,479.51L460.32,479.51z"
			/>
	</g>
</g>
<g>
	<g>
		<path class="st0" d="M215.17,466.62c2.84-1.74,4.27-4.23,4.04-7.58c-0.14-2.11-2.66-3.37-4.27-1.77
			c-1.66,1.65-3.24,3.35-4.75,5.14c1.39,0.81,2.79,1.62,4.18,2.43c0.59-2.17,1.18-4.34,1.76-6.51c0.76-2.8-3.04-4.26-4.57-1.93
			c-1.23,1.87-2.46,3.74-3.69,5.62c1.52,0.64,3.05,1.28,4.57,1.93c0.24-1.81,0.49-3.61,0.73-5.42c0.38-2.85-2.79-4.24-4.57-1.93
			c-1.37,1.77-2.73,3.54-4.1,5.32c1.44,0.84,2.88,1.68,4.32,2.52c2.32-4.01,7.69-3.88,9.06-8.88c0.88-3.19-0.3-5.9-3.4-7.07
			c-1.34-0.5-2.64,0.58-3.08,1.75c-0.42,1.12-0.84,2.25-1.27,3.37c0.58-0.58,1.16-1.16,1.75-1.75c-4.77,1.41-7.66,5.27-8.48,10.12
			c-0.61,3.6-0.87,10.73,2.1,13.51c2.91,2.73,6.93,0.67,9.17-1.84c3.95-4.42,5.76-11.46,6.55-17.14c-1.22,0.5-2.45,1-3.67,1.49
			c9.08,6.98,18.61,13.28,28.59,18.91c2.81,1.58,5.33-2.73,2.52-4.32c-9.98-5.63-19.51-11.93-28.59-18.91
			c-1.19-0.91-3.46,0-3.67,1.49c-0.55,3.92-1.5,7.73-3.22,11.31c-0.61,1.26-1.3,3.33-2.57,4.02c-0.96,1.57-1.69,1.13-2.2-1.32
			c-0.1-0.82-0.17-1.64-0.21-2.47c-0.08-1.64-0.11-3.42,0.34-5.02c0.89-3.21,2.17-3.24,4.67-5.03c1.92-1.37,2.13-2.76,3.01-5.12
			c-1.03,0.58-2.05,1.16-3.08,1.75c1.65,0.62-4.28,4.35-4.77,4.67c-1.67,1.07-2.88,2.2-3.88,3.93c-1.66,2.88,2.41,4.99,4.32,2.52
			c1.37-1.77,2.73-3.54,4.1-5.32c-1.52-0.64-3.05-1.28-4.57-1.93c-0.24,1.81-0.49,3.61-0.73,5.42c-0.36,2.7,2.91,4.45,4.57,1.93
			c1.23-1.87,2.46-3.74,3.69-5.62c-1.52-0.64-3.05-1.28-4.57-1.93c-0.59,2.17-1.18,4.34-1.76,6.51c-0.62,2.28,2.51,4.41,4.18,2.43
			c1.52-1.79,3.09-3.49,4.75-5.14c-1.42-0.59-2.85-1.18-4.27-1.77c-0.52,1.09-1.04,2.17-1.56,3.26
			C209.9,463.98,212.41,468.31,215.17,466.62L215.17,466.62z"/>
	</g>
</g>
<g>
	<g>
		<path class="st0" d="M335.76,463.03c3.95-0.8,7.89-1.6,11.84-2.39c3.15-0.64,1.82-5.46-1.33-4.82c-3.95,0.8-7.89,1.6-11.84,2.39
			C331.28,458.84,332.61,463.66,335.76,463.03L335.76,463.03z"/>
	</g>
</g>
<g>
	<g>
		<path class="st0" d="M424.91,478.64c-0.69-2.13-1.38-4.26-2.08-6.39c-1.03,1.03-2.05,2.05-3.08,3.08
			c5.98,1.52,11.81,3.41,17.55,5.67c0.22-1.64,0.44-3.27,0.66-4.91c-1.09-0.08-2.18-0.17-3.27-0.25c0,1.67,0,3.33,0,5
			c2.94,0,5.89,0,8.83,0c0-1.67,0-3.33,0-5c-3.71,0-7.41,0-11.12,0c-3.22,0-3.22,5,0,5c3.71,0,7.41,0,11.12,0c3.22,0,3.22-5,0-5
			c-2.94,0-5.89,0-8.83,0c-3.25,0-3.17,4.76,0,5c1.09,0.08,2.18,0.17,3.27,0.25c3.03,0.23,3.08-3.96,0.66-4.91
			c-5.74-2.26-11.57-4.15-17.55-5.67c-1.77-0.45-3.68,1.21-3.08,3.08c0.69,2.13,1.38,4.26,2.08,6.39
			C421.08,483.02,425.91,481.71,424.91,478.64L424.91,478.64z"/>
	</g>
</g>
<g>
	<g>
		<path class="st0" d="M426.77,477.01c-2.35-2.4-4.6-4.89-6.75-7.46c-1.21-1.45-3.76-0.62-4.18,1.1c-0.41,1.71-0.83,3.43-1.24,5.14
			c-0.76,3.13,4.06,4.46,4.82,1.33c0.41-1.71,0.83-3.43,1.24-5.14c-1.39,0.37-2.79,0.74-4.18,1.1c2.15,2.58,4.4,5.07,6.75,7.46
			C425.49,482.85,429.02,479.32,426.77,477.01L426.77,477.01z"/>
	</g>
</g>
<g>
	<g>
		<path class="st0" d="M441.37,477.98c-8.46-3.15-16.93-6.26-25.42-9.33c-3.03-1.09-4.34,3.74-1.33,4.82
			c8.49,3.07,16.96,6.18,25.42,9.33C443.05,483.93,444.36,479.1,441.37,477.98L441.37,477.98z"/>
	</g>
</g>
<g>
	<g>
		<path class="st0" d="M522.55,503.76c4.3-1.72,8.87-1.83,13.13,0.11c2.91,1.32,5.45-2.98,2.52-4.32
			c-5.45-2.48-11.38-2.85-16.99-0.61C518.26,500.11,519.55,504.95,522.55,503.76L522.55,503.76z"/>
	</g>
</g>
<g>
	<g>
		<path class="st0" d="M618.82,506.53c1.98-0.36,3.96-0.72,5.94-1.08c1.33-0.24,2.08-1.86,1.75-3.08c-0.38-1.4-1.74-1.99-3.08-1.75
			c-1.98,0.36-3.96,0.72-5.94,1.08c-1.33,0.24-2.08,1.86-1.75,3.08C616.13,506.19,617.49,506.78,618.82,506.53L618.82,506.53z"/>
	</g>
</g>
<g>
	<g>
		<path class="st1" d="M506.22,239.2c-0.1-5.36-3.87-10.21-9.29-11.09c-5.19-0.84-10.41,2.83-11.89,7.79
			c-1.52,5.1,1.28,10.45,6.02,12.65c5.81,2.69,11.38-0.5,15.18-4.98c2.07-2.44-1.45-5.99-3.54-3.54c-2.04,2.41-4.87,5.23-8.36,4.42
			c-2.67-0.62-4.96-3.2-4.74-6.01c0.57-7.51,11.49-6.59,11.62,0.75C501.27,242.42,506.27,242.43,506.22,239.2L506.22,239.2z"/>
	</g>
</g>
<g>
	<g>
		<path class="st1" d="M446.97,308.27c-5.76-0.85-12.5-1.18-16.1,4.34c-3.2,4.9-0.4,10.27,4.59,12.39c4.5,1.91,10.52,1.47,13.81-2.5
			c3.14-3.79,2.39-9.37-1.52-12.2c-2.61-1.89-5.11,2.45-2.52,4.32c1.97,1.42,0.9,4.42-0.76,5.55c-2.03,1.38-5.13,1.17-7.26,0.17
			c-3.03-1.4-3.6-4.45-0.71-6.47c2.57-1.79,6.27-1.2,9.16-0.77C448.79,313.55,450.15,308.73,446.97,308.27L446.97,308.27z"/>
	</g>
</g>
<g>
	<g>
		<path class="st1" d="M411.63,397.7c-5.4,0.31-9.36,4.99-9.51,10.32c-0.15,5.7,4.71,9.72,10.22,9.41
			c5.44-0.3,10.29-4.47,10.15-10.15c-0.15-6.12-5.86-11.31-11.93-10.94c-3.2,0.2-3.22,5.2,0,5c3.25-0.2,6.47,2.19,6.91,5.55
			c0.4,3.13-2.28,5.26-5.16,5.54c-6.72,0.64-6.61-9.39-0.69-9.73C414.82,402.51,414.85,397.51,411.63,397.7L411.63,397.7z"/>
	</g>
</g>
<g>
	<g>
		<path class="st1" d="M266.06,551.33c71.19,34.05,150.73,49.77,229.54,45.45c22-1.21,43.89-4.01,65.5-8.29
			c3.15-0.62,1.82-5.45-1.33-4.82c-75.95,15.05-155.4,10.65-229.32-12.36c-21.19-6.6-41.85-14.72-61.87-24.3
			C265.7,545.63,263.16,549.94,266.06,551.33L266.06,551.33z"/>
	</g>
</g>
<g>
	<g>
		<path class="st1" d="M560.14,588.92c5.51,7,5.04,18.89,5.83,27.35c0.89,9.47,1.47,18.96,1.85,28.47
			c0.77,19.06,0.73,38.14,0.79,57.21c0.11,37.48,0.57,75.26,8.05,112.13c4,19.72,10.01,39.06,19.55,56.84
			c1.52,2.84,5.84,0.31,4.32-2.52c-18.17-33.86-23.66-73.41-25.73-111.29c-2.1-38.38-0.4-76.84-2.11-115.22
			c-0.48-10.76-1.22-21.52-2.4-32.23c-0.92-8.37-1.22-17.41-6.62-24.27C561.69,582.86,558.17,586.42,560.14,588.92L560.14,588.92z"
			/>
	</g>
</g>
<g>
	<g>
		<path class="st1" d="M263.87,547.84c-16.87,33.14-20.24,70.49-29.37,106.04c-9.25,36.04-23.56,70.5-34,106.18
			c-5.84,19.94-10.33,40.25-12.16,60.97c-0.28,3.2,4.72,3.19,5,0c3.26-36.81,15.41-71.89,27.37-106.61
			c5.86-17.02,11.71-34.06,16.53-51.41c4.88-17.57,8.19-35.48,11.96-53.31c4.31-20.38,9.49-40.68,18.99-59.34
			C269.65,547.5,265.34,544.96,263.87,547.84L263.87,547.84z"/>
	</g>
</g>
<g>
	<g>
		<path class="st1" d="M191.62,824.61c15.97,15.01,35.86,22.25,57.33,25.14c24.32,3.28,49.14,3.84,73.62,5.43
			c12.59,0.82,25.29,2.23,37.9,2.45c10.8,0.18,10.39-13.23,12.03-21.14c5.21-25.26,10.24-50.57,15.08-75.91
			c5.46-28.59,10.67-57.22,15.65-85.9c0.55-3.15-4.27-4.5-4.82-1.33c-8.15,46.92-16.93,93.73-26.36,140.41
			c-1.11,5.51-2.24,11.02-3.37,16.53c-0.6,2.92-1.2,5.83-1.8,8.75c-0.62,2.97-0.8,6.96-2.02,9.71c-2.6,5.86-9.54,3.55-14.86,3.21
			c-6.2-0.4-12.4-0.81-18.61-1.21c-23.04-1.5-46.13-2.65-69.14-4.58c-24.71-2.07-48.53-7.65-67.09-25.1
			C192.81,818.87,189.27,822.4,191.62,824.61L191.62,824.61z"/>
	</g>
</g>
<g>
	<g>
		<path class="st1" d="M397.82,678.04c7.49,13.28,9.97,28.39,12.03,43.31c2.29,16.57,3.76,33.26,4.47,49.97
			c1.4,33.01-0.26,66.11-4.92,98.82c-0.24,1.65,0.63,3.07,2.41,3.16c60.51,3.23,121.18,2.68,181.62-1.62c3.19-0.23,3.22-5.23,0-5
			c-60.44,4.31-121.11,4.85-181.62,1.62c0.8,1.05,1.61,2.11,2.41,3.16c4.82-33.8,6.59-67.98,5.01-102.1
			c-0.76-16.51-2.3-32.97-4.56-49.34c-2.13-15.38-4.82-30.82-12.54-44.5C400.56,672.71,396.23,675.23,397.82,678.04L397.82,678.04z"
			/>
	</g>
</g>
<g>
	<g>
		<path class="st1" d="M189.1,823.23c-2.16,10.13-5.13,20.45-6.47,30.72c-0.98,7.57,5.14,12.09,11.88,13.89
			c15.49,4.14,30-8.24,29.3-24c-0.12-2.7-4.28-3.54-4.91-0.66c-2.13,9.72-4.42,20.46-0.6,30.07c2.7,6.78,8.64,12.87,16.05,14.1
			c7.48,1.24,14.23-3.07,18.17-9.2c5.34-8.29,4.62-18.58,3.78-27.95c-0.83,0.83-1.67,1.67-2.5,2.5c2.63,0,5.26,0,7.89,0
			c-0.42-1.55-0.84-3.11-1.26-4.66c-6.12,4.67-7.76,12.81-4.42,19.75c3.94,8.17,13.17,13.47,21.8,15.16
			c8.45,1.65,17.79,0,23.69-6.69c5.27-5.99,6.86-14.26,3.33-21.48c-1.03-2.11-3.88-1.23-4.57,0.6
			c-7.03,18.66,4.21,39.73,24.06,43.42c7.09,1.32,16.5,0.42,18.95-7.65c1.59-5.23,0.61-11.58,0.07-16.91
			c-0.63-6.28-1.75-12.48-3.27-18.61c-0.57-2.32-4.32-2.44-4.82,0c-3.52,17.18,6.41,39.35,25.6,41.38
			c26.45,2.8,16.16-33.99,11.05-47.75c-1.11-2.99-5.95-1.7-4.82,1.33c3.93,10.58,15.02,44.9-6.81,41.32
			c-15.37-2.52-23.04-21.07-20.19-34.95c-1.61,0-3.21,0-4.82,0c2.1,8.5,3.4,17.14,3.66,25.9c0.14,4.78,0.05,9.69-5.5,11.09
			c-3.42,0.86-7.35,0.32-10.69-0.66c-15.76-4.65-23.32-21.47-17.63-36.58c-1.52,0.2-3.05,0.4-4.57,0.6
			c2.74,5.6,0.79,12.12-3.47,16.41c-4.61,4.66-11.71,5.59-17.9,4.42c-5.85-1.11-11.77-4-15.83-8.42c-4.3-4.68-6.16-12.93-0.37-17.35
			c1.85-1.41,1.44-4.66-1.26-4.66c-2.63,0-5.26,0-7.89,0c-1.26,0-2.62,1.15-2.5,2.5c0.64,7.1,1.48,14.77-1.13,21.58
			c-2.35,6.16-8.09,11.83-15.15,10.59c-6.42-1.12-11.11-7.12-12.81-13.1c-2.28-8.08-0.24-16.79,1.5-24.77
			c-1.64-0.22-3.27-0.44-4.91-0.66c0.58,13.08-11.64,23.2-24.38,18.75c-3.27-1.14-6.98-3.22-7-7.1c-0.02-3.2,1.36-6.88,2.03-10.01
			c1.49-6.97,2.97-13.95,4.46-20.92C194.59,821.42,189.77,820.08,189.1,823.23L189.1,823.23z"/>
	</g>
</g>
<g>
	<g>
		<path class="st1" d="M342.02,861.24c5.24,0.59,10.27-0.34,15.07-2.48c2.93-1.31,0.39-5.62-2.52-4.32
			c-3.99,1.79-8.22,2.29-12.54,1.8C338.83,855.87,338.86,860.88,342.02,861.24L342.02,861.24z"/>
	</g>
</g>
<g>
	<g>
		<path class="st1" d="M334.95,895.61c2.85-4.19,4.37-8.93,4.65-13.98c0.18-3.21-4.82-3.2-5,0c-0.23,4.19-1.61,7.99-3.97,11.45
			C328.82,895.75,333.15,898.25,334.95,895.61L334.95,895.61z"/>
	</g>
</g>
<g>
	<g>
		<path class="st1" d="M332.5,856.79c-0.01,9.23,0.79,18.36,2.34,27.45c0.54,3.17,5.36,1.82,4.82-1.33
			c-1.47-8.65-2.17-17.35-2.16-26.12C337.5,853.58,332.5,853.57,332.5,856.79L332.5,856.79z"/>
	</g>
</g>
<g>
	<g>
		<path class="st1" d="M408.06,873.39c1.96,8.31-2.69,16.45-0.91,24.81c1.15,5.41,4.72,10.5,10.64,11
			c7.18,0.6,12.86-5.51,16.89-10.64c5.12-6.52,8.75-13.93,11.04-21.88c-1.64-0.22-3.27-0.44-4.91-0.66
			c-0.14,12.8,1.99,31.98,17.81,34.34c19.48,2.9,26.63-19.66,29.38-34.29c0.59-3.14-4.2-4.5-4.82-1.33
			c-1.64,8.32-2.17,17.28,1.9,25.02c3.26,6.2,9.53,11.08,16.69,11.4c18.75,0.83,22.75-21.75,23.56-35.72c-1.67,0-3.33,0-5,0
			c-0.13,8.04-0.2,16.77,3.99,23.95c3.43,5.87,9.76,10.58,16.82,10.03c17.77-1.38,18.31-22.96,16.76-36c-0.37-3.1-5.07-3.3-5,0
			c0.21,10.28,0.49,21.64,6.63,30.39c4.62,6.58,12.54,11.66,20.84,10.41c9.03-1.36,15.05-9.29,18.5-17.15
			c4.25-9.7,5.05-20.35,2.9-30.67c-0.66-3.15-5.48-1.82-4.82,1.33c1.68,8.1,1.28,16.35-1.41,24.2c-2.4,7-7.19,15.53-15.06,17.22
			c-7.85,1.69-15.23-4.42-18.56-11.04c-3.8-7.56-3.86-16.43-4.02-24.69c-1.67,0-3.33,0-5,0c1.18,9.95,2.66,29.07-11.43,30.91
			c-15.21,1.98-16.31-18.83-16.15-28.89c0.05-3.24-4.82-3.19-5,0c-0.63,10.88-2.42,29.4-16.77,30.65
			c-15.98,1.4-17.73-19-15.56-30.02c-1.61-0.44-3.21-0.89-4.82-1.33c-1.32,7-2.61,14.26-6.28,20.48
			c-3.59,6.1-10.83,11.72-18.35,10.07c-12.22-2.68-12.84-19.4-12.74-29.27c0.03-2.84-4.13-3.37-4.91-0.66
			c-1.8,6.25-4.46,12.13-8.17,17.49c-3.08,4.45-9.7,13.64-16.2,10.93c-5.61-2.34-5.13-10.46-4.34-15.33
			c0.91-5.57,2.01-10.77,0.69-16.38C412.14,868.93,407.32,870.25,408.06,873.39L408.06,873.39z"/>
	</g>
</g>
<g>
	<g>
		<path d="M492.5,110.78c-14.32-13.36-33.21-18.99-52.45-20.06c-22.09-1.23-43.77,4.27-65.55,6.94
			c-23.59,2.89-46.54-0.02-69.91-3.35c-21.48-3.06-42.88-5.51-64.5-2.43c-9.69,1.38-19.06,4.03-27.96,8.1
			c-4.31,1.97-8.73,4.25-12.47,7.18c-4.6,3.6-5.22,10.54-6.05,16.02c-3.44,22.67,1.01,45.51,4.22,67.95
			c3.45,24.14,6.9,48.28,10.35,72.42c0.79,5.55,1.58,11.09,2.38,16.64c0.77,5.39,0.81,11.75,3.7,16.56
			c5.88,9.8,17.43,7.29,26.07,3.4c41.92-18.9,79.49-48.07,109-83.25c6.17-7.35-4.39-18.01-10.61-10.61
			c-25.11,29.93-55.66,54.84-90.2,73.14c-3.94,2.09-7.93,4.09-11.96,6c-1.99,0.94-3.98,1.96-6.07,2.65
			c-0.49,0.16-3.68,0.78-3.27,1.1c-1.07-0.84-1.18-5.92-1.35-7.1c-0.37-2.61-0.75-5.22-1.12-7.83c-0.89-6.2-1.77-12.4-2.66-18.59
			c-3.22-22.51-6.43-45.02-9.65-67.53c-3.39-23.76-8.75-48.9-1.76-72.48c-1.15,1.49-2.3,2.99-3.45,4.48
			c30.79-21.52,70.19-14.56,104.89-9.68c20.51,2.88,40.78,4.79,61.44,2.35c19.59-2.31,39-7.06,58.79-7.23
			c17.64-0.15,36.26,3.45,49.55,15.84C488.95,127.97,499.58,117.38,492.5,110.78L492.5,110.78z"/>
	</g>
</g>
<g>
	<g>
		<path d="M332.49,229.81c4.38,15.81-3.37,31.23-11.72,44.3c-9.1,14.24-19.48,27.98-30.73,40.59
			c-19.18,21.51-43.68,37.21-63.29,58.24c-10.67,11.44-19.35,24.4-24.16,39.37c-2.96,9.21,11.52,13.16,14.46,3.99
			c8.64-26.88,32.38-44.88,53.15-62.32c25.22-21.18,46.98-45.8,64.46-73.8c10.12-16.21,17.59-35.16,12.28-54.35
			C344.38,216.53,329.91,220.48,332.49,229.81L332.49,229.81z"/>
	</g>
</g>
<g>
	<g>
		<path d="M560.37,137.64c39.11-2.76,69.16,27.04,97.21,49.82c14.97,12.16,30.5,22.8,48.36,30.28c17.36,7.27,35.58,12.09,53.22,18.6
			c8.69,3.21,17.18,6.92,25.2,11.6c7.03,4.1,14.78,9.21,15.79,18.03c1.01,8.79-3.92,17.68-8.32,24.9
			c-5.38,8.84-11.48,17.28-17.28,25.85c-11.97,17.72-23.76,35.58-35.94,53.15c-4.77,6.88-9.83,10.47-17.86,5.89
			c-7.98-4.55-14.52-12-20.99-18.42c-14.2-14.08-27.6-29.55-33.63-48.99c-5.71-18.38-11.4-43.06-34.15-46.61
			c-4.03-0.63-8.02,1.03-9.23,5.24c-1.02,3.55,1.24,8.6,5.24,9.23c8.75,1.36,14.23,8.29,17.5,16.12
			c4.16,9.98,5.84,20.77,10.18,30.72c7.76,17.8,20.97,32.58,34.67,46.07c12.32,12.13,31.14,32.61,49.99,20.34
			c8.5-5.53,13.67-15.61,19.2-23.8c6.4-9.46,12.79-18.93,19.19-28.39c6.58-9.73,13.16-19.47,19.74-29.2
			c5.7-8.43,11.26-17,14.47-26.74c3.05-9.24,3.23-19.46-1.36-28.23c-4.61-8.83-13.41-14.66-21.88-19.37
			c-17.75-9.87-37.38-15.56-56.55-21.91c-19.47-6.45-37.54-14.37-54.16-26.55c-35.86-26.29-69.74-66.07-118.62-62.61
			C550.79,123.31,550.72,138.32,560.37,137.64L560.37,137.64z"/>
	</g>
</g>
<g>
	<g>
		<path d="M651.09,285.23c-2.86,0.08-5.71,0.15-8.57,0.23c-3.39,0.09-6.24,2.28-7.23,5.51c-19.03,61.57,7.56,126.45-9.62,188.09
			c-2.6,9.31,11.87,13.29,14.46,3.99c17.22-61.78-9.33-126.78,9.62-188.09c-2.41,1.84-4.82,3.67-7.23,5.51
			c2.86-0.08,5.71-0.15,8.57-0.23C660.73,299.97,660.76,284.97,651.09,285.23L651.09,285.23z"/>
	</g>
</g>
<g>
	<g>
		<path d="M202.51,415.47c-0.64,28.16,16.96,53.52,43.52,62.79c14.13,4.93,29.1,3.88,43.35,0.02c15.43-4.19,30.52-9.94,45.67-15.05
			c17.63-5.94,35.25-11.88,52.88-17.82c9.1-3.07,5.2-17.56-3.99-14.46c-17.93,6.04-35.87,12.09-53.8,18.13
			c-17.05,5.74-34.26,12.92-51.94,16.45c-14.94,2.98-30.54-0.06-42.53-9.74c-12.14-9.79-18.5-24.88-18.15-40.32
			C217.73,405.82,202.73,405.82,202.51,415.47L202.51,415.47z"/>
	</g>
</g>
<g>
	<g>
		<path d="M386.4,441.61c14.01,31.6,55.42,37.53,85.16,44.25c21,4.75,42.08,9.14,63.22,13.18c10.25,1.96,20.52,3.84,30.81,5.62
			c10.27,1.78,20.77,3.6,31.23,2.95c18.89-1.18,38.75-11.4,43.35-31.18c2.18-9.39-12.28-13.4-14.46-3.99
			c-3.48,14.98-19.7,20.34-33.45,20.29c-18.47-0.06-37.35-5.05-55.41-8.52c-18.58-3.56-37.11-7.41-55.57-11.52
			c-16.16-3.6-32.69-6.78-48.36-12.22c-13.99-4.85-27.33-12.38-33.56-26.43c-1.65-3.73-7.02-4.53-10.26-2.69
			C385.25,433.53,384.77,437.93,386.4,441.61L386.4,441.61z"/>
	</g>
</g>
<g>
	<g>
		<path d="M263.54,556.16c70.87,35.86,151.23,52.27,230.5,46.94c22.37-1.51,44.64-4.73,66.53-9.58c9.42-2.09,5.43-16.55-3.99-14.46
			c-74.72,16.58-153.48,12.38-226.21-11.34c-20.37-6.64-40.14-14.84-59.26-24.51C262.52,538.86,254.92,551.79,263.54,556.16
			L263.54,556.16z"/>
	</g>
</g>
<g>
	<g>
		<path d="M260.43,548.28c-18.61,64.23-37.22,128.45-55.83,192.68c-4.63,15.98-9.26,31.95-13.89,47.93
			c-2.16,7.46-5.53,15.57-3.96,23.46c1.36,6.88,6.32,11.95,11.61,16.18c20.52,16.44,45.2,26.25,70.86,31.31
			c29.93,5.9,60.59,6.22,90.97,5.69c9.64-0.17,9.67-15.17,0-15c-48.49,0.84-102.02,0.54-143.93-27.35
			c-4.59-3.06-10.89-6.75-13.85-11.54c-3.22-5.21,1.54-14.52,3.05-19.73c4.44-15.34,8.89-30.67,13.33-46.01
			c8.7-30.04,17.41-60.07,26.11-90.11c10-34.51,20-69.02,30-103.53C277.58,542.98,263.11,539.01,260.43,548.28L260.43,548.28z"/>
	</g>
</g>
<g>
	<g>
		<path d="M368.81,857.67c23.23-55.76,36.73-115.23,40.21-175.53c0.56-9.64-14.44-9.61-15,0c-3.41,58.97-16.96,117.02-39.67,171.54
			c-1.57,3.77,1.7,8.21,5.24,9.23C363.88,864.14,367.26,861.39,368.81,857.67L368.81,857.67z"/>
	</g>
</g>
<g>
	<g>
		<path d="M398.12,680.49c13.08,63.27,16.31,128.29,9.87,192.57c-0.41,4.07,3.77,7.46,7.5,7.5c58.96,0.68,117.92,0.8,176.88,0.36
			c4.52-0.03,8.96-4.82,7.23-9.49c-26.8-72.37-15.67-150.7-20.01-226.06c-1.24-21.45-3.73-42.86-8.37-63.86
			c-2.08-9.42-16.55-5.43-14.46,3.99c16.56,74.95,3.43,152.36,13.52,228c2.82,21.12,7.45,41.91,14.86,61.92
			c2.41-3.16,4.82-6.33,7.23-9.49c-58.96,0.44-117.92,0.32-176.88-0.36c2.5,2.5,5,5,7.5,7.5c6.57-65.62,2.94-131.99-10.41-196.56
			C410.63,667.05,396.17,671.05,398.12,680.49L398.12,680.49z"/>
	</g>
</g>
</svg>
