<?xml version="1.0" encoding="utf-8"?>
<!-- Generator: Adobe Illustrator 23.0.1, SVG Export Plug-In . SVG Version: 6.00 Build 0)  -->
<svg version="1.1" id="Layer_1" xmlns="http://www.w3.org/2000/svg" xmlns:xlink="http://www.w3.org/1999/xlink" x="0px" y="0px"
	 viewBox="0 0 1000 1000" style="enable-background:new 0 0 1000 1000;" xml:space="preserve">
<g>
	<g>
		<path d="M447.91,311.82c9.42-28.87,57.45-18.75,81.94-10.15c28.29,9.94,56.33,30.56,59.69,58.36c1.4,11.48-0.68,23.42-8.51,32.35
			c-7.98,9.1-21.14,12.68-33.54,15.54c-13.3,3.07-27.19,5.54-39.24,11.29c-14.73,7.03-23.82,18.53-29.38,32.34
			c-6.75,16.78-9.74,35.21-14.05,52.71c-4.84,19.64-9.67,39.3-14.52,58.95c-3.16,12.86,19.93,19.29,23.1,6.4
			c4.73-19.22,9.46-38.42,14.19-57.64c4.39-17.84,7.18-37,14.36-54.02c5.86-13.86,17.24-21.05,33.02-25.17
			c14.98-3.9,30.78-6.12,44.7-12.31c30.28-13.46,40.17-45.72,30.17-74.8c-10.96-31.87-43.9-53.86-78.15-65.04
			c-38.29-12.51-93.91-15.08-106.93,24.82C420.69,318.02,443.8,324.39,447.91,311.82L447.91,311.82z"/>
	</g>
</g>
<g>
	<g>
		<path d="M384.84,268.25c13.32,12.44,25.98,25.41,37.66,39.02c4.04,4.69,10.36,7.26,16.34,4.53c4.98-2.28,7.89-9.38,3.89-14.04
			c-12.96-15.1-26.71-29.61-41.49-43.42C390.33,244.16,373.97,258.1,384.84,268.25L384.84,268.25z"/>
	</g>
</g>
<g>
	<g>
		<path d="M404.37,260.49c26.73-29.94,70.27-43.98,114.97-40.6c45.01,3.4,86.36,26.49,112.47,60.09
			c26.65,34.29,38.38,77.29,27.02,115.65c-5.6,18.92-16.72,36.54-33.96,48.61c-17.38,12.17-40.1,13.24-60.29,20.52
			c-12.03,4.33-22.29,11.68-27.8,22.13c-6.84,12.95-9.14,28.14-12.77,42.15c-1.99,7.67-3.98,15.34-5.96,23.01
			c-0.88,3.4-1.76,6.82-2.65,10.22c-0.38,1.43-0.72,6.31-2.08,7.15c-2.35,1.43-14.79-3.61-17.72-4.41
			c-9.05-2.48-18.09-4.97-27.13-7.44c-14.87-4.08-20.4,15.76-5.5,19.85c8.04,2.21,16.07,4.41,24.12,6.62
			c8.09,2.23,16.4,5.2,24.75,6.08c16.61,1.76,23.5-9.28,26.66-21.44c3.78-14.48,7.51-28.98,11.26-43.47
			c3.07-11.86,4.29-27.39,14.95-35.72c8.29-6.48,20.36-8.54,31.03-10.95c12.26-2.77,24.39-5.98,35.08-11.75
			c21.92-11.85,36.98-30.4,46.22-51.46c36.82-83.86-33.03-195.63-138.9-213.76c-56.39-9.66-116.73,5.04-150.98,43.4
			c-3.83,4.3-4.61,10.11,0.38,14.72C391.71,263.5,400.57,264.74,404.37,260.49L404.37,260.49z"/>
	</g>
</g>
<g>
	<g>
		<path d="M484.23,614.74c-21.87-9.33-41,1.81-53.86,15.88c-13.63,14.92-18.07,35.24-4.41,53.41
			c12.38,16.48,36.82,24.87,57.13,19.14c21.3-6,35.05-24.78,36.65-44.26c1.83-22.16-16.13-43.39-42.05-46.29
			c-15.25-1.71-14.35,19.13,0.85,20.83c16.55,1.86,19.67,19.75,15.85,30.39c-4.34,12.03-16.69,22.83-32.51,19.67
			c-14.41-2.87-23.99-16.59-19.74-28.6c2.37-6.71,8.38-12.55,14.15-17.09c3.6-2.82,10.86-8.08,16.51-5.67
			c5.98,2.55,12.73,2.06,16.14-3C491.79,624.93,490.16,617.28,484.23,614.74L484.23,614.74z"/>
	</g>
</g>
</svg>
