<?xml version="1.0" encoding="utf-8"?>
<!-- Generator: Adobe Illustrator 23.0.1, SVG Export Plug-In . SVG Version: 6.00 Build 0)  -->
<svg version="1.1" xmlns="http://www.w3.org/2000/svg" xmlns:xlink="http://www.w3.org/1999/xlink" x="0px" y="0px"
	 viewBox="0 0 1000 1000" style="enable-background:new 0 0 1000 1000;" xml:space="preserve">
<style type="text/css">
	.st0{fill:#F39800;}
	.st1{fill:#A48B78;}
</style>
<g id="Layer_1">
	<g>
		<g>
			<path class="st0" d="M265.6,470.26c6.17-13.96,12.88-27.66,20.1-41.1c-0.94,0.38-1.88,0.77-2.82,1.15
				c5.29,1.67,10.76,2.61,16.32,2.54c2.58-0.03,5.16-0.28,7.71-0.69c2.15-0.35,6.7-2.51,8.56-0.9c0.64,0.55,1.01,2.91,1.3,3.72
				c0.65,1.86,1.3,3.72,1.94,5.59c0.97,2.79,1.94,5.59,2.91,8.38c2.27,6.52,4.53,13.04,6.8,19.56c1.05,3.02,5.88,1.72,4.82-1.33
				c-2.48-7.14-4.96-14.28-7.45-21.42c-1.19-3.41-2.37-6.83-3.56-10.24c-0.91-2.63-1.48-6.08-3.26-8.29
				c-3.06-3.78-7.81-0.95-11.65-0.2c-7.77,1.51-15.58,0.84-23.1-1.54c-1.02-0.32-2.32,0.21-2.82,1.15
				c-7.23,13.44-13.93,27.15-20.1,41.1C260,470.65,264.3,473.2,265.6,470.26L265.6,470.26z"/>
		</g>
	</g>
	<g>
		<g>
			<path class="st0" d="M260.36,470.69c1.14,5.4,10.69,5.3,14.95,5.97c7.58,1.2,15.24,1.88,22.92,1.96
				c12.85,0.14,26.66-0.5,37.08-8.9c2.51-2.02-1.05-5.54-3.54-3.54c-8.76,7.06-20.92,7.44-31.68,7.44c-5.59,0-11.18-0.3-16.73-0.9
				c-1.99-0.22-17.77-1.43-18.18-3.37C264.51,466.21,259.69,467.54,260.36,470.69L260.36,470.69z"/>
		</g>
	</g>
	<g>
		<g>
			<path class="st0" d="M275.18,460.42c-0.52-0.43-0.32,2.73-0.09,3.22c0.56,1.17,1.74,2.13,2.95,2.56
				c3.86,1.36,6.91-1.68,8.49-4.89c2.59-5.25,1.46-15.07-6.71-12.85c-7.05,1.92-12.39,13.91-7.97,20.14
				c5.47,7.72,12.79-3.58,14.77-8.36c1.68-4.06,7.04-19.17-1.94-19.1c-3.35,0.03-4.99,3.06-6.02,5.84c-1.66,4.48-4,12.62-2.82,17.42
				c0.66,2.68,3.26,4.23,5.82,2.74c3.17-1.84,5.16-7.18,6.14-10.5c1.07-3.62,2.71-21.79-5.96-17.79c-3.46,1.6-4.42,8.14-4.77,11.36
				c-0.48,4.45-0.38,11.46,3.37,14.69c9.29,8,12.23-13.7,11.74-18.51c-0.22-2.17-3.52-3.77-4.66-1.26
				c-1.39,3.07-2.16,5.97-2.41,9.33c-0.25,3.21,4.76,3.19,5,0c0.19-2.54,0.67-4.48,1.73-6.81c-1.55-0.42-3.11-0.84-4.66-1.26
				c0.26,2.6,0.31,5.16-0.21,7.74c-0.38,1.88-1.56,7.98-4.32,4.92c-1.44-1.6-0.82-6.49-0.58-8.5c0.16-1.42,1.58-6.45,1.61-6.43
				c0.67,0.66,0.22,5.78,0.1,6.98c-0.24,2.37-0.82,4.62-1.77,6.8c-0.45,1.02-1.29,2.09-1.64,3.12c-0.55,0.41-0.56,0.78-0.03,1.12
				c0.44,0.76,0.6,0.6,0.48-0.48c0.67-1.11,0.45-3.68,0.68-5c0.27-1.57,0.6-3.12,0.98-4.67c0.29-1.17,0.5-2.58,1.01-3.68
				c0.79-1.69,1.14-2.35,1.25-0.27c0.11,1.98-0.88,4.59-1.42,6.49c-0.51,1.79-4.96,13.89-7.85,10.04c-1.18-1.57,0.88-6.05,1.7-7.45
				c1.12-1.93,2.29-4.18,4.53-2.56c1.58,1.15,1.45,1.43,0.89,3.18c-0.32,1.02-0.72,2.39-1.88,2.69c-1.9,0.48-0.25,0.35-0.73-0.76
				c-0.53-1.22-0.02-1.75-1.27-2.79C276.26,454.84,272.7,458.36,275.18,460.42L275.18,460.42z"/>
		</g>
	</g>
	<g>
		<g>
			<path class="st0" d="M271.43,457.92c-1.92,2.14-3.22,4.33-4.22,7.03c1.61,0.44,3.21,0.89,4.82,1.33
				c0.52-1.86,0.52-3.34,0.24-5.23c-0.3-2.02-2.92-2.19-4.18-1.1c-2.04,1.77-3.86,4.46-2.66,7.25c0.93,2.15,3.66,3.54,5.93,2.62
				c5.33-2.15,0.91-9.35-3.95-7.32c-4.72,1.97-4.03,12.56,1.91,11.44c5.54-1.05,4.9-10.86-1.09-10.39
				c-6.48,0.51-5.23,9.42,0.54,10.2c4.21,0.57,10.82-5.95,5.62-9.04c-5.44-3.24-7.96,5.63-4.01,8.92c4.61,3.84,11.4-0.86,9.54-6.55
				c-2.15-6.56-10.45-1.36-6.76,4.03c3.94,5.77,11.68-0.75,7.91-6.16c-1.09-1.56-3.25-1.66-4.32,0c-3.47,5.38,3.12,11.11,8.23,7.44
				c4.85-3.48,1.41-13.25-3.92-9.19c-5.38,4.1,2.09,11.3,7.22,9.41c5.54-2.04,4.22-10.87-2.03-9.93c-6.21,0.94-5.31,9.8,0.6,10.46
				c6.17,0.69,7.84-8.23,1.5-9.2c-6.47-0.99-7.17,8.31-1.77,10.36c5.48,2.08,13.05-5.43,8.1-10.25c-4.65-4.52-9.73,2.38-6.58,6.96
				c3.53,5.13,12.27,2.43,11.57-4.02c-0.7-6.48-10.18-5.48-9.91,0.89c0.28,6.6,10.69,8.21,11.77,1.29c0.99-6.33-8.57-7.98-9.5-1.56
				c-0.91,6.24,7.63,9.97,11.72,5.36c3.5-3.96,0.99-13.16-5.35-10.77c-6.41,2.42-2.37,11.18,3.65,10.26
				c5.95-0.9,8.98-11.73,1.46-10.89c-7.5,0.84-3.94,13.03,3.12,10.32c7.54-2.9,2.1-13.11-5.09-10.5c-4.7,1.7-11.06,14.15-2.26,12.79
				c2.06-0.32,2.14-2.9,1.1-4.18c-2.19-2.7-4.94-3.41-8.27-2.96c-2.76,0.37-1.94,4.03,0,4.82c5.36,2.18,14.7,2.49,18.6-2.84
				c3.05-4.17-1.49-8.2-5.88-6.95c-4.3,1.22-5.85,6.98-1.89,9.63c5.18,3.47,8.89-3.44,9.11-7.71c0.08-1.51-1.68-2.99-3.16-2.41
				c-4.32,1.68-6.67,6.92-2.51,10.35c3.7,3.05,8.84,0.32,10.72-3.5c2.01-4.1-0.7-8.56-5.4-7.89c-4.34,0.62-7.54,5.25-5.89,9.45
				c1.6,4.07,6.78,5.37,9.83,2.05c3.3-3.59,0.37-8.45-3.83-9.34c-4.46-0.95-9.93,2.2-9.16,7.24c0.7,4.52,5.46,5.37,8.63,2.85
				c1.56-1.24,0.51-3.66-1.1-4.18c-2.51-0.8-5.51-1.32-7.55,0.84c-1.38,1.46-1.75,3.72-0.7,5.43c3.31,5.33,11.09,0.1,13.54-3.31
				c1.01-1.41-0.11-3.18-1.49-3.67c-2.52-0.9-4.89,0.07-6.05,2.47c-0.63,1.3-0.22,3.39,1.49,3.67c4.14,0.68,9.23-2.52,9.75-7.04
				c0.39-3.4-3.01-5.91-6.02-3.96c-3.12,2.02-2.16,6.54,1.19,7.75c4.89,1.76,7.56-3.53,8.14-7.4c0.29-1.93-1.07-3.48-3.08-3.08
				c-3.04,0.61-6.57,2.27-6.33,6.01c0.22,3.4,3.55,4.73,6.42,3.69c2.63-0.95,5.6-3.89,4.43-6.95c-1.11-2.88-4.69-3.01-6.52-0.79
				c-4.2,5.07,4.47,11.78,7.98,5.56c3.73-6.61-7.31-10.52-9.44-3.75c-2.18,6.93,8.44,10.18,9.6,2.78
				c1.27-8.13-11.42-5.34-11.98,1.54c-0.62,7.66,11.25,5.78,13.57,0.76c3.06-6.61-7.11-11.31-8.97-4.76
				c-2.04,7.17,11.57,6.74,7.91-1.57c-1.24-2.8-4.69-3.26-6.22-0.43c-1.85,3.43,0.55,7.56,3.75,8.98c0.93,0.41,2.3,0.52,3.03-0.39
				c1.78-2.23,2.43-4.35,1.33-7.1c-0.83-2.08-3.24-2.4-4.57-0.6c-0.64,0.87-0.78,1.2-0.98,2.27c-0.45,2.41,2.27,4.22,4.18,2.43
				c4.3-4.04,0.98-12.6-5.2-9.22c-5.15,2.82-1.15,11.02,3.55,7.28c4.58-3.64-1.17-11.98-6.09-8.17c-4.77,3.69,2.33,10.44,5.77,5
				c3.55-5.6-4.11-10.96-7.85-5.64c-3.06,4.35,3.21,13.37,7.2,8.31c3.33-4.22-1.48-12.66-6.72-8.94c-4.82,3.43-0.56,10.65,4.8,8.36
				c5.99-2.55,2.55-11.22-3.48-10.23c-4.61,0.75-8.84,10.18-2.34,11.04c6.31,0.84,5.93-8.86,0.75-10.4
				c-5.33-1.58-13.51,7.05-7.16,10.48c5.58,3.02,10.11-5.56,5.57-9.37c-4.65-3.9-12.55,0.86-10.19,6.82
				c2.43,6.15,11.89,4.15,10.72-2.6c-0.99-5.74-10.18-5.06-10.11,0.8c0.08,6.66,10.44,3.27,6.71-3.05
				c-3.92-6.64-13.88,0.49-10.36,6.74c3.64,6.46,11.74-2.12,5.93-7.17c-5.98-5.2-12.25,3.33-7.74,8.8c1.24,1.51,3.7,0.57,4.18-1.1
				c1.06-3.67-1.15-8.13-5.42-8.13c-4.26,0-6.47,4.48-5.41,8.14c0.53,1.82,2.82,2.42,4.18,1.1c2.67-2.59,5.16-9.51,0.33-11.49
				c-4.16-1.71-8.35,4.21-6.56,7.84c4.67,9.48,15.08-11.39,4.56-11.73c-3.7-0.12-7.36,5.15-6.11,8.56c1.43,3.89,6.42,2.68,7.75-0.51
				c1.56-3.73-1.49-7.42-5.41-6.95c-5.32,0.64-6.19,6.48-3.71,10.35c0.92,1.43,2.67,1.57,3.93,0.51c4.4-3.75,4.48-10.11,0.54-14.21
				c-0.87-0.91-2.69-1.03-3.54,0c-2.73,3.3-4.05,6.85-3.75,11.16c0.22,3.19,5.2,3.23,5,0c-0.23-3.84-0.51-11.55-5.4-12.56
				c-5.27-1.09-6.88,4.77-6.76,8.69c0.09,2.81,4.09,3.4,4.91,0.66c1.03-3.43,0.93-10.7-4.16-10.92c-4.84-0.21-6.49,7.11-6.71,10.6
				c-0.15,2.37,3.67,3.55,4.66,1.26c1.58-3.66,1.57-6.93-0.39-10.47c-0.94-1.7-3.34-1.54-4.32,0c-2.09,3.29-2.57,6.64-1.67,10.41
				c0.51,2.12,3.5,2.4,4.57,0.6c2.62-4.43,3.76-9.08,3.38-14.23c-0.22-2.95-3.83-3.23-4.91-0.66c-1.42,3.38-1.07,6.65,0.74,9.8
				c0.93,1.62,3.38,1.62,4.32,0c2.27-3.95,3.39-8,3.51-12.55c-1.67,0-3.33,0-5,0c0.05,0.74,0.1,1.48,0.14,2.22
				c0.14,2.08,2.68,3.4,4.27,1.77c3.11-3.19,4.12-7,3.03-11.32c-0.49-1.93-3.68-2.62-4.57-0.6c-1.31,2.98-1.32,5.54,0.2,8.44
				c0.73,1.39,2.87,1.66,3.93,0.51c2.38-2.59,3.1-5.34,2.29-8.75c-0.41-1.72-2.98-2.56-4.18-1.1c-2.89,3.52-3.4,7.5-1.22,11.56
				c0.73,1.36,2.88,1.7,3.93,0.51c2.96-3.37,3.93-6.96,3.31-11.37c-0.31-2.21-3.59-2.31-4.57-0.6c-1.74,3.02-2.7,10.22,2.23,11.09
				c4.95,0.88,6.51-6.83,6.29-10.2c-0.14-2.21-3.57-3.73-4.66-1.26c-1.69,3.84-2.01,7.44-0.54,11.43c0.57,1.55,2.91,2.73,4.18,1.1
				c2.18-2.8,3.24-5.69,2.77-9.27c-0.33-2.52-3.1-3.33-4.66-1.26c-2.85,3.77-3.6,7.99-2.66,12.57c0.46,2.24,3.47,2.26,4.57,0.6
				c2.38-3.59,2.45-7.35,0.74-11.23c-0.83-1.89-3.35-1.34-4.32,0c-2.31,3.19-3.7,10.18,2.33,10.51c5.32,0.28,6.31-7.84,6.16-11.49
				c-0.1-2.45-3.35-3.44-4.66-1.26c-2.63,4.39-3.39,8.84-2.71,13.87c0.27,2.03,2.94,2.18,4.18,1.1c3.33-2.9,4.91-6.86,4.35-11.26
				c-0.3-2.39-3.21-3.5-4.66-1.26c-2.63,4.06-3.37,8.3-2.67,13.05c0.34,2.31,3.51,2.19,4.57,0.6c2.45-3.67,3.68-7.51,4.02-11.89
				c0.19-2.46-3.57-3.43-4.66-1.26c-2.46,4.89-3.47,9.88-2.83,15.33c0.27,2.28,3.34,3.64,4.66,1.26c2.24-4.04,3.25-8.19,3.03-12.8
				c-0.14-2.76-4.12-3.46-4.91-0.66c-1.25,4.45-1.78,8.84-1.59,13.46c0.12,2.88,3.98,3.32,4.91,0.66c1.26-3.59,1.71-6.98,1.4-10.78
				c-1.64,0.22-3.27,0.44-4.91,0.66c0.05,0.36,0.11,0.72,0.16,1.07c0.48,3.17,5.3,1.82,4.82-1.33c-0.05-0.36-0.11-0.72-0.16-1.07
				c-0.42-2.77-5.14-2.14-4.91,0.66c0.27,3.33-0.11,6.31-1.22,9.45c1.64,0.22,3.27,0.44,4.91,0.66c-0.17-4.17,0.28-8.1,1.42-12.13
				c-1.64-0.22-3.27-0.44-4.91-0.66c0.19,3.8-0.5,6.96-2.34,10.28c1.55,0.42,3.11,0.84,4.66,1.26c-0.54-4.57,0.06-8.67,2.14-12.8
				c-1.55-0.42-3.11-0.84-4.66-1.26c-0.28,3.5-1.41,6.47-3.34,9.36c1.52,0.2,3.05,0.4,4.57,0.6c-0.51-3.42,0.32-6.35,2.17-9.19
				c-1.55-0.42-3.11-0.84-4.66-1.26c0.4,3.2-0.47,5.62-2.89,7.72c1.39,0.37,2.79,0.74,4.18,1.1c-0.49-3.67,0.33-6.9,2.21-10.02
				c-1.55-0.42-3.11-0.84-4.66-1.26c0.07,1.81-0.51,3.41-0.73,5.13c-0.65,1.38-0.62,1.52,0.08,0.42c0.49-0.68,0.98-1.36,1.47-2.03
				c-1.44,0-2.88,0-4.32,0c0.98,2.22,0.53,4.27-0.74,6.18c1.52,0.2,3.05,0.4,4.57,0.6c-0.68-3.33,0.17-6.1,2.16-8.72
				c-1.55-0.42-3.11-0.84-4.66-1.26c0.29,2.16,0.14,3.88-1.3,5.73c1.39,0.37,2.79,0.74,4.18,1.1c-0.97-2.64-1.17-4.82,0.04-7.57
				c-1.55-0.42-3.11-0.84-4.66-1.26c0.07,1.15,0.05,5.02-1.62,5.34c0.81,0.21,1.62,0.43,2.43,0.64c-1.25-1.2-1.26-2.64-0.02-4.34
				c-1.52-0.2-3.05-0.4-4.57-0.6c0.36,2.56-0.37,4.62-2.03,6.51c1.31,0.17,2.62,0.34,3.93,0.51c-1.16-1.89-1.01-3.72,0.44-5.5
				c-1.39-0.37-2.79-0.74-4.18-1.1c-0.33,1.3-0.67,2.59-1,3.89c1.31,0.17,2.62,0.34,3.93,0.51c-0.07-1.13-0.14-2.26-0.2-3.39
				c-1.52-0.2-3.05-0.4-4.57-0.6c0.63,2.49,0.05,4.62-1.74,6.46c1.42,0.59,2.85,1.18,4.27,1.77c-0.05-0.74-0.1-1.48-0.14-2.22
				c-0.21-3.19-4.92-3.25-5,0c-0.09,3.71-0.99,6.83-2.82,10.02c1.44,0,2.88,0,4.32,0c-1.15-2.01-1.11-3.86-0.24-5.95
				c-1.64-0.22-3.27-0.44-4.91-0.66c0.32,4.3-0.49,7.97-2.69,11.7c1.52,0.2,3.05,0.4,4.57,0.6c-0.58-2.41-0.14-4.5,1.17-6.56
				c-1.44,0-2.88,0-4.32,0c1.13,1.67,1.26,3.47,0.39,5.42c1.55,0.42,3.11,0.84,4.66,1.26c0.16-2.53,3.17-8.05,1.06-1.01
				c1.64,0.22,3.27,0.44,4.91,0.66c-0.29-0.91-0.16-1.73,0.4-2.45c0.46-1.34,0.76-1.11,0.91,0.68c0.83,1.58,0.75,3.91,0.85,5.63
				c1.67,0,3.33,0,5,0c-0.21-2.93,0.37-5.32,2.28-7.63c-1.18,0-2.36,0-3.54,0c2.17,2.26,1.78,5.16-0.54,7.14
				c1.31,0.17,2.62,0.34,3.93,0.51c-0.01-1-0.02-2-0.03-3c0.72,0.41,1.44,0.83,2.16,1.24c0.4-1.45,0.35-1.32-0.14,0.41
				c0.06,0.99-0.35,1.61-1.22,1.86c0.84,0,1.68,0,2.52,0c-0.67,0.8-1.33,1.61-2,2.41c1.39,0.37,2.79,0.74,4.18,1.1
				c0.4,0,0.79,0,1.19-0.01c1.39-0.37,2.79-0.74,4.18-1.1c4.17-1.99,8.42-2.57,12.75-1.74c2.68-0.32,4.82,0.64,6.41,2.89
				c1.39,0.81,2.79,1.62,4.18,2.43c0.16-0.36,0.32-0.72,0.47-1.07c-1.52-0.2-3.05-0.4-4.57-0.6c-0.01,0.74-0.03,1.49-0.04,2.23
				c1.01-0.13,2.02-0.26,3.03-0.39c-0.51-0.93-1.01-1.85-1.52-2.78c-0.72,0.41-1.44,0.83-2.16,1.24c-1.22,3.96-2.65,3.84-4.29-0.35
				c0.87,0.29,1.73,0.28,2.58-0.04c-1.03-1.03-2.05-2.05-3.08-3.08c-0.09,0.84-0.25,1.67-0.47,2.49c-1.82,2.04-3.96,3.59-6.43,4.67
				c0.5,1.22,1,2.45,1.49,3.67c0.13-0.06,0.27-0.12,0.4-0.18c-0.5-1.22-1-2.45-1.49-3.67c-1.08,1.51-5.24,3.45-2.3,4.38
				c-0.37-1.39-0.74-2.79-1.1-4.18c0.48-1.33,1.36-1.92,2.65-1.78c1.85,0.04,1.79-0.32-0.18-1.07c-1.05-0.8-2.11-1.61-3.16-2.41
				c-0.31,5.92-9.81,4.6-13.61,3.05c0,1.61,0,3.21,0,4.82c1.14,0.56,2.27,1.11,3.41,1.67c0.37-1.39,0.74-2.79,1.1-4.18
				c-0.28,0.04-0.55,0.09-0.83,0.13c0.81,0.21,1.62,0.43,2.43,0.64c0.64-0.51,1.11-1.16,1.41-1.93c8.27-6.53,1.63-6.77-19.91-0.71
				c-1.44,0-2.88,0-4.32,0c-6.19-0.8-7.9-2.13-5.14-4c-1.39-0.37-2.79-0.74-4.18-1.1c-0.08,0.86-0.16,1.72-0.24,2.57
				c-0.87,3.15,3.72,4.3,4.82,1.33c0.72-1.96,1.54-3.28,2.93-4.83C277.11,459.06,273.59,455.52,271.43,457.92L271.43,457.92z"/>
		</g>
	</g>
	<g>
		<g>
			<path class="st0" d="M304.98,435.95c-3.36,4.41-4.82,9.54-4.33,15.06c0.26,2.92,3.83,3.26,4.91,0.66
				c1.65-3.96,2.17-10.24-1.17-13.64c-2.4-2.44-5.33-1.74-6.93,1.2c-1.88,3.44-2.75,9.69-1.2,13.42c1.32,3.15,4.93,4.14,7.56,1.83
				c4.59-4.04,4.42-20.28-4.51-18.62c-7.34,1.36-6.05,17.14-1.07,20.44c2.71,1.8,6.12,0.97,7.47-2c1.81-4.01,0.26-9.81-1.48-13.55
				c-1.22-2.63-4-7.9-7.82-6.03c-3.45,1.7-2.78,7.9-2.27,10.9c0.64,3.78,2.53,9.46,6.47,11.09c3.38,1.4,6.03-0.82,6.88-4.09
				c1.15-4.41,0.11-9.53-2.08-13.43c-1.55-2.75-5.11-7.74-8.82-5.99c-3.99,1.89-2,9.62-1.02,12.79c1.11,3.62,3.75,10.08,7.72,11.48
				c3.66,1.3,5.21-2.32,4.92-5.33c-0.64-6.48-4.12-12.64-8.16-17.57c-1.33-1.63-4.46-0.33-4.27,1.77c0.42,4.62,1.5,9.05,3.57,13.23
				c1.54,3.11,3.91,7.88,7.61,8.64c1.52,0.32,3.24-0.7,3.16-2.41c-0.31-7.43-2.53-14.21-6.82-20.31c-1.59-2.26-5.26-0.95-4.57,1.93
				c1.66,6.89,4.6,13.14,8.87,18.8c1.54,2.03,5.67,0.98,4.57-1.93c-2.52-6.63-5.27-13.16-8.24-19.61c-1.44,0.84-2.88,1.68-4.32,2.52
				c2.83,6.09,5.67,12.16,8.72,18.14c1.46,2.87,5.76,0.34,4.32-2.52c-2.99-5.96-5.87-11.97-8.65-18.03
				c-0.94,1.22-1.88,2.45-2.82,3.67c1.83,0.31,4.06,5.16,4.87,6.5c1.33,2.18,2.56,4.41,3.76,6.67c1.31-1.01,2.62-2.02,3.93-3.03
				c-3.34-4.32-6.05-8.99-8.27-13.97c-1.44,0.84-2.88,1.68-4.32,2.52c4.28,6.75,7.9,13.81,10.81,21.25
				c1.39-0.81,2.79-1.62,4.18-2.43c-2.74-2.73-4.03-6.53-5.57-10c-1.77-3.98-3.46-7.98-4.98-12.05c-1.39,0.81-2.79,1.62-4.18,2.43
				c5.03,5.34,9.49,11.08,13.43,17.27c1.14-1.14,2.28-2.28,3.42-3.42c-4.78-3.12-8.25-10.58-11.45-15.23
				c-1.31,1.01-2.62,2.02-3.93,3.03c4.07,4.32,7.64,8.96,10.79,13.98c1.31-1.01,2.62-2.02,3.93-3.03c-3.54-4.47-6.33-9.38-8.38-14.7
				c-1.39,0.81-2.79,1.62-4.18,2.43c4.5,3.6,8.26,7.7,11.37,12.55c0.3-1.14,0.6-2.28,0.9-3.42c1.34,0.05,1.27-0.41-0.2-1.39
				c-0.92-1.12-1.76-2.29-2.52-3.52c-1.36-2.17-2.4-4.47-3.27-6.88c-1.52,0.64-3.05,1.28-4.57,1.93
				c3.98,5.82,7.38,11.93,10.23,18.38c1.44-0.84,2.88-1.68,4.32-2.52c-3.63-5.3-5.41-11.26-7.09-17.39
				c-1.61,0.44-3.21,0.89-4.82,1.33c2.23,5.69,4.46,11.38,6.68,17.08c1.52-0.64,3.05-1.28,4.57-1.93
				c-2.92-5.74-5.2-11.67-6.94-17.88c-1.52,0.64-3.05,1.28-4.57,1.93c3.01,6.49,5.92,12.99,8,19.84c1.61-0.44,3.21-0.89,4.82-1.33
				c-1.96-5.76-3.41-11.63-4.22-17.67c-1.64,0.22-3.27,0.44-4.91,0.66c1.23,6.92,2.85,13.71,4.89,20.44
				c1.61-0.44,3.21-0.89,4.82-1.33c-2.03-6.43-4.05-12.87-6.08-19.3c-0.98-3.12-5.34-1.8-4.82,1.33c0.77,4.69,1.87,9.26,3.32,13.79
				c0.97,3.05,5.74,1.78,4.82-1.33c-1.6-5.41-3.2-10.82-4.8-16.22c-1.52,0.64-3.05,1.28-4.57,1.93c3.02,4.74,5.66,9.65,7.95,14.78
				c1.44-0.84,2.88-1.68,4.32-2.52c-3.13-5-5.71-10.21-7.73-15.76c-1.61,0.44-3.21,0.89-4.82,1.33c2.76,6.68,5.11,13.49,7.06,20.46
				c1.61-0.44,3.21-0.89,4.82-1.33c-1.86-6.37-3.73-12.75-5.59-19.12c-1.61,0.44-3.21,0.89-4.82,1.33c2.38,7.2,4.9,14.34,7.58,21.43
				c1.14,3.01,5.41,1.86,4.82-1.33c-1.06-5.7-2.43-11.31-4.13-16.86c-0.94-3.07-5.61-1.8-4.82,1.33c1.4,5.52,3.05,10.95,4.97,16.31
				c1.61-0.44,3.21-0.89,4.82-1.33c-2.37-5.97-1.85-18.64-8.97-21.33c-3.52-1.33-7.94-1.26-11.66-1.74
				c-3.34-0.43-6.49-1.26-9.12,1.23c-2.34,2.22,1.2,5.75,3.54,3.54c1.12-1.06,5.1,0.17,6.48,0.35c3.89,0.5,8.97,0.35,10.98,4.5
				c2.17,4.49,2.07,10.1,3.93,14.79c1.16,2.93,5.92,1.74,4.82-1.33c-1.92-5.36-3.57-10.79-4.97-16.31
				c-1.61,0.44-3.21,0.89-4.82,1.33c1.7,5.55,3.07,11.15,4.13,16.86c1.61-0.44,3.21-0.89,4.82-1.33c-2.68-7.09-5.2-14.24-7.58-21.43
				c-1-3.03-5.73-1.78-4.82,1.33c1.86,6.37,3.73,12.75,5.59,19.12c0.9,3.08,5.69,1.78,4.82-1.33c-1.95-6.97-4.29-13.77-7.06-20.46
				c-1.2-2.9-5.94-1.75-4.82,1.33c2.17,5.95,4.87,11.58,8.24,16.95c1.74,2.79,5.6,0.36,4.32-2.52c-2.29-5.13-4.93-10.04-7.95-14.78
				c-1.48-2.32-5.4-0.88-4.57,1.93c1.6,5.41,3.2,10.82,4.8,16.22c1.61-0.44,3.21-0.89,4.82-1.33c-1.45-4.53-2.55-9.1-3.32-13.79
				c-1.61,0.44-3.21,0.89-4.82,1.33c2.03,6.43,4.05,12.87,6.08,19.3c0.96,3.06,5.76,1.77,4.82-1.33
				c-2.04-6.72-3.67-13.52-4.89-20.44c-0.49-2.74-5.29-2.14-4.91,0.66c0.87,6.5,2.28,12.78,4.4,19c1.03,3.02,5.77,1.78,4.82-1.33
				c-2.21-7.27-5.32-14.16-8.51-21.04c-1.21-2.61-5.32-0.75-4.57,1.93c1.85,6.62,4.33,12.95,7.44,19.07
				c1.26,2.48,5.61,0.74,4.57-1.93c-2.23-5.69-4.46-11.38-6.68-17.08c-1.15-2.93-5.69-1.85-4.82,1.33
				c1.79,6.53,3.72,12.95,7.59,18.58c1.85,2.69,5.61,0.39,4.32-2.52c-2.85-6.45-6.25-12.56-10.23-18.38
				c-1.49-2.19-5.59-0.91-4.57,1.93c1.62,4.47,6.76,17.85,13.34,14.77c1.19-0.56,1.57-2.36,0.9-3.42
				c-3.33-5.2-7.33-9.71-12.15-13.57c-1.7-1.36-5.18-0.17-4.18,2.43c2.38,6.17,5.56,11.72,9.67,16.91c1.77,2.24,5.42-0.65,3.93-3.03
				c-3.37-5.38-7.22-10.37-11.58-15c-1.91-2.03-5.56,0.66-3.93,3.03c3.82,5.55,7.49,13.27,13.25,17.03
				c2.09,1.36,4.74-1.34,3.42-3.42c-4.16-6.55-8.89-12.63-14.21-18.28c-1.64-1.74-5.07,0.05-4.18,2.43
				c1.68,4.48,3.54,8.88,5.49,13.25c1.75,3.93,3.27,7.93,6.35,11.01c1.65,1.65,5.12-0.01,4.18-2.43
				c-3.06-7.86-6.79-15.33-11.31-22.45c-1.76-2.77-5.61-0.37-4.32,2.52c2.41,5.4,5.43,10.31,9.05,14.98c1.8,2.32,5.2-0.63,3.93-3.03
				c-1.86-3.51-3.85-6.95-6.03-10.27c-1.51-2.29-2.71-4.7-5.59-5.2c-2.24-0.38-3.76,1.62-2.82,3.67c2.77,6.06,5.65,12.07,8.65,18.03
				c1.44-0.84,2.88-1.68,4.32-2.52c-3.05-5.98-5.89-12.05-8.72-18.14c-1.35-2.92-5.66-0.38-4.32,2.52
				c2.8,6.05,5.37,12.18,7.74,18.41c1.52-0.64,3.05-1.28,4.57-1.93c-4.03-5.33-6.8-11.1-8.37-17.6c-1.52,0.64-3.05,1.28-4.57,1.93
				c3.78,5.36,5.87,11.21,6.14,17.78c1.05-0.8,2.11-1.61,3.16-2.41c-2.23-0.46-4.29-5.58-5.12-7.48c-1.33-3.07-2.08-6.24-2.39-9.58
				c-1.42,0.59-2.85,1.18-4.27,1.77c1.93,2.36,3.52,4.86,4.71,7.67c0.41,0.95,2.97,6.86,1.92,7.69c0.81-0.21,1.62-0.43,2.43-0.64
				c-2.27-0.43-4.29-5.62-4.94-7.46c-0.94-2.71-1.77-6.28-0.97-9.1c-0.58,0.58-1.16,1.16-1.75,1.75c2.83-0.83,6.56,11.33,4.76,13.27
				c-1.37,1.47-3.13-4.34-3.39-5.41c-0.37-1.52-1.19-6,0.16-7.24c-0.81,0.21-1.62,0.43-2.43,0.64c2.18,0.38,5.7,9.48,4.33,11.34
				c0.21,1.13-0.17,1.16-1.15,0.09c-0.46-1.29-0.73-2.62-0.8-4c-0.05-1.06-0.17-5.8,1.86-4.58c1.29,0.78,0.57,5.7,0.02,6.97
				c-1.34,3.11-0.68-1.39-0.6-2.38c0.05-0.6,1.55-4.57,0.22-5.11c2.36,0.94,0.46,7.3-0.14,8.73c1.64,0.22,3.27,0.44,4.91,0.66
				c-0.42-4.74,0.77-8.76,3.65-12.53C311.25,435.92,306.91,433.42,304.98,435.95L304.98,435.95z"/>
		</g>
	</g>
	<g>
		<g>
			<path d="M278.57,425.05c-4.49,12.42-11.5,23.6-17.75,35.17c-1.62,2.99-6.46,9.08-5.24,12.75c1.29,3.89,8.87,4.01,12.08,4.52
				c13.21,2.12,27.32,3.65,40.69,2.64c10.33-0.78,23.5-3.35,30.86-11.31c2.18-2.36-1.35-5.9-3.54-3.54
				c-7.04,7.62-20.43,9.61-30.24,10.01c-11.75,0.48-23.92-0.74-35.54-2.49c-2.43-0.37-4.84-0.81-7.23-1.37
				c-0.9-0.2-1.79-0.43-2.68-0.68c0.38-0.09,0.76-0.17,1.14-0.26c0.28-1.04,1.06-2.16,1.56-3.12c2.38-4.67,4.97-9.23,7.54-13.8
				c4.94-8.81,9.72-17.68,13.16-27.2C284.49,423.34,279.66,422.04,278.57,425.05L278.57,425.05z"/>
		</g>
	</g>
	<g>
		<g>
			<path d="M280.83,427.04c6.16,1.67,12.47,2.68,18.86,2.8c3.69,0.07,7.38-0.16,11.04-0.64c1.14-0.15,2.27-0.32,3.4-0.52
				c2.91-0.51,2.65-0.62,3.62,2.17c4.31,12.4,7.89,26.55,15.98,37.09c1.93,2.52,6.28,0.03,4.32-2.52
				c-4.72-6.15-7.25-13.15-9.86-20.38c-1.32-3.65-2.64-7.3-3.97-10.95c-1-2.76-1.75-6.76-3.53-9.14
				c-2.94-3.92-10.76-0.54-14.55-0.27c-8.12,0.58-16.14-0.32-23.99-2.45C279.05,421.38,277.72,426.2,280.83,427.04L280.83,427.04z"
				/>
		</g>
	</g>
	<g>
		<g>
			<path d="M292.9,481.53c0.99,22.99,1.97,45.97,2.96,68.96c0.47,10.87,1.05,21.75,1.37,32.63c0.33,11.46-0.64,22.84-1.73,34.23
				c-0.17,1.8,2.29,3.25,3.76,2.16c0.72-0.57,1.48-1.1,2.28-1.57c2.13,1.07,1.9,1.54-0.69,1.43c-3.17,0.34-3.2,5.34,0,5
				c4.22-0.45,10.94-3.18,8.09-8.81c-2.61-5.15-8.69-2.95-12.19-0.36c1.25,0.72,2.51,1.44,3.76,2.16c1.05-11.1,2.03-22.2,1.75-33.36
				c-0.28-11.17-0.91-22.34-1.39-33.51c-0.99-22.99-1.97-45.97-2.96-68.96C297.76,478.32,292.76,478.31,292.9,481.53L292.9,481.53z"
				/>
		</g>
	</g>
	<g>
		<g>
			<path d="M298.36,603.1c-10.94,2.01-31.65,3.65-31.23,19.25c0.37,13.81,17.19,20.69,28.88,20.27
				c11.66-0.42,29.93-6.12,31.52-19.88c1.73-14.89-18.88-19.7-29.99-19.75c-3.22-0.01-3.22,4.99,0,5
				c8.08,0.04,27.89,3.5,24.78,15.52c-2.7,10.43-18.99,14.28-28.15,14.14c-8.62-0.13-25.9-7.07-21.39-18.65
				c3.61-9.27,18.72-9.56,26.91-11.07C302.85,607.34,301.51,602.52,298.36,603.1L298.36,603.1z"/>
		</g>
	</g>
	<g>
		<g>
			<path class="st1" d="M370.72,475.82c50.53-5.3,101.69-3.89,151.8,4.59c-1.75-3.08-3.49-6.15-5.24-9.23
				c-3.73,9-5.63,18.75-5.42,28.5c0.21,10.05,2.68,19.87,3.43,29.87c0.25,3.29,1.37,9.88-0.54,12.82c-1.37,2.11-5.05,1.93-7.24,1.91
				c-9.92-0.08-20-1.93-29.85-3.04c-10.49-1.19-21.01-2.28-31.57-2.68c-9.99-0.38-19.96,0.2-29.95,0.26
				c-9.53,0.05-20.19,0.02-29.16-3.68c-0.58-0.24-2.54-1.81-2.09-0.23c0.34,1.2,0.54-0.49,1.03-1.09c0.55-0.67,1.07-1.4,1.56-2.12
				c2.55-3.72,3.95-7.89,3.09-12.43c-1.69-8.88-10.41-13.46-13.72-21.52c-3.33-8.12-2.54-17.25,1.98-24.7
				c-3.93,0.51-7.85,1.01-11.78,1.52c3.19,3.47,3.78,8.59,4.62,13.05c0.99,5.26,2.08,10.6,4.8,15.29c2.67,4.6,7.91,7.19,10.45,11.62
				c2.71,4.72-2.84,11.02-5.66,14.43c-4.99,6.01-0.2,13.67,7.3,12.54c5.38-0.81,10.77-2.38,14.59-6.49
				c4.73-5.09,4.84-12.44,2.66-18.68c-2.28-6.53-5.6-12.77-8.33-19.13c-2.97-6.89-5.77-13.85-8.48-20.85
				c-1.75,3.08-3.49,6.15-5.24,9.23c3.24-1.01,4.75,4.75,5.5,6.99c1.84,5.47,3.59,10.97,5.39,16.45c2.13,6.52,7.86,19.12-0.74,23.25
				c-4.79,2.3-5.02,10.72,0,12.95c7.37,3.27,16.28,5.7,22.88-0.63c6.36-6.1,3.76-15.43,2.3-23c-3.35-17.47-9.56-34.3-17.92-49.99
				c-0.9,3.42-1.79,6.84-2.69,10.26c7.88-6.01,13.03,25.97,13.69,30.28c1.08,7.08,1.03,14.1,1.54,21.21
				c0.41,5.75,2.89,12.17,9,13.85c6.48,1.79,12.21-2.92,13.45-9.12c1.31-6.52-0.98-14.12-2.15-20.53
				c-2.83-15.55-6.86-30.83-11.95-45.79c-2.41,3.16-4.82,6.33-7.23,9.49c13.91-1.49,13.19,20.56,13.9,29.45
				c0.92,11.45-1.27,32.31,13.24,36.05c6.51,1.68,12.65-2.35,15.02-8.35c2.59-6.55-0.03-13.4-1.83-19.81
				c-4.2-14.95-8.39-29.9-12.59-44.85c-1.75,3.08-3.49,6.15-5.24,9.23c1.64-0.41,8.69,35.91,9.45,39.46
				c1.42,6.68,2.37,14.25,7.12,19.54c4.3,4.79,11.05,7.27,17.27,5.01c2.83-1.03,5.89-3.84,5.51-7.23
				c-2.57-22.53-7.74-44.5-15.9-65.67c-2.41,3.16-4.82,6.33-7.23,9.49c5.78-0.09,6.9,7.75,7.61,12.11c1.17,7.19,2,14.46,2.99,21.68
				c1.53,11.19,1.12,33.34,17.73,32.36c16.53-0.98,9.92-22.91,7.87-32.48c-3.27-15.21-7.28-30.24-11.95-45.08
				c-1.75,3.08-3.49,6.15-5.24,9.23c6.56-1.55,8.61,33.24,9,37.82c0.62,7.32-0.08,14.91,1.13,22.15c0.93,5.54,4.25,10.8,10.06,12.08
				c6.66,1.47,13.08-3.22,15.05-9.49c2.1-6.66-0.07-14.54-0.92-21.26c-2.04-16.03-4.36-32.02-8.14-47.74
				c-1.75,3.08-3.49,6.15-5.24,9.23c10.31-3.14,7.28,18.69,6.88,23.25c-1.15,13.19-2.31,26.39-3.46,39.58
				c-0.43,4.89,5.13,8.49,9.49,7.23c12.95-3.74,12.7-18.37,13.05-29.34c0.48-15.04,0.96-30.08,1.44-45.12c0.31-9.66-14.69-9.64-15,0
				c-0.38,11.77-0.75,23.54-1.13,35.31c-0.18,5.56-0.33,11.12-0.53,16.68c-0.09,2.35-0.47,7.62-1.81,8.01
				c3.16,2.41,6.33,4.82,9.49,7.23c0.81-9.24,1.62-18.47,2.42-27.71c0.71-8.07,2.03-16.37,1.82-24.48
				c-0.19-7.24-2.05-14.48-7.26-19.76c-5.05-5.12-12.45-7.45-19.39-5.34c-3.97,1.21-6.21,5.19-5.24,9.23
				c3.24,13.47,5.46,27.14,7.24,40.87c0.46,3.52,0.89,7.04,1.33,10.57c0.19,1.54,0.4,3.08,0.56,4.62c0.08,0.8-0.24,3.27,0.22,3.92
				c0.39,0.56,3.7,1.46,4.05,0.87c0.1-0.18-0.37-1.95-0.41-2.28c-0.32-3.14-0.03-6.41-0.15-9.57c-0.51-13.47-2.44-26.98-4.66-40.27
				c-2-12-10.11-23.97-23.88-20.73c-3.84,0.91-6.42,5.46-5.24,9.23c3.89,12.36,7.33,24.86,10.26,37.49
				c1.46,6.31,2.82,12.65,4.01,19.02c-0.12-0.66,0.73,4.01,0.47,3.82c-0.03,0.17-0.06,0.33-0.09,0.5c1.29-0.67,2.57-1.34,3.86-2.01
				c0.51-0.83-1.2-6.86-1.35-7.95c-1.71-12.51-2.79-25.31-5.28-37.69c-2.17-10.8-9.7-20.96-21.66-20.76
				c-4.46,0.07-9.04,4.8-7.23,9.49c7.65,19.83,12.96,40.55,15.36,61.68c1.84-2.41,3.67-4.82,5.51-7.23
				c-4.09,1.48-5.4-11.55-5.94-14.08c-1.64-7.67-3.27-15.35-4.91-23.02c-1.44-6.74-2.14-14.52-6.11-20.35
				c-3.81-5.6-10.33-8.19-16.88-6.56c-3.92,0.98-6.31,5.39-5.24,9.23c3.5,12.46,6.99,24.92,10.49,37.37
				c0.87,3.11,1.75,6.23,2.62,9.34c0.56,2,0.81,6.25,1.93,7.89c-0.42,1.14,0.02,1.28,1.32,0.42c1.21,0.17,1.66-0.04,1.37-0.62
				c0.14-0.37-0.5-1.91-0.57-2.37c-0.56-3.38-0.57-6.93-0.84-10.34c-0.94-11.68-0.49-24.84-4.87-35.87
				c-3.96-9.97-13.37-18.54-24.73-17.32c-4.51,0.48-8.95,4.44-7.23,9.49c4.58,13.46,8.31,27.18,11.06,41.13
				c0.67,3.41,1.29,6.83,1.85,10.25c0.3,1.85,0.68,3.75,0.86,5.62c0.05,0.52-0.08,2.22,0.1,2.44c2.45-0.41,4.89-0.82,7.34-1.23
				c0.03-0.17,0.01-0.32-0.06-0.47c0.21-0.62-0.1-2.37-0.12-3.1c-0.1-3.7-0.27-7.39-0.6-11.08c-1.2-13.08-3.47-26.96-8.76-39.06
				c-4.53-10.37-17.57-19.59-28.37-11.35c-3.32,2.54-4.79,6.31-2.69,10.26c5.5,10.33,9.9,21.11,13.08,32.38
				c1.55,5.49,2.83,11.06,3.81,16.68c0.24,1.39,0.52,2.79,0.67,4.19c0.08,0.45,0.13,0.91,0.13,1.37c-0.11,1.12,0.17,1.03,0.82-0.27
				c-1.52-0.48-3.55-0.5-5.26-1.25c0,4.32,0,8.63,0,12.95c16.79-8.07,11.55-28.24,7.03-42.04c-4.2-12.82-9.5-38.09-28.74-32.08
				c-3.57,1.12-6.75,5.33-5.24,9.23c3.88,10.03,7.99,19.97,12.33,29.81c1.6,3.63,5.48,9.14,5.31,13.23
				c-0.13,3.29-4.91,3.24-7.61,3.65c2.43,4.18,4.86,8.36,7.3,12.54c5.14-6.2,10.51-13.38,10.78-21.8c0.26-8.11-4.41-13.39-9.9-18.59
				c-4.72-4.47-5.55-10.05-6.73-16.22c-1.36-7.09-3.35-13.57-8.35-18.99c-3.34-3.62-9.37-2.46-11.78,1.52
				c-5.09,8.4-6.94,18.18-5.55,27.88c1.44,10.03,6.34,17.34,12.88,24.78c0.73,0.83,2.65,2.7,2.67,3.83
				c0.02,0.96-1.95,2.93-2.53,3.76c-2.9,4.15-4.27,8.86-2.45,13.76c3.75,10.13,17.64,12.17,26.89,13.36
				c11.35,1.47,22.76,0.87,34.16,0.64c12.1-0.24,24.13,0.5,36.17,1.73c11.79,1.21,23.54,2.91,35.36,3.86
				c8.92,0.72,19.32-0.57,24.24-9.12c5.97-10.37,2.1-25.8,0.47-36.85c-1.95-13.24-1.61-25.44,3.57-37.93
				c1.45-3.49-1.6-8.61-5.24-9.23c-51.48-8.72-103.85-10.58-155.79-5.13c-4.03,0.42-7.5,3.14-7.5,7.5
				C363.22,472.05,366.67,476.25,370.72,475.82L370.72,475.82z"/>
		</g>
	</g>
	<g>
		<g>
			<path class="st1" d="M543.96,505.42c0.54-4.11,0.09-8.1-0.05-12.22c-0.09-2.61-0.38-6.58,1.76-8.56
				c2.38-2.2,7.79-1.96,10.75-2.29c4.93-0.55,9.87-1.09,14.81-1.6c19.1-1.97,38.23-3.61,57.38-4.93c8.69-0.6,18.22-2.3,26.9-1.31
				c7.11,0.81,9.31,8.02,11.33,13.9c3.07,8.91,5.65,17.99,7.75,27.18c0.42,1.84,0.82,3.68,1.2,5.53c0.2,0.95,1.38,4.75,1.08,5.47
				c-0.22,0.53-2.29,2.04-2.92,2.81c-1.39,1.71-2.21,3.39-3.05,5.41c-0.46,1.1-0.86,2.72-1.64,3.67c0.86-1.05,0.42-0.48-1.24-0.39
				c-5.12,0.25-10.25,0.24-15.38,0.54c-9.29,0.54-18.56,1.43-27.8,2.44c-18.5,2.02-36.96,4.55-55.54,5.82
				c-9.27,0.63-18.61,0.12-27.85,0.74c-1.77,0.12-0.7,0.4-1.21-0.72c-0.71-1.57-1.12-3.35-1.57-5.01c-1.16-4.28-2.05-8.66-2.5-13.08
				c-0.78-7.62-1.52-17.16,1.18-24.5c2.41-6.55,10.04-7.6,16.12-8.6c20.36-3.37,41.16-2.98,61.42-7.13
				c9.26-1.9,18.68-5.13,28.25-4.34c5.23,0.44,15.62,3.76,16.37,10.29c0.34-1.26,0.68-2.52,1.02-3.79c0.74-1.75,3.97-1.26-0.45-1.33
				c-1.64-0.03-3.28-0.05-4.93-0.07c-3.28-0.04-6.57-0.06-9.85-0.07c-6.9-0.01-13.8,0.05-20.69,0.19
				c-13.79,0.29-27.57,0.9-41.33,1.9c-12.48,0.91-24.96,2.96-37.44,3.51c-4.43,0.2-7.28-0.56-11.24-2.06
				c-0.52-1.1-0.88-1.26-1.08-0.46c-0.28,0.48-0.29,0.57-0.03,0.27c0.55-0.56,1.49-0.73,2.2-0.98c3.15-1.12,6.26-1.78,9.35-3.15
				c7.9-3.5,2.22-15.88-5.78-13.71c-4.29,1.16-8.58,2.33-12.88,3.49c3.08,3.08,6.15,6.15,9.23,9.23c0.97-3.73,5.11-4.61,8.53-5
				c5.05-0.58,10.27-0.45,15.35-0.49c10.62-0.09,21.24,0.27,31.82,1.22c20.71,1.86,41.13,6.37,60.45,14.09
				c0.66-4.91,1.33-9.82,1.99-14.73c-22.49,1.37-45,2.84-67.26,6.44c-10.73,1.74-21.39,4.01-31.82,7.07
				c-9.58,2.81-20.6,5.1-24.7,15.23c-1.14,2.82,0.72,7.17,3.45,8.47c10.96,5.21,21.96,2.84,33.45,1.09
				c12.52-1.9,25.16-2.94,37.8-3.58c12.69-0.64,25.4-0.82,38.11-0.82c6.52,0,13.04,0.04,19.55,0.09c0.98,0.01,5.24-0.46,5.75,0.08
				c1.57,1.63-0.59,6.67-1.04,8.17c3.08-1.75,6.15-3.49,9.23-5.24c-23.37-8.01-47.89-10.34-72.41-7.82
				c-12.12,1.25-24.22,3.11-36.43,2.92c-12.76-0.2-25.39-2.48-38.16-1.19c-8.42,0.85-10.19,11.75-1.99,14.73
				c13.19,4.8,27.09,3.51,40.7,1.61c13.99-1.95,27.89-3.44,42.02-3.86c14.47-0.43,28.94-0.13,43.4,0.29
				c3.02,0.09,6.11,0.01,9.12,0.29c-0.1-0.01,3.16,0.37,2.97,0.53c0.03-0.03-0.09-1.12-0.41-1.05c-1.16,0.26-2.33,1.03-3.92,1.11
				c-3.37,0.17-6.92-0.56-10.25-0.91c-28.99-3.1-58.2-3.13-87.32-2.62c-6.78,0.12-13.61,0.02-20.38,0.42
				c-6.83,0.41-13.72,2.31-17.19,8.82c-2.72,5.1-1.63,11.31,2.27,15.46c5.03,5.34,12.29,5.33,19.05,4.94
				c32.91-1.93,65.81-3.95,98.72-5.92c9.59-0.58,9.66-15.58,0-15c-28.96,1.74-57.91,3.47-86.87,5.21c-3.95,0.24-7.9,0.48-11.85,0.71
				c-1.21,0.07-2.43,0.17-3.65,0.21c-0.45,0.01-3.77-0.4-4.09-0.22c-2.87,1.61,3.45,0.8,3.61,0.79c3.81-0.32,7.71-0.18,11.54-0.25
				c14.41-0.29,28.83-0.51,43.25-0.36c14.4,0.15,28.8,0.68,43.15,1.88c11.34,0.95,26.87,5.59,35.34-4.73
				c3.67-4.47,4.95-10.81,2.04-16.04c-2.77-4.97-8.1-7.07-13.48-7.72c-13.49-1.61-27.67-1.06-41.25-1.04
				c-16.45,0.03-32.86,0.86-49.16,3.09c-14.44,1.97-29.25,5.05-43.37-0.09c-0.66,4.91-1.33,9.82-1.99,14.73
				c12.14-1.22,24.13,0.77,36.25,1.15c12.21,0.38,24.32-1.37,36.42-2.67c24.04-2.59,47.39-0.79,70.34,7.08
				c3.9,1.34,8.11-1.55,9.23-5.24c1.88-6.21,3.13-13.14-0.16-19.13c-3.23-5.88-8.72-7.86-15.11-8.08
				c-14.62-0.5-29.37-0.24-43.99,0.08c-14.31,0.31-28.62,1.04-42.86,2.58c-7.08,0.77-14.14,1.75-21.17,2.89
				c-5.52,0.9-11.95,2.19-17.23-0.32c1.15,2.82,2.3,5.65,3.45,8.47c0.5-1.23,8.3-2.93,9.76-3.39c4.74-1.5,9.53-2.83,14.35-4.02
				c9.06-2.22,18.24-3.92,27.47-5.26c19.12-2.77,38.46-3.88,57.73-5.06c8.78-0.54,9.76-11.63,1.99-14.73
				c-22.85-9.13-47.2-13.6-71.7-15.19c-12.09-0.78-24.25-0.91-36.36-0.38c-11.24,0.49-23.37,4.01-26.55,16.23
				c-1.44,5.53,3.65,10.74,9.23,9.23c4.29-1.16,8.58-2.33,12.88-3.49c-1.93-4.57-3.85-9.14-5.78-13.71
				c-5.98,2.65-12.22,2.68-16.32,8.61c-4.07,5.88-2.81,13.21,1.97,18.37c8.17,8.81,20.89,7.73,31.72,6.49
				c31-3.54,62.22-4.88,93.41-4.73c6.16,0.03,13.61,1.39,19.46-0.8c7.57-2.84,7.73-10.48,4.68-16.84
				c-5.3-11.02-17.57-16.58-29.25-17.41c-14.04-0.99-27.85,4.54-41.61,6.5c-15.05,2.15-30.29,2.52-45.36,4.52
				c-11.83,1.57-25.28,3.82-31.41,15.44c-6.23,11.82-4.64,28.71-2.5,41.36c0.98,5.8,2.21,12.52,5.15,17.71
				c3.53,6.22,9.23,7.76,15.94,7.88c15.38,0.28,30.76-0.96,46.04-2.57c14.69-1.55,29.34-3.49,44.04-4.93
				c7.66-0.75,15.33-1.38,23.02-1.74c6.45-0.3,14.89,1.04,20.68-2.3c4.93-2.84,5.23-7.34,7.97-11.61c1.45-2.26,4.01-3.6,5.34-6.12
				c1.96-3.74,1.41-7.65,0.7-11.62c-2.53-14.12-6.26-28.4-11.46-41.78c-2.4-6.18-5.47-12.18-10.99-16.13
				c-5.99-4.29-13.19-4.63-20.29-4.27c-17.84,0.9-35.68,2.31-53.48,3.89c-8.57,0.76-17.14,1.59-25.7,2.48
				c-8.03,0.84-16.68,1.04-24.54,2.96c-7.09,1.73-12.48,6.54-14.63,13.54c-2.33,7.55-0.11,15.3-1.11,22.97
				c-0.52,4.02,3.82,7.5,7.5,7.5C540.95,512.92,543.44,509.46,543.96,505.42L543.96,505.42z"/>
		</g>
	</g>
	<g>
		<g>
			<path class="st1" d="M411.18,569.48c11.59,0,23.17,0,34.76,0c3.22,0,3.22-5,0-5c-11.59,0-23.17,0-34.76,0
				C407.97,564.48,407.96,569.48,411.18,569.48L411.18,569.48z"/>
		</g>
	</g>
	<g>
		<g>
			<path class="st1" d="M368.21,547.05c0.19,6.56,0.34,13.13,0.58,19.69c0.21,5.69,1.38,11.41,7.52,13.42
				c4.77,1.57,10.55,1.09,15.5,0.86c6.44-0.3,12.86-0.85,19.3-1.13c25.4-1.14,50.84-0.51,76.22,0.8
				c50.86,2.63,101.61,8.09,152.58,7.95c11.56-0.03,27.21,2.19,36.29-6.62c7.37-7.16,8.74-18.18,9.19-27.92
				c0.33-7.16-8.13-9-12.8-5.3c-7.62,6.04-14.63,12.7-21.05,20c3.93,3.03,7.85,6.06,11.78,9.09c4.45-7.01,6.74-14.65,7.35-22.9
				c0.38-5.08-5.08-8.25-9.49-7.23c-10.7,2.46-18.64,12.95-17.55,23.99c0.64,6.55,7.69,9.79,12.8,5.3
				c5.11-4.48,7.84-11.04,7.48-17.82c-0.22-4.06-3.26-7.49-7.5-7.5c-12.66-0.04-22.15,9.54-23.46,21.79
				c-0.26,2.45,1.59,5.37,3.71,6.48c12.91,6.69,24.24-10.36,13.22-19.87c-5.22-4.51-13.14-3.91-18.18,0.6
				c-4.94,4.42-6.45,11.07-4.68,17.36c1.53,5.42,8.53,7.33,12.54,3.31c5.41-5.42,8.28-15.58-0.19-20.05
				c-7.86-4.15-15.74,3.89-20.3,9.46c-4.36,5.33-1.31,11.99,5.3,12.8c11.85,1.46,18.68-14.05,11.28-22.65
				c-7.63-8.87-23.09-2.93-22.65,8.85c0.12,3.15,2.23,6.53,5.51,7.23c7.75,1.67,16.5,2.35,22.15-4.32c4.99-5.9,4.9-15.5-2.15-19.78
				c-7.11-4.32-16.17-0.8-22.32,3.67c-5.86,4.26-13.57,11.99-9.06,19.8c4.49,7.78,15.31,7.02,21.36,1.86
				c5.61-4.78,9.85-14.35,6.07-21.44c-7.19-13.47-36.58-5.47-38.78,8.5c-1.66,10.53,10.73,13.38,18.65,11.65
				c8.38-1.83,14.58-7.89,17.54-15.76c1.43-3.8-1.61-8.22-5.24-9.23c-11.4-3.15-24.26,0.11-32.24,9.04
				c-3.98,4.45-6.21,11.02-1.35,15.85c4.32,4.3,12.63,5.37,18.25,3.82c11.76-3.23,15.57-19.49,3.96-25.58
				c-10.74-5.64-23.64,2.19-30.5,10.34c-2.95,3.51-3.07,9.36,1.52,11.78c6.15,3.24,13.35,3.84,19.69,0.67
				c6.71-3.35,10.87-10.97,5.9-17.7c-8.81-11.9-29.76-4.77-39.15,2.46c-5.33,4.1-4.5,11.18,1.79,13.71
				c6.09,2.45,14.25,2.17,19.44-2.25c4.81-4.1,5.35-11.15,0.73-15.7c-9.44-9.27-27.47-2.28-37.1,3.09
				c-6.11,3.41-3.89,11.5,1.79,13.71c9.27,3.6,19.61,0.98,26.69-5.77c2.72-2.59,3.09-8.08,0-10.61c-12.33-10.06-29.06-12-43.09-4.12
				c-3.93,2.21-5.23,8.67-1.52,11.78c7.09,5.94,15.61,5.86,22.8,0.18c3.71-2.93,2.44-9.76-1.52-11.78
				c-11.83-6.02-26.15-5.61-37.12,2.19c-4.31,3.07-5.37,10.11,0,12.95c6.93,3.66,16.01,4.04,22.28-1.31
				c5.93-5.06,4.67-13.49-2.15-16.99c-6.2-3.19-15.19-2.35-21.89-1.62c-8.43,0.92-16.24,3.18-24.02,6.5
				c-5.83,2.49-4.26,12.6,1.79,13.71c4.78,0.87,9.27,0.84,13.88-0.85c6.73-2.47,7.5-12.3,0-14.46c-10.53-3.04-21.29-2.24-32.07-1.61
				c-11.89,0.7-23.8,1.18-35.71,1.43c-11.58,0.25-23.17,0.3-34.75,0.13c-10.22-0.15-22.52,1.27-32.16-2.63
				c-0.66,4.91-1.33,9.82-1.99,14.73c18.2-1.37,36.39-2.86,54.6-4.09c9.12-0.62,18.28-1,27.41-0.32c8.76,0.66,17.38,2.35,26,3.96
				c35.92,6.68,72.38,10.23,108.92,9.98c9.15-0.06,17.59-0.85,25.41-6c7.46-4.91,14.4-9.07,23.74-7.58c0-4.82,0-9.64,0-14.46
				c-34.13,4.87-68.84,2.31-102.99-0.92c-34.25-3.24-68.38-6.92-102.83-6.3c-19.9,0.36-39.76,1.7-59.6,3.23
				c-5.84,0.45-9.12,5.98-6.48,11.29c4.38,8.8,4.86,18.56,1.97,27.88c4.57-0.6,9.14-1.19,13.71-1.79c-1.44-2.43-2.89-4.85-4.33-7.28
				c-3.19-5.37-12.21-4.62-13.71,1.79c-2.49,10.61-5.23,27.19,7.82,31.95c5.14,1.88,11.18,1.35,16.57,1.47
				c6.65,0.14,13.31,0.28,19.96,0.42c27.62,0.58,55.23,1.16,82.85,1.74c27.28,0.57,54.57,1.15,81.85,1.72
				c26.64,0.56,53.51,2.11,80.13,0.42c6.2-0.39,12.95-0.46,17.4-5.46c4.44-4.99,4.28-12.63,5.01-18.87
				c1.79-15.35,3.57-30.71,5.36-46.06c0.88-7.56-10.62-9.98-13.98-3.79c-4.52,8.34-8,17.22-10.67,26.32
				c-1.33,4.55-2.48,9.15-3.53,13.77c-0.53,2.31-1.02,4.63-1.51,6.95c-0.43,2.07-1.84,5.54-1.58,7.62c-0.05,0.22-0.1,0.44-0.15,0.66
				c2.71-1.87,3.09-2.71,1.14-2.51c-0.59-0.3-2.28-0.06-2.95-0.08c-2.62-0.07-5.24-0.15-7.87-0.23c-5.57-0.17-11.14-0.36-16.72-0.54
				c-10.81-0.35-21.63-0.67-32.45-0.84c-42.38-0.64-84.92,5.35-127.2,1.13c-23.77-2.37-46.99-3.94-70.89-2.55
				c2.41,3.16,4.82,6.33,7.23,9.49c2.6-7.1,3.71-14.62,3.35-22.18c-0.24-5.13-6.39-10.06-11.29-6.48
				c-6.02,4.41-10.19,9.91-12.18,17.18c-2.6,9.52,11.02,12.78,14.46,3.99c0.44-1.12,0.88-2.25,1.32-3.37
				c1.37-3.51-1.54-8.6-5.24-9.23c-8.93-1.5-17.65,3.09-19.87,12.27c-0.7,2.91,0.39,7.15,3.45,8.47c4.89,2.12,9.85,2.91,14.5-0.24
				c3.77-2.56,5.71-7.56,4.56-11.99c-2.49-9.65-18.16-10.22-19.65,0.34c-0.57,4.03,0.93,8.02,5.24,9.23
				c12.62,3.52,26.82-0.57,35.06-10.93c3.08-3.88,2.88-11.53-3.31-12.54c-8.46-1.37-14.95,2.37-18.19,10.26
				c-1.27,3.1,0.88,6.84,3.45,8.47c8.95,5.67,20.45,4.18,28-3.09c2.8-2.7,2.98-7.94,0-10.61c-3.9-3.49-7.82-4.33-12.89-3.65
				c-3.76,0.51-6.55,5.82-5.24,9.23c2.11,5.47,7.08,9.47,13.25,8.09c5.77-1.3,9.46-7.31,8.27-13.05
				c-3.04-14.67-27.42-5.91-20.18,7.22c3.12,5.65,9.7,5.26,15.25,4.59c6-0.73,13.13-1.74,17.51-6.33
				c4.14-4.34,4.31-11.92-1.26-15.23c-5.64-3.35-13.24,1.41-15.63,6.64c-1.79,3.91-0.93,7.76,2.69,10.26
				c6.63,4.58,15.43,5.32,22.87,2.35c3.54-1.41,6.95-3.55,9.33-6.58c3.41-4.35,2.41-10.16-2.21-13.29
				c-6.91-4.68-17.3-0.01-17.85,8.45c-0.62,9.64,9.45,16.03,18.26,14.08c9.39-2.08,13.93-13.57,6.71-20.69
				c-7.45-7.34-18.64-0.62-18.08,9c1.25,21.66,43.06,10.92,32.89-6.77c-6.05-10.51-22.08-2.22-18.88,8.83
				c1.4,4.84,6.11,8.13,11.04,8.44c5.69,0.35,10.31-2.8,13.95-6.9c2.76-3.11,2.9-7.49,0-10.61c-9.29-9.98-25.91,0.23-22,13.08
				c4.35,14.31,23.21,12.43,29.16,0.64c1.43-2.84,1.4-6.81-1.17-9.09c-3.93-3.48-8.82-6.04-14.23-4.94
				c-4.57,0.93-8.84,4.3-10.14,8.92c-2.91,10.37,7.33,16.12,16.13,16.53c9.51,0.44,19.3-6.5,14.47-16.86
				c-5.15-11.03-17.39-8.72-25.77-3.13c-2.86,1.91-4.26,5.08-3.45,8.47c3.25,13.47,25.84,15.8,33.97,5.87
				c4.88-5.96,3.6-15.64-4.24-18.36c-5.94-2.06-12.89,1.15-15.26,6.94c-2.82,6.87,1.73,14.32,8.37,16.69
				c7.22,2.58,14.63-1.05,18.81-7.1c4.35-6.29,4.55-15.72-3.78-18.75c-7.69-2.79-13.83,2.31-17.3,8.82
				c-1.69,3.18-1.06,6.43,1.17,9.09c2.96,3.52,6.57,5.66,10.83,7.28c8.05,3.07,13.02-9.58,5.78-13.71
				c-14.7-8.38-33.57-7.86-47.43,2.07c-4.34,3.11-5.33,10.05,0,12.95c10.7,5.82,23.23,5.78,33.84-0.26c6-3.41,4-11.56-1.79-13.71
				c-9.06-3.36-18.61-3.7-27.98-1.52c-8.64,2.01-6.08,14.14,1.99,14.73c11.49,0.84,23-0.41,34.07-3.59c6.71-1.92,7.57-13.04,0-14.46
				c-9.13-1.71-18.15-0.32-25.92,4.96c-4.74,3.22-5.12,12.6,1.79,13.71c10.25,1.65,20.39,0.97,30.07-2.94
				c5-2.02,7.72-8.24,3.31-12.54c-5.75-5.6-15.92-5.94-21.11,0.71c-3.53,4.52-2.44,10.55,3.31,12.54c9.79,3.38,20.89,1.85,29.3-4.23
				c4.28-3.1,5.39-10.09,0-12.95c-9.72-5.15-21.35-5.01-30.6,1.18c-5.26,3.53-4.66,11.87,1.79,13.71
				c12.95,3.68,26.12,4.18,39.36,1.96c6.67-1.12,6.88-10.62,1.79-13.71c-9.58-5.82-22.09-5.67-31.25,0.97
				c-5.88,4.26-4.07,13.7,3.79,13.98c13.25,0.47,26.48-1.17,39.23-4.8c8.59-2.45,6.1-13.89-1.99-14.73
				c-3.57-0.37-6.96-0.04-10.48,0.67c-8.28,1.67-6.42,15.07,1.99,14.73c11.73-0.47,23.38-1.75,34.96-3.71
				c8.55-1.45,6.19-14.58-1.99-14.73c-11.42-0.21-22.75,1.51-33.57,5.17c-6.31,2.14-7.91,13.22,0,14.46
				c13.37,2.09,26.76,2.84,40.27,1.88c7.85-0.56,10.87-13.23,1.99-14.73c-6.78-1.15-13.58-1.91-20.45-2.14
				c-4.05-0.14-7.5,3.55-7.5,7.5c0,4.45,3.46,7.02,7.5,7.5c15.81,1.86,31.69,2.43,47.59,1.72c7.95-0.36,10.78-13.53,1.99-14.73
				c-9.11-1.25-17.75-1.17-26.83,0.41c-7.04,1.22-7.28,13.48,0,14.46c13.3,1.8,26.27,1.69,39.53-0.44
				c8.62-1.38,6.13-14.48-1.99-14.73c-13.93-0.43-27.82,1.02-41.39,4.18c-8.73,2.03-5.99,14.02,1.99,14.73
				c17.07,1.52,34.18,1.54,51.25,0.05c3.71-0.32,6.9-2.6,7.37-6.5c0.41-3.41-1.65-7.56-5.37-8.23c-7.48-1.35-14.58-1.36-22.06-0.03
				c-3.2,0.57-5.51,4.17-5.51,7.23c0,3.56,2.41,5.97,5.51,7.23c6,2.45,12.62,2.51,18.71,0.35c5.68-2.01,7.9-10.53,1.79-13.71
				c-2.38-1.24-4.76-2.48-7.14-3.72c-0.6,4.57-1.19,9.14-1.79,13.71c4.68-1.01,9.27-1.34,14.06-1.19c-1.77-4.27-3.54-8.54-5.3-12.8
				c-5.53,4.84-3.08,13.73,3.48,16.2c3.36,1.26,7.08,0.91,10.61,0.9c4.31-0.02,8.62-0.05,12.93-0.07c9.65-0.05,9.67-15.05,0-15
				c-3.32,0.02-6.63,0.04-9.95,0.06c-1.33,0.01-2.65,0.01-3.98,0.02c-0.99,0.01-1.99,0.01-2.98,0.02c-2.12-0.24-1.63,0.68,1.48,2.76
				c0,1.33,0,2.66,0,3.99c-0.33,0.58-0.66,1.16-0.99,1.74c5.13-4.49,0.81-12.61-5.3-12.8c-6.09-0.2-12.09,0.44-18.05,1.72
				c-6.21,1.34-7.41,10.78-1.79,13.71c2.38,1.24,4.76,2.48,7.14,3.72c0.6-4.57,1.19-9.14,1.79-13.71c-3.96,1.4-6.87,1.23-10.74-0.35
				c0,4.82,0,9.64,0,14.46c4.66-0.82,9.43-0.81,14.09,0.03c0.66-4.91,1.33-9.82,1.99-14.73c-17.07,1.49-34.18,1.47-51.25-0.05
				c0.66,4.91,1.33,9.82,1.99,14.73c12.32-2.87,24.76-4.03,37.41-3.65c-0.66-4.91-1.33-9.82-1.99-14.73
				c-10.37,1.66-21.14,1.84-31.56,0.44c0,4.82,0,9.64,0,14.46c6.18-1.07,12.63-1.26,18.85-0.41c0.66-4.91,1.33-9.82,1.99-14.73
				c-15.9,0.71-31.78,0.14-47.59-1.72c0,5,0,10,0,15c5.53,0.19,11,0.68,16.46,1.61c0.66-4.91,1.33-9.82,1.99-14.73
				c-12.11,0.86-24.28,0.53-36.28-1.35c0,4.82,0,9.64,0,14.46c9.66-3.27,19.39-4.82,29.58-4.63c-0.66-4.91-1.33-9.82-1.99-14.73
				c-10.26,1.74-20.58,2.76-30.97,3.18c0.66,4.91,1.33,9.82,1.99,14.73c2.2-0.44,4.27-0.37,6.49-0.14
				c-0.66-4.91-1.33-9.82-1.99-14.73c-11.56,3.29-23.23,4.69-35.24,4.27c1.26,4.66,2.52,9.32,3.79,13.98
				c5.02-3.64,10.72-4.24,16.1-0.97c0.6-4.57,1.19-9.14,1.79-13.71c-10.53,1.77-21.15,0.96-31.39-1.96
				c0.6,4.57,1.19,9.14,1.79,13.71c4.77-3.19,10.28-3.93,15.46-1.18c0-4.32,0-8.63,0-12.95c-5.5,3.97-11.32,4.94-17.74,2.72
				c1.1,4.18,2.21,8.36,3.31,12.54c0.97-1.24,0.08-0.54-0.1-0.71c1.1-4.18,2.21-8.36,3.31-12.54c-7.08,2.86-14.5,4.17-22.1,2.94
				c0.6,4.57,1.19,9.14,1.79,13.71c4.34-2.95,9.1-4.43,14.36-3.44c0-4.82,0-9.64,0-14.46c-9.89,2.83-19.83,3.8-30.08,3.05
				c0.66,4.91,1.33,9.82,1.99,14.73c6.88-1.6,13.42-0.93,20.01,1.52c-0.6-4.57-1.19-9.14-1.79-13.71c-5.91,3.37-12.7,3.52-18.7,0.26
				c0,4.32,0,8.63,0,12.95c9.61-6.88,21.91-7.99,32.29-2.07c1.93-4.57,3.85-9.14,5.78-13.71c-1.83-0.7-2.98-1.96-4.21-3.42
				c0.39,3.03,0.78,6.06,1.17,9.09c0.42-0.85,0.89-1.67,1.4-2.47c-1.52,0.55-2.9,0.15-4.14-1.21c-0.34-1.26-0.68-2.52-1.02-3.79
				c0.15,1.5-1.37,1.78-1.98,2.81c0.12,0,0.22,0.05,0.29,0.14c1.15,1.07,0.8,2.56-1.07,4.49c-2.19,1.84-4.97-5.47-4.5-5.39
				c-1.64-0.27-3.83,0.57-5.61,0.36c-0.77-0.09-1.61-0.49-2.36-0.52c-0.75-0.03,0.06,0.31-0.04-0.09c-1.15,2.82-2.3,5.65-3.45,8.47
				c1.34-0.89,4.7-1.96,5.63-2.99c-0.68-0.04-1.05-0.34-1.1-0.9c2.84-2.99,3.18-4.34,1-4.05c-0.16-0.06-3.85-0.53-4.07-0.45
				c-1.65-0.79-1.79,0.7-0.42,4.47c-0.99,0.23-0.88,0.57,0.32,1.04c-0.39-3.03-0.78-6.06-1.17-9.09c-0.68,1.35-3.47,5.91-4.82,4.46
				c0-3.54,0-7.07,0-10.61c-0.69,0.83-1.43,1.61-2.23,2.34c0.19,1.33,1,2.36,2.44,3.11c-0.34,1.26-0.68,2.52-1.02,3.79
				c-0.43,0.26-0.86,0.52-1.29,0.78c-1.33,0-2.66,0-3.99,0c-0.7-0.57-1.4-1.15-2.1-1.72c-0.34-1.26-0.68-2.52-1.02-3.79
				c-0.03-0.53,0.8-1.05,0.18-1.2c-0.76-0.19-2.43,0.67-3.29,0.72c0.06,0-2.06-0.01-1.96-0.08c-1.03-0.44-1.02,0.01,0.04,1.36
				c1.24,1.64,0.75,3.07-1.47,4.27c-1.33,0-2.66,0-3.99,0c-0.54-0.32-1.08-0.64-1.61-0.96c0-1.33,0-2.66,0-3.99
				c0.08-0.47,1.88-0.58,0.46-0.58c-0.02-0.05-0.05-0.09-0.07-0.14c-0.93,6.34-3.2,7.09-6.83,2.23c0.64-2.43,1.29-4.86,1.93-7.3
				c-3.76,4.44-9.23,5.2-14.02,1.89c0.9,3.42,1.79,6.84,2.69,10.26c-0.37-0.08-0.74-0.16-1.1-0.23c-1.77-0.73-3.54-1.46-5.3-2.2
				c0.2,0.25,0.4,0.51,0.6,0.76c-0.73-1.77-1.46-3.54-2.2-5.3c0.33-0.76,0.65-1.52,0.98-2.28c-0.36,0.1-0.73,0.19-1.09,0.29
				c-1.12-0.27-3.5,0.9-4.63,1.11c-1.22,0.23-2.43,0.39-3.67,0.49c-0.63,0.06-1.27,0.1-1.9,0.11c-2.15-0.09-1.4,0.56,2.24,1.97
				c0.34,1.26,0.68,2.52,1.02,3.79c0.04-0.35,0.09-0.71,0.13-1.06c-0.34,1.26-0.68,2.52-1.02,3.79c-2.71,1.28-2.93,1.89-0.64,1.83
				c-2.16-1.24-4.32-2.48-6.48-3.71c2.45-0.94,4.91-1.88,7.36-2.82c-1.75,3.08-3.49,6.15-5.24,9.23c-0.57-0.07-1.14-0.14-1.7-0.21
				c0-3.54,0-7.07,0-10.61c-2.84,2.74-6.57,2.81-9.83,0.74c1.15,2.82,2.3,5.65,3.45,8.47c-0.12,0.28,0.35,0.32-0.26,0.22
				c-1.1-4.18-2.21-8.36-3.31-12.54c-5.04,6.34-12.53,9.28-20.47,7.07c1.75,3.08,3.49,6.15,5.24,9.23
				c-0.86,0.92-1.72,1.85-2.58,2.77c-1.33,0-2.66,0-3.99,0c0.09-2.61,0.17-5.21,0.26-7.82c1.15,2.82,2.3,5.65,3.45,8.47
				c0.2-0.81,0.9-1.88,1.42-1.79c-1.75-3.08-3.49-6.15-5.24-9.23c-0.44,1.12-0.88,2.25-1.32,3.37c4.82,1.33,9.64,2.66,14.46,3.99
				c0.89-3.26,2.5-6.17,5.28-8.22c-3.76-2.16-7.52-4.32-11.29-6.48c0.3,6.38-0.62,12.19-2.82,18.19c-1.63,4.44,2.63,9.76,7.23,9.49
				c22.22-1.3,43.96-0.29,66.06,2.05c22.03,2.32,43.83,2.24,65.93,1.09c22.05-1.15,44.02-2.05,66.1-1.72
				c11.15,0.17,22.29,0.51,33.43,0.87c5.24,0.17,10.49,0.34,15.73,0.51c5.18,0.16,11.36,1.26,16.43-0.14
				c5.3-1.47,7.35-6.21,8.38-11.11c1.15-5.51,2.27-11.03,3.6-16.51c2.71-11.16,6.19-22.05,11.67-32.17
				c-4.66-1.26-9.32-2.52-13.98-3.79c-1.37,11.76-2.73,23.52-4.1,35.28c-0.68,5.84-1,11.86-2.05,17.64
				c-0.12,0.66-0.24,1.72-0.52,2.23c0.7-1.27,0.71-0.16-0.58-0.18c-2.77-0.06-5.62,0.44-8.39,0.58
				c-23.37,1.24-46.88,0.06-70.26-0.44c-47.91-1.01-95.83-2.02-143.74-3.03c-13.31-0.28-26.62-0.56-39.93-0.84
				c-3.66-0.08-7.32-0.15-10.98-0.23c-1.49-0.03-6.78,0.64-8.02-0.34c-2.13-1.67,0.53-11.64,1.09-14.04
				c-4.57,0.6-9.14,1.19-13.71,1.79c1.44,2.43,2.89,4.85,4.33,7.28c3.37,5.66,11.81,4.33,13.71-1.79
				c4.11-13.25,2.68-27.09-3.48-39.44c-2.16,3.76-4.32,7.52-6.48,11.29c35.1-2.71,70.16-4.43,105.34-2.08
				c34.84,2.33,69.49,7.31,104.41,8.48c19.98,0.67,39.86-0.13,59.66-2.95c7.21-1.03,7.11-13.33,0-14.46
				c-8.14-1.3-16.1-0.82-23.78,2.35c-6.98,2.89-12.58,9.2-20.19,10.31c-8.62,1.26-17.95,0.43-26.63,0.21
				c-9.05-0.23-18.09-0.68-27.12-1.35c-18.68-1.39-37.27-3.74-55.71-7.08c-17.87-3.23-35.29-6.3-53.54-5.52
				c-21.05,0.9-42.1,2.99-63.11,4.58c-8.75,0.66-9.79,11.57-1.99,14.73c9.52,3.86,21.1,2.89,31.19,3.08
				c11.91,0.23,23.83,0.24,35.74,0.03c11.58-0.2,23.16-0.61,34.73-1.23c10.94-0.59,22.34-2.29,33.04,0.79c0-4.82,0-9.64,0-14.46
				c-2.02,0.74-3.75,1.24-5.91,0.85c0.6,4.57,1.19,9.14,1.79,13.71c5.19-2.21,10.86-3.74,16.45-4.45c2.61-0.33,5.25-0.45,7.87-0.45
				c1.46,0,2.92,0.03,4.38,0.13c0.58,0.04,1.17,0.09,1.75,0.13c1.28,0.35,1.27,0.1-0.03-0.76c-0.34-1.26-0.68-2.52-1.02-3.79
				c0,0.35,0,0.69,0,1.04c0.34-1.26,0.68-2.52,1.02-3.79c-0.53,0.93-3.84-0.12-4.65-0.55c0,4.32,0,8.63,0,12.95
				c6.52-4.64,14.68-5.9,21.97-2.19c-0.51-3.93-1.01-7.85-1.52-11.78c-0.3,0.23-1.33,0.05-1.59-0.18
				c-0.51,3.93-1.01,7.85-1.52,11.78c7.72-4.33,17.92-3.93,24.91,1.78c0-3.54,0-7.07,0-10.61c-3.49,3.33-7.74,3.6-12.1,1.91
				c0.6,4.57,1.19,9.14,1.79,13.71c3.82-2.13,7.72-3.65,11.99-4.58c1.93-0.42,3.82-0.6,5.79-0.76c2.12-0.17,1.53,1.11,1-0.04
				c-0.34-1.26-0.68-2.52-1.02-3.79c0.39-0.88,0.78-1.75,1.17-2.63c-0.6,0.2-1.22,0.29-1.85,0.25c-1.28-0.36-2.42-0.5-3.72-1.02
				c0.6,4.57,1.19,9.14,1.79,13.71c3.47-2.67,7.11-4.71,11.38-5.74c2-0.48,4.09-0.8,6.16-0.7c0.76-0.16,1.46-0.08,2.12,0.24
				c0.93,0.56,0.75,0.31-0.52-0.74c0-1.33,0-2.66,0-3.99c0.12-0.65-1.28,0.3-2.28,0.37c-1.2,0.08-2.23-0.22-3.28-0.77
				c0.51,3.93,1.01,7.85,1.52,11.78c1.85-2.19,3.77-4.15,6.23-5.66c1.9-1.16,3.56-1.33,5.47-2.09c0.1-0.04,1.54,0.08,1.47,0.18
				c-0.77,1.26-0.97-2.21-1.02-2.24c-0.05-0.03-2.58,0.02-2.05,0.06c-1.96-0.16-2.86-1.88-1.21,0.6c0.34,1.26,0.68,2.52,1.02,3.79
				c-0.55,1.29-0.31,1.24,0.7-0.15c0.55-0.58,1.15-1.11,1.8-1.58c1.41-1.05,3.01-1.82,4.67-2.39c3.41-1.16,6.77-1.11,10.2-0.16
				c-1.75-3.08-3.49-6.15-5.24-9.23c-0.74,1.96-2.42,3.51-4.26,4.41c-0.94,0.46-2.05,0.81-3.09,0.89c-2.71,0.2-2.17-1.1-0.48,1.36
				c0.34,1.26,0.68,2.52,1.02,3.79c-0.01-0.45-0.03-0.9-0.04-1.35c-0.34,1.26-0.68,2.52-1.02,3.79c1.8-3.68,7.71-5.12,11.47-4.88
				c0.3,0.02,2.1,0.41,2.2,0.33c-1.33-2.73-2.16-3.4-2.48-2.01c-0.08,0.27-0.17,0.54-0.29,0.8c-0.35,0.34-1.41,1.82-1.59,2.4
				c-0.22,0.17-0.45,0.34-0.67,0.5c0.72,0.71,1.46,1.41,2.2,2.1c0,1.33,0,2.66,0,3.99c0.95-3.88,6.6-5.28,9.37-7.09
				c1.44-0.95,2.26,0.94,0.49-1.68c-0.89-1.32-0.86-1.29-1.19-1.45c-0.39-0.18-2.01,0.2-2.5,0.18c-1.39-0.06-2.78-0.43-4.14-0.72
				c1.84,2.41,3.67,4.82,5.51,7.23c0.13,3.39-3.84,0.2-4.13,0.02c-0.08-0.05,0.27-1.25,0.5-1.22c1.77,4.27,3.54,8.54,5.3,12.8
				c1.53-1.86,4.37-5.83,6.87-6.55c-1.33,0-2.66,0-3.99,0c-0.61-5.15-1.81-6.5-3.6-4.08c4.18,1.1,8.36,2.21,12.54,3.31
				c-0.33-1.18,0.1-1.08,0.07-2.17c-0.01,0.01-0.02,0.02-0.03,0.03c-3.08-0.57-2.18-2.21,2.71-4.91c1.24,2.16,2.48,4.32,3.71,6.48
				c0.45-4.15,4.62-6.81,8.46-6.79c-2.5-2.5-5-5-7.5-7.5c0.17,3.2-0.67,5.1-3.08,7.21c4.27,1.77,8.54,3.54,12.8,5.3
				c-0.46-4.72,1.8-8.43,6.54-9.53c-3.16-2.41-6.33-4.82-9.49-7.23c-0.41,5.6-2.31,10.61-5.3,15.33c-4.5,7.1,6.11,15.55,11.78,9.09
				c6.42-7.31,13.43-13.97,21.05-20c-4.27-1.77-8.54-3.54-12.8-5.3c-0.25,5.41-0.35,14.7-5.67,17.94
				c-3.53,2.15-9.15,1.38-13.07,1.46c-5.54,0.11-11.09,0.15-16.63,0.13c-22.52-0.09-45.03-1.23-67.5-2.68
				c-44.93-2.89-89.85-7.04-134.92-6.63c-12.36,0.11-24.67,0.69-37,1.48c-3.15,0.2-6.31,0.39-9.47,0.37c-0.14,0-3.42-0.36-3.78-0.12
				c-1.5-0.28-1.42,0.16,0.25,1.32c1.3,1.99,1.7,1.79,1.19-0.62c0.69-2.73-0.21-7.04-0.29-9.84c-0.1-3.28-0.19-6.56-0.29-9.84
				C382.93,537.42,367.92,537.38,368.21,547.05L368.21,547.05z"/>
		</g>
	</g>
	<g>
		<g>
			<path class="st1" d="M382.22,601.17c0-0.19,0-0.38,0-0.57c0-1.92-0.84-3.94-2.2-5.3c-0.68-0.73-1.48-1.25-2.41-1.55
				c-0.89-0.47-1.86-0.68-2.89-0.65c-1.94,0.09-3.95,0.72-5.3,2.2c-1.35,1.47-2.2,3.27-2.2,5.3c0,0.19,0,0.38,0,0.57
				c0,1.92,0.84,3.94,2.2,5.3c0.68,0.73,1.48,1.25,2.41,1.55c0.89,0.47,1.86,0.68,2.89,0.65c1.94-0.09,3.95-0.72,5.3-2.2
				C381.37,605,382.22,603.2,382.22,601.17L382.22,601.17z"/>
		</g>
	</g>
	<g>
		<g>
			<path class="st1" d="M366.95,601.37c0.05,9.72,1.33,20.33,9.82,26.45c8.32,5.99,20.87,7.01,30.75,8.07
				c23.51,2.54,47.73,0.59,71.29-0.51c24.03-1.12,47.99-3.42,72.02-4.61c25.09-1.24,50.23-1.61,75.35-1.11
				c6.61,0.13,13.22,0.33,19.83,0.58c5.6,0.22,11.29,0.75,16.81-0.54c5.1-1.19,9.63-4.3,12.04-9.02c2.38-4.65,0.87-10.8,3.8-14.96
				c-4.66-1.26-9.32-2.52-13.98-3.79c-0.23,4.59-0.73,9.09-1.68,13.59c-0.48,2.28-0.95,4.7-1.74,6.89
				c-0.08,0.23-0.21,0.93-0.43,1.15c1.08-1.08-0.61-0.12-1.37-0.06c-9.93,0.83-19.71,2.05-29.7,2.29
				c-20.52,0.49-41.03-0.91-61.5-2.07c-20.08-1.14-40.04-1.51-60.14-1.12c-19.86,0.38-39.68-0.26-59.35-3.25
				c-22.29-3.38-44.33-9.52-67.06-8.8c0.66,4.91,1.33,9.82,1.99,14.73c27.58-4.9,56.35-0.35,84.14,0.17
				c28.74,0.54,57.48-0.36,86.2-1.26c0-5,0-10,0-15c-21.3,2.69-42.81,5.36-64.31,3.95c-5.09-0.33-10.15-0.9-15.16-1.83
				c-2.69-0.5-5.36-1.08-8.01-1.75c-1.71-0.44-5.37-2.33-7.03-2.03c-0.31-0.1-0.61-0.21-0.92-0.31c0.14,1.54,0.33,1.73,0.57,0.57
				c0.52-0.49,0.96-2.39,1.26-3.06c1.18-2.72,2.37-5.43,3.55-8.14c2.37-5.43,4.74-10.86,7.1-16.29c-4.66-1.26-9.32-2.52-13.98-3.79
				c-0.79,7.31-0.39,14.43,0.77,21.68c4.18-2.43,8.36-4.86,12.54-7.3c-5.48-5.54-12.38-10.07-20.45-7.27
				c-8.02,2.79-10.23,11.76-7.61,19.13c5.26,14.78,23.05,18.6,36.81,19.54c18.34,1.26,36.7-2.55,54.95-3.81
				c19.02-1.31,38.1-1.2,57.12,0.19c4.04,0.3,7.5-3.66,7.5-7.5c0-4.48-3.46-6.98-7.5-7.5c-15.53-2-31.09-3.86-46.75-2.31
				c-5.21,0.51-9.93,6.12-6.48,11.29c5.34,7.98,13.8,10.03,22.86,10.94c10.96,1.09,22.01,1.09,33.02,0.91
				c21.87-0.36,43.99-1.6,65.49,3.24c5,1.12,11.5-3.55,9.23-9.23c-1.33-3.32-2.66-6.64-4-9.96c-1.5-3.74-5.01-6.42-9.23-5.24
				c-3.56,1-6.76,5.43-5.24,9.23c1.33,3.32,2.66,6.64,4,9.96c3.08-3.08,6.15-6.15,9.23-9.23c-19.74-4.44-39.9-4.38-60.02-3.96
				c-10.08,0.21-20.17,0.46-30.26,0.08c-4.62-0.17-9.34-0.32-13.91-0.97c-2.68-0.39-6.58-0.88-8.22-3.34
				c-2.16,3.76-4.32,7.52-6.48,11.29c15.66-1.54,31.22,0.32,46.75,2.31c0-5,0-10,0-15c-27.95-2.04-55.51-0.65-83.32,2.39
				c-12.82,1.4-26.45,2.86-39.13-0.32c-3.91-0.98-8.65-2.57-11.19-5.94c-0.45-0.6-0.68-1.38-1.11-1.96
				c-0.17-0.42-0.27-0.87-0.32-1.33c-0.35,0.39-0.7,0.78-1.05,1.17c0.22,0.39,3.85,2.97,4.68,3.81c5.7,5.76,13.65-0.34,12.54-7.3
				c-0.94-5.86-0.87-11.8-0.24-17.69c0.78-7.22-11.05-10.49-13.98-3.79c-2.89,6.63-5.79,13.27-8.68,19.9
				c-2.39,5.47-6.26,11.63-5.41,17.82c1.74,12.74,20.98,14.54,31.01,16.07c26.32,4,52.76,0.98,78.97-2.34
				c4.02-0.51,7.5-3.08,7.5-7.5c0-3.97-3.43-7.63-7.5-7.5c-29.38,0.92-58.78,1.84-88.18,1.22c-28.68-0.6-57.66-4.65-86.15,0.41
				c-8.36,1.48-6.37,15,1.99,14.73c21.41-0.68,42.07,5.07,63.07,8.26c21.36,3.24,42.72,4.19,64.29,3.76
				c21.75-0.43,43.34,0.22,65.06,1.48c21.75,1.26,43.57,2.57,65.36,1.35c6.16-0.34,12.3-0.89,18.42-1.68
				c5.11-0.66,10.24-1.1,14-5.06c3.29-3.48,4.37-8.74,5.37-13.25c1.34-6.07,2.1-12.28,2.41-18.48c0.4-8.01-10.03-9.41-13.98-3.79
				c-2.5,3.56-2.99,7.51-3.48,11.72c-0.44,3.86-0.67,5.11-4.77,5.59c-4.39,0.51-9.03-0.13-13.43-0.29
				c-5.62-0.21-11.23-0.37-16.85-0.49c-22.14-0.47-44.3-0.26-66.43,0.64c-43.39,1.75-86.61,6.42-130.08,6.59
				c-11.66,0.05-23.38-0.44-34.8-2.95c-3.6-0.79-9.18-1.37-11.63-4.52c-2.64-3.39-2.26-9.07-2.28-13.07
				C381.9,591.72,366.9,591.7,366.95,601.37L366.95,601.37z"/>
		</g>
	</g>
	<g>
		<g>
			<path class="st1" d="M690.6,553.2c2.78-1.89,6.73-4.16,10.1-2.27c3.43,1.93,2.45,7.2,2.44,10.52
				c-0.04,10.62-0.77,21.23-1.82,31.8c-0.51,5.13-1.09,10.25-1.7,15.37c-0.31,2.56-0.62,5.12-0.93,7.68
				c-0.05,0.42-0.61,2.57-0.43,2.93c-0.32,0.93-0.16,0.92,0.48-0.04c0.88-0.66,0.88-0.88-0.02-0.68c-1.14-0.75-5.91,0.26-7.35,0.31
				c-2.55,0.11-5.1,0.21-7.66,0.32c-5.42,0.22-10.85,0.45-16.27,0.67c2.41,3.16,4.82,6.33,7.23,9.49
				c4.95-12.64,9.01-25.6,12.03-38.84c1.51-6.61,2.77-13.29,3.77-19.99c0.9-6.05,1.1-12.7,4-18.21c-4.57-0.6-9.14-1.19-13.71-1.79
				c4.48,22.64-5.78,45.27-10.04,67.16c-0.78,4.02,1.1,8.02,5.24,9.23c7.3,2.12,14.57-0.88,19.1-6.8c4.53-5.93,5.87-13.86,7.2-21.02
				c3.08-16.63,3.91-33.55,4.66-50.41c-5,0-10,0-15,0c-0.54,12.56-1.08,25.12-1.63,37.69c-0.5,11.59,0.13,23.88-3.9,34.92
				c4.91,0.66,9.82,1.33,14.73,1.99c0.81-12.17,1.62-24.34,2.42-36.51c0.35-5.21,1.14-10.98-2.96-15.01
				c-4.21-4.13-9.71-3.42-13.99-0.01c-3.19,2.55-2.61,7.94,0,10.61c3.09,3.16,7.46,2.51,10.61,0c0.27-0.22,0.54-0.43,0.82-0.65
				c-1.77,0.73-3.54,1.46-5.3,2.2c-2.64-4.31-3.91-5.25-3.81-2.83c-0.03,0.91-0.08,1.83-0.16,2.74c-0.12,1.97-0.26,3.95-0.39,5.92
				c-0.24,3.62-0.48,7.24-0.72,10.85c-0.5,7.56-1,15.13-1.51,22.69c-0.59,8.94,12,9.48,14.73,1.99c4.26-11.68,3.82-24.67,4.35-36.92
				c0.57-13.22,1.14-26.45,1.71-39.67c0.42-9.65-14.58-9.63-15,0c-0.3,6.92-2.38,66.55-11.97,63.76c1.75,3.08,3.49,6.15,5.24,9.23
				c4.86-25,15.16-49.28,10.04-75.14c-1.25-6.3-10.8-7.31-13.71-1.79c-3.23,6.12-4.2,12.43-5.14,19.2
				c-0.97,6.97-2.22,13.91-3.73,20.78c-3.06,13.86-7.26,27.43-12.44,40.65c-1.76,4.49,2.73,9.68,7.23,9.49
				c7.66-0.32,15.31-0.63,22.97-0.95c5.93-0.25,13.08,0.45,17.96-3.55c5.45-4.47,5.13-12.39,5.91-18.81
				c0.89-7.36,1.74-14.72,2.41-22.1c0.67-7.37,1.17-14.76,1.37-22.16c0.18-6.66,0.92-14.3-1.84-20.55
				c-5.86-13.27-22.5-13.7-33.18-6.44C675.09,545.65,682.59,558.65,690.6,553.2L690.6,553.2z"/>
		</g>
	</g>
	<g>
		<g>
			<path class="st1" d="M383.21,520.03c-8.08-3.8-16.43-7.4-25.54-6.01c-7.43,1.13-13.96,5.44-16.98,12.48
				c-3.23,7.55-1.91,15.96-0.77,23.81c1.31,9.09,3.4,18,6.17,26.75c2.41,7.61,15.87,6.78,14.73-1.99
				c-1.68-12.92-4.35-29.79,4.52-40.83c-4.27-1.77-8.54-3.54-12.8-5.3c1.89,16.79,3.79,33.57,5.68,50.36
				c0.42,3.71,2.53,6.89,6.5,7.37c3.43,0.41,7.53-1.65,8.23-5.37c2.94-15.51,3.45-31.72,0.13-47.24
				c-3.39-15.84-22.01-17.02-31.49-5.69c-9.79,11.71-6.23,28.79-4.22,42.55c2.26,15.48,5.28,31.31,1.14,46.74
				c4.91,0.66,9.82,1.33,14.73,1.99c-2.72-21.41-3.39-42.97-2-64.5c-4.91,0.66-9.82,1.33-14.73,1.99
				c3.3,21.18,5.62,42.48,7.02,63.87c0.24,3.6,2.22,5.99,5.51,7.23c11.72,4.44,29.2,5.05,29.57-11.36
				c0.31-13.64-3.85-27.3-11.1-38.78c-3.45-5.46-11.84-4.5-13.71,1.79c-4.32,14.57-2.66,29.83,4.26,43.3
				c3.18,6.18,11.67,3.85,13.71-1.79c3.46-9.56,4.01-20.05,1.54-29.93c-1.13-4.51-2.96-9.56-7.19-12.07
				c-4.77-2.83-10.68-1.22-13.7,3.31c-11.14,16.69-0.43,39.95,16.83,46.87c10,4.01,20.93,2.07,30.95-0.87
				c4.76-1.4,8.54-3.75,9.54-8.94c1.02-5.28-1.7-11.73-3.03-16.83c-1.29-4.96-2.68-9.89-4.15-14.8c-1.49-4.98-2.66-10.6-5.15-15.2
				c-5.61-10.35-16.73-7.89-23.77-0.59c-5.97,6.19-10.97,15.6-10.56,24.42c0.51,10.88,10.6,16.36,20.46,12.98
				c15.99-5.49,25.66-29.74,12.08-42.48c-6.99-6.55-17.99-4.72-22.62,3.63c-4.69,8.46-0.63,18.54,7.6,22.91
				c16.48,8.76,39.6-6.67,43.35-23.55c2.36-10.62-4.08-22.19-16.23-17.78c-9.34,3.39-16.54,14.96-16.22,24.75
				c0.35,10.89,9.65,18.07,19.67,20.03c11.58,2.27,23.41-0.01,33.69-5.63c8.47-4.63,0.91-17.59-7.57-12.95
				c-6.4,3.5-13.72,5.21-21.02,4.29c-4.93-0.62-11.34-2.85-9.31-8.93c0.45-1.36,1.23-2.65,2.06-3.82c0.69-0.98,2.6-2.27,3-3.24
				c0.28-0.17,0.57-0.33,0.86-0.47c-2.61-3.31-3.72-3.66-3.33-1.04c-0.41,1.08-0.37,2.38-0.85,3.5c-2.26,5.3-7.9,9.48-13.18,11.39
				c-2.43,0.88-5.62,1.68-7.98,0.18c-0.66-0.42-1.39-1.34-1.67-1.61c0.1,0.1,0.05-1.02,0.15-0.85c-1.03-0.28-1.29-0.26-0.78,0.05
				c0.27,0.17,0.48,0.39,0.64,0.68c0.25,0.85,0.84,1.58,1.02,2.49c0.55,2.71-0.44,5.92-1.72,8.26c-1.16,2.13-2.84,4.03-4.95,5.25
				c-0.93,0.54-1.75,0.91-2.8,1.07c-0.16,0.37,0.05,0.67,0.63,0.9c-0.07-0.74-0.03-1.47,0.11-2.19c0.5-3.45,5.01-14.33,9.35-13.77
				c-1.26-0.34-2.52-0.68-3.79-1.02c1.01,0.47,2.02,4.83,2.65,6.83c1.15,3.66,2.25,7.35,3.31,11.04c2.07,7.25,4.35,14.66,5.56,22.11
				c0-1.33,0-2.66,0-3.99c0.36-1.83,3.35-1.72,0.03-1.28c-1.5,0.2-3.1,0.84-4.59,1.2c-2.72,0.64-5.43,1.17-8.24,1.23
				c-4.39,0.09-8.69-1.02-12.22-3.73c-3.19-2.45-5.52-5.92-6.49-9.82c-0.54-2.16-0.73-4.38-0.5-6.6c0.12-1.17,0.56-2.27,0.74-3.42
				c0.11-0.45,0.26-0.89,0.44-1.32c0.53-1.09,0.09-0.89-1.3,0.6c-1.33,0-2.66,0-3.99,0c-1.63-0.64-1.08-1.21-1.01,0.35
				c0.05,1.03,0.66,2.26,0.89,3.29c0.55,2.41,0.79,4.81,0.81,7.29c0.05,4.82-0.92,9.32-2.56,13.84c4.57-0.6,9.14-1.19,13.71-1.79
				c-5.1-9.93-5.91-21.08-2.75-31.74c-4.57,0.6-9.14,1.19-13.71,1.79c4.41,6.98,7.45,14.57,8.59,22.78c0.27,1.94,0.4,3.89,0.45,5.85
				c0.03,1.15,0.03,2.29-0.01,3.44c2.04-1.31,2.55-1.9,1.54-1.78c0.18,0.64-11.23-1.86-12.11-2.19c1.84,2.41,3.67,4.82,5.51,7.23
				c-1.49-22.72-4.05-45.35-7.56-67.85c-1.37-8.78-14.22-5.95-14.73,1.99c-1.39,21.53-0.72,43.09,2,64.5
				c0.99,7.82,12.35,10.85,14.73,1.99c6.42-23.9-2.06-46.89-2.82-70.81c-0.15-4.59-0.04-10.05,3.5-13.47
				c0.86-0.83,3.02-2.56,4.31-1.77c0.73,0.45,0.97,4.07,1.12,4.98c2.03,12.1,1.69,24.7-0.59,36.73c4.91,0.66,9.82,1.33,14.73,1.99
				c-1.89-16.79-3.79-33.57-5.68-50.36c-0.63-5.6-8.26-10.96-12.8-5.3c-11.95,14.89-11.25,33.46-8.91,51.44
				c4.91-0.66,9.82-1.33,14.73-1.99c-3.57-11.28-6.93-23.66-6.91-35.58c0.02-13.35,14.35-8.1,22-4.51
				C384.32,537.06,391.95,524.13,383.21,520.03L383.21,520.03z"/>
		</g>
	</g>
	<g>
		<g>
			<path d="M367.58,459.92c-9.63-3.75-10.01,15.14-10.12,20.22c-0.25,11.92,2.43,23.57,7.42,34.37c0.94-1.22,1.88-2.45,2.82-3.67
				c-12.14-3.75-23.98,4.63-28.87,15.49c-6.31,14.01-4.66,31.52-4.66,46.47c0,9.09,0.15,18.18,0.45,27.26
				c0.14,4.22,0.3,8.43,0.5,12.65c0.17,3.64-0.27,8.26,1.35,11.65c2.69,5.65,11.14,5.61,16.37,6.51c9.02,1.55,18.04,3.04,27.11,4.26
				c35.73,4.83,71.69,1.98,107.61,3.23c36.53,1.26,72.98,4.26,109.52,5.18c20.15,0.51,40.33,0.39,60.44-1.02
				c18.48-1.29,37.72-2.72,54.91-10.14c2.95-1.27,0.4-5.58-2.52-4.32c-14.6,6.3-30.88,7.72-46.55,9.02
				c-16.52,1.36-33.11,1.82-49.68,1.73c-32.62-0.18-65.18-2.48-97.74-4.18c-16.29-0.85-32.6-1.55-48.91-1.77
				c-16.48-0.22-32.96,0.53-49.45,0.28c-16.74-0.25-33.35-2.2-49.86-4.83c-7.6-1.21-15.87-1.83-23.25-4.01
				c-4.79-1.41-4.03-5.4-4.24-9.64c-0.21-4.21-0.39-8.43-0.53-12.65c-0.63-18.1-1-36.35-0.1-54.45c0.4-8,1.46-16.66,6.15-23.41
				c4.58-6.6,12.65-10.96,20.64-8.49c2.26,0.7,3.68-1.82,2.82-3.67c-3.49-7.56-5.77-15.66-6.48-23.97
				c-0.2-2.37-0.33-24.78,3.54-23.28C369.25,465.91,370.55,461.08,367.58,459.92L367.58,459.92z"/>
		</g>
	</g>
	<g>
		<g>
			<path d="M356.91,632.04c-0.23-0.25-0.46-0.51-0.69-0.76c-1.4-2.35-5.57-0.82-4.57,1.93c1.39,3.82,2.35,10.38,5.85,12.92
				c3.63,2.63,10.56,1.17,14.72,1.17c4.37,0.01,9.95,0.99,14.02-1.04c4.21-2.1,4.16-7.12,7.65-9.72c2.55-1.9,0.06-6.24-2.52-4.32
				c-2.12,1.58-3.21,3.28-4.42,5.59c-0.68,1.3-1.31,3-2.6,3.84c-1.76,1.15-5.16,0.65-7.16,0.65c-4.15-0.01-8.8,0.53-12.92-0.02
				c-3-0.4-3.79-0.8-5.2-3.26c-1.19-2.08-1.78-4.89-2.6-7.15c-1.52,0.64-3.05,1.28-4.57,1.93c0.76,1.27,1.25,1.74,2.48,2.55
				C357.08,638.13,359.59,633.8,356.91,632.04L356.91,632.04z"/>
		</g>
	</g>
	<g>
		<g>
			<path d="M665.49,640.83c0.54,4.16-1.33,9.32,2.22,12.65c3.55,3.33,10.44,1.03,14.62,0.54c4.38-0.51,10.9-0.01,14.37-3.22
				c3.63-3.37,5.59-9.38,7.22-13.92c1.08-3.04-3.74-4.34-4.82-1.33c-1.05,2.93-2.2,6.01-3.9,8.65c-1.72,2.67-2.92,3.65-6.14,4.04
				c-1.6,0.2-3.21,0.37-4.81,0.56c-2.96,0.34-6.67,1.43-9.62,1.11c-5.82-0.62-3.66-5.26-4.15-9.08
				C670.08,637.68,665.08,637.64,665.49,640.83L665.49,640.83z"/>
		</g>
	</g>
	<g>
		<g>
			<path d="M367.19,464.61c15.3-5.8,32.42-4.98,48.54-5.39c17.02-0.44,34.08-0.58,51.08,0.56c16.97,1.14,33.34,4.23,49.9,7.96
				c16.08,3.62,31.35,3.71,47.69,1.79c16.76-1.97,33.51-3.8,50.34-5.07c14.65-1.11,31.17-3.84,45.64-0.14
				c16.01,4.09,20.72,18.23,22.53,33.07c1.01,8.22,1.82,16.47,2.73,24.7c0.55,5.02-0.09,12.81,4.8,15.94
				c6.31,4.05,14.96,1.13,21.43,4.96c4.91,2.9,4.22,7.98,3.7,12.88c-0.49,4.61-0.99,9.21-1.48,13.82
				c-2.11,19.74-4.23,39.47-6.34,59.21c-0.34,3.2,4.66,3.17,5,0c1.94-18.09,3.88-36.18,5.81-54.28c0.46-4.28,0.92-8.55,1.37-12.83
				c0.46-4.33,1.49-9.06,0.99-13.43c-0.61-5.25-4.13-8.93-8.94-10.85c-2.8-1.12-5.74-1.51-8.71-1.82c-2.23-0.23-4.65-0.19-6.8-0.82
				c-3.88-1.14-4.72-3.16-5.17-6.88c-1.07-8.84-1.94-17.71-2.92-26.56c-1.41-12.8-3.17-27.16-13.9-35.79
				c-10.15-8.17-24.27-8.26-36.64-7.66c-17.75,0.87-35.49,2.34-53.16,4.21c-17.63,1.87-35.68,5.51-53.43,3.2
				c-16.85-2.2-33.13-7.37-50.08-9.32c-19.47-2.24-39.11-2.4-58.68-2.01c-18.56,0.37-38.99-0.96-56.63,5.73
				C362.88,460.92,364.17,465.75,367.19,464.61L367.19,464.61z"/>
		</g>
	</g>
	<g>
		<g>
			<path d="M364.65,514.73c9.89,4.71,7.7,16.73,4.56,25.06c-3.21,8.52-7.4,16.65-6.15,26.02c0.83-0.83,1.67-1.67,2.5-2.5
				c-7.32,0.91-15.38-3.44-22.45-0.49c-5.85,2.44-7.79,9.08-5.25,14.67c2.86,6.31,10.1,8.37,16.43,6.45
				c8.16-2.48,12.41-10.37,14.45-18.09c0.73-2.74-3.1-4.37-4.57-1.93c-0.71,1.18-1.43,2.37-2.14,3.55
				c-1.66,2.76,2.66,5.28,4.32,2.52c0.71-1.18,1.43-2.37,2.14-3.55c-1.52-0.64-3.05-1.28-4.57-1.93c-1.41,5.3-3.77,10.97-8.88,13.71
				c-5.01,2.68-13.11,1.36-13.33-5.53c-0.32-10.13,18.02-3.67,23.85-4.4c1.2-0.15,2.7-1.03,2.5-2.5
				c-1.67-12.53,7.14-22.79,8.7-34.84c1.05-8.07-1.88-16.89-9.59-20.56C364.28,509.04,361.74,513.35,364.65,514.73L364.65,514.73z"
				/>
		</g>
	</g>
	<g>
		<g>
			<path d="M361.55,572.9c0.99,17.35,0.15,34.69-2.62,51.84c-0.51,3.15,4.31,4.5,4.82,1.33c2.84-17.61,3.81-35.36,2.8-53.17
				C366.37,569.7,361.37,569.68,361.55,572.9L361.55,572.9z"/>
		</g>
	</g>
	<g>
		<g>
			<path d="M373.64,536.5c-2.75,15.25,20.07,11.57,28.42,11.24c17.55-0.7,35.09-1.4,52.64-2.1c17.29-0.69,34.64-1.05,51.91-2.09
				c5.56-0.34,11.4-1.19,15.77-4.95c4.59-3.95,6.01-10.02,6.37-15.82c1.11-18.09-2.38-37.23-7.13-54.61
				c-0.85-3.1-5.67-1.78-4.82,1.33c4.56,16.7,7.53,34.39,7.01,51.75c-0.28,9.31-4.03,15.69-13.76,16.99
				c-8.4,1.12-17.11,0.88-25.57,1.22c-17.88,0.71-35.75,1.43-53.63,2.14c-8.61,0.34-17.21,0.69-25.82,1.03
				c-4.43,0.18-28.1,3.67-26.58-4.79C379.03,534.68,374.21,533.33,373.64,536.5L373.64,536.5z"/>
		</g>
	</g>
	<g>
		<g>
			<path d="M526.82,522.75c-2.11,11.62,8.46,18.79,18.83,19.79c7.54,0.73,15.29-0.28,22.85-0.47c7.75-0.2,15.5-0.21,23.25-0.04
				c15.47,0.35,30.82,1.66,46.21,3.23c15.45,1.58,30.67,2.26,45.76-2.06c3.09-0.88,1.77-5.71-1.33-4.82
				c-25.55,7.32-53.03,0.28-79.02-0.94c-12.9-0.61-25.83-0.69-38.74-0.25c-6.43,0.22-13.08,1.1-19.49,0.28
				c-6.68-0.86-14.95-5.38-13.49-13.38C532.22,520.93,527.4,519.58,526.82,522.75L526.82,522.75z"/>
		</g>
	</g>
	<g>
		<g>
			<path d="M685.8,538.72c-6.12,15.89-7.93,32.71-5.63,49.56c0.24,1.78,3.09,2.5,4.18,1.1c3.25-4.15,7.46-8.06,12.86-8.96
				c5.9-0.98,13.99,3.23,12.62,10.18c-1.19,6.01-8.08,9.26-13.65,7.84c-5.64-1.44-9.53-6.17-11.85-11.25
				c-1.1-2.4-4.56-1.01-4.66,1.26c-0.62,15.08-1.25,30.16-1.87,45.24c-0.13,3.22,4.87,3.21,5,0c0.62-15.08,1.25-30.16,1.87-45.24
				c-1.55,0.42-3.11,0.84-4.66,1.26c3.33,7.28,9.89,13.55,18.21,14.09c7.73,0.51,15.64-5.36,16.63-13.19
				c0.94-7.5-5.23-13.55-12.19-15.01c-8.72-1.82-16.73,3.69-21.85,10.24c1.39,0.37,2.79,0.74,4.18,1.1
				c-2.17-15.93-0.14-31.92,5.63-46.9C691.78,537.05,686.95,535.75,685.8,538.72L685.8,538.72z"/>
		</g>
	</g>
	<g>
		<g>
			<path d="M368.57,567.32c79.56,7.14,159.44,10.66,239.32,10.48c22.45-0.05,44.89-0.41,67.33-1.03c3.21-0.09,3.22-5.09,0-5
				c-79.85,2.23-159.79,0.83-239.51-4.27c-22.4-1.43-44.78-3.17-67.13-5.17C365.36,562.04,365.38,567.04,368.57,567.32
				L368.57,567.32z"/>
		</g>
	</g>
	<g>
		<g>
			<path d="M368.34,607.18c3.22,0,3.22-5,0-5C365.12,602.18,365.12,607.18,368.34,607.18L368.34,607.18z"/>
		</g>
	</g>
	<g>
		<g>
			<path d="M368.79,606.28c19.29-4.33,39.04-4.97,58.74-4.81c20.05,0.16,40.11,0.73,60.14,1.5c40.34,1.55,80.63,4.19,120.83,7.9
				c23.06,2.13,46.09,4.63,69.08,7.46c3.19,0.39,3.16-4.61,0-5c-81.38-10.03-163.31-15.75-245.3-16.81
				c-21.72-0.28-43.53,0.15-64.82,4.94C364.32,602.16,365.65,606.98,368.79,606.28L368.79,606.28z"/>
		</g>
	</g>
</g>
<g id="Layer_2">
</g>
</svg>
