<?xml version="1.0" encoding="utf-8"?>
<!-- Generator: Adobe Illustrator 23.0.1, SVG Export Plug-In . SVG Version: 6.00 Build 0)  -->
<svg version="1.1" id="Layer_1" xmlns="http://www.w3.org/2000/svg" xmlns:xlink="http://www.w3.org/1999/xlink" x="0px" y="0px"
	 viewBox="0 0 1000 1000" style="enable-background:new 0 0 1000 1000;" xml:space="preserve">
<style type="text/css">
	.st0{fill:#C30D23;}
	.st1{fill:#181818;}
	.st2{fill:#FFFFFF;}
</style>
<g>
	<g>
		<g>
			<path class="st0" d="M459.36,508.12c-0.93-8.55-4.05-15.85-10.12-22.04c-1.1,4.18-2.21,8.36-3.31,12.54
				c6.98-2.59,13.32-6.39,20.13-9.33c6.54-2.83,13.64-3.92,20.62-5.09c12.8-2.16,26.58-5.48,34.99-16.23
				c8.3-10.61,8.66-24.78-0.71-34.83c-4.32-4.63-9.81-7.93-14.06-12.68c-4.74-5.28-8.34-11.5-11.98-17.56
				c-3.61-6.01-14.61-3.94-13.98,3.79c1.1,13.37,10.24,23.37,22.47,28.19c6.71,2.64,14.24,3.25,21.38,2.81
				c3.77-0.23,7.54-0.76,11.27-1.35c1.85-0.29,3.7-0.63,5.54-0.97c0.91-0.17,1.86-0.28,2.75-0.52c1.73-0.47-0.06-0.77,0.23-0.25
				c2.91,5.25,0.83,12.22-0.53,17.63c-1.91,7.57-4.83,12.23-11.55,16.35c-12.74,7.81-27.68,11.15-41.33,16.97
				c-8.16,3.48-16.06,7.51-23.94,11.57c-3.81,1.96-7.61,3.93-11.45,5.83c-1.92,0.95-3.84,1.88-5.78,2.79
				c-0.83,0.39-1.66,0.77-2.5,1.15c-0.75,0.34-3.11,0.79-1.89,1.25c1.49,1.15,2.99,2.3,4.48,3.45c-0.95-1.49-0.62-5.61-0.78-7.26
				c-0.28-2.85-0.57-5.69-0.85-8.54c-2.5,2.5-5,5-7.5,7.5c25.4,0.38,48.79-9.83,71.49-20.07c3.72-1.68,4.54-7.01,2.69-10.26
				c-2.2-3.87-6.56-4.28-10.26-2.69c-14.14,6.08-28.28,12.16-42.42,18.23c-7.76,3.34-2.23,16.48,5.78,13.71
				c18.92-6.55,37.84-13.11,56.75-19.66c-1.93-4.57-3.85-9.14-5.78-13.71c-2.29,0.98-4.88,1.61-7.35,1.86
				c1.77,4.27,3.54,8.54,5.3,12.8c3.7-3.91,7.39-7.82,11.09-11.73c5.41-5.73-0.11-13.83-7.3-12.54c-6.02,1.08-8.93,5.93-9.63,11.59
				c-0.62,5.04,5.27,8.29,9.49,7.23c6.72-1.68,12.62-5.07,17.53-9.94c6.92-6.86-3.41-16.93-10.61-10.61
				c-4.87,4.28-8.09,9.41-10.57,15.34c-1.26,3.01,0.84,6.95,3.45,8.47c3.09,1.81,6.45,0.93,9.09-1.17
				c8.85-7.06,13.65-18.82,12.15-30.06c-0.87-6.53-7.51-9.78-12.8-5.3c-4.04,3.41-7.33,7.77-7.04,13.32
				c0.31,5.76,4.89,10.98,10.84,11.11c11.25,0.24,17.22-14.1,15.15-23.48c-2.99-13.55-20.49-13.12-23.87,0.05
				c-1.09,4.27-0.84,9.58,1.5,13.41c3.16,5.18,9.84,6.7,14.89,3.36c9.11-6.03,11.29-22.45,1.21-28.58
				c-10.31-6.27-24,5.1-18.56,16.34c4.31,8.9,18.05,9.95,22.96,0.96c5.63-10.3-5.74-23.36-16.44-17.01
				c-4.79,2.84-7.32,8.8-5.52,14.12c2.2,6.51,9.85,9.27,16.08,7.23c5.63-1.84,9.12-7.1,11.03-12.41c1.14-3.16,1.6-6.6,1.63-9.95
				c0.02-1.78-0.53-4.71,0.31-5.4c-3.93-0.51-7.85-1.01-11.78-1.52c4.5,6.8,9.15,13.53,13.51,20.43c1.69,2.68,3.49,5.3,2.17,8.52
				c-1,2.46-3.44,4.59-5.5,6.18c-12.05,9.35-28.51,13.79-42.53,19.24c-15.77,6.13-31.54,12.27-47.31,18.4
				c-3.32,1.29-6.64,2.89-10.09,3.82c-2.76,0.74-1.87,1.31-2.38-1.84c-0.93-5.71-1.2-10.63-5.49-15.01
				c-6.77-6.9-17.38,3.71-10.61,10.61c1.4,1.43,1.21,5.39,1.48,7.23c0.5,3.49,1.48,6.88,3.87,9.59c6.53,7.4,15.69,4.56,23.58,1.49
				c18.8-7.31,37.6-14.63,56.4-21.94c15.98-6.22,36.66-11.68,48.13-25.35c5.97-7.1,7.63-15.92,3.56-24.41
				c-4.14-8.63-10.56-16.56-15.83-24.53c-2.84-4.3-7.94-4.7-11.78-1.52c-7.22,6-2.53,14.62-5.8,21.97c-0.34,0.7-0.72,1.37-1.16,2.01
				c-0.17,0.27,0.06,0.33,0.71,0.18c2.66,6.25,1.41,7.56-3.73,3.91c0.33-1.83,1.23-2.73,2.69-2.68c1.76,0.89,1.93,2.31,0.52,4.26
				c-1.63,0.48-2.42,0.24-2.36-0.72c0.02,0.98-0.23,1.89-0.73,2.74c-1.17,1.67-1.23,1.93-0.16,0.78c1.33,0,2.66,0,3.99,0
				c1.27,1.97,1.92,2.47,1.95,1.5c0.03-0.48,0.06-0.95,0.07-1.43c-7.91-1.66-4.94-2.82-5.1,0.73c-0.1,2.2-1.26,3.72-3.17,4.59
				c1.26-0.34,2.52-0.68,3.79-1.02c0.83,3.84,1.91,4.96,3.25,3.38c0.73-0.72,1.5-1.4,2.31-2.05c-4.27-1.77-8.54-3.54-12.8-5.3
				c1.05,7.88-1.53,14.48-7.76,19.45c4.18,2.43,8.36,4.86,12.54,7.3c1.46-3.48,3.92-6.26,6.71-8.72
				c-3.54-3.54-7.07-7.07-10.61-10.61c-3.14,3.12-6.64,5.02-10.92,6.09c3.16,2.41,6.33,4.82,9.49,7.23
				c0.05-0.44,0.11-0.88,0.16-1.31c-0.34,1.26-0.68,2.52-1.02,3.79c-0.17,0.13-0.35,0.27-0.52,0.4c-2.43-4.18-4.86-8.36-7.3-12.54
				c-3.7,3.91-7.39,7.82-11.09,11.73c-4.06,4.3-1.53,13.52,5.3,12.8c5.33-0.56,10.01-1.82,14.92-3.91
				c7.77-3.32,2.23-16.48-5.78-13.71c-18.92,6.55-37.84,13.11-56.75,19.66c1.93,4.57,3.85,9.14,5.78,13.71
				c14.14-6.08,28.28-12.16,42.42-18.23c-2.52-4.32-5.05-8.63-7.57-12.95c-20.26,9.14-41.27,18.36-63.92,18.02
				c-3.76-0.06-7.9,3.49-7.5,7.5c0.47,4.74,0.94,9.49,1.42,14.23c0.49,4.9,0.92,9.79,5.85,12.2c4.12,2.02,7.94,0.44,11.84-1.26
				c4.48-1.96,8.89-4.1,13.26-6.29c8.74-4.39,17.35-9.06,26.23-13.19c8.45-3.93,17.23-6.84,25.98-10.01
				c17-6.16,34.61-13.86,39.83-32.71c2.23-8.04,4.32-16.99,2.27-25.28c-2.23-9-8.59-14.96-18.1-13.39
				c-10.26,1.69-20.98,4.46-31.29,1.49c-6.76-1.95-14.17-7.31-14.79-14.88c-4.66,1.26-9.32,2.52-13.98,3.79
				c5.99,9.98,12.27,19.78,21.38,27.22c3.53,2.89,8.7,5.99,9.66,10.8c0.9,4.5-1.68,9.22-4.88,12.19
				c-7.99,7.42-20.56,8.12-30.72,9.95c-6.25,1.12-12.2,2.74-18.02,5.3c-5.88,2.59-11.4,5.97-17.44,8.22
				c-5.2,1.93-7.51,8.25-3.31,12.54c3.07,3.14,5.24,7.01,5.72,11.44c0.44,4.03,3.13,7.5,7.5,7.5
				C455.58,515.62,459.8,512.18,459.36,508.12L459.36,508.12z"/>
		</g>
	</g>
	<g>
		<g>
			<path class="st1" d="M439.53,537.5c22.97-8.28,45.76-17.06,68.34-26.38c11.29-4.66,22.53-9.44,33.72-14.35
				c9.85-4.32,20.7-8.1,29.43-14.51c8.62-6.33,13.1-15.07,14.5-25.57c1.4-10.47,1.99-22.48-3.65-31.87
				c-4.86-8.1-13.28-17.36-22.31-20.68c-10.03-3.69-18.89,0.87-28.05,4.62c-7.57,3.1-12.97,2.57-19.45-2.4
				c-6.41-4.93-11.79-11.18-18.91-15.17c-7.89-4.43-18.96-6.59-25.79,0.87c-7.54,8.23-3.54,19.55,2.46,27.21
				c6.53,8.33,14.79,14.93,22.47,22.13c1.81,1.7,3.59,3.43,5.3,5.23c1.21,1.28,3.96,3.48,4.36,5.2c0.84,3.68-5.5,5.32-8.36,6.27
				c-1.34,0.44-4.26,1.75-5.79,1.28c-1.41-0.43-1.68-2.02-2.25-3.28c-2.18-4.84-4.42-9.32-7.65-13.57
				c-6.24-8.19-14.37-14.49-23.96-18.29c-10-3.96-25.14-6.12-35.13-0.91c-5.85,3.05-7.69,10.25-4.74,16.02
				c2.47,4.84,7.37,6.93,11.89,9.4c11.03,6.03,19.87,13.93,29.54,21.78c9.14,7.41,21.29,10.76,30.96,2.27
				c5.4-4.74-0.32-15.38-7.3-12.54c-8.44,3.44-16.89,6.88-25.33,10.31c-4.05,1.65-8.1,3.58-12.27,4.91
				c-3.41,1.09-4.96,0.67-7.71-1.56c-6-4.87-11.43-10.77-15.99-17c-2.16-2.95-4.82-6.31-5.98-9.81c-0.44-1.33-1.04-4.58,0.58-3.99
				c9.06,3.36,12.98-11.13,3.99-14.46c-11.96-4.43-21.59,8.35-19.74,19.31c1.86,11.09,11.36,21.57,18.91,29.39
				c8.34,8.64,17.19,16.69,29.93,12.58c12.76-4.12,25.17-10.17,37.59-15.23c-2.43-4.18-4.86-8.36-7.3-12.54
				c-5.3,4.65-15.35-7.29-18.68-10.09c-7.34-6.17-15.23-11.7-23.64-16.3c-1.61-0.88-3.68-2.48-5.47-2.91
				c-0.11-0.07-0.22-0.14-0.33-0.21c-1.39-1.05-1.95,0.25-1.67,3.91c0.13,0.1,3.4-0.7,3.27-0.68c4.13-0.62,8.54-0.47,12.62,0.37
				c8.48,1.74,15.87,6.09,21.7,12.45c2.66,2.91,4.81,6.19,6.59,9.7c2.06,4.05,3.2,8.55,6.67,11.74c6.88,6.33,16.53,4.12,24.34,1.04
				c8.32-3.28,16.6-9.35,16.07-19.35c-0.47-8.85-9.01-16.04-15.02-21.63c-6.66-6.19-13.78-11.95-19.7-18.9
				c-1.34-1.57-5.74-6.3-4.31-8.7c0.95-1.6,4.83,0.26,6.25,0.94c12.16,5.85,19.12,19.26,33.18,21.93c8.7,1.65,16.29-1.61,24.11-4.99
				c3.08-1.33,6.55-2.99,9.98-2.83c4.04,0.19,7.09,3.21,9.75,5.95c2.78,2.87,5.96,5.93,7.81,9.5c2.31,4.45,2.1,9.59,1.91,14.47
				c-0.31,8.18-1.3,16.52-8.15,21.93c-8.01,6.34-18.98,9.83-28.23,13.9c-10.88,4.78-21.81,9.44-32.8,13.96
				c-21.99,9.05-44.18,17.58-66.55,25.65C426.53,526.28,430.41,540.78,439.53,537.5L439.53,537.5z"/>
		</g>
	</g>
	<g>
		<g>
			<path class="st1" d="M441.68,417.13c0.89,1.53,1.78,3.05,2.67,4.58c0.48-0.47,1.01-0.87,1.59-1.19c0.94-0.35,1.81-1.06,2.76-1.45
				c2.4-0.98,4.96-1.42,7.53-1.47c5.71-0.11,11.11,1.62,16.36,3.7c3.79,1.5,8.2-1.65,9.23-5.24c1.22-4.25-1.49-7.74-5.24-9.23
				c-11.57-4.58-24.58-6.21-36.08-0.48c-4.72,2.36-9.61,6.31-10.85,11.7c-1.4,6.13,2.21,11.72,8.03,13.53
				C446.93,434.47,450.88,420,441.68,417.13L441.68,417.13z"/>
		</g>
	</g>
	<g>
		<g>
			<path class="st1" d="M401.34,439.1c-11.82-3.12-22.98-7.87-35.39-8.14c-11.38-0.25-22.83,2.64-32.86,7.98
				c-19.73,10.5-32.85,31.73-34.12,53.95c-0.69,12.1,5.24,21.03,16.87,24.56c5.08,1.54,10.42,2.24,15.56,3.59
				c6.24,1.63,12.38,3.61,18.5,5.65c22.4,7.49,47.66,17.6,71.68,12.31c13.03-2.87,21.9-13.68,19.15-27.16
				c-3.12-15.32-8.25-30.48-12.37-45.56c-2.54-9.3-17.01-5.35-14.46,3.99c2.98,10.91,5.96,21.82,8.94,32.73
				c1.15,4.23,4.03,10.18,3.59,14.59c-0.37,3.68-3.93,5.59-7.15,6.54c-8.89,2.61-19.65,1.02-28.55-0.82
				c-9.69-2-19.12-5.1-28.48-8.26c-9.44-3.19-18.87-6.49-28.55-8.91c-5.74-1.44-18.45-1.36-19.72-8.76
				c-1.38-8.02,2.29-18.02,6.06-24.91c4.11-7.52,9.91-14.02,17.19-18.58c8.37-5.24,18.05-8,27.93-7.93
				c11.23,0.08,21.5,4.79,32.2,7.61C406.69,456.03,410.68,441.56,401.34,439.1L401.34,439.1z"/>
		</g>
	</g>
	<g>
		<g>
			<path class="st1" d="M429.68,538.73c36.47-11.84,73.1-23.92,107.31-41.46c14.8-7.59,32.44-15.69,40.12-31.42
				c6.97-14.27,6.72-31.39-1.59-45.05c-5.01-8.24-17.99-0.71-12.95,7.57c6.44,10.59,6.08,24.58-1.22,34.72
				c-4.36,6.06-11.18,9.74-17.52,13.39c-7.37,4.24-14.91,8.19-22.57,11.89c-30.7,14.81-63.21,25.39-95.57,35.9
				C416.55,527.23,420.47,541.72,429.68,538.73L429.68,538.73z"/>
		</g>
	</g>
	<g>
		<g>
			<path class="st1" d="M296.98,505.28c-3.69,9.9-1.77,21.32,4.75,29.59c7.03,8.92,18.93,12.69,29.3,16.21
				c22.56,7.67,46.6,11.42,70.42,11.2c49.54-0.46,95.47-20.33,138.53-43.24c21.93-11.67,44.36-30.67,42.87-57.98
				c-0.52-9.6-15.53-9.66-15,0c1.1,20.22-15.63,33.98-31.66,42.97c-18.46,10.35-38.03,19.6-57.74,27.3
				c-39.93,15.61-82.54,20.58-124.56,10.7c-11.05-2.6-22.65-5.77-32.84-10.88c-8.73-4.38-13.16-12.32-9.6-21.88
				C314.82,500.21,300.33,496.3,296.98,505.28L296.98,505.28z"/>
		</g>
	</g>
</g>
<g>
	<g>
		<path class="st0" d="M477.33,404.8c0.46,2.58,3.04,4.61,4.97,6.16c2.26,1.8,4.61,3.48,6.92,5.21c2.58,1.92,5.08-2.41,2.52-4.32
			c-1.74-1.29-3.49-2.57-5.21-3.88c-1.33-1.02-4.08-2.74-4.39-4.49C481.58,400.31,476.76,401.65,477.33,404.8L477.33,404.8z"/>
	</g>
</g>
<g>
	<g>
		<path class="st0" d="M545.38,427.25c1.78-1.4,4.13-3.22,6.32-3.96c3.73-1.27,5.32,1.7,6.67,4.7c2.12,4.72,4.68,11.45,1.03,16.05
			c-1.98,2.49,1.54,6.06,3.54,3.54c5.6-7.06,2.96-17.06-1.32-24.26c-1.61-2.72-4.51-5.88-7.95-5.92c-4.03-0.05-8.8,3.95-11.82,6.32
			C539.32,425.7,542.88,429.22,545.38,427.25L545.38,427.25z"/>
	</g>
</g>
<g>
	<g>
		<path class="st2" d="M417.64,455.5c1.17,4.46,4.34,7.6,7.59,10.69c3.08,2.93,6.15,6.31,10.69,6.33c3.22,0.01,3.22-4.99,0-5
			c-3.07-0.01-5.85-3.6-7.91-5.59c-2.34-2.26-4.7-4.52-5.55-7.76C421.65,451.06,416.82,452.38,417.64,455.5L417.64,455.5z"/>
	</g>
</g>
</svg>
